<?xml version="1.0" encoding="utf-8"?>
<!-- Generator: Adobe Illustrator 16.0.0, SVG Export Plug-In . SVG Version: 6.00 Build 0)  -->
<!DOCTYPE svg PUBLIC "-//W3C//DTD SVG 1.1//EN" "http://www.w3.org/Graphics/SVG/1.1/DTD/svg11.dtd">
<svg version="1.1" id="Layer_1" xmlns="http://www.w3.org/2000/svg" xmlns:xlink="http://www.w3.org/1999/xlink" x="0px" y="0px"
	 width="160px" height="45px" viewBox="0 0 160 45" enable-background="new 0 0 160 45" xml:space="preserve">
<rect y="-61" opacity="0.75" width="160" height="45"/>
<rect x="36.5" y="-58.5" fill="#FDC010" width="5" height="40"/>
<text transform="matrix(1 0 0 1 13.2734 -40.896)" fill="#FDC010" font-family="'BMDoHyeon'" font-size="18">01</text>
<text transform="matrix(1 0 0 1 45.6675 -35.5254)" fill="#FFFFFF" font-family="'BMDoHyeon'" font-size="14">모든 것의 시작</text>
<rect x="172.25" y="-61" opacity="0.75" width="160" height="45"/>
<rect x="208.75" y="-58.5" fill="#FDC010" width="5" height="40"/>
<text transform="matrix(1 0 0 1 182.2119 -40.896)" fill="#FDC010" font-family="'BMDoHyeon'" font-size="18">02</text>
<text transform="matrix(1 0 0 1 217.918 -43.8765)"><tspan x="0" y="0" fill="#FFFFFF" font-family="'BMDoHyeon'" font-size="14">스승이자 친구</tspan><tspan x="0" y="16.8" fill="#FFFFFF" font-family="'BMDoHyeon'" font-size="14">릴리아</tspan></text>
<rect opacity="0.75" width="160" height="45"/>
<rect x="36.5" y="2.5" fill="#FDC010" width="5" height="40"/>
<text transform="matrix(1 0 0 1 9.5835 20.1035)" fill="#FDC010" font-family="'BMDoHyeon'" font-size="18">03</text>
<text transform="matrix(1 0 0 1 45.6675 25.5234)" fill="#FFFFFF" font-family="'BMDoHyeon'" font-size="14">각성하는 민정우</text>
<rect x="173.75" opacity="0.75" width="160" height="45"/>
<rect x="210.25" y="2.5" fill="#FDC010" width="5" height="40"/>
<text transform="matrix(1 0 0 1 182.0557 20.1035)" fill="#FDC010" font-family="'BMDoHyeon'" font-size="18">04</text>
<text transform="matrix(1 0 0 1 219.418 25.5234)" fill="#FFFFFF" font-family="'BMDoHyeon'" font-size="14">새로운 슈트 장착</text>
<rect y="65" opacity="0.75" width="160" height="45"/>
<rect x="36.5" y="67.5" fill="#FDC010" width="5" height="40"/>
<text transform="matrix(1 0 0 1 9.0796 85.1035)" fill="#FDC010" font-family="'BMDoHyeon'" font-size="18">05</text>
<text transform="matrix(1 0 0 1 45.6675 82.123)"><tspan x="0" y="0" fill="#FFFFFF" font-family="'BMDoHyeon'" font-size="14">재난준비위원회</tspan><tspan x="0" y="16.801" fill="#FFFFFF" font-family="'BMDoHyeon'" font-size="14">테러리스트</tspan></text>
<rect x="173.75" y="65" opacity="0.75" width="160" height="45"/>
<rect x="210.25" y="67.5" fill="#FDC010" width="5" height="40"/>
<text transform="matrix(1 0 0 1 182.1641 85.1035)" fill="#FDC010" font-family="'BMDoHyeon'" font-size="18">06</text>
<text transform="matrix(1 0 0 1 219.418 82.123)"><tspan x="0" y="0" fill="#FFFFFF" font-family="'BMDoHyeon'" font-size="14">‘드디어 찾았군</tspan><tspan x="0" y="16.801" fill="#FFFFFF" font-family="'BMDoHyeon'" font-size="14">우리가 죽을 자리’</tspan></text>
</svg>
