<?xml version="1.0" encoding="utf-8"?>
<!-- Generator: Adobe Illustrator 16.0.0, SVG Export Plug-In . SVG Version: 6.00 Build 0)  -->
<!DOCTYPE svg PUBLIC "-//W3C//DTD SVG 1.1//EN" "http://www.w3.org/Graphics/SVG/1.1/DTD/svg11.dtd">
<svg version="1.1" id="Layer_1" xmlns="http://www.w3.org/2000/svg" xmlns:xlink="http://www.w3.org/1999/xlink" x="0px" y="0px"
	 width="160px" height="45px" viewBox="0 0 160 45" enable-background="new 0 0 160 45" xml:space="preserve">
<rect x="-173.75" y="-126" opacity="0.75" width="160" height="45"/>
<rect x="-137.25" y="-123.5" fill="#FDC010" width="5" height="40"/>
<text transform="matrix(1 0 0 1 -160.4766 -105.896)" fill="#FDC010" font-family="'BMDoHyeon'" font-size="18">01</text>
<text transform="matrix(1 0 0 1 -128.0825 -100.5254)" fill="#FFFFFF" font-family="'BMDoHyeon'" font-size="14">모든 것의 시작</text>
<rect x="-1.5" y="-126" opacity="0.75" width="160" height="45"/>
<rect x="35" y="-123.5" fill="#FDC010" width="5" height="40"/>
<text transform="matrix(1 0 0 1 8.4619 -105.896)" fill="#FDC010" font-family="'BMDoHyeon'" font-size="18">02</text>
<text transform="matrix(1 0 0 1 44.168 -108.8765)"><tspan x="0" y="0" fill="#FFFFFF" font-family="'BMDoHyeon'" font-size="14">스승이자 친구</tspan><tspan x="0" y="16.8" fill="#FFFFFF" font-family="'BMDoHyeon'" font-size="14">릴리아</tspan></text>
<rect x="-173.75" y="-65" opacity="0.75" width="160" height="45"/>
<rect x="-137.25" y="-62.5" fill="#FDC010" width="5" height="40"/>
<text transform="matrix(1 0 0 1 -164.1665 -44.8965)" fill="#FDC010" font-family="'BMDoHyeon'" font-size="18">03</text>
<text transform="matrix(1 0 0 1 -128.0825 -39.4766)" fill="#FFFFFF" font-family="'BMDoHyeon'" font-size="14">각성하는 민정우</text>
<rect y="-65" opacity="0.75" width="160" height="45"/>
<rect x="36.5" y="-62.5" fill="#FDC010" width="5" height="40"/>
<text transform="matrix(1 0 0 1 8.3057 -44.8965)" fill="#FDC010" font-family="'BMDoHyeon'" font-size="18">04</text>
<text transform="matrix(1 0 0 1 45.668 -39.4766)" fill="#FFFFFF" font-family="'BMDoHyeon'" font-size="14">새로운 슈트 장착</text>
<rect x="-173.75" opacity="0.75" width="160" height="45"/>
<rect x="-137.25" y="2.5" fill="#FDC010" width="5" height="40"/>
<text transform="matrix(1 0 0 1 -164.6704 20.1035)" fill="#FDC010" font-family="'BMDoHyeon'" font-size="18">05</text>
<text transform="matrix(1 0 0 1 -128.0825 17.123)"><tspan x="0" y="0" fill="#FFFFFF" font-family="'BMDoHyeon'" font-size="14">재난준비위원회</tspan><tspan x="0" y="16.801" fill="#FFFFFF" font-family="'BMDoHyeon'" font-size="14">테러리스트</tspan></text>
<rect opacity="0.75" width="160" height="45"/>
<rect x="36.5" y="2.5" fill="#FDC010" width="5" height="40"/>
<text transform="matrix(1 0 0 1 8.4141 20.1035)" fill="#FDC010" font-family="'BMDoHyeon'" font-size="18">06</text>
<text transform="matrix(1 0 0 1 45.668 17.123)"><tspan x="0" y="0" fill="#FFFFFF" font-family="'BMDoHyeon'" font-size="14">‘드디어 찾았군</tspan><tspan x="0" y="16.801" fill="#FFFFFF" font-family="'BMDoHyeon'" font-size="14">우리가 죽을 자리’</tspan></text>
</svg>
