<?xml version="1.0" encoding="utf-8"?>
<!-- Generator: Adobe Illustrator 16.0.0, SVG Export Plug-In . SVG Version: 6.00 Build 0)  -->
<!DOCTYPE svg PUBLIC "-//W3C//DTD SVG 1.1//EN" "http://www.w3.org/Graphics/SVG/1.1/DTD/svg11.dtd">
<svg version="1.1"
	 id="svg1707" xmlns:rdf="http://www.w3.org/1999/02/22-rdf-syntax-ns#" xmlns:dc="http://purl.org/dc/elements/1.1/" xmlns:cc="http://creativecommons.org/ns#"
	 xmlns="http://www.w3.org/2000/svg" xmlns:xlink="http://www.w3.org/1999/xlink" x="0px" y="0px" width="600px" height="600px"
	 viewBox="150 0 600 600" enable-background="new 150 0 600 600" xml:space="preserve">
<g>
	<defs>
		<circle id="SVGID_1_" cx="450" cy="300" r="300"/>
	</defs>
	<clipPath id="SVGID_2_">
		<use xlink:href="#SVGID_1_"  overflow="visible"/>
	</clipPath>
	<g id="g13237" transform="translate(-2.7257 -5.6087)" clip-path="url(#SVGID_2_)">
		<path id="_x32_1399192" fill="#006233" d="M902.726,605.612V5.597l-900,0.009V605.62h900V605.612z"/>
		<g id="g13004" transform="matrix(1.1437 0 0 1.1446 -.39167 -145.67)">
			<g id="g9244" transform="matrix(1.7598 0 0 1.6 -2175.2 -3398.1)">
				<path id="path3159" fill="#FFFFFF" stroke="#FFFFFF" stroke-width="0.4008" d="M1423.938,2376.106
					c-5.821,8.744-1.618,14.431,4.383,14.835c3.956,0.292,12.183-5.597,12.16-12.52l-2.247-1.259
					c1.259,3.551-0.045,4.676-2.72,7.103C1430.232,2389.053,1419.443,2389.39,1423.938,2376.106z"/>
				<path id="path3115" fill="#FFFFFF" stroke="#FFFFFF" d="M1470.085,2399.033c32.773,0.922,43.202-30.794,22.973-57.947l-2,2.989
					c1.303,12.655,3.192,25.13,3.371,38.099c-3.956,4.653-9.71,2.922-10.856-2.248c0.068-7.013-2.225-12.947-5.125-18.611
					l-1.619,2.989c1.888,4.653,3.933,9.89,4.36,15.622c-9.35,11.216-19.69,13.487-15.846-1.259
					c-7.396,12.924,3.799,22.028,16.476,2.135c2.719,13.576,13.239,5.147,13.869,2.225c1.146-8.901,0.562-23.241-1.754-34.57
					c9.126,15.802,9.441,27.198,4.586,34.818C1493.124,2391.75,1481.391,2395.706,1470.085,2399.033L1470.085,2399.033z"/>
				<path id="path3117" fill="#FFFFFF" stroke="#FFFFFF" d="M1488.674,2363.181c-7.013,0.517-10.609-0.922-6.811-6.114
					c3.754-5.08,7.261-1.034,8.204,5.754c0.877,6.361-12.317,14.475-16.881,14.475c-6.901,0-10.092-8.878-3.731-16.858
					C1461.274,2383.726,1487.123,2370.217,1488.674,2363.181z M1483.819,2357.787c-0.854-0.045-1.484,1.461-1.057,1.753
					c1.236,0.854,3.192,0.337,3.394-0.09C1486.583,2358.506,1485.01,2357.832,1483.819,2357.787L1483.819,2357.787z"/>
				<path id="path3140" fill="#FFFFFF" stroke="#FFFFFF" d="M1450.597,2374.173c-6.743,13.262-0.022,18.746,8.631,17.218
					c5.035-0.921,11.419-4.496,15.105-9.373c0.068-10.744-0.09-21.399-1.034-31.805c3.372-4.023-0.292-4.001-1.573-8.316
					c-0.584,2.517-2,5.237-0.629,7.192c0.966,10.497,1.506,21.129,1.484,31.963c-6.789,5.462-11.891,7.485-15.532,7.44
					C1449.518,2388.424,1447.9,2382.085,1450.597,2374.173L1450.597,2374.173z"/>
				<path id="path3150" fill="#FFFFFF" stroke="#FFFFFF" d="M1464.376,2377.679c-0.113-10.002-0.27-21.354-1.169-28.344
					c3.507-3.889-0.18-3.979-1.326-8.339c-0.674,2.473-2.158,5.17-0.854,7.17c0.585,10.699,1.146,21.399,1.259,32.098
					C1463.094,2379.747,1464.016,2379.545,1464.376,2377.679L1464.376,2377.679z"/>
				<path id="path3152" fill="#FFFFFF" stroke="#FFFFFF" stroke-width="0.4008" d="M1438.212,2377.207
					c-0.854-1.079-1.461-2.293-2.158-3.349c-0.112-1.506,0.899-2.9,1.034-3.664c1.147,1.776,1.821,3.124,2.742,4.001
					 M1441.044,2374.892c1.686,0.675,3.754,0.675,5.665,0.719c7.372,0.135,15.127-1.079,14.296,8.901
					c-0.72,8.856-8.069,13.981-14.656,13.914c-9.373-0.09-17.375-10.43-2.922-29.468c1.394-0.225,3.214,0.157,4.72,0.292
					c2.585,0.202,5.237-0.045,8.272-2.473c-0.359-6.271-0.359-12.205-1.124-17.869c-1.304-2,0.18-4.676,0.854-7.171
					c1.147,4.361,4.81,4.451,1.327,8.362c0.832,6.294,0.921,12.7,0.921,16.521c-1.753,2.675-3.124,5.507-8.249,6.586
					c-5.237-0.764-7.598-8.092-13.06-5.665c1.506-6.608,15.375-8.114,16.768-2.899c-0.921,5.44-13.869,3.259-17.308,20.836
					c-1.056,5.417,4.653,10.407,10.52,10.003c5.732-0.382,11.846-4.361,12.452-11.059c0.472-5.597-7.417-4.945-10.722-4.877
					c-4.81,0.112-7.845-0.63-9.665-1.686 M1444.056,2365.744c0.854-0.809,3.844-1.371,4.923-0.067
					c-0.809,0.54-1.596,1.124-2.248,1.821C1445.607,2366.913,1444.865,2366.328,1444.056,2365.744z"/>
				<path id="path3161" fill="#FFFFFF" stroke="#FFFFFF" d="M1451.383,2347.155c0.809,1.798,1.146,2.989,1.192,4.72
					c-0.495,2.338-2.495,4.518-4.563,4.585c-1.281,0.045-2.72-0.315-3.731-2.315c-0.112-0.247-0.652-0.831-1.169-0.562
					c-2.27,3.731-3.956,5.305-6.001,5.282c-4.091-0.067-2.877-3.709-6.653-4.832c-1.573-0.045-4.158,1.551-5.484,4.675
					c-5.036,14.273-9.621-0.045-7.665-6.698c0.293,6.361,1.821,10.137,3.395,10.025c1.146-0.113,2.158-2.765,3.619-5.552
					c1.124-2.135,3.821-5.979,6.676-5.979c2.607,0.067,0.967,4.855,6.181,4.787c2.518-0.045,4.833-1.978,7.17-5.844
					c0.517-0.09,0.652,0.831,0.764,1.146c0.36,1.326,2.653,4.968,5.755,1.641c-0.157-0.719-0.09-1.911-0.877-2.158
					L1451.383,2347.155z"/>
				<path id="path3163" fill="#FFFFFF" stroke="#FFFFFF" stroke-width="0.4008" d="M1467.77,2335.332
					c-2.765,1.371-4.787,0.112-5.934-1.101c2-0.405,3.551-1.124,4.001-2.698c-0.899-2.023-3.034-2.899-6.047-2.922
					c-4.023,0.113-6.091,1.731-6.339,3.956c1.866,0.068,3.552-0.45,4.271,1.348c-3.304,1.618-7.193,2.203-11.418,2.181
					c-6.923,0.36-7.935-2.765-9.756-5.507c-0.135-0.18-0.741-0.472-1.056-0.427c-2.135,0-3.709,7.463-6.114,7.44
					c-2.405-0.315-1.866-4.81-2.562-7.373c-0.584,4.024,0.742,18.994,8.182,2.743c0.225-0.54,0.54-0.383,0.742,0.068
					c2.001,4.54,6.069,6.114,10.452,6.338c3.664,0.203,8.339-1.393,13.352-4.225c1.326,1.461,2.382,3.124,5.17,3.439
					c3.259,0.157,6.743-2.203,7.53-5.125c0.405-1.506,0.472-4.473-1.124-4.518c-2.226-0.068-3.844,5.327-3.327,10.182
					c0.045-0.068,0.293-1.214,0.293-1.214 M1458.239,2331.443c1.461-0.675,2.877-0.989,4.001,0.494
					c-0.877,0.315-1.416,0.517-1.888,0.899C1459.723,2332.342,1458.869,2332.095,1458.239,2331.443z M1468.984,2334.792
					c0.36-1.596,0.562-2.877,1.866-3.709C1471.119,2332.77,1471.164,2333.713,1468.984,2334.792z"/>
				<path id="path3169" fill="#FFFFFF" stroke="#FFFFFF" stroke-width="0.4008" d="M1477.75,2337.265
					c-0.427-1.371-0.854-2.562-0.989-4.046c-0.314-3.012,2.27-4.72,4.608-4.473c2.405,0.247,4.001,1.146,6.294,1.933
					c1.798,0.607,4.226,1.079,6.541,1.731c1.304,0.584,0,2.113-0.337,2.315c-5.799,2.27-9.912,5.867-13.599,6.024
					c-2.203,0.112-4.158-1.326-5.934-4.271c-0.113-5.709-0.314-12.408-0.877-16.611c0.854-0.854,1.034-1.484,1.439-2.181
					c0.45,5.552,0.629,11.396,0.742,17.286C1476.109,2335.983,1476.693,2336.838,1477.75,2337.265z M1481.458,2337.714
					c-3.102,0.877-2.719-1.753-3.012-3.372c-0.337-1.888-0.113-4.023,2.293-3.484c3.124,0.831,5.979,1.933,8.744,3.102
					L1481.458,2337.714z"/>
				<path id="path3173" fill="#FFFFFF" stroke="#FFFFFF" stroke-width="0.4008" d="M1478.424,2340.501l0.427,2.09h0.337
					l-0.135-1.955"/>
				<path id="path5196" fill="#FFFFFF" stroke="#FFFFFF" stroke-width="4.008" stroke-linecap="round" stroke-linejoin="round" d="
					M1428.951,2362.35l1.573-1.618l1.821,1.551l-1.686,1.506L1428.951,2362.35z"/>
				<path id="path6168" fill="#FFFFFF" stroke="#FFFFFF" stroke-width="4.008" stroke-linecap="round" stroke-linejoin="round" d="
					M1432.952,2361.81l1.596-1.618l1.821,1.551l-1.686,1.506L1432.952,2361.81z"/>
				<path id="path6170" fill="#FFFFFF" stroke="#FFFFFF" stroke-width="4.008" stroke-linecap="round" stroke-linejoin="round" d="
					M1421.826,2345.042l1.596-1.618l1.821,1.551l-1.686,1.506L1421.826,2345.042z"/>
				<path id="path6172" fill="#FFFFFF" stroke="#FFFFFF" stroke-width="4.008" stroke-linecap="round" stroke-linejoin="round" d="
					M1422.545,2349.807l1.596-1.618l1.798,1.551l-1.686,1.506L1422.545,2349.807z"/>
				<path id="path6174" fill="#FFFFFF" stroke="#FFFFFF" stroke-width="4.008" stroke-linecap="round" stroke-linejoin="round" d="
					M1451.428,2357.787l1.461-1.191l1.349,1.461l-1.528,1.079L1451.428,2357.787z"/>
				<path id="path6176" fill="#FFFFFF" stroke="#FFFFFF" stroke-width="4.008" stroke-linecap="round" stroke-linejoin="round" d="
					M1432.143,2327.284l1.034-1.056l1.192,1.012l-1.101,0.989L1432.143,2327.284z"/>
				<path id="path6178" fill="#FFFFFF" stroke="#FFFFFF" stroke-width="4.008" stroke-linecap="round" stroke-linejoin="round" d="
					M1434.773,2326.948l1.034-1.079l1.191,1.034l-1.101,0.966L1434.773,2326.948z"/>
				<path id="path6180" fill="#FFFFFF" stroke="#FFFFFF" stroke-width="4.008" stroke-linecap="round" stroke-linejoin="round" d="
					M1489.978,2339.018l-0.989,0.832l-0.944-0.967l1.034-0.764L1489.978,2339.018z"/>
				<path id="path9240" fill="#FFFFFF" stroke="#FFFFFF" stroke-width="0.4008" d="M1443.449,2368.845l-0.112,1.776l2.832,0.27
					l2.27-1.708L1443.449,2368.845z"/>
				<path id="path9242" fill="#FFFFFF" stroke="#FFFFFF" d="M1467.387,2335.669l0.832-0.18l-0.09,2.315l-0.517,0.202
					L1467.387,2335.669z"/>
			</g>
			<path id="path2722" fill="#FFFFFF" d="M396.191,488.091c56.153,0,101.841-41.538,101.841-92.585
				c0-28.088-13.783-53.15-35.479-70.091c13.017,13.924,20.929,32.257,20.929,52.214c0,44.333-39.052,80.296-87.291,80.296
				c-48.242,0-87.294-35.964-87.294-80.296c0-19.958,7.912-38.291,20.929-52.215c-21.696,16.941-35.479,42.003-35.479,70.091
				C294.347,446.552,340.037,488.091,396.191,488.091L396.191,488.091z"/>
			<g id="g2908" transform="matrix(1.1355 0 0 1.0324 2.7256 -21.429)">
				<path id="path2910" fill="#FFFFFF" stroke="#000000" stroke-width="8.012" d="M334.374,543.421
					c-19.78,9.891-44.505,7.193-65.409-6.293c-0.899-0.45-1.348,0.225-0.45,2.697c2.248,6.518,4.046,11.688-2.697,21.353
					c-2.922,4.271,0.45,4.945,5.395,4.496c25.175-2.473,49.9-8.091,61.813-12.812L334.374,543.421z"/>
				<path id="path2912" fill="#FFFFFF" stroke="#000000" stroke-width="8.012" d="M333.925,555.109
					c-7.867,3.147-21.353,6.968-36.413,9.665c-6.068,0.899-5.844,4.72,4.945,6.069c11.014,1.124,25.175-6.744,33.717-13.711
					L333.925,555.109z"/>
				<path id="path2914" fill="#FFFFFF" stroke="#000000" stroke-width="8.012" d="M346.513,533.531
					c2.697,0,7.642-1.124,12.587-1.798c9.215-1.573,2.472,12.587-12.587,12.587v4.721c15.285,0,31.244-16.633,27.872-24.051
					c-4.72-10.789-17.757-1.574-27.872-1.574s-23.152-9.215-27.873,1.574c-3.371,7.418,12.587,24.051,27.873,24.051v-4.721
					c-15.06,0-21.803-14.161-12.588-12.587C338.871,532.407,343.815,533.531,346.513,533.531z"/>
				<path id="path2916" fill="#FFFFFF" stroke="#000000" stroke-width="8.012" d="M358.65,543.421
					c19.781,9.891,44.505,7.193,65.409-6.293c0.899-0.45,1.349,0.225,0.45,2.697c-2.248,6.518-4.046,11.688,2.697,21.353
					c2.922,4.271-0.45,4.945-5.395,4.496c-25.174-2.473-49.9-8.091-61.813-12.812L358.65,543.421z"/>
				<path id="path2918" fill="#FFFFFF" stroke="#000000" stroke-width="8.012" d="M359.1,555.109
					c7.867,3.147,21.129,6.968,36.413,9.665c6.069,0.899,5.844,4.72-4.945,6.069c-11.014,1.124-25.174-6.744-33.716-13.711
					L359.1,555.109z"/>
				<path id="path2920" fill="#FFFFFF" stroke="#000000" stroke-width="8.012" d="M347.187,552.862
					c0.45,3.821,1.124,12.138,6.294,8.541c6.968-4.72,8.542-8.316,8.542-15.06c0-4.271-5.17-10.564-15.509-10.564
					s-15.509,6.293-15.509,10.564c0,6.744,1.573,10.34,8.541,15.06c5.17,3.597,5.619-4.72,6.294-8.541
					C346.063,551.513,347.187,551.963,347.187,552.862z"/>
			</g>
			<g id="g2724" transform="matrix(1.1355 0 0 1.0324 2.7256 -21.429)">
				<path id="path2726" fill="#FFFFFF" stroke="#000000" stroke-width="8.012" d="M339.994,264.925
					c-2.922-16.633-27.422-17.757-31.244-20.455c-4.495-2.922-3.822,0-2.248,4.496c4.495,11.688,19.78,16.408,26.748,17.757
					C338.871,267.622,340.668,268.072,339.994,264.925z"/>
				<path id="path2728" fill="#FFFFFF" stroke="#000000" stroke-width="8.012" d="M347.411,265.374
					c2.472-17.083-21.803-25.175-24.725-28.996c-3.372-4.046-3.822-1.573-2.248,3.147c2.921,10.115,13.486,22.027,19.78,25.174
					C345.389,267.397,346.962,268.521,347.411,265.374z"/>
				<path id="path2730" fill="#FFFFFF" stroke="#000000" stroke-width="8.012" d="M367.417,275.265
					c2.248-20.455-17.533-23.602-22.703-30.12c-3.371-4.046-3.596-1.798-2.473,2.922c2.248,10.34,12.138,22.478,18.207,26.299
					C365.169,277.288,367.192,278.411,367.417,275.265z"/>
				<path id="path2732" fill="#FFFFFF" stroke="#000000" stroke-width="8.012" d="M361.348,270.769
					c-20.454-13.261-34.84-5.844-40.685-6.519c-5.619-0.674-7.417,2.922,2.248,8.317c11.913,6.518,28.546,5.619,35.064,3.147
					C364.719,273.017,362.697,271.668,361.348,270.769z"/>
				<path id="path2734" fill="#FFFFFF" stroke="#000000" stroke-width="8.012" d="M392.142,279.76
					c-6.293-22.027-20.904-18.432-25.174-21.128c-4.27-2.697-4.72-2.023-3.822,2.921c1.799,8.767,16.858,18.432,24.276,21.354
					C390.119,283.806,393.491,285.154,392.142,279.76z"/>
				<path id="path2736" fill="#FFFFFF" stroke="#000000" stroke-width="8.012" d="M389.22,283.581
					c-17.533-14.161-31.244-3.597-36.639-5.17c-4.046-1.123-2.248,1.574-0.674,2.697c11.238,7.867,25.174,12.138,35.964,7.193
					C392.142,286.503,392.366,286.054,389.22,283.581z"/>
				<path id="path2738" fill="#FFFFFF" stroke="#000000" stroke-width="8.012" d="M427.207,297.966
					c0.225-13.936-28.546-19.78-34.615-28.321c-3.596-5.17-6.743-2.473-4.945,5.844c2.697,10.789,22.478,22.702,33.267,24.949
					C427.432,301.788,427.207,299.54,427.207,297.966z"/>
				<path id="path2740" fill="#FFFFFF" stroke="#000000" stroke-width="8.012" d="M426.307,300.439
					c-18.207-16.408-33.491-11.014-39.111-12.587c-5.619-1.349-7.867,2.023,0.899,8.767c10.789,8.091,27.423,9.665,34.391,8.091
					C429.454,303.136,427.656,301.563,426.307,300.439z"/>
				<path id="path2742" fill="#FFFFFF" stroke="#000000" stroke-width="8.012" d="M458.9,324.49
					c-5.17-23.826-21.579-28.771-25.624-33.267c-3.822-4.496-7.867-3.147-4.495,7.642c4.046,12.813,17.307,24.051,24.275,26.749
					C459.799,328.536,459.35,326.288,458.9,324.49z"/>
				<path id="path2744" fill="#FFFFFF" stroke="#000000" stroke-width="8.012" d="M458.675,327.637
					c-13.262-21.354-30.569-20.679-35.964-23.602c-5.17-3.147-8.766-0.45-1.798,8.767c8.091,11.238,24.725,17.532,32.367,17.982
					C460.923,331.234,459.575,329.211,458.675,327.637z"/>
				<path id="path2746" fill="#FFFFFF" stroke="#000000" stroke-width="8.012" d="M475.758,353.037
					c7.642-24.276-9.89-33.267-11.689-37.313c-2.023-4.046-4.046-4.046-5.17,0.225c-4.945,17.308,11.014,34.166,13.487,37.537
					C474.859,356.633,475.309,355.059,475.758,353.037z"/>
				<path id="path2748" fill="#FFFFFF" stroke="#000000" stroke-width="8.012" d="M472.162,359.78
					c-6.069-27.197-22.028-25.624-25.624-29.445c-3.822-3.821-4.271-1.124-3.597,3.821c1.799,13.262,17.757,22.252,24.95,26.748
					C470.139,362.252,472.836,363.826,472.162,359.78z"/>
				<path id="path2750" fill="#FFFFFF" stroke="#000000" stroke-width="8.012" d="M487.446,391.698
					c11.014-25.625-2.023-42.932-6.068-46.754c-4.046-3.597-6.519-5.17-5.17,0c1.798,7.867-4.496,28.097,5.17,42.932
					C484.524,392.822,484.974,397.542,487.446,391.698z"/>
				<path id="path2752" fill="#FFFFFF" stroke="#000000" stroke-width="8.012" d="M481.603,396.868
					c2.472-15.734-6.519-30.12-16.184-35.739c-5.619-3.372-5.844-2.473-5.844,2.248c0.45,14.61,14.161,26.749,18.207,33.491
					C481.603,403.161,481.378,398.441,481.603,396.868z"/>
				<path id="path2754" fill="#FFFFFF" stroke="#000000" stroke-width="8.012" d="M479.13,437.777
					c-8.091-29.671,8.766-46.753,13.936-50.125c4.945-3.597,8.092-4.945,5.844,0.674c-3.372,8.316,0.225,31.468-12.587,46.078
					C482.277,439.35,480.703,444.52,479.13,437.777z"/>
				<path id="path2756" fill="#FFFFFF" stroke="#000000" stroke-width="8.012" d="M480.928,431.258
					c6.743-25.849-7.867-40.459-12.363-43.381c-4.27-2.922-6.968-4.046-4.945,0.674c2.697,7.192-0.225,27.422,11.014,40.009
					C478.231,432.831,479.579,437.102,480.928,431.258z"/>
				<path id="path2758" fill="#FFFFFF" stroke="#000000" stroke-width="8.012" d="M472.611,419.12
					c-12.138,13.037-12.362,32.143-6.968,43.382c3.371,6.518,3.821,6.068,6.968,1.349c8.542-13.712,3.372-33.492,3.822-42.258
					C476.657,413.276,473.96,417.772,472.611,419.12z"/>
				<path id="path2760" fill="#FFFFFF" stroke="#000000" stroke-width="8.012" d="M492.616,439.8
					c0,17.982-11.013,32.592-22.702,37.088c-6.743,2.473-6.743,1.798-5.844-3.597c3.147-20.23,18.656-27.648,24.276-34.166
					C493.74,432.831,492.616,438.002,492.616,439.8z"/>
				<path id="path2762" fill="#FFFFFF" stroke="#000000" stroke-width="8.012" d="M450.808,493.296
					c19.781-17.982,9.216-30.569,10.115-42.258c0.45-6.293-2.023-4.72-4.27-2.473c-12.587,12.363-13.262,34.391-10.564,42.932
					C447.212,495.319,449.01,494.87,450.808,493.296z"/>
				<path id="path2764" fill="#FFFFFF" stroke="#000000" stroke-width="8.012" d="M477.332,481.608
					c-6.518,19.78-23.826,31.918-38.436,32.592c-8.542,0.45-8.317-0.225-5.395-6.069c11.014-21.129,30.569-23.602,39.336-28.996
					C480.928,474.19,478.006,479.585,477.332,481.608z"/>
				<path id="path2766" fill="#FFFFFF" stroke="#000000" stroke-width="8.012" d="M423.611,518.696
					c25.624-12.813,20.454-34.167,25.174-39.561c3.372-3.821-0.674-3.372-2.697-2.023c-15.06,8.766-27.198,22.702-27.423,37.537
					C418.665,520.27,419.115,520.944,423.611,518.696z"/>
				<path id="path2768" fill="#FFFFFF" stroke="#000000" stroke-width="8.012" d="M388.546,542.522
					c32.368,5.17,47.428-19.331,56.868-21.578c4.945-1.124,1.349-3.147-1.123-3.372c-21.579-2.473-49.001,7.642-57.318,18.881
					C383.601,540.949,383.601,541.847,388.546,542.522z"/>
				<path id="path2770" fill="#FFFFFF" stroke="#000000" stroke-width="8.012" d="M421.362,504.085
					c-6.518,21.354-30.794,38.886-49.001,40.235c-8.542,0.674-8.542-0.225-5.395-5.844c14.61-26.524,40.01-31.019,49.001-37.762
					C423.611,494.87,422.037,502.063,421.362,504.085z"/>
				<path id="path2772" fill="#FFFFFF" stroke="#000000" stroke-width="8.012" d="M353.031,264.925
					c2.922-16.633,27.423-17.757,31.244-20.455c4.496-2.922,3.822,0,2.248,4.496c-4.496,11.688-19.781,16.408-26.748,17.757
					C354.155,267.622,352.356,268.072,353.031,264.925z"/>
				<path id="path2774" fill="#FFFFFF" stroke="#000000" stroke-width="8.012" d="M345.613,265.374
					c-2.473-17.083,21.803-25.175,24.726-28.996c3.371-4.046,3.821-1.573,2.248,3.147c-2.922,10.115-13.487,22.027-19.781,25.174
					C347.636,267.397,346.063,268.521,345.613,265.374z"/>
				<path id="path2776" fill="#FFFFFF" stroke="#000000" stroke-width="8.012" d="M325.609,275.265
					c-2.248-20.455,17.532-23.602,22.702-30.12c3.372-4.046,3.597-1.798,2.473,2.922c-2.248,10.34-12.138,22.478-18.207,26.299
					C327.856,277.288,325.834,278.411,325.609,275.265z"/>
				<path id="path2778" fill="#FFFFFF" stroke="#000000" stroke-width="8.012" d="M331.677,270.769
					c20.455-13.261,34.84-5.844,40.685-6.519c5.62-0.674,7.417,2.922-2.248,8.317c-11.913,6.518-28.546,5.619-35.065,3.147
					C328.306,273.017,330.329,271.668,331.677,270.769z"/>
				<path id="path2780" fill="#FFFFFF" stroke="#000000" stroke-width="8.012" d="M300.883,279.76
					c6.294-22.027,20.904-18.432,25.174-21.128c4.271-2.697,4.721-2.023,3.822,2.921c-1.798,8.767-16.858,18.432-24.276,21.354
					C302.906,283.806,299.534,285.154,300.883,279.76z"/>
				<path id="path2782" fill="#FFFFFF" stroke="#000000" stroke-width="8.012" d="M303.805,283.581
					c17.532-14.161,31.244-3.597,36.638-5.17c4.046-1.123,2.248,1.574,0.675,2.697c-11.239,7.867-25.175,12.138-35.965,7.193
					C300.883,286.503,300.658,286.054,303.805,283.581z"/>
				<path id="path2784" fill="#FFFFFF" stroke="#000000" stroke-width="8.012" d="M265.818,297.966
					c-0.225-13.936,28.546-19.78,34.615-28.321c3.597-5.17,6.744-2.473,4.945,5.844c-2.697,10.789-22.477,22.702-33.266,24.949
					C265.593,301.788,265.818,299.54,265.818,297.966z"/>
				<path id="path2786" fill="#FFFFFF" stroke="#000000" stroke-width="8.012" d="M266.717,300.439
					c18.207-16.408,33.491-11.014,39.111-12.587c5.619-1.349,7.867,2.023-0.899,8.767c-10.789,8.091-27.422,9.665-34.391,8.091
					C263.57,303.136,265.368,301.563,266.717,300.439z"/>
				<path id="path2788" fill="#FFFFFF" stroke="#000000" stroke-width="8.012" d="M234.125,324.49
					c5.17-23.826,21.579-28.771,25.625-33.267c3.821-4.496,7.867-3.147,4.495,7.642c-4.046,12.813-17.308,24.051-24.276,26.749
					C233.226,328.536,233.675,326.288,234.125,324.49z"/>
				<path id="path2790" fill="#FFFFFF" stroke="#000000" stroke-width="8.012" d="M234.35,327.637
					c13.262-21.354,30.57-20.679,35.965-23.602c5.17-3.147,8.766-0.45,1.798,8.767c-8.092,11.238-24.726,17.532-32.368,17.982
					C232.102,331.234,233.45,329.211,234.35,327.637z"/>
				<path id="path2792" fill="#FFFFFF" stroke="#000000" stroke-width="8.012" d="M217.267,353.037
					c-7.643-24.276,9.89-33.267,11.688-37.313c2.023-4.046,4.046-4.046,5.17,0.225c4.945,17.308-11.014,34.166-13.487,37.537
					C218.166,356.633,217.716,355.059,217.267,353.037z"/>
				<path id="path2794" fill="#FFFFFF" stroke="#000000" stroke-width="8.012" d="M220.863,359.78
					c6.069-27.197,22.028-25.624,25.625-29.445c3.821-3.821,4.27-1.124,3.596,3.821c-1.798,13.262-17.757,22.252-24.95,26.748
					C222.886,362.252,220.189,363.826,220.863,359.78z"/>
				<path id="path2796" fill="#FFFFFF" stroke="#000000" stroke-width="8.012" d="M205.578,391.698
					c-11.014-25.625,2.023-42.932,6.069-46.754c4.046-3.597,6.518-5.17,5.17,0c-1.799,7.867,4.495,28.097-5.17,42.932
					C208.501,392.822,208.051,397.542,205.578,391.698z"/>
				<path id="path2798" fill="#FFFFFF" stroke="#000000" stroke-width="8.012" d="M211.423,396.868
					c-2.472-15.734,6.518-30.12,16.184-35.739c5.619-3.372,5.844-2.473,5.844,2.248c-0.449,14.61-14.16,26.749-18.207,33.491
					C211.423,403.161,211.648,398.441,211.423,396.868z"/>
				<path id="path2800" fill="#FFFFFF" stroke="#000000" stroke-width="8.012" d="M213.895,437.777
					c8.092-29.671-8.766-46.753-13.936-50.125c-4.945-3.597-8.092-4.945-5.844,0.674c3.372,8.316-0.225,31.468,12.588,46.078
					C210.748,439.35,212.097,444.52,213.895,437.777z"/>
				<path id="path2802" fill="#FFFFFF" stroke="#000000" stroke-width="8.012" d="M212.097,431.258
					c-6.744-25.849,7.867-40.459,12.362-43.381c4.27-2.922,6.968-4.046,4.945,0.674c-2.697,7.192,0.225,27.422-11.014,40.009
					C214.795,432.831,213.446,437.102,212.097,431.258z"/>
				<path id="path2804" fill="#FFFFFF" stroke="#000000" stroke-width="8.012" d="M220.413,419.12
					c12.138,13.037,12.363,32.143,6.969,43.382c-3.372,6.518-3.822,6.068-6.969,1.349c-8.541-13.712-3.371-33.492-3.821-42.258
					C216.368,413.276,219.065,417.772,220.413,419.12z"/>
				<path id="path2806" fill="#FFFFFF" stroke="#000000" stroke-width="8.012" d="M200.409,439.8
					c0,17.982,11.014,32.592,22.702,37.088c6.744,2.473,6.744,1.798,5.844-3.597c-3.147-20.23-18.656-27.648-24.276-34.166
					C199.284,432.831,200.409,438.002,200.409,439.8z"/>
				<path id="path2808" fill="#FFFFFF" stroke="#000000" stroke-width="8.012" d="M242.217,493.296
					c-19.78-17.982-9.215-30.569-10.115-42.258c-0.45-6.293,2.023-4.72,4.27-2.473c12.588,12.363,13.262,34.391,10.564,42.932
					C245.813,495.319,244.015,494.87,242.217,493.296z"/>
				<path id="path2810" fill="#FFFFFF" stroke="#000000" stroke-width="8.012" d="M215.693,481.608
					c6.519,19.78,23.826,31.918,38.437,32.592c8.541,0.45,8.316-0.225,5.395-6.069c-11.014-21.129-30.57-23.602-39.336-28.996
					C212.097,474.19,215.019,479.585,215.693,481.608z"/>
				<path id="path2812" fill="#FFFFFF" stroke="#000000" stroke-width="8.012" d="M269.415,518.696
					c-25.624-12.813-20.454-34.167-25.175-39.561c-3.371-3.821,0.675-3.372,2.697-2.023c15.06,8.766,27.198,22.702,27.423,37.537
					C274.36,520.27,273.91,520.944,269.415,518.696z"/>
				<path id="path2814" fill="#FFFFFF" stroke="#000000" stroke-width="8.012" d="M304.48,542.522
					c-32.368,5.17-47.428-19.331-56.869-21.578c-4.945-1.124-1.348-3.147,1.124-3.372c21.579-2.473,49.001,7.642,57.317,18.881
					C309.425,540.949,309.425,541.847,304.48,542.522z"/>
				<path id="path2816" fill="#FFFFFF" stroke="#000000" stroke-width="8.012" d="M271.662,504.085
					c6.519,21.354,30.794,38.886,49.001,40.235c8.542,0.674,8.542-0.225,5.395-5.844c-14.61-26.524-40.009-31.019-49.001-37.762
					C269.415,494.87,270.988,502.063,271.662,504.085z"/>
			</g>
			<g id="g2818" transform="matrix(1.1355 0 0 1.0324 2.7256 -21.429)">
				<path id="path2820" fill="#006233" d="M384.499,285.604c-4.27-3.147-20.005-1.349-22.927-3.372
					C367.192,286.953,379.779,283.581,384.499,285.604z"/>
				<path id="path2822" fill="#006233" d="M422.487,293.696c-3.372-6.069-23.377-10.115-26.299-15.51
					C401.358,288.526,416.867,287.177,422.487,293.696z"/>
				<path id="path2824" fill="#006233" d="M419.564,300.664c-7.417-7.192-24.726-4.27-29.895-8.541
					C401.807,303.136,408.55,294.595,419.564,300.664z"/>
				<path id="path2826" fill="#006233" d="M376.183,268.746c4.721,2.473,10.564,4.945,13.487,10.789
					c-3.371-4.495-9.44-6.293-14.385-10.115C375.509,269.42,375.958,268.971,376.183,268.746z"/>
				<path id="path2828" fill="#006233" d="M449.909,315.05c-2.922-6.744-13.262-14.161-14.161-16.634
					C438.671,307.182,447.212,309.206,449.909,315.05z"/>
				<path id="path2830" fill="#006233" d="M452.607,326.963c-8.991-14.161-23.152-12.587-28.772-17.982
					C428.106,314.151,444.29,317.522,452.607,326.963z"/>
				<path id="path2832" fill="#006233" d="M473.511,348.766c0.674-15.06-10.564-20.679-11.014-29.221
					C462.272,329.66,473.96,343.371,473.511,348.766z"/>
				<path id="path2834" fill="#006233" d="M467.891,356.857c-2.248-13.037-17.533-13.936-20.23-21.578
					C447.661,342.472,465.644,349.89,467.891,356.857z"/>
				<path id="path2836" fill="#006233" d="M480.479,349.44c8.092,9.89,2.473,24.949,5.844,35.964
					C482.277,377.312,484.3,357.082,480.479,349.44z"/>
				<path id="path2838" fill="#006233" d="M467.217,391.698c12.138,13.037,7.193,27.647,12.138,33.941
					C473.286,416.873,474.185,399.79,467.217,391.698z"/>
				<path id="path2840" fill="#006233" d="M492.391,393.496c-10.34,11.464-4.046,28.772-9.44,36.863
					C489.02,423.391,488.121,402.038,492.391,393.496z"/>
				<path id="path2842" fill="#006233" d="M479.354,393.496c-1.348-13.262-13.711-20.229-14.835-27.422
					C463.171,373.267,476.433,384.505,479.354,393.496z"/>
				<path id="path2844" fill="#006233" d="M473.061,425.19c2.023,9.215-5.395,28.996-3.147,35.065
					C464.969,449.69,474.185,429.685,473.061,425.19z"/>
				<path id="path2846" fill="#006233" d="M489.02,446.318c-4.945,16.409-14.836,15.285-17.982,25.175
					C473.286,462.053,486.323,453.511,489.02,446.318z"/>
				<path id="path2848" fill="#006233" d="M456.877,453.96c-6.519,11.014-1.124,23.602-6.519,31.468
					C458.001,477.562,453.955,462.952,456.877,453.96z"/>
				<path id="path2850" fill="#006233" d="M472.611,484.08c-7.867,14.611-24.051,13.262-30.569,23.826
					C448.56,494.645,468.565,492.397,472.611,484.08z"/>
				<path id="path2852" fill="#006233" d="M444.065,482.283c-13.936,9.665-9.666,19.78-20.23,30.569
					C437.097,502.063,435.973,490.149,444.065,482.283z"/>
				<path id="path2854" fill="#006233" d="M437.546,521.393c-13.487-0.45-32.817,17.083-44.505,15.734
					C404.73,539.6,426.307,523.865,437.546,521.393z"/>
				<path id="path2856" fill="#006233" d="M415.743,505.659c-0.899,13.712-35.964,22.478-39.785,31.694
					C380.229,525.214,411.023,516.223,415.743,505.659z"/>
				<path id="path2858" fill="#006233" d="M336.398,252.787c-4.496-3.821-9.891-6.968-11.464-10.79
					c1.123,4.945,5.619,8.542,10.115,11.914C335.499,253.686,335.948,253.012,336.398,252.787z"/>
				<path id="path2860" fill="#006233" d="M328.755,256.833c-6.968-3.372-15.06-3.147-18.656-7.867
					c2.248,4.72,9.891,6.519,16.409,8.991C327.182,257.508,328.081,257.058,328.755,256.833z"/>
				<path id="path2862" fill="#006233" d="M308.526,285.604c4.27-3.147,20.005-1.349,22.927-3.372
					C325.834,286.953,313.246,283.581,308.526,285.604z"/>
				<path id="path2864" fill="#006233" d="M270.538,293.696c3.372-6.069,23.377-10.115,26.299-15.51
					C291.667,288.526,276.158,287.177,270.538,293.696z"/>
				<path id="path2866" fill="#006233" d="M273.46,300.664c7.418-7.192,24.726-4.27,29.895-8.541
					C291.218,303.136,284.474,294.595,273.46,300.664z"/>
				<path id="path2868" fill="#006233" d="M303.356,279.535c4.27-8.991,16.409-10.115,19.556-15.509
					C318.191,272.118,307.851,273.466,303.356,279.535z"/>
				<path id="path2870" fill="#006233" d="M337.971,271.668c12.362-5.844,24.501-0.899,30.344-3.597
					C361.123,271.893,344.04,270.095,337.971,271.668z"/>
				<path id="path2872" fill="#006233" d="M243.116,315.05c2.922-6.744,13.262-14.161,14.16-16.634
					C254.355,307.182,245.813,309.206,243.116,315.05z"/>
				<path id="path2874" fill="#006233" d="M240.419,326.963c8.991-14.161,23.152-12.587,28.771-17.982
					C264.919,314.151,248.736,317.522,240.419,326.963z"/>
				<path id="path2876" fill="#006233" d="M219.515,348.766c-0.675-15.06,10.564-20.679,11.014-29.221
					C230.753,329.66,219.065,343.371,219.515,348.766z"/>
				<path id="path2878" fill="#006233" d="M225.134,356.857c2.248-13.037,17.532-13.936,20.23-21.578
					C245.364,342.472,227.382,349.89,225.134,356.857z"/>
				<path id="path2880" fill="#006233" d="M212.546,349.44c-8.092,9.89-2.472,24.949-5.844,35.964
					C210.748,377.312,208.725,357.082,212.546,349.44z"/>
				<path id="path2882" fill="#006233" d="M225.808,391.698c-12.138,13.037-7.193,27.647-12.138,33.941
					C219.74,416.873,218.84,399.79,225.808,391.698z"/>
				<path id="path2884" fill="#006233" d="M200.634,393.496c10.34,11.464,4.046,28.772,9.44,36.863
					C204.005,423.391,204.904,402.038,200.634,393.496z"/>
				<path id="path2886" fill="#006233" d="M213.67,393.496c1.348-13.262,13.711-20.229,14.835-27.422
					C229.854,373.267,216.593,384.505,213.67,393.496z"/>
				<path id="path2888" fill="#006233" d="M219.964,425.19c-2.024,9.215,5.395,28.996,3.146,35.065
					C228.056,449.69,218.84,429.685,219.964,425.19z"/>
				<path id="path2890" fill="#006233" d="M204.005,446.318c4.945,16.409,14.835,15.285,17.982,25.175
					C219.74,462.053,206.703,453.511,204.005,446.318z"/>
				<path id="path2892" fill="#006233" d="M236.148,453.96c6.519,11.014,1.124,23.602,6.519,31.468
					C235.024,477.562,239.07,462.952,236.148,453.96z"/>
				<path id="path2894" fill="#006233" d="M220.413,484.08c7.867,14.611,24.051,13.262,30.57,23.826
					C244.464,494.645,224.46,492.397,220.413,484.08z"/>
				<path id="path2896" fill="#006233" d="M248.96,482.283c13.936,9.665,9.665,19.78,20.23,30.569
					C255.928,502.063,257.052,490.149,248.96,482.283z"/>
				<path id="path2898" fill="#006233" d="M255.478,521.393c13.487-0.45,32.818,17.083,44.505,15.734
					C288.296,539.6,266.717,523.865,255.478,521.393z"/>
				<path id="path2900" fill="#006233" d="M277.282,505.659c0.899,13.712,35.964,22.478,39.785,31.694
					C312.796,525.214,282.002,516.223,277.282,505.659z"/>
				<path id="path2902" fill="#006233" d="M328.306,272.118c2.697-12.138,16.183-14.385,17.982-21.579
					C345.613,258.182,329.654,266.723,328.306,272.118z"/>
				<path id="path2904" fill="#006233" d="M368.091,241.997c-2.024,9.216-16.634,14.386-18.656,21.354
					C350.109,253.911,365.169,248.516,368.091,241.997z"/>
				<path id="path2906" fill="#006233" d="M356.628,263.801c6.968-11.238,21.354-8.316,26.299-14.835
					C379.33,256.608,361.573,256.833,356.628,263.801z"/>
			</g>
			<path id="path12826" fill="none" stroke="#F7C608" stroke-width="8.1208" stroke-linecap="round" stroke-linejoin="round" d="
				M515.701,394.336c0,60.266-53.732,109.121-120.015,109.121c-66.284,0-120.016-48.855-120.016-109.121
				s53.732-109.121,120.016-109.121C461.969,285.215,515.701,334.07,515.701,394.336z"/>
			<g id="g12874" transform="matrix(1.089 .29066 -.31969 .99014 322.08 9.1715)">
				<path id="path12861" fill="#F7C608" d="M177.257,447.232l0.001,1.348c0,0.9-0.675,1.573-1.575,1.799
					c-2.249-0.001-5.172,0.224-7.871,0.224l0-8.541c2.923,0,5.847-0.225,7.87-0.45c0.9,0,1.575,0.674,1.575,1.574l0,1.124
					 M158.367,444.534l0-1.349c0-0.899,0.674-1.573,1.574-1.574c2.249,0.225,4.948,0.45,7.872,0.45l0,8.541
					c-2.699,0-5.398,0-7.871-0.224c-0.9-0.225-1.574-1.798-1.574-2.698"/>
				<path id="path12865" fill="#006233" d="M175.64,446.962l0.001,0.967c-0.001,0.652-0.562,1.124-1.31,1.281
					c-1.87,0-4.302,0.157-6.546,0.157v-6.114c2.431,0,4.863-0.157,6.546-0.315c0.748,0,1.309,0.472,1.309,1.124l0,0.809
					 M159.929,445.029l0-0.966c0-0.652,0.561-1.124,1.309-1.125c1.87,0.158,4.115,0.315,6.546,0.315v6.114
					c-2.245,0-4.489,0-6.546-0.158c-0.749-0.157-1.31-1.281-1.31-1.933"/>
			</g>
			<g id="g12878" transform="matrix(.95488 .55779 -.61350 .86818 618.66 131.41)">
				<path id="path12880" fill="#F7C608" d="M-17.698,427.793l0,1.348c0,0.899-0.675,1.573-1.574,1.799
					c-2.249,0-5.173,0.225-7.871,0.225l0-8.542c2.923,0,5.847-0.225,7.871-0.45c0.9,0,1.575,0.675,1.575,1.574l-0.001,1.124
					 M-36.589,425.096l0-1.348c0-0.899,0.675-1.573,1.574-1.573c2.249,0.225,4.948,0.449,7.871,0.449l-0.001,8.541
					c-2.699,0-5.397,0-7.87-0.225c-0.9-0.225-1.575-1.798-1.575-2.697"/>
				<path id="path12882" fill="#006233" d="M-19.315,427.523l0,0.967c0,0.651-0.561,1.124-1.309,1.281
					c-1.87,0-4.302,0.157-6.547,0.157l0-6.114c2.431,0,4.863-0.158,6.546-0.315c0.748,0,1.309,0.472,1.31,1.124l-0.001,0.809
					 M-35.027,425.59l0-0.967c0-0.652,0.561-1.124,1.309-1.124c1.871,0.157,4.115,0.315,6.547,0.315l0,6.114
					c-2.245,0-4.489,0-6.547-0.157c-0.748-0.157-1.309-1.282-1.309-1.933"/>
			</g>
			<g id="g12884" transform="matrix(.74342 .77974 -.85762 .67591 865.37 324.65)">
				<path id="path12886" fill="#F7C608" d="M-210.236,464.058l0,1.348c0,0.899-0.675,1.574-1.574,1.798
					c-2.249,0-5.172,0.225-7.871,0.225l0-8.542c2.924,0,5.848-0.225,7.871-0.45c0.899,0,1.574,0.675,1.575,1.574l0,1.124
					 M-229.127,461.361l0-1.349c0-0.899,0.674-1.573,1.574-1.574c2.249,0.225,4.948,0.45,7.871,0.45l0,8.542
					c-2.699-0.001-5.397,0-7.871-0.225c-0.9-0.224-1.574-1.798-1.574-2.697"/>
				<path id="path12888" fill="#006233" d="M-211.853,463.788l-0.001,0.966c0,0.652-0.561,1.125-1.309,1.282
					c-1.871,0-4.302,0.158-6.546,0.158l0-6.114c2.431,0,4.863-0.157,6.546-0.315c0.748,0,1.31,0.472,1.309,1.124l0,0.809
					 M-227.565,461.855l0.001-0.966c-0.001-0.652,0.561-1.124,1.309-1.124c1.871,0.157,4.115,0.314,6.547,0.314l0,6.114
					c-2.244,0-4.488,0-6.546-0.157c-0.749-0.157-1.31-1.281-1.31-1.933"/>
			</g>
			<g id="g12890" transform="matrix(.47175 .93856 -1.0323 .42891 1042.2 573.25)">
				<path id="path12892" fill="#F7C608" d="M-384.756,553.071l0,1.349c0,0.899-0.675,1.573-1.574,1.798
					c-2.249,0-5.172,0.224-7.871,0.224l0-8.541c2.924-0.001,5.848-0.225,7.871-0.449c0.9,0,1.575,0.674,1.575,1.573l0,1.124
					 M-403.647,550.374l0-1.348c0-0.899,0.674-1.574,1.574-1.573c2.249,0.225,4.947,0.449,7.871,0.449l0,8.541
					c-2.698,0-5.397,0-7.871-0.224c-0.9-0.225-1.574-1.798-1.575-2.697"/>
				<path id="path12894" fill="#006233" d="M-386.373,552.802l0,0.966c0,0.652-0.562,1.124-1.31,1.281
					c-1.87,0.001-4.302,0.157-6.546,0.157l-0.001-6.114c2.432,0,4.863-0.157,6.547-0.314c0.748-0.001,1.309,0.472,1.309,1.124
					l0,0.809 M-402.085,550.868l0-0.967c0-0.652,0.561-1.123,1.31-1.124c1.87,0.157,4.114,0.314,6.546,0.315l0,6.114
					c-2.244,0-4.489,0-6.547-0.158c-0.748-0.157-1.309-1.281-1.309-1.933"/>
			</g>
			<g id="g12896" transform="matrix(.16188 1.0214 -1.1234 .14718 1134.9 857.07)">
				<path id="path12898" fill="#F7C608" d="M-527.129,687.666l0,1.348c0,0.899-0.674,1.573-1.574,1.799
					c-2.249,0-5.173,0.224-7.871,0.225l0-8.542c2.924,0,5.847-0.225,7.871-0.45c0.9,0,1.574,0.675,1.575,1.574l-0.001,1.123
					 M-546.02,684.969l0.001-1.349c0-0.899,0.674-1.573,1.574-1.573c2.249,0.224,4.947,0.449,7.871,0.449l0,8.542
					c-2.699,0-5.398,0-7.871-0.225c-0.9-0.225-1.574-1.798-1.574-2.697"/>
				<path id="path12900" fill="#006233" d="M-528.747,687.396l0,0.966c0,0.652-0.561,1.124-1.309,1.281
					c-1.87,0-4.302,0.158-6.546,0.157l0-6.114c2.432,0,4.863-0.157,6.547-0.315c0.748,0,1.309,0.472,1.309,1.124l0,0.809
					 M-544.458,685.463l0-0.967c0-0.651,0.561-1.124,1.31-1.124c1.87,0.158,4.115,0.315,6.546,0.315l0,6.114
					c-2.245,0-4.489,0-6.546-0.157c-0.748-0.157-1.31-1.281-1.309-1.933"/>
			</g>
			<g id="g12902" transform="matrix(-.16110 1.0215 -1.1235 -.14647 1135.9 1153.1)">
				<path id="path12904" fill="#F7C608" d="M-625.813,856.903l0,1.349c0,0.899-0.675,1.573-1.574,1.798
					c-2.249,0-5.172,0.225-7.871,0.225l0-8.542c2.923,0,5.847-0.225,7.871-0.45c0.9,0,1.574,0.675,1.574,1.574l0,1.123
					 M-644.703,854.206l0-1.348c0-0.9,0.675-1.574,1.574-1.574c2.249,0.225,4.947,0.45,7.871,0.45l-0.001,8.542
					c-2.699-0.001-5.397,0-7.871-0.225c-0.899-0.225-1.574-1.798-1.574-2.697"/>
				<path id="path12906" fill="#006233" d="M-627.43,856.633l0.001,0.967c0,0.652-0.561,1.124-1.31,1.281
					c-1.87,0-4.302,0.157-6.547,0.157l0-6.114c2.431,0,4.863-0.157,6.546-0.315c0.748,0,1.31,0.472,1.31,1.124l0,0.809
					 M-643.141,854.7l0-0.966c0-0.652,0.561-1.124,1.31-1.124c1.87,0.157,4.114,0.314,6.547,0.315l0,6.114
					c-2.244,0-4.489,0-6.547-0.157c-0.748-0.158-1.309-1.281-1.309-1.933"/>
			</g>
			<g id="g12908" transform="matrix(-.47103 .93886 -1.0326 -.42826 1045.1 1437.5)">
				<path id="path12910" fill="#F7C608" d="M-672.921,1047.106l0,1.349c0,0.899-0.675,1.573-1.574,1.798
					c-2.249,0-5.172,0.225-7.871,0.225l0-8.542c2.924,0,5.847-0.225,7.871-0.449c0.9,0,1.574,0.674,1.575,1.573l0,1.124
					 M-691.811,1044.408v-1.349c0-0.899,0.674-1.574,1.573-1.573c2.249,0.224,4.948,0.449,7.871,0.449l0,8.542
					c-2.699,0-5.397,0-7.871-0.225c-0.9-0.225-1.574-1.798-1.574-2.697"/>
				<path id="path12912" fill="#006233" d="M-674.538,1046.836l0,0.967c0,0.652-0.562,1.124-1.309,1.281
					c-1.87,0-4.302,0.157-6.546,0.157l-0.001-6.114c2.432,0,4.863-0.158,6.547-0.315c0.748,0,1.309,0.472,1.309,1.123l0,0.809
					 M-690.249,1044.903l0-0.967c0-0.652,0.561-1.124,1.309-1.124c1.87,0.157,4.115,0.315,6.546,0.315v6.114
					c-2.244-0.001-4.489-0.001-6.546-0.158c-0.749-0.157-1.31-1.281-1.31-1.933"/>
			</g>
			<g id="g12914" transform="matrix(-.74282 .78021 -.85814 -.67537 869.95 1687)">
				<path id="path12916" fill="#F7C608" d="M-664.444,1242.821v1.349c0,0.899-0.675,1.573-1.575,1.798
					c-2.249,0-5.172,0.225-7.871,0.225v-8.541c2.924,0,5.847-0.225,7.871-0.45c0.9,0,1.575,0.675,1.574,1.574l0.001,1.124
					 M-683.335,1240.124l-0.001-1.349c0-0.899,0.675-1.573,1.574-1.573c2.249,0.225,4.948,0.449,7.872,0.45v8.541
					c-2.699,0-5.397-0.001-7.871-0.225c-0.899-0.225-1.574-1.798-1.574-2.697"/>
				<path id="path12918" fill="#006233" d="M-666.061,1242.552l-0.001,0.967c0,0.652-0.561,1.123-1.309,1.281
					c-1.87,0-4.303,0.157-6.546,0.157v-6.114c2.431,0,4.863-0.157,6.546-0.314c0.748,0,1.309,0.472,1.31,1.124l0,0.809
					 M-681.773,1240.619l0-0.967c0-0.652,0.561-1.124,1.31-1.124c1.87,0.157,4.115,0.315,6.547,0.314v6.114
					c-2.245,0-4.489,0-6.546-0.157c-0.749-0.158-1.309-1.281-1.309-1.933"/>
			</g>
			<g id="g12920" transform="matrix(-.95446 .55839 -.61416 -.86779 624.54 1881.6)">
				<path id="path12922" fill="#F7C608" d="M-601.22,1428.25l0,1.349c0,0.899-0.675,1.573-1.575,1.798
					c-2.249,0-5.172,0.225-7.871,0.225l0-8.541c2.924,0,5.847-0.225,7.871-0.45c0.899,0,1.574,0.675,1.574,1.573l0,1.124
					 M-620.11,1425.553l0-1.349c0-0.899,0.674-1.573,1.574-1.573c2.248,0.225,4.948,0.45,7.871,0.45l0,8.541
					c-2.699,0.001-5.397,0-7.871-0.225c-0.899-0.225-1.574-1.798-1.574-2.697"/>
				<path id="path12924" fill="#006233" d="M-602.836,1427.98l0,0.966c0,0.652-0.562,1.124-1.309,1.281
					c-1.87,0-4.302,0.158-6.546,0.158l0-6.115c2.431,0,4.863-0.157,6.547-0.314c0.748,0,1.309,0.472,1.309,1.123v0.809
					 M-618.548,1426.047l0-0.966c0-0.652,0.561-1.124,1.309-1.124c1.871,0.157,4.115,0.315,6.547,0.314l0,6.115
					c-2.245,0-4.489,0-6.546-0.158c-0.749-0.157-1.309-1.281-1.309-1.933"/>
			</g>
			<g id="g12926" transform="matrix(-1.0888 .29135 -.32045 -.98993 328.78 2005.5)">
				<path id="path12928" fill="#F7C608" d="M-488.34,1588.389l0.001,1.349c0,0.899-0.675,1.573-1.575,1.798
					c-2.249,0-5.172,0.225-7.871,0.225l0-8.542c2.924,0,5.847-0.224,7.871-0.449c0.899,0,1.574,0.674,1.574,1.573l0,1.124
					 M-507.231,1585.692l0-1.349c0-0.899,0.674-1.574,1.574-1.573c2.249,0.225,4.948,0.45,7.872,0.449l-0.001,8.542
					c-2.698,0-5.397,0-7.871-0.225c-0.899-0.225-1.574-1.798-1.574-2.697"/>
				<path id="path12930" fill="#006233" d="M-489.958,1588.12l0,0.966c0,0.652-0.561,1.124-1.31,1.281
					c-1.87,0-4.301,0.157-6.546,0.157l0-6.114c2.432,0,4.863-0.157,6.547-0.315c0.748,0,1.309,0.472,1.309,1.124l0,0.809
					 M-505.668,1586.186l0-0.967c0-0.652,0.561-1.123,1.309-1.124c1.87,0.157,4.115,0.315,6.546,0.315l0,6.114
					c-2.244,0-4.489,0-6.547-0.157c-0.748-0.157-1.309-1.282-1.309-1.933"/>
			</g>
			<g id="g12932" transform="matrix(-1.135 .00072019 -.00079212 -1.0319 6.6183 2048.7)">
				<path id="path12934" fill="#F7C608" d="M-334.909,1710.304l0,1.349c0,0.899-0.674,1.573-1.574,1.798
					c-2.249,0-5.172,0.225-7.871,0.224l0-8.541c2.923,0,5.847-0.225,7.871-0.45c0.9,0.001,1.574,0.675,1.574,1.574l0,1.124
					 M-353.799,1707.607l0-1.349c0-0.899,0.674-1.574,1.574-1.573c2.248,0.225,4.948,0.449,7.871,0.449l0,8.541
					c-2.699,0-5.398,0-7.871-0.224c-0.9-0.225-1.574-1.799-1.574-2.697"/>
				<path id="path12936" fill="#006233" d="M-336.525,1710.035l0,0.967c0,0.651-0.561,1.123-1.31,1.281
					c-1.87,0-4.302,0.157-6.546,0.157l0-6.113c2.431,0,4.863-0.158,6.546-0.315c0.749,0,1.309,0.472,1.31,1.125l0,0.809
					 M-352.237,1708.102l0.001-0.967c0-0.652,0.56-1.124,1.309-1.124c1.87,0.158,4.115,0.315,6.546,0.316l0,6.113
					c-2.245,0-4.489,0-6.546-0.157c-0.748-0.157-1.31-1.281-1.31-1.933"/>
			</g>
			<g id="g12938" transform="matrix(-1.0918 -.28208 .31025 -.99262 -313.06 2009.9)">
				<path id="path12940" fill="#F7C608" d="M-162.582,1783.774v1.349c0,0.899-0.675,1.574-1.575,1.799
					c-2.249,0-5.172,0.224-7.871,0.225l0-8.541c2.923,0,5.847-0.225,7.87-0.45c0.9,0,1.574,0.674,1.575,1.573l0,1.124
					 M-181.473,1781.077l0-1.349c0-0.899,0.674-1.574,1.574-1.574c2.249,0.225,4.948,0.45,7.872,0.45l0,8.541
					c-2.699,0-5.397,0-7.871-0.225c-0.899-0.225-1.574-1.798-1.574-2.697"/>
				<path id="path12942" fill="#006233" d="M-164.2,1783.505l0,0.966c0,0.652-0.561,1.124-1.309,1.281
					c-1.87,0-4.302,0.158-6.546,0.157l0-6.114c2.431,0,4.863-0.157,6.546-0.315c0.748,0,1.31,0.472,1.309,1.123l0,0.81
					 M-179.911,1781.572l0-0.967c0-0.652,0.561-1.124,1.31-1.124c1.87,0.158,4.115,0.315,6.546,0.315l0,6.114
					c-2.245,0-4.488,0-6.546-0.158c-0.748-0.157-1.309-1.281-1.309-1.932"/>
			</g>
			<g id="g12944" transform="matrix(-.96016 -.55025 .60521 -.87297 -610.8 1890)">
				<path id="path12946" fill="#F7C608" d="M32.691,1805.951l0,1.349c0,0.899-0.675,1.573-1.575,1.798
					c-2.249,0-5.173,0.225-7.871,0.225l0-8.542c2.923,0.001,5.847-0.225,7.871-0.449c0.9,0,1.575,0.674,1.574,1.573l0,1.124
					 M13.8,1803.254l0-1.349c0-0.899,0.675-1.574,1.574-1.573c2.249,0.224,4.948,0.45,7.871,0.449l0,8.542
					c-2.699,0-5.397,0-7.871-0.224c-0.9-0.225-1.575-1.799-1.574-2.698"/>
				<path id="path12948" fill="#006233" d="M31.074,1805.681l0,0.967c0,0.652-0.561,1.124-1.31,1.281
					c-1.87,0-4.302,0.158-6.546,0.157l0-6.113c2.431,0,4.863-0.158,6.546-0.315c0.748,0,1.309,0.472,1.309,1.124l0,0.809
					 M15.363,1803.748l0-0.967c0-0.652,0.561-1.124,1.31-1.124c1.87,0.157,4.115,0.315,6.546,0.315l-0.001,6.114
					c-2.244,0-4.488,0-6.546-0.158c-0.748-0.157-1.31-1.281-1.31-1.932"/>
			</g>
			<g id="g12950" transform="matrix(-.75081 -.77386 .85115 -.68264 -859.34 1698.7)">
				<path id="path12952" fill="#F7C608" d="M226.286,1772.217l0,1.349c0,0.899-0.674,1.573-1.574,1.798
					c-2.249,0-5.173,0.225-7.871,0.224l0-8.541c2.923,0.001,5.847-0.224,7.871-0.449c0.9,0,1.574,0.674,1.574,1.573l0,1.124
					 M207.396,1769.52l0-1.348c-0.001-0.899,0.674-1.574,1.574-1.574c2.249,0.225,4.948,0.45,7.871,0.45l0,8.542
					c-2.698,0-5.397,0-7.871-0.225c-0.9-0.225-1.573-1.798-1.574-2.698"/>
				<path id="path12954" fill="#006233" d="M224.669,1771.948l0,0.967c0.001,0.652-0.561,1.123-1.309,1.281
					c-1.87,0-4.302,0.158-6.546,0.158l0-6.114c2.431,0,4.863-0.157,6.546-0.315c0.748,0,1.309,0.472,1.309,1.124l0,0.809
					 M208.958,1770.014l0-0.966c0-0.652,0.561-1.124,1.309-1.124c1.871,0.158,4.115,0.315,6.546,0.315l0,6.114
					c-2.245,0-4.489,0-6.547-0.157c-0.748-0.158-1.309-1.281-1.309-1.933"/>
			</g>
			<g id="g12956" transform="matrix(-.48067 -.93481 1.0282 -.43702 -1038.6 1451.5)">
				<path id="path12958" fill="#F7C608" d="M402.56,1685.322l0,1.349c0,0.9-0.675,1.574-1.575,1.798
					c-2.249,0-5.172,0.224-7.871,0.225l0-8.542c2.923,0,5.848-0.224,7.871-0.449c0.9,0,1.574,0.674,1.574,1.574l0,1.124
					 M383.669,1682.625l0-1.349c0.001-0.899,0.675-1.574,1.574-1.573c2.249,0.225,4.948,0.449,7.871,0.449l0,8.542
					c-2.698,0-5.397,0-7.871-0.225c-0.9-0.225-1.574-1.798-1.574-2.697"/>
				<path id="path12960" fill="#006233" d="M400.944,1685.053l0,0.967c0,0.652-0.561,1.124-1.309,1.281
					c-1.871,0-4.302,0.157-6.546,0.157l0-6.114c2.431,0,4.863-0.157,6.546-0.315c0.748,0,1.31,0.472,1.309,1.124l0,0.81
					 M385.232,1683.12l0-0.967c0-0.652,0.561-1.124,1.31-1.124c1.87,0.158,4.115,0.315,6.546,0.315l0,6.114
					c-2.245,0-4.489,0-6.546-0.157c-0.748-0.157-1.309-1.281-1.309-1.933"/>
			</g>
			<g id="g12962" transform="matrix(-.17160 -1.0201 1.1219 -.15602 -1133.9 1168.4)">
				<path id="path12964" fill="#F7C608" d="M547.175,1552.306l0,1.349c0,0.9-0.675,1.573-1.575,1.798
					c-2.249,0-5.172,0.225-7.87,0.225l0-8.541c2.923,0,5.846-0.225,7.871-0.45c0.9,0,1.575,0.675,1.574,1.573l0,1.124
					 M528.285,1549.609l0-1.349c0-0.9,0.675-1.573,1.574-1.574c2.249,0.225,4.948,0.449,7.872,0.45l-0.001,8.541
					c-2.698,0-5.397,0-7.871-0.224c-0.899-0.225-1.574-1.798-1.574-2.698"/>
				<path id="path12966" fill="#006233" d="M545.558,1552.037l-0.001,0.966c0.001,0.652-0.561,1.124-1.309,1.281
					c-1.87,0-4.302,0.157-6.546,0.158l0-6.115c2.431,0,4.862-0.157,6.546-0.315c0.748,0,1.31,0.472,1.309,1.124l0,0.809
					 M529.847,1550.103l0-0.967c0-0.651,0.562-1.123,1.309-1.123c1.87,0.157,4.115,0.314,6.547,0.314l0,6.115
					c-2.245,0-4.489,0-6.546-0.158c-0.748-0.157-1.31-1.281-1.309-1.933"/>
			</g>
			<g id="g12968" transform="matrix(.15136 -1.0227 1.1248 .13762 -1137.7 872.37)">
				<path id="path12970" fill="#F7C608" d="M648.547,1383.923l0,1.348c0,0.9-0.674,1.573-1.574,1.798
					c-2.249,0-5.172,0.225-7.871,0.225l0-8.542c2.923,0,5.847-0.225,7.871-0.45c0.899,0,1.574,0.674,1.574,1.574l0,1.124
					 M629.656,1381.225l0-1.349c0-0.899,0.674-1.573,1.574-1.574c2.249,0.225,4.948,0.45,7.872,0.45l0,8.542
					c-2.699,0-5.398,0-7.871-0.225c-0.899-0.224-1.574-1.798-1.574-2.697"/>
				<path id="path12972" fill="#006233" d="M646.93,1383.653l0,0.966c0,0.652-0.561,1.124-1.309,1.281
					c-1.87,0-4.302,0.157-6.546,0.157l0-6.114c2.431,0,4.863-0.157,6.547-0.315c0.748,0,1.309,0.472,1.309,1.124l0,0.809
					 M631.218,1381.719l0-0.966c0-0.652,0.561-1.124,1.309-1.124c1.87,0.157,4.114,0.315,6.546,0.315l0,6.114
					c-2.245,0-4.489,0-6.547-0.157c-0.748-0.157-1.31-1.281-1.309-1.933"/>
			</g>
			<g id="g12974" transform="matrix(.46207 -.94253 1.0367 .42011 -1049.7 587.33)">
				<path id="path12976" fill="#F7C608" d="M698.33,1193.787v1.348c0,0.899-0.675,1.574-1.575,1.798
					c-2.249,0-5.173,0.225-7.871,0.225l0-8.542c2.923,0,5.847-0.224,7.871-0.449c0.9,0,1.575,0.674,1.575,1.573l0,1.124
					 M679.439,1191.09l0-1.348c0-0.899,0.674-1.574,1.574-1.574c2.249,0.225,4.947,0.45,7.871,0.449l0,8.542
					c-2.699,0-5.397,0-7.872-0.225c-0.899-0.224-1.574-1.798-1.573-2.697"/>
				<path id="path12978" fill="#006233" d="M696.712,1193.518l0,0.967c0,0.652-0.561,1.124-1.309,1.281
					c-1.87,0-4.302,0.157-6.546,0.157l0-6.114c2.431,0,4.863-0.157,6.547-0.314c0.747,0,1.309,0.472,1.309,1.124l0,0.809
					 M681.002,1191.584l0-0.967c0-0.651,0.561-1.123,1.309-1.124c1.871,0.158,4.115,0.315,6.547,0.315l0,6.114
					c-2.245,0-4.489,0-6.547-0.157c-0.748-0.157-1.309-1.282-1.309-1.934"/>
			</g>
			<g id="g12980" transform="matrix(.73536 -.78603 .86454 .66859 -876.89 336.39)">
				<path id="path12982" fill="#F7C608" d="M692.578,997.359l0,1.348c0,0.9-0.675,1.574-1.575,1.799
					c-2.249,0-5.172,0.225-7.871,0.225l0-8.541c2.923,0,5.847-0.225,7.871-0.45c0.899,0.001,1.575,0.675,1.574,1.574l0,1.124
					 M673.688,994.661l-0.001-1.348c0-0.899,0.675-1.574,1.575-1.574c2.248,0.225,4.947,0.45,7.871,0.45l0,8.542
					c-2.698,0-5.397,0-7.871-0.225c-0.9-0.225-1.574-1.799-1.574-2.698"/>
				<path id="path12984" fill="#006233" d="M690.961,997.089l0,0.966c0,0.652-0.562,1.124-1.309,1.281
					c-1.871,0-4.302,0.157-6.547,0.157l0-6.114c2.431,0,4.863-0.158,6.547-0.315c0.748,0,1.309,0.472,1.309,1.124l0,0.81
					 M675.25,995.156l0-0.967c0-0.652,0.561-1.123,1.31-1.124c1.87,0.157,4.114,0.315,6.546,0.315l0,6.114
					c-2.245,0-4.489,0-6.546-0.157c-0.748-0.158-1.309-1.281-1.309-1.933"/>
			</g>
			<g id="g12986" transform="matrix(.94910 -.56588 .62240 .86292 -633.34 139.86)">
				<path id="path12988" fill="#F7C608" d="M631.713,810.495v1.349c0,0.899-0.675,1.574-1.575,1.798
					c-2.248,0-5.172,0.225-7.871,0.225l0-8.542c2.924,0,5.848-0.225,7.871-0.45c0.9,0,1.575,0.675,1.575,1.573l0,1.124
					 M612.822,807.798v-1.349c-0.001-0.899,0.675-1.574,1.574-1.573c2.249,0.224,4.948,0.449,7.871,0.449l0,8.542
					c-2.698,0-5.397,0-7.871-0.225c-0.899-0.225-1.574-1.798-1.574-2.697"/>
				<path id="path12990" fill="#006233" d="M630.096,810.225l-0.001,0.967c0.001,0.652-0.561,1.124-1.309,1.281
					c-1.871,0-4.302,0.158-6.547,0.157l-0.001-6.114c2.432,0,4.863-0.158,6.547-0.314c0.748-0.001,1.309,0.472,1.309,1.123l0,0.809
					 M614.384,808.292l0-0.967c0-0.652,0.561-1.123,1.31-1.123c1.87,0.157,4.115,0.315,6.545,0.315l0.001,6.114
					c-2.245,0-4.49,0-6.546-0.157c-0.749-0.158-1.31-1.281-1.31-1.933"/>
			</g>
			<g id="g12992" transform="matrix(1.086 -.29991 .32987 .98737 -338.77 13.655)">
				<path id="path12994" fill="#F7C608" d="M520.666,648.345l0,1.348c0,0.899-0.674,1.573-1.575,1.799
					c-2.249,0-5.172,0.225-7.871,0.225l0.001-8.542c2.923,0,5.846-0.225,7.871-0.45c0.899,0,1.574,0.674,1.574,1.573l0,1.124
					 M501.776,645.647l0-1.348c0-0.9,0.674-1.573,1.574-1.573c2.249,0.224,4.947,0.449,7.871,0.449l-0.001,8.542
					c-2.698,0-5.397,0-7.871-0.225c-0.9-0.224-1.574-1.797-1.574-2.697"/>
				<path id="path12996" fill="#006233" d="M519.049,648.075l0.001,0.966c0,0.652-0.562,1.124-1.309,1.281
					c-1.871,0-4.302,0.158-6.547,0.158l0-6.114c2.432,0.001,4.863-0.157,6.547-0.314c0.748,0,1.309,0.472,1.309,1.123l0,0.81
					 M503.338,646.142l0-0.967c0.001-0.651,0.562-1.124,1.31-1.124c1.87,0.157,4.114,0.315,6.546,0.315l0,6.114
					c-2.245,0-4.489,0-6.546-0.157c-0.748-0.157-1.309-1.282-1.309-1.933"/>
			</g>
			<g id="g12998" transform="matrix(1.1349 -.0096543 .010618 1.0319 -17.033 -32.001)">
				<path id="path13000" fill="#F7C608" d="M368.473,524.031l-0.001,1.349c0.001,0.899-0.675,1.573-1.574,1.798
					c-2.249,0-5.172,0.225-7.87,0.225l-0.001-8.541c2.924,0,5.847-0.225,7.871-0.45c0.9,0,1.574,0.674,1.574,1.573v1.124
					 M349.582,521.334l0-1.349c0-0.9,0.675-1.574,1.574-1.574c2.249,0.224,4.947,0.45,7.871,0.45l0,8.541
					c-2.699,0-5.397,0-7.871-0.225c-0.9-0.224-1.574-1.798-1.574-2.697"/>
				<path id="path13002" fill="#006233" d="M366.856,523.762v0.966c0,0.652-0.561,1.124-1.309,1.282
					c-1.87,0-4.302,0.157-6.546,0.157l0-6.113c2.431,0,4.862-0.158,6.546-0.315c0.748,0,1.309,0.472,1.309,1.124l0,0.809
					 M351.145,521.828l0-0.967c0-0.652,0.56-1.123,1.309-1.124c1.87,0.157,4.115,0.315,6.546,0.315l0,6.113
					c-2.244,0-4.489,0-6.546-0.157c-0.749-0.157-1.309-1.281-1.31-1.933"/>
			</g>
		</g>
	</g>
</g>
</svg>
