<?xml version="1.0" encoding="utf-8"?>
<!-- Generator: Adobe Illustrator 16.0.0, SVG Export Plug-In . SVG Version: 6.00 Build 0)  -->
<!DOCTYPE svg PUBLIC "-//W3C//DTD SVG 1.1//EN" "http://www.w3.org/Graphics/SVG/1.1/DTD/svg11.dtd">
<svg version="1.1" id="Layer_1" xmlns="http://www.w3.org/2000/svg" xmlns:xlink="http://www.w3.org/1999/xlink" x="0px" y="0px"
	 width="22px" height="30px" viewBox="0 0 22 30" enable-background="new 0 0 22 30" xml:space="preserve">
<g>
	<g>
		<path fill="#94D8F0" d="M11,11.698c-3.225,0-5.849-2.623-5.849-5.849S7.775,0,11,0c3.225,0,5.849,2.624,5.849,5.85
			S14.225,11.698,11,11.698z M11,1.094c-2.622,0-4.755,2.134-4.755,4.756c0,2.621,2.133,4.755,4.755,4.755
			c2.621,0,4.754-2.134,4.754-4.755C15.754,3.228,13.621,1.094,11,1.094z"/>
	</g>
	<g>
		<path fill="#94D8F0" d="M0.263,29.998c-0.022,0-0.045-0.001-0.068-0.004c-0.3-0.037-0.513-0.31-0.476-0.609l1.028-8.359
			C1.861,15.313,6.075,11.351,11,11.351c5.018,0,9.23,3.966,10.247,9.646l1.034,8.389c0.037,0.3-0.177,0.572-0.477,0.609
			c-0.296,0.045-0.572-0.176-0.61-0.477l-1.028-8.358c-0.918-5.119-4.688-8.714-9.166-8.714c-5.128,0-8.35,4.536-9.172,8.752
			l-1.022,8.32C0.771,29.795,0.535,29.998,0.263,29.998z"/>
	</g>
</g>
</svg>
