<?xml version="1.0" encoding="utf-8"?>
<!-- Generator: Adobe Illustrator 16.0.0, SVG Export Plug-In . SVG Version: 6.00 Build 0)  -->
<!DOCTYPE svg PUBLIC "-//W3C//DTD SVG 1.1//EN" "http://www.w3.org/Graphics/SVG/1.1/DTD/svg11.dtd">
<svg version="1.1" id="Layer_1" xmlns="http://www.w3.org/2000/svg" xmlns:xlink="http://www.w3.org/1999/xlink" x="0px" y="0px"
	 width="195px" height="60px" viewBox="0 0 195 60" enable-background="new 0 0 195 60" xml:space="preserve">
<g>
	<path fill="#E62A52" d="M153.976,12.791c0,1.238-0.271,2.395-0.819,3.473c-0.545,1.078-1.304,1.985-2.274,2.721
		c-1.33,1.003-2.798,1.563-4.407,1.681c-1.606,0.119-3.133-0.117-4.579-0.708c-1.443-0.59-2.654-1.503-3.629-2.742
		c-0.972-1.241-1.461-2.715-1.461-4.425c0-0.974,0.136-1.867,0.399-2.678c0.266-0.809,0.647-1.526,1.151-2.146h-0.354
		c-0.68,0-1.262-0.214-1.748-0.643c-0.485-0.427-0.732-0.965-0.732-1.615c0-0.647,0.247-1.195,0.732-1.638
		c0.486-0.442,1.068-0.663,1.748-0.663h4.777V1.945c0-0.56,0.236-1.024,0.709-1.391C143.959,0.184,144.535,0,145.216,0
		c0.676,0,1.259,0.184,1.749,0.554c0.485,0.367,0.728,0.832,0.728,1.391v1.463h5.045c0.68,0,1.262,0.221,1.748,0.663
		c0.485,0.442,0.732,0.991,0.732,1.638c0,0.65-0.247,1.188-0.732,1.615c-0.486,0.429-1.068,0.643-1.748,0.643h-0.354
		c0.503,0.62,0.89,1.337,1.173,2.146C153.837,10.923,153.976,11.816,153.976,12.791 M139.109,29.338
		c0-1.326,0.388-2.432,1.173-3.317c0.78-0.885,1.835-1.585,3.165-2.102c1.324-0.516,2.889-0.878,4.689-1.084
		c1.795-0.208,3.716-0.309,5.753-0.309c2.036,0,3.951,0.072,5.752,0.221c1.8,0.147,3.361,0.463,4.69,0.952
		c1.329,0.487,2.383,1.172,3.164,2.057c0.779,0.885,1.172,2.079,1.172,3.583c0,1.478-0.393,2.657-1.172,3.541
		c-0.781,0.886-1.835,1.573-3.164,2.057c-1.329,0.49-2.891,0.813-4.69,0.977c-1.801,0.162-3.716,0.243-5.752,0.243
		c-2.037,0-3.958-0.081-5.753-0.243c-1.801-0.163-3.365-0.486-4.689-0.977c-1.33-0.483-2.385-1.171-3.165-2.057
		C139.497,31.995,139.109,30.815,139.109,29.338 M146.1,15.975c0.826-0.178,1.495-0.5,2.012-0.973
		c0.518-0.471,0.778-1.21,0.778-2.211c0-1.153-0.364-2.03-1.086-2.633c-0.722-0.606-1.514-0.923-2.366-0.954
		c-0.885-0.027-1.696,0.252-2.436,0.842c-0.739,0.59-1.106,1.503-1.106,2.745c0,0.708,0.117,1.292,0.354,1.747
		c0.234,0.457,0.554,0.805,0.949,1.04c0.399,0.236,0.851,0.385,1.354,0.443C145.053,16.08,145.569,16.063,146.1,15.975
		 M162.694,29.338c0-0.5-0.263-0.897-0.795-1.193c-0.53-0.293-1.217-0.515-2.061-0.664c-0.84-0.147-1.783-0.243-2.83-0.288
		c-1.049-0.044-2.09-0.065-3.119-0.065c-1.035,0-2.058,0.021-3.078,0.065c-1.017,0.045-1.933,0.141-2.741,0.288
		c-0.812,0.148-1.472,0.37-1.971,0.664c-0.503,0.296-0.752,0.693-0.752,1.193c0,0.444,0.249,0.813,0.752,1.109
		c0.499,0.294,1.159,0.514,1.971,0.663c0.809,0.146,1.725,0.249,2.741,0.309c1.021,0.059,2.043,0.091,3.078,0.091h3.119
		c1.047,0,1.99-0.06,2.83-0.177c0.844-0.118,1.53-0.334,2.061-0.643C162.432,30.378,162.694,29.93,162.694,29.338 M168.314,18.851
		c0,0.029-0.007,0.134-0.021,0.311c-0.018,0.177-0.064,0.391-0.155,0.643c-0.086,0.248-0.216,0.507-0.374,0.772
		c-0.163,0.266-0.393,0.488-0.688,0.666c-0.327,0.206-0.662,0.311-1.017,0.311c-0.595,0-1.08-0.147-1.46-0.442
		c-0.328-0.238-0.576-0.534-0.753-0.886c-0.445-0.825-0.649-1.733-0.622-2.724c0.031-0.986,0.059-1.938,0.091-2.852v-0.62
		c-0.327,0.029-0.642,0.054-0.95,0.066c-0.313,0.015-0.615,0.021-0.909,0.021h-0.132v4.028c-0.031,0.325-0.077,0.657-0.137,0.996
		c-0.059,0.339-0.176,0.671-0.353,0.994c-0.205,0.385-0.455,0.666-0.75,0.842c-0.208,0.148-0.385,0.266-0.53,0.355
		c-0.149,0.089-0.354,0.134-0.621,0.134c-0.414,0-0.826-0.118-1.238-0.354c-0.295-0.179-0.53-0.4-0.708-0.666
		c-0.178-0.265-0.313-0.516-0.399-0.752c-0.091-0.235-0.163-0.544-0.223-0.93V4.16c-0.027-0.147-0.02-0.478,0.025-0.996
		c0.041-0.516,0.152-0.951,0.329-1.307c0.295-0.62,0.902-0.973,1.814-1.062c0.504-0.058,0.915-0.028,1.238,0.089
		c0.326,0.119,0.607,0.311,0.844,0.577c0.204,0.235,0.336,0.464,0.396,0.685c0.059,0.222,0.117,0.451,0.176,0.688
		c0.091,0.294,0.143,0.603,0.157,0.927c0.014,0.328,0.024,0.651,0.024,0.976c-0.031,0.118-0.045,0.295-0.045,0.529v3.895
		c0.145,0.03,0.419,0.052,0.819,0.066c0.398,0.015,0.8,0.037,1.213,0.065v-4.16V4.602c-0.027-0.324-0.035-0.642-0.021-0.951
		c0.014-0.311,0.065-0.627,0.156-0.952c0.117-0.442,0.382-0.886,0.795-1.328c0.471-0.588,1.164-0.824,2.081-0.708
		c0.767,0.119,1.298,0.501,1.593,1.149c0.177,0.355,0.288,0.784,0.332,1.286c0.042,0.5,0.053,0.809,0.021,0.927V18.851z"/>
	<path fill="#E62A52" d="M124.753,6.083c0-0.379,0.007-0.799,0.021-1.252c0.014-0.456,0.059-0.909,0.131-1.363
		c0.072-0.453,0.176-0.88,0.307-1.274c0.135-0.397,0.331-0.726,0.597-0.99c0.379-0.38,0.848-0.57,1.406-0.57h0.086
		c0.734,0.029,1.303,0.242,1.714,0.637c0.409,0.396,0.728,0.872,0.944,1.429c0.22,0.556,0.362,1.135,0.421,1.735
		c0.059,0.602,0.086,1.136,0.086,1.604v26.067v0.416c0,0.25-0.027,0.548-0.086,0.899c-0.059,0.353-0.148,0.704-0.266,1.056
		s-0.307,0.644-0.572,0.88c-0.204,0.206-0.497,0.368-0.879,0.485c-0.379,0.117-0.73,0.176-1.056,0.176
		c-0.703,0-1.258-0.234-1.668-0.702c-0.383-0.412-0.624-0.814-0.728-1.21c-0.1-0.396-0.183-0.841-0.241-1.342
		c0-0.261-0.007-0.651-0.021-1.166c-0.014-0.51-0.021-1.067-0.021-1.669v-1.801v-1.518h-2.728c-0.672,0-1.192-0.101-1.562-0.307
		c-0.366-0.206-0.62-0.469-0.769-0.792c-0.086-0.176-0.17-0.358-0.241-0.55c-0.072-0.188-0.11-0.387-0.11-0.592v-0.527
		c0-0.146,0.03-0.322,0.09-0.528c0.059-0.233,0.131-0.484,0.221-0.749c0.086-0.264,0.217-0.468,0.393-0.615
		c0.382-0.292,0.793-0.481,1.23-0.569c0.469-0.088,1.02-0.14,1.648-0.156c0.63-0.014,1.195-0.05,1.692-0.108V20.17v-1.427
		c0-0.529-0.007-1.065-0.021-1.605c-0.014-0.542-0.021-1.062-0.021-1.561l-2.638-0.088c-0.559-0.029-1.055-0.103-1.497-0.221
		c-0.437-0.117-0.729-0.336-0.878-0.659c-0.203-0.41-0.307-0.806-0.307-1.187v-0.528c0-0.146,0.027-0.321,0.086-0.528
		c0.059-0.233,0.135-0.469,0.221-0.703c0.09-0.235,0.221-0.422,0.396-0.571c0.378-0.292,0.788-0.484,1.23-0.571
		c0.32-0.06,0.769-0.095,1.342-0.111c0.568-0.014,1.236-0.05,1.999-0.107V7.686C124.708,6.91,124.722,6.375,124.753,6.083"/>
	<path fill="#00B3CC" d="M89.051,43.142H2.822c-1.51,0-2.734-0.992-2.734-2.217c0-1.222,1.224-2.214,2.734-2.214h86.229
		c1.51,0,2.734,0.992,2.734,2.214C91.785,42.149,90.561,43.142,89.051,43.142"/>
	<path fill="#00B3CC" d="M63.428,28.458c0.498,1.526,1.332,2.699,2.506,3.519c0.322,0.294,0.659,0.534,1.01,0.723
		c0.352,0.191,0.732,0.391,1.143,0.594c0.731,0.353,1.493,0.587,2.287,0.703c0.203,0,0.402,0.015,0.59,0.045
		c0.192,0.027,0.404,0.045,0.639,0.045c0.176,0.06,0.359,0.086,0.55,0.086h0.55c0.146,0.06,0.284,0.09,0.417,0.09h0.375h0.791
		c0.146-0.059,0.284-0.09,0.417-0.09h0.328h0.442c0.146,0,0.291-0.026,0.439-0.086c0.409-0.09,0.811-0.168,1.208-0.241
		c0.396-0.075,0.784-0.169,1.165-0.285c0.409-0.09,0.807-0.222,1.188-0.397c0.38-0.176,0.762-0.383,1.142-0.617
		c0.5-0.352,0.946-0.717,1.339-1.097c0.398-0.382,0.756-0.82,1.079-1.32c0.556-0.967,0.924-2.021,1.1-3.165
		c0.088-0.176,0.145-0.381,0.176-0.615c0.028-0.235,0.071-0.468,0.131-0.704c0-0.176,0.014-0.373,0.045-0.593
		c0.028-0.219,0.043-0.417,0.043-0.593c0.059-0.38,0.074-0.732,0.045-1.055c-0.029-0.322-0.077-0.644-0.133-0.966
		c-0.06-0.322-0.119-0.652-0.176-0.99c-0.06-0.336-0.131-0.667-0.219-0.99c-0.06-0.38-0.155-0.732-0.286-1.054
		c-0.133-0.322-0.287-0.628-0.462-0.922c-0.322-0.556-0.747-1.101-1.274-1.627c-0.206-0.206-0.418-0.395-0.637-0.572
		c-0.221-0.175-0.417-0.308-0.594-0.396c-0.496-0.293-0.996-0.557-1.494-0.792c-0.294-0.147-0.579-0.271-0.858-0.373
		c-0.278-0.103-0.577-0.198-0.9-0.286c-0.088-0.059-0.197-0.11-0.33-0.153c-0.131-0.045-0.271-0.066-0.418-0.066
		c-0.146-0.06-0.287-0.088-0.416-0.088c-0.133,0-0.258-0.029-0.373-0.088c-0.237-0.059-0.493-0.102-0.77-0.131
		c-0.28-0.029-0.535-0.045-0.769-0.045c-0.5-0.088-1.011-0.088-1.539,0c-0.762,0-1.488,0.066-2.175,0.197
		c-0.689,0.133-1.326,0.346-1.912,0.638c-0.674,0.235-1.269,0.528-1.78,0.879c-0.515,0.352-1.003,0.776-1.473,1.274
		c-0.469,0.41-0.874,0.887-1.209,1.429c-0.336,0.543-0.651,1.12-0.945,1.734c-0.235,0.645-0.417,1.3-0.55,1.957
		c-0.131,0.66-0.195,1.371-0.195,2.133c0,0.733,0.049,1.449,0.152,2.153C62.936,26.963,63.136,27.696,63.428,28.458 M68.526,23.316
		c0.116-0.439,0.241-0.842,0.374-1.208c0.131-0.367,0.317-0.695,0.549-0.989c0.235-0.323,0.5-0.58,0.793-0.769
		c0.291-0.19,0.598-0.36,0.92-0.506c0.322-0.147,0.661-0.248,1.012-0.307s0.717-0.088,1.098-0.088c0.791,0,1.569,0.088,2.332,0.264
		c0.145,0.059,0.283,0.116,0.417,0.175c0.131,0.06,0.256,0.131,0.374,0.219c0.233,0.088,0.468,0.206,0.703,0.352
		c0.264,0.176,0.439,0.367,0.527,0.573c0.118,0.059,0.206,0.14,0.264,0.242s0.131,0.197,0.219,0.285
		c0.088,0.146,0.182,0.316,0.286,0.504c0.102,0.193,0.182,0.389,0.242,0.594c0.145,0.499,0.24,0.967,0.285,1.406
		c0.043,0.439,0.007,0.909-0.109,1.406c-0.088,0.323-0.176,0.632-0.264,0.924c-0.088,0.294-0.236,0.601-0.44,0.921
		c-0.381,0.617-0.85,1.055-1.407,1.319c-0.205,0.088-0.403,0.176-0.592,0.264c-0.192,0.088-0.389,0.133-0.592,0.133
		c-0.236,0.06-0.456,0.088-0.663,0.088c-0.204,0-0.423,0.029-0.658,0.088c-0.411,0-0.83-0.029-1.252-0.088
		c-0.425-0.059-0.843-0.161-1.253-0.309c-1.142-0.44-2.006-1.113-2.593-2.022c-0.235-0.439-0.425-1.01-0.572-1.713
		C68.438,24.458,68.438,23.874,68.526,23.316"/>
	<path fill="#00B3CC" d="M34.954,29.913c0.017,0.543,0.023,1.047,0.023,1.514c0,0.471-0.018,0.781-0.046,0.925
		c0,0.324,0.039,0.611,0.11,0.857c0.074,0.25,0.169,0.535,0.287,0.855c0.176,0.617,0.469,1.088,0.877,1.408
		c0.411,0.323,0.873,0.558,1.386,0.702c0.513,0.148,1.054,0.228,1.627,0.244c0.569,0.015,1.103,0.021,1.604,0.021
		c0.469,0,0.937-0.006,1.407-0.021c0.467-0.017,0.922-0.009,1.363,0.021h1.559h2.574h2.571h1.56h1.494
		c0.233-0.029,0.482-0.037,0.746-0.021c0.267,0.015,0.514,0.021,0.749,0.021h1.383c0.485,0,0.961-0.021,1.429-0.065
		c0.469-0.045,0.932-0.131,1.386-0.266c0.455-0.131,0.859-0.344,1.209-0.636c0.44-0.381,0.717-0.725,0.834-1.031
		c0.116-0.307,0.028-0.697-0.264-1.166c-0.352-0.586-0.844-0.958-1.472-1.119c-0.631-0.163-1.209-0.242-1.735-0.242
		c-0.352,0-0.705-0.007-1.056-0.023c-0.351-0.015-0.689-0.008-1.011,0.023H42.8c-0.176-0.031-0.351-0.031-0.526,0
		c-0.176,0.028-0.352,0.034-0.529,0.021c-0.176-0.015-0.329-0.06-0.461-0.131c-0.131-0.073-0.24-0.229-0.328-0.464
		c-0.118-0.234-0.164-0.41-0.133-0.527c0.027-0.116,0.027-0.307,0-0.571l-0.264-2.726c-0.03-0.264-0.061-0.528-0.088-0.792
		c-0.03-0.264-0.072-0.511-0.132-0.747c-0.088-0.352-0.249-0.688-0.485-1.011c-0.263-0.381-0.657-0.645-1.185-0.792
		c-0.146-0.058-0.309-0.094-0.484-0.11c-0.176-0.014-0.337-0.021-0.482-0.021c-0.323,0-0.662,0.073-1.011,0.219
		c-0.176,0.146-0.389,0.316-0.637,0.504c-0.25,0.192-0.432,0.375-0.549,0.55c-0.176,0.324-0.309,0.667-0.396,1.036
		c-0.088,0.365-0.161,0.739-0.22,1.12c0,0.146,0.007,0.454,0.022,0.921C34.925,28.864,34.94,29.371,34.954,29.913"/>
	<path fill="#00B3CC" d="M94.286,21.688v-2.855c-0.062-0.322-0.089-0.667-0.089-1.033v-1.035c0-0.322-0.044-0.643-0.131-0.967
		c-0.089-0.322-0.205-0.645-0.353-0.967c-0.176-0.439-0.454-0.804-0.835-1.098c-0.235-0.146-0.47-0.248-0.706-0.309
		c-0.234-0.058-0.468-0.087-0.702-0.087h-0.638c-0.189,0-0.388,0.029-0.592,0.087c-0.235,0.088-0.558,0.281-0.967,0.572
		c-0.439,0.5-0.704,1.145-0.792,1.935c-0.088,0.469-0.14,0.893-0.154,1.273c-0.014,0.382-0.021,0.762-0.021,1.144l0.088,26.065
		v0.482c0,0.09,0.016,0.207,0.045,0.353c0.029,0.147,0.072,0.293,0.131,0.442c0,0.202,0.029,0.396,0.088,0.571
		c0.059,0.175,0.133,0.366,0.221,0.567c0.203,0.471,0.424,0.781,0.658,0.925c0.234,0.267,0.601,0.455,1.1,0.573
		c0.381,0.058,0.746,0.058,1.098,0c0.351-0.061,0.66-0.191,0.923-0.396c0.235-0.086,0.41-0.189,0.529-0.308
		c0.116-0.117,0.232-0.221,0.351-0.307c0.058-0.147,0.117-0.272,0.176-0.376c0.058-0.104,0.114-0.227,0.176-0.373
		c0.202-0.291,0.308-0.675,0.308-1.143c0.06-0.236,0.089-0.484,0.089-0.746v-0.838c0-0.41-0.019-0.841-0.044-1.296
		c-0.029-0.455-0.018-0.913,0.044-1.387V36.15c0.06-0.553,0.087-1.126,0.087-1.712v-1.894v-7.119v-1.933
		C94.373,22.876,94.346,22.275,94.286,21.688"/>
	<path fill="#00B3CC" d="M62.405,56.483c-0.352-0.176-0.762-0.292-1.231-0.352H38.799v-1.537h19.958c0.38,0,0.762-0.007,1.143-0.024
		c0.381-0.014,0.762-0.138,1.143-0.372c0.469-0.267,0.798-0.594,0.987-0.99c0.191-0.396,0.288-0.799,0.288-1.211v-3.381
		c0-1.027-0.395-1.764-1.187-2.22c-0.792-0.455-1.935-0.683-3.429-0.683h-6.813h-4.922c-1.378,0-2.527-0.007-3.451-0.02
		c-0.923-0.015-1.713-0.025-2.375-0.025h-1.671h-1.341c-0.469,0-0.921,0.045-1.361,0.135c-0.176,0.027-0.374,0.059-0.592,0.086
		c-0.221,0.031-0.449,0.09-0.683,0.176c-0.234,0.09-0.439,0.2-0.616,0.331c-0.176,0.13-0.307,0.313-0.395,0.548
		c-0.205,0.645-0.104,1.275,0.307,1.889c0.146,0.235,0.322,0.385,0.528,0.441c0.204,0.06,0.439,0.118,0.704,0.176
		c0.232,0.06,0.468,0.086,0.703,0.086h0.791h20.75v1.673h-8.507c-2.329,0-4.256,0.007-5.781,0.021
		c-1.522,0.017-2.718,0.023-3.58,0.023H37.48c-0.645,0-1.273,0.066-1.889,0.197c-0.614,0.131-1.128,0.416-1.539,0.857
		c-0.264,0.293-0.447,0.659-0.549,1.096c-0.104,0.441-0.139,0.826-0.109,1.146l0.131,3.074c0.059,0.676,0.293,1.217,0.704,1.628
		c0.41,0.409,0.924,0.63,1.539,0.662c0.644,0.027,1.283,0.047,1.912,0.065C38.31,59.992,38.917,60,39.503,60h20.439
		c0.322,0,0.661-0.014,1.012-0.045c0.352-0.028,0.704-0.118,1.055-0.262c1.112-0.441,1.494-1.19,1.143-2.24
		C63.005,56.979,62.756,56.659,62.405,56.483"/>
	<path fill="#00B3CC" d="M4.452,28.233c0.528,0.762,1.136,1.399,1.825,1.912c0.689,0.512,1.429,0.929,2.219,1.254
		c0.792,0.32,1.611,0.555,2.461,0.703c0.85,0.146,1.716,0.248,2.595,0.306l0.043,6.36h5.624l-0.086-6.315
		c1.435,0,2.82-0.176,4.155-0.526c1.331-0.352,2.519-0.904,3.559-1.648c1.04-0.749,1.897-1.701,2.572-2.857
		c0.672-1.158,1.071-2.573,1.188-4.242c0.116-1.466-0.016-2.843-0.397-4.133c-0.382-1.289-1.083-2.49-2.109-3.604
		c-0.411-0.438-0.85-0.821-1.319-1.143c-0.468-0.322-0.952-0.599-1.449-0.834c-1.114-0.498-2.272-0.82-3.474-0.965
		c-1.202-0.148-2.401-0.264-3.604-0.352c-1.466-0.118-2.924-0.111-4.374,0.02c-1.451,0.133-2.878,0.433-4.285,0.901
		c-2.109,0.675-3.774,1.781-4.991,3.319c-1.214,1.539-1.823,3.45-1.823,5.736c0,1.114,0.11,2.185,0.33,3.21
		C3.332,26.358,3.777,27.325,4.452,28.233 M8.848,21.418c0.176-1.171,0.704-2.027,1.582-2.571c0.879-0.541,1.898-0.899,3.056-1.075
		c1.158-0.176,2.336-0.215,3.538-0.111c1.202,0.102,2.212,0.199,3.034,0.287c1.406,0.176,2.555,0.634,3.448,1.384
		c0.895,0.745,1.371,1.883,1.43,3.405c0.029,0.353,0,0.719-0.088,1.1c-0.146,0.526-0.382,0.988-0.703,1.383
		c-0.323,0.395-0.704,0.727-1.143,0.991c-0.44,0.263-0.915,0.475-1.429,0.634c-0.512,0.164-1.018,0.287-1.516,0.375
		c-1.026,0.206-2.074,0.264-3.145,0.176c-1.069-0.088-2.117-0.188-3.142-0.307c-1.054-0.088-1.918-0.309-2.592-0.66
		c-0.674-0.351-1.202-0.776-1.582-1.274c-0.384-0.497-0.625-1.07-0.726-1.714C8.766,22.796,8.76,22.122,8.848,21.418"/>
	<g>
		<path fill="#00B3CC" d="M193.877,39.779c-1.739-1.33-3.608-1.333-4.184-1.296c-0.157,0.009-0.311,0.018-0.468,0.02l-16.331,0.278
			c-0.264,0.003-0.524-0.097-0.718-0.278l-3.718-3.454h-1.386c-0.202,0-0.336,0.203-0.262,0.387
			c0.278,0.666,0.867,2.085,1.358,3.275H96.307v4.432l83.149-0.045l-5.104,8.408c-0.169,0.277,0.032,0.632,0.354,0.632h1.825
			c0.283,0,0.556-0.114,0.752-0.318l8.678-8.825c0,0,2.691,0.023,5.095,0c2.403-0.029,2.901-0.523,3.056-0.6
			C194.27,42.313,195.968,41.372,193.877,39.779z"/>
		<path fill="#00B3CC" d="M177.497,37.376h4.966l-4.913-4.548c-0.204-0.184-0.465-0.287-0.739-0.287h-1.374
			c-0.293,0-0.481,0.316-0.335,0.572L177.497,37.376z"/>
	</g>
	<path fill="#E62A52" d="M109.131,0.89c0.387,0,0.756,0.018,1.112,0.047c0.355,0.029,0.713,0.076,1.068,0.131
		c1.127,0.182,2.122,0.7,2.984,1.562c0.711,0.772,1.297,1.655,1.759,2.65c0.461,0.995,0.824,2.042,1.092,3.139
		c0.266,1.1,0.462,2.22,0.581,3.363c0.117,1.143,0.205,2.249,0.264,3.316c0.061,1.368,0.078,2.734,0.047,4.098
		c-0.033,1.368-0.119,2.719-0.27,4.055c-0.146,1.394-0.364,2.798-0.647,4.208c-0.279,1.409-0.791,2.681-1.534,3.809
		c-0.621,0.952-1.396,1.728-2.313,2.34c-0.923,0.607-1.89,1.016-2.898,1.221c-0.917,0.178-1.853,0.209-2.806,0.09
		c-0.95-0.117-1.853-0.428-2.715-0.934c-0.803-0.475-1.478-1.069-2.028-1.78c-0.548-0.716-1.03-1.546-1.444-2.495
		c-0.594-1.427-0.936-2.897-1.026-4.409c-0.119-1.247-0.199-2.496-0.245-3.741c-0.046-1.249-0.065-2.494-0.065-3.742
		c0-0.86,0.006-1.7,0.02-2.517c0.018-0.817,0.066-1.64,0.158-2.47c0.059-0.682,0.133-1.36,0.224-2.026
		c0.087-0.668,0.191-1.331,0.311-1.982c0.118-0.535,0.224-1.038,0.311-1.516c0.09-0.473,0.254-0.964,0.492-1.47
		c0.236-0.502,0.494-0.977,0.778-1.423c0.282-0.447,0.617-0.846,1.001-1.202c0.652-0.655,1.383-1.159,2.182-1.517
		c0.804-0.355,1.633-0.592,2.496-0.713c0.178-0.029,0.362-0.043,0.555-0.043C108.767,0.937,108.952,0.921,109.131,0.89z
		 M108.998,28.906c0.561,0,1.112-0.178,1.646-0.536c0.503-0.355,0.862-0.831,1.068-1.425c0.208-0.592,0.388-1.247,0.533-1.96
		c0.238-1.364,0.375-2.82,0.402-4.364c0.031-1.544,0.014-3.027-0.046-4.454c0-0.563-0.015-1.165-0.041-1.806
		c-0.031-0.635-0.084-1.269-0.157-1.89c-0.073-0.625-0.187-1.226-0.336-1.806c-0.147-0.578-0.355-1.09-0.62-1.536
		c-0.301-0.506-0.657-0.891-1.073-1.157c-0.415-0.268-0.857-0.373-1.336-0.314c-0.503,0.063-0.964,0.24-1.378,0.538
		c-0.416,0.297-0.759,0.74-1.027,1.334l-0.397,0.936c-0.178,0.565-0.314,1.151-0.4,1.759c-0.092,0.608-0.165,1.212-0.224,1.804
		c-0.06,0.594-0.106,1.202-0.134,1.825c-0.032,0.625-0.046,1.233-0.046,1.828c0.027,0.594,0.021,1.174-0.02,1.737
		c-0.046,0.563-0.039,1.143,0.02,1.735c0.06,0.772,0.14,1.604,0.245,2.494c0.105,0.893,0.275,1.731,0.514,2.517
		c0.236,0.787,0.578,1.44,1.021,1.96C107.661,28.646,108.253,28.906,108.998,28.906z M125.343,6.415c0-0.385,0.006-0.809,0.02-1.268
		c0.016-0.461,0.061-0.92,0.133-1.384c0.078-0.457,0.178-0.889,0.314-1.29c0.133-0.401,0.331-0.737,0.601-1.002
		c0.389-0.385,0.861-0.581,1.425-0.581h0.092c0.738,0.031,1.316,0.248,1.733,0.649c0.414,0.398,0.736,0.883,0.959,1.446
		c0.225,0.565,0.363,1.151,0.422,1.759c0.059,0.609,0.088,1.151,0.088,1.625v26.41c0,0.031,0,0.17,0,0.426
		c0,0.251-0.029,0.556-0.088,0.911s-0.15,0.711-0.268,1.071c-0.119,0.355-0.311,0.652-0.576,0.889
		c-0.209,0.205-0.506,0.371-0.894,0.488c-0.385,0.119-0.74,0.178-1.068,0.178c-0.712,0-1.276-0.236-1.692-0.711
		c-0.383-0.416-0.634-0.822-0.733-1.226c-0.105-0.4-0.189-0.854-0.248-1.355c0-0.271-0.008-0.661-0.021-1.181
		s-0.02-1.087-0.02-1.692c0-0.61,0-1.22,0-1.827c0-0.608,0-1.12,0-1.536h-2.761c-0.685,0-1.212-0.105-1.581-0.313
		c-0.374-0.207-0.632-0.475-0.782-0.801c-0.088-0.178-0.172-0.361-0.244-0.557c-0.074-0.193-0.111-0.393-0.111-0.602
		c0-0.207,0-0.385,0-0.534c0-0.148,0.031-0.326,0.09-0.535c0.061-0.236,0.133-0.489,0.225-0.756
		c0.086-0.266,0.219-0.475,0.396-0.624c0.388-0.295,0.804-0.49,1.251-0.578c0.473-0.09,1.028-0.141,1.667-0.155
		c0.639-0.018,1.212-0.053,1.714-0.113c0-0.207,0-0.525,0-0.958c0-0.428,0-0.913,0-1.446c0-0.537-0.006-1.077-0.021-1.627
		c-0.014-0.547-0.02-1.075-0.02-1.581l-2.674-0.088c-0.566-0.029-1.068-0.104-1.516-0.223c-0.442-0.117-0.739-0.342-0.89-0.668
		c-0.211-0.415-0.311-0.817-0.311-1.202c0-0.207,0-0.385,0-0.533c0-0.149,0.027-0.329,0.088-0.538
		c0.059-0.236,0.137-0.473,0.223-0.711c0.092-0.236,0.223-0.43,0.402-0.579c0.384-0.297,0.802-0.488,1.245-0.58
		c0.328-0.059,0.778-0.096,1.358-0.109c0.578-0.016,1.255-0.051,2.026-0.112c0-0.981,0-1.864,0-2.652
		C125.296,7.255,125.31,6.712,125.343,6.415z"/>
</g>
</svg>
