<?xml version="1.0" encoding="utf-8"?>
<!-- Generator: Adobe Illustrator 16.0.0, SVG Export Plug-In . SVG Version: 6.00 Build 0)  -->
<!DOCTYPE svg PUBLIC "-//W3C//DTD SVG 1.1//EN" "http://www.w3.org/Graphics/SVG/1.1/DTD/svg11.dtd">
<svg version="1.1" id="Layer_1" xmlns="http://www.w3.org/2000/svg" xmlns:xlink="http://www.w3.org/1999/xlink" x="0px" y="0px"
	 width="24px" height="30px" viewBox="0 0 24 30" enable-background="new 0 0 24 30" xml:space="preserve">
<g>
	<g>
		<path fill="#94D8F0" d="M20.943,11.279h-1.004V8.943C19.939,4.566,16.377,1,12,1C7.624,1,4.062,4.566,4.062,8.943v2.336H3.061
			V8.943C3.061,4.012,7.072,0,12,0c4.933,0,8.943,4.012,8.943,8.943V11.279z"/>
	</g>
	<g>
		<path fill="#94D8F0" d="M21.527,30H2.473C1,30-0.2,28.801-0.2,27.323V13.455c0-1.478,1.2-2.677,2.673-2.677h19.055
			c1.474,0,2.673,1.199,2.673,2.677v13.868C24.2,28.801,23.001,30,21.527,30z M2.473,11.779c-0.921,0-1.672,0.754-1.672,1.676
			v13.868c0,0.921,0.75,1.676,1.672,1.676h19.055c0.922,0,1.672-0.755,1.672-1.676V13.455c0-0.922-0.75-1.676-1.672-1.676H2.473z"/>
	</g>
	<g>
		<path fill="#94D8F0" d="M14.59,15.1v-0.787h-1.839H12h-0.75v6.22c-1.064,0.317-1.839,1.302-1.839,2.478
			c0,1.43,1.16,2.59,2.589,2.59s2.59-1.16,2.59-2.59c0-1.176-0.775-2.16-1.839-2.478v-3.432h1.839v-0.778h-1.839V15.1H14.59z"/>
	</g>
</g>
</svg>
