<?xml version="1.0" encoding="utf-8"?>
<!-- Generator: Adobe Illustrator 16.0.0, SVG Export Plug-In . SVG Version: 6.00 Build 0)  -->
<!DOCTYPE svg PUBLIC "-//W3C//DTD SVG 1.1//EN" "http://www.w3.org/Graphics/SVG/1.1/DTD/svg11.dtd">
<svg version="1.1" id="레이어_1" xmlns="http://www.w3.org/2000/svg" xmlns:xlink="http://www.w3.org/1999/xlink" x="0px"
	 y="0px" width="24px" height="3.273px" viewBox="0 13.369 24 3.273" enable-background="new 0 13.369 24 3.273"
	 xml:space="preserve">
<path fill="#FFFFFF" d="M21.69,14.802c-0.108,0.018-0.397,0.126-0.397,0.126c-0.035,0.036-0.107-0.036-0.018-0.108
	c0.09-0.072,0.396-0.234,0.396-0.234l-0.18-0.523c0-0.018,0-0.036,0.018-0.036l0.072-0.018c0.018,0,0.036,0,0.055,0.018l0.27,0.379
	c0.019,0.036,0.055,0.036,0.091,0.036c0.234-0.108,0.632-0.18,0.632-0.18c0.145-0.018,0.18,0.126,0.18,0.126l0.091,0.198
	c-0.308-0.018-0.794,0.108-0.794,0.108c0.126,0.216,0.234,0.198,0.271,0.198c0.019,0,0.036-0.018,0.054-0.018
	c0.091-0.018,0.344-0.054,0.56-0.054c0.235,0.018,0.614,0.235,0.614,0.235c-1.228,0.108-2.094,0.379-2.094,0.379L21.69,14.802z
	 M24,15.361c-0.198,0.289-0.506,0.884-0.632,1.155c-0.036,0.072-0.09,0.108-0.144,0.108h-2.383c-0.054,0-0.107-0.072-0.09-0.145
	c0.036-0.181,0.145-0.505,0.434-0.632c0.486-0.216,1.118-0.396,2.778-0.559C24,15.289,24.018,15.343,24,15.361 M21.654,16.191
	c0-0.091-0.055-0.181-0.127-0.181s-0.126,0.071-0.126,0.181c0,0.09,0.054,0.18,0.126,0.18C21.6,16.354,21.654,16.281,21.654,16.191
	 M22.088,16.101c0-0.09-0.055-0.181-0.127-0.181s-0.127,0.072-0.127,0.181c0,0.091,0.055,0.181,0.127,0.181
	S22.088,16.191,22.088,16.101 M22.502,16.047c0-0.09-0.054-0.181-0.126-0.181s-0.126,0.072-0.126,0.181
	c0,0.09,0.054,0.18,0.126,0.18S22.502,16.154,22.502,16.047 M23.459,13.755c-0.037-0.036-0.072-0.054-0.127-0.054
	c-0.035,0-0.09,0.018-0.126,0.036c-0.019,0.018-0.036,0.018-0.054,0.036l-0.019,0.018l-0.036-0.018
	c-0.018-0.018-0.036-0.018-0.055-0.036c-0.035-0.018-0.09-0.036-0.125-0.036c-0.037,0-0.091,0.018-0.127,0.054
	s-0.072,0.072-0.09,0.108c0.035-0.036,0.072-0.054,0.107-0.054c0.037-0.018,0.072-0.018,0.109,0c0.035,0,0.071,0.018,0.09,0.036
	c0.018,0.018,0.035,0.018,0.054,0.036l0.036,0.036c0.018,0.018,0.036,0.018,0.055,0l0.035-0.036
	c0.019-0.018,0.037-0.018,0.055-0.036c0.036-0.018,0.072-0.036,0.09-0.036c0.036,0,0.072,0,0.108,0
	c0.036,0.018,0.072,0.036,0.108,0.054C23.531,13.827,23.494,13.773,23.459,13.755 M23.802,13.539
	c-0.019-0.036-0.054-0.054-0.091-0.054c-0.035-0.018-0.072-0.018-0.09,0c-0.018,0-0.036,0.018-0.055,0.018l-0.018,0.018
	l-0.018-0.018c-0.019-0.018-0.019-0.036-0.037-0.036c-0.035-0.018-0.054-0.036-0.09-0.054c-0.036,0-0.072,0-0.09,0
	c-0.036,0.018-0.055,0.036-0.072,0.072c0.036-0.018,0.055-0.018,0.09-0.018c0.036,0,0.055,0,0.072,0.018s0.055,0.036,0.072,0.054
	s0.018,0.018,0.036,0.036l0.036,0.036c0.018,0.018,0.018,0.018,0.036,0.018l0.036-0.018c0.018,0,0.018-0.018,0.036-0.018
	s0.054-0.018,0.072-0.018s0.054,0.018,0.071,0.036c0.019,0.018,0.055,0.036,0.072,0.072C23.855,13.592,23.838,13.557,23.802,13.539"
	/>
<path fill="#FFFFFF" d="M11.458,16.264h-0.072v-2.274c0-0.036-0.036-0.072-0.072-0.072h-0.415v2.346h-0.163v-2.707
	c0-0.108-0.072-0.181-0.163-0.181H9.113c-0.09,0-0.163,0.09-0.163,0.181v2.707H8.788v-1.336H8.535c-0.036,0-0.072,0.036-0.072,0.072
	v1.264H8.391c-0.054,0-0.09,0.035-0.09,0.09v0.18c0,0.055,0.036,0.091,0.09,0.091h3.085c0.054,0,0.09-0.036,0.09-0.091v-0.18
	C11.549,16.299,11.513,16.264,11.458,16.264 M9.834,13.899c0-0.036,0.036-0.072,0.072-0.072h0.181c0.036,0,0.072,0.036,0.072,0.072
	v0.198c0,0.036-0.036,0.072-0.072,0.072H9.907c-0.036,0-0.072-0.036-0.072-0.072V13.899z M9.834,14.44
	c0-0.036,0.036-0.072,0.072-0.072h0.181c0.036,0,0.072,0.036,0.072,0.072v0.199c0,0.036-0.036,0.072-0.072,0.072H9.907
	c-0.036,0-0.072-0.036-0.072-0.072V14.44z M9.347,13.899c0-0.036,0.036-0.072,0.072-0.072H9.6c0.036,0,0.072,0.036,0.072,0.072
	v0.198c0,0.036-0.036,0.072-0.072,0.072H9.419c-0.036,0-0.072-0.036-0.072-0.072V13.899z M9.347,14.44
	c0-0.036,0.036-0.072,0.072-0.072H9.6c0.036,0,0.072,0.036,0.072,0.072v0.199c0,0.036-0.036,0.072-0.072,0.072H9.419
	c-0.036,0-0.072-0.036-0.072-0.072V14.44z M9.347,14.982c0-0.036,0.036-0.072,0.072-0.072H9.6c0.036,0,0.072,0.036,0.072,0.072
	v0.199c0,0.036-0.036,0.072-0.072,0.072H9.419c-0.036,0-0.072-0.036-0.072-0.072V14.982z M10.177,16.264H9.329v-0.451
	c0-0.055,0.036-0.091,0.09-0.091h0.686c0.054,0,0.09,0.036,0.09,0.091v0.451H10.177z"/>
<path fill="#FFFFFF" d="M19.29,13.448c-0.071,0.036-0.144,0.09-0.216,0.144l-0.561,0.56c-0.018,0.018-0.054,0.036-0.072,0.036
	h-1.551c-0.037,0-0.072,0.018-0.091,0.036l-0.181,0.198c-0.018,0.036,0,0.09,0.037,0.108l1.118,0.361
	c0.036,0.018,0.054,0.054,0.019,0.09l-0.397,0.397l-0.614,0.018c-0.035,0-0.053,0.018-0.09,0.036l-0.072,0.073
	c-0.035,0.035-0.018,0.072,0.019,0.09l0.577,0.307c0.055,0.018,0.09,0.072,0.108,0.108l0.307,0.577
	c0.019,0.036,0.072,0.036,0.091,0.018l0.072-0.072c0.018-0.018,0.035-0.054,0.035-0.09l0.019-0.613l0.397-0.397
	c0.035-0.036,0.072-0.018,0.09,0.018l0.361,1.119c0.018,0.035,0.072,0.054,0.107,0.035l0.199-0.18
	c0.018-0.018,0.035-0.055,0.035-0.09v-1.57c0-0.036,0.019-0.054,0.037-0.072l0.559-0.56c0.055-0.054,0.108-0.126,0.145-0.198
	c0.072-0.126,0.127-0.343-0.018-0.469C19.615,13.322,19.416,13.376,19.29,13.448 M19.579,13.917l-0.145-0.145l-0.126-0.126
	c0.145-0.144,0.271,0,0.271,0S19.723,13.791,19.579,13.917"/>
<g>
	<path fill="#FFFFFF" d="M2.526,16.336H1.624H0.722c-0.072,0-0.144,0.054-0.144,0.107c0,0.055,0.054,0.108,0.144,0.108h0.902h0.902
		c0.072,0,0.145-0.054,0.145-0.108C2.671,16.371,2.599,16.336,2.526,16.336"/>
	<path fill="#FFFFFF" d="M2.978,16.154c0.162-0.018,0.271-0.126,0.271-0.252l-0.145-1.985c-0.018-0.163-0.18-0.289-0.379-0.289
		H2.111v-0.072l0,0c0-0.108-0.108-0.181-0.235-0.181H1.624H1.39c-0.126,0-0.235,0.09-0.235,0.181l0,0v0.054H0.542
		c-0.217,0.018-0.379,0.145-0.397,0.307L0,15.902c-0.018,0.126,0.108,0.234,0.271,0.252l-0.234,0.308
		C0,16.516,0.018,16.588,0.09,16.605c0.018,0.019,0.036,0.019,0.072,0.019c0.054,0,0.09-0.019,0.126-0.054l0.307-0.416h1.028h1.029
		l0.307,0.416c0.018,0.035,0.072,0.054,0.126,0.054c0.018,0,0.054,0,0.072-0.019c0.072-0.035,0.09-0.09,0.054-0.144L2.978,16.154z
		 M0.776,15.703c-0.163,0-0.289-0.107-0.289-0.234s0.126-0.235,0.289-0.235s0.289,0.108,0.289,0.235
		C1.083,15.596,0.938,15.703,0.776,15.703 M0.613,14.711V14.08h1.011h1.011v0.614H1.624H0.613V14.711z M2.472,15.703
		c-0.163,0-0.289-0.107-0.289-0.234s0.126-0.235,0.289-0.235s0.289,0.108,0.289,0.235S2.635,15.703,2.472,15.703"/>
</g>
<g>
	<path fill="#FFFFFF" d="M15.645,16.371h-0.054v-1.552c0-0.036-0.019-0.054-0.054-0.054H15.23v1.605h-0.109v-1.84
		c0-0.072-0.053-0.126-0.125-0.126h-1.029c-0.072,0-0.126,0.054-0.126,0.126v1.84h-0.108v-0.92h-0.181
		c-0.019,0-0.054,0.018-0.054,0.055v0.865h-0.055c-0.035,0-0.054,0.037-0.054,0.072v0.127c0,0.035,0.019,0.072,0.054,0.072h2.201
		c0.037,0,0.055-0.037,0.055-0.072v-0.127C15.699,16.408,15.682,16.371,15.645,16.371 M14.49,14.766
		c0-0.036,0.018-0.054,0.055-0.054h0.126c0.036,0,0.054,0.018,0.054,0.054v0.144c0,0.036-0.018,0.054-0.054,0.054h-0.126
		c-0.037,0-0.055-0.018-0.055-0.054V14.766z M14.49,15.145c0-0.036,0.018-0.054,0.055-0.054h0.126c0.036,0,0.054,0.018,0.054,0.054
		v0.144c0,0.036-0.018,0.054-0.054,0.054h-0.126c-0.037,0-0.055-0.018-0.055-0.054V15.145z M14.147,14.766
		c0-0.036,0.019-0.054,0.054-0.054h0.127c0.035,0,0.054,0.018,0.054,0.054v0.144c0,0.036-0.019,0.054-0.054,0.054h-0.127
		c-0.035,0-0.054-0.018-0.054-0.054V14.766z M14.147,15.145c0-0.036,0.019-0.054,0.054-0.054h0.127c0.035,0,0.054,0.018,0.054,0.054
		v0.144c0,0.036-0.019,0.054-0.054,0.054h-0.127c-0.035,0-0.054-0.018-0.054-0.054V15.145z M14.147,15.506
		c0-0.037,0.019-0.055,0.054-0.055h0.127c0.035,0,0.054,0.018,0.054,0.055v0.144c0,0.036-0.019,0.054-0.054,0.054h-0.127
		c-0.035,0-0.054-0.018-0.054-0.054V15.506z M14.725,16.371h-0.596v-0.307c0-0.036,0.037-0.072,0.055-0.072h0.469
		c0.036,0,0.055,0.036,0.055,0.072v0.307H14.725z"/>
	<path fill="#FFFFFF" d="M13.984,13.665l0.47-0.252c0,0,0.253-0.126,0.415,0.054c0,0,0.09,0.108-0.036,0.198
		s-1.462,0.848-1.642,0.957c0,0-0.019,0.018-0.037,0.018l-0.27,0.018c-0.019,0-0.055,0-0.072-0.018l-0.343-0.307
		c0,0-0.054-0.054,0-0.145s0.163-0.036,0.163-0.036l0.307,0.108c0.019,0,0.036,0,0.054,0l0.271-0.145c0.018,0,0.018-0.036,0-0.036
		l-0.542-0.289c-0.019-0.018-0.019-0.036,0-0.054l0.145-0.126c0.019-0.018,0.036-0.018,0.054-0.018l0.992,0.09
		C13.931,13.683,13.967,13.683,13.984,13.665"/>
</g>
<path fill="#FFFFFF" d="M7.398,14.693c0-0.145-0.09-0.235-0.198-0.235H7.092L7.02,13.827c-0.036-0.253-0.216-0.451-0.415-0.451
	h-0.83h-0.83c-0.216,0-0.397,0.198-0.415,0.451l-0.072,0.631H4.349c-0.108,0-0.198,0.09-0.198,0.235
	c0,0.108,0.072,0.216,0.163,0.234l-0.036,0.866c0,0.126,0.072,0.234,0.18,0.253v0.252c0,0,0,0.019,0,0.037
	c0,0.162,0.126,0.307,0.271,0.307c0.144,0,0.271-0.145,0.271-0.307v-0.289h0.776h0.794v0.289c0,0.162,0.126,0.307,0.271,0.307
	c0.145,0,0.271-0.145,0.271-0.307c0-0.019,0-0.019,0-0.037v-0.252c0.108-0.019,0.18-0.127,0.18-0.253l-0.036-0.866
	C7.326,14.892,7.398,14.802,7.398,14.693 M4.926,15.668c-0.108,0-0.198-0.108-0.198-0.235s0.09-0.234,0.198-0.234
	s0.199,0.108,0.199,0.234S5.035,15.668,4.926,15.668 M4.8,14.458l0.072-0.559c0-0.108,0.09-0.199,0.181-0.199h0.722h0.722
	c0.09,0,0.181,0.09,0.199,0.199l0.054,0.559c0,0-0.108,0.072-0.975,0.09C4.908,14.531,4.8,14.458,4.8,14.458 M6.623,15.668
	c-0.108,0-0.199-0.108-0.199-0.235s0.09-0.234,0.199-0.234s0.199,0.108,0.199,0.234S6.731,15.668,6.623,15.668"/>
</svg>
