<?xml version="1.0" encoding="utf-8"?>
<!-- Generator: Adobe Illustrator 22.1.0, SVG Export Plug-In . SVG Version: 6.00 Build 0)  -->
<svg version="1.1" id="레이어_1" xmlns="http://www.w3.org/2000/svg" xmlns:xlink="http://www.w3.org/1999/xlink" x="0px"
	 y="0px" viewBox="0 0 31.9 30" style="enable-background:new 0 0 31.9 30;" xml:space="preserve">
<style type="text/css">
	.st0{fill:#040000;}
</style>
<g>
	<g>
		<path class="st0" d="M22,20.9H3.6c-0.4,0-0.8-0.3-0.9-0.8L0,6.9c-0.1-0.5,0.2-1,0.7-1.1c0.5-0.1,1,0.2,1.1,0.7L4.4,19h16.9
			l3.4-18.3C24.7,0.3,25.1,0,25.6,0H31c0.5,0,0.9,0.4,0.9,0.9S31.5,1.9,31,1.9h-4.6L23,20.1C22.9,20.6,22.5,20.9,22,20.9z"/>
	</g>
	<g>
		<path class="st0" d="M6.1,30c-2.3,0-4.2-1.9-4.2-4.2s1.9-4.2,4.2-4.2s4.2,1.9,4.2,4.2S8.4,30,6.1,30z M6.1,24
			c-1,0-1.8,0.8-1.8,1.8c0,1,0.8,1.8,1.8,1.8s1.8-0.8,1.8-1.8C7.9,24.8,7.1,24,6.1,24z"/>
	</g>
	<g>
		<path class="st0" d="M20.8,30c-2.3,0-4.2-1.9-4.2-4.2s1.9-4.2,4.2-4.2s4.2,1.9,4.2,4.2S23.1,30,20.8,30z M20.8,24
			c-1,0-1.8,0.8-1.8,1.8c0,1,0.8,1.8,1.8,1.8s1.8-0.8,1.8-1.8C22.6,24.8,21.8,24,20.8,24z"/>
	</g>
	<g>
		<g>
			<path class="st0" d="M12.7,10.7c-0.6,0-1.2-0.5-1.2-1.2V1.4c0-0.6,0.5-1.2,1.2-1.2s1.2,0.5,1.2,1.2v8.2
				C13.9,10.2,13.3,10.7,12.7,10.7z"/>
		</g>
		<g>
			<g>
				<polygon class="st0" points="9.3,8.5 12.7,14.4 16.1,8.5 				"/>
			</g>
		</g>
	</g>
</g>
</svg>
