<?xml version="1.0" encoding="utf-8"?>
<!-- Generator: Adobe Illustrator 22.1.0, SVG Export Plug-In . SVG Version: 6.00 Build 0)  -->
<svg version="1.1" id="레이어_1" xmlns="http://www.w3.org/2000/svg" xmlns:xlink="http://www.w3.org/1999/xlink" x="0px"
	 y="0px" viewBox="0 0 49.8 30" style="enable-background:new 0 0 49.8 30;" xml:space="preserve">
<g>
	<path d="M49.8,2.6c0,1.4-0.6,2.6-1.4,2.6H14.2c-0.8,0-1.4-1.1-1.4-2.6l0,0c0-1.4,0.6-2.6,1.4-2.6h34.2C49.1,0,49.8,1.1,49.8,2.6
		L49.8,2.6z"/>
	<path d="M49.8,27.4c0,1.4-0.6,2.6-1.4,2.6H14.2c-0.8,0-1.4-1.1-1.4-2.6l0,0c0-1.4,0.6-2.6,1.4-2.6h34.2
		C49.1,24.9,49.8,26,49.8,27.4L49.8,27.4z"/>
	<path d="M12.8,15c0,1.4,0.6,2.6,1.4,2.6h34.2c0.8,0,1.4-1.1,1.4-2.6l0,0c0-1.4-0.6-2.6-1.4-2.6H14.2C13.4,12.4,12.8,13.6,12.8,15
		L12.8,15z"/>
	<path d="M12.8,2.6c0,1.4-1.5,2.6-3.3,2.6H3.3C1.5,5.1,0,4,0,2.6l0,0C0,1.1,1.5,0,3.3,0h6.2C11.3,0,12.8,1.1,12.8,2.6L12.8,2.6z"/>
	<path d="M12.8,15c0,1.4-1.5,2.6-3.3,2.6H3.3C1.5,17.6,0,16.4,0,15l0,0c0-1.4,1.5-2.6,3.3-2.6h6.2C11.3,12.4,12.8,13.6,12.8,15
		L12.8,15z"/>
	<path d="M12.8,27.4c0,1.4-1.5,2.6-3.3,2.6H3.3C1.5,30,0,28.9,0,27.4l0,0c0-1.4,1.5-2.6,3.3-2.6h6.2C11.3,24.9,12.8,26,12.8,27.4
		L12.8,27.4z"/>
</g>
</svg>
