<?xml version="1.0" encoding="utf-8"?>
<!-- Generator: Adobe Illustrator 22.1.0, SVG Export Plug-In . SVG Version: 6.00 Build 0)  -->
<svg version="1.1" id="레이어_1" xmlns="http://www.w3.org/2000/svg" xmlns:xlink="http://www.w3.org/1999/xlink" x="0px"
	 y="0px" viewBox="0 0 33 32.4" style="enable-background:new 0 0 33 32.4;" xml:space="preserve">
<style type="text/css">
	.st0{fill:#FFFFFF;stroke:#000000;stroke-width:3.8733;stroke-miterlimit:10;}
</style>
<g>
	<polygon class="st0" points="1.9,1.9 1.9,11 12.1,20 12.1,29.1 17.3,26.2 17.5,20 27.7,11 27.7,1.9 	"/>
	<path d="M26.7,20.7c-1.5,0-2.9,0.6-3.9,1.6l-1.1-1.1l-1.3,5l0.8-0.2l1.2-0.3l3-0.8l-1.7-1.7c0.8-0.7,1.8-1.2,3-1.2
		c2,0,3.7,1.3,4.2,3.2l1.3-0.1C31.6,22.5,29.4,20.7,26.7,20.7z"/>
	<path d="M32.3,27L31,27.3l-3,0.8l1.5,1.5c-0.8,0.6-1.7,1-2.8,1c-2,0-3.7-1.3-4.2-3.1l-1.3,0.1c0.6,2.5,2.8,4.3,5.5,4.3
		c1.4,0,2.7-0.5,3.7-1.4l1.3,1.3l1.3-5L32.3,27z"/>
</g>
</svg>
