<?xml version="1.0" encoding="utf-8"?>
<!-- Generator: Adobe Illustrator 16.0.0, SVG Export Plug-In . SVG Version: 6.00 Build 0)  -->
<!DOCTYPE svg PUBLIC "-//W3C//DTD SVG 1.1//EN" "http://www.w3.org/Graphics/SVG/1.1/DTD/svg11.dtd">
<svg version="1.1" id="Layer_1" xmlns="http://www.w3.org/2000/svg" xmlns:xlink="http://www.w3.org/1999/xlink" x="0px" y="0px"
	 width="60px" height="60px" viewBox="0 0 60 60" enable-background="new 0 0 60 60" xml:space="preserve">
<g>
	<path d="M60,49.367C60,55.239,55.292,60,49.483,60H10.517C4.708,60,0,55.239,0,49.367V10.633C0,4.761,4.708,0,10.517,0h38.967
		C55.292,0,60,4.761,60,10.633V49.367z"/>
	<g>
		<path fill="none" stroke="#FFFFFF" stroke-width="0.3787" stroke-miterlimit="10" d="M43.749,46.13
			c0,2.05-1.661,3.711-3.711,3.711H19.962c-2.05,0-3.711-1.661-3.711-3.711V10.753c0-2.05,1.661-3.712,3.711-3.712h20.076
			c2.05,0,3.711,1.662,3.711,3.712V46.13z"/>
		<text transform="matrix(1 0 0 1 19.6914 15.3027)" fill="#B01116" font-family="'Roboto-Black'" font-size="7.4793">NEWS</text>
		<path fill="#FFFFFF" d="M29.318,27.813c0,0.98-0.887,1.775-1.979,1.775h-7.221c-1.094,0-1.98-0.795-1.98-1.775v-6.788
			c0-0.98,0.887-1.775,1.98-1.775h7.221c1.093,0,1.979,0.795,1.979,1.775V27.813z"/>
		<path fill="#FFFFFF" d="M29.318,41.198c0,0.98-0.887,1.775-1.979,1.775h-7.221c-1.094,0-1.98-0.795-1.98-1.775V34.41
			c0-0.98,0.887-1.775,1.98-1.775h7.221c1.093,0,1.979,0.795,1.979,1.775V41.198z"/>
		<path fill="#FFFFFF" d="M42.007,24.708c0,0.625-0.884,1.131-1.975,1.131h-7.199c-1.091,0-1.975-0.506-1.975-1.131v-4.327
			c0-0.625,0.884-1.131,1.975-1.131h7.199c1.091,0,1.975,0.506,1.975,1.131V24.708z"/>
		<path fill="#FFFFFF" d="M42.007,33.984c0,0.625-0.884,1.132-1.975,1.132h-7.199c-1.091,0-1.975-0.507-1.975-1.132v-4.326
			c0-0.625,0.884-1.132,1.975-1.132h7.199c1.091,0,1.975,0.507,1.975,1.132V33.984z"/>
		<path fill="#FFFFFF" d="M42.007,43.262c0,0.625-0.884,1.132-1.975,1.132h-7.199c-1.091,0-1.975-0.507-1.975-1.132v-4.326
			c0-0.625,0.884-1.132,1.975-1.132h7.199c1.091,0,1.975,0.507,1.975,1.132V43.262z"/>
	</g>
</g>
</svg>
