<?xml version="1.0" encoding="utf-8"?>
<!-- Generator: Adobe Illustrator 16.0.0, SVG Export Plug-In . SVG Version: 6.00 Build 0)  -->
<!DOCTYPE svg PUBLIC "-//W3C//DTD SVG 1.1//EN" "http://www.w3.org/Graphics/SVG/1.1/DTD/svg11.dtd">
<svg version="1.1" id="Layer_1" xmlns="http://www.w3.org/2000/svg" xmlns:xlink="http://www.w3.org/1999/xlink" x="0px" y="0px"
	 width="60px" height="60px" viewBox="0 0 60 60" enable-background="new 0 0 60 60" xml:space="preserve">
<g>
	<path d="M60,49.367C60,55.239,55.292,60,49.483,60H10.517C4.708,60,0,55.239,0,49.367V10.633C0,4.761,4.708,0,10.517,0h38.967
		C55.292,0,60,4.761,60,10.633V49.367z"/>
	<g>
		<path fill-rule="evenodd" clip-rule="evenodd" fill="#FDC010" d="M37.549,36.463c-3.247,1.068-4.7,0.255-5.997-3.267
			c-1.029,0-2.075,0-3.113,0c-1.465,3.598-2.73,4.3-6.043,3.292c-1.015,1.662-2.017,3.36-3.077,5.023
			c-1.424,2.234-3.538,2.974-6.075,2.602c-2.222-0.327-4.125-2.114-4.555-4.479c-0.196-1.079-0.027-2.253,0.124-3.364
			c0.608-4.484,1.258-8.965,1.924-13.441c1.071-7.204,9.292-8.962,13.676-5.023c0.32,0.288,0.849,0.478,1.283,0.484
			c2.875,0.042,5.75,0.035,8.624,0.005c0.367-0.004,0.793-0.15,1.088-0.37c6.146-4.587,13.057-1.61,14.049,6.036
			c0.582,4.489,1.226,8.971,1.875,13.45c0.409,2.828-1.024,5.423-3.626,6.437c-2.58,1.006-5.476,0.097-7.032-2.286
			C39.592,39.908,38.604,38.194,37.549,36.463z M16.9,22.584c-0.905,0.613-2.627-0.72-2.788,1.32
			c-0.192,2.434,1.938,1.037,2.723,1.592c0.649,0.97-0.713,2.79,1.467,2.845c2.342,0.059,0.955-1.935,1.472-2.704
			c0.952-0.694,2.777,0.686,2.855-1.466c0.085-2.316-1.929-0.979-2.767-1.546c-0.547-0.972,0.68-2.849-1.565-2.797
			C16.136,19.877,17.488,21.706,16.9,22.584z M21.689,33.153c-0.008,1.522,1.258,2.813,2.745,2.801
			c1.505-0.013,2.822-1.299,2.82-2.754c-0.002-1.499-1.279-2.794-2.773-2.811C22.982,30.373,21.697,31.646,21.689,33.153z
			 M38.271,33.205c0.011-1.517-1.244-2.808-2.744-2.822c-1.472-0.015-2.812,1.294-2.831,2.766c-0.02,1.469,1.265,2.768,2.774,2.807
			C36.956,35.993,38.261,34.712,38.271,33.205z M44.721,25.657c0.943-0.06,1.489-0.567,1.581-1.507
			c0.085-0.856-0.708-1.7-1.572-1.634c-0.931,0.071-1.524,0.644-1.536,1.57C43.183,25.021,43.771,25.549,44.721,25.657z
			 M42.95,27.468c-0.126-0.952-0.658-1.549-1.588-1.542c-0.923,0.008-1.5,0.607-1.576,1.533c-0.071,0.873,0.747,1.621,1.642,1.568
			C42.407,28.969,42.836,28.357,42.95,27.468z M41.363,22.277c0.907-0.084,1.477-0.566,1.551-1.519
			c0.068-0.885-0.712-1.712-1.575-1.631c-0.923,0.086-1.536,0.658-1.534,1.579C39.807,21.619,40.38,22.183,41.363,22.277z
			 M37.771,25.638c0.993,0.04,1.722-0.609,1.768-1.448c0.048-0.875-0.697-1.712-1.558-1.667c-0.945,0.049-1.536,0.626-1.563,1.539
			C36.393,24.98,36.94,25.56,37.771,25.638z M31.713,29.61c0.615-0.474,1.284-0.727,1.357-1.098c0.183-0.925-0.658-0.688-1.148-0.67
			c-0.518,0.019-1.383-0.353-1.331,0.639C30.608,28.816,31.205,29.122,31.713,29.61z M28.04,29.606
			c0.602-0.48,1.279-0.753,1.329-1.113c0.124-0.885-0.694-0.682-1.196-0.649c-0.503,0.031-1.396-0.382-1.289,0.655
			C26.919,28.841,27.515,29.125,28.04,29.606z"/>
		<path fill-rule="evenodd" clip-rule="evenodd" d="M16.9,22.584c0.588-0.878-0.765-2.707,1.396-2.756
			c2.245-0.052,1.019,1.825,1.565,2.797c0.838,0.567,2.852-0.771,2.767,1.546c-0.078,2.151-1.903,0.771-2.855,1.466
			c-0.517,0.77,0.87,2.763-1.472,2.704c-2.18-0.055-0.817-1.875-1.467-2.845c-0.785-0.555-2.915,0.842-2.723-1.592
			C14.273,21.864,15.995,23.197,16.9,22.584z"/>
		<path fill-rule="evenodd" clip-rule="evenodd" d="M21.689,33.153c0.008-1.508,1.293-2.78,2.792-2.764
			c1.494,0.017,2.771,1.312,2.773,2.811c0.002,1.455-1.315,2.741-2.82,2.754C22.947,35.967,21.682,34.676,21.689,33.153z"/>
		<path fill-rule="evenodd" clip-rule="evenodd" d="M38.271,33.205c-0.011,1.507-1.315,2.788-2.801,2.75
			c-1.51-0.039-2.794-1.338-2.774-2.807c0.02-1.472,1.359-2.78,2.831-2.766C37.027,30.397,38.282,31.688,38.271,33.205z"/>
		<path fill-rule="evenodd" clip-rule="evenodd" d="M44.721,25.657c-0.95-0.108-1.538-0.636-1.527-1.57
			c0.012-0.927,0.605-1.499,1.536-1.57c0.864-0.066,1.657,0.777,1.572,1.634C46.21,25.09,45.664,25.598,44.721,25.657z"/>
		<path fill-rule="evenodd" clip-rule="evenodd" d="M42.95,27.468c-0.114,0.89-0.543,1.501-1.522,1.56
			c-0.895,0.053-1.713-0.695-1.642-1.568c0.076-0.926,0.653-1.525,1.576-1.533C42.292,25.919,42.824,26.516,42.95,27.468z"/>
		<path fill-rule="evenodd" clip-rule="evenodd" d="M41.363,22.277c-0.983-0.095-1.557-0.658-1.559-1.57
			c-0.002-0.921,0.611-1.493,1.534-1.579c0.863-0.081,1.644,0.746,1.575,1.631C42.84,21.711,42.271,22.193,41.363,22.277z"/>
		<path fill-rule="evenodd" clip-rule="evenodd" d="M37.771,25.638c-0.831-0.078-1.379-0.657-1.353-1.576
			c0.026-0.913,0.617-1.49,1.563-1.539c0.86-0.045,1.605,0.792,1.558,1.667C39.493,25.028,38.765,25.678,37.771,25.638z"/>
		<path fill-rule="evenodd" clip-rule="evenodd" d="M31.713,29.61c-0.508-0.488-1.104-0.794-1.122-1.129
			c-0.052-0.991,0.813-0.62,1.331-0.639c0.49-0.018,1.331-0.255,1.148,0.67C32.997,28.884,32.328,29.137,31.713,29.61z"/>
		<path fill-rule="evenodd" clip-rule="evenodd" d="M28.04,29.606c-0.525-0.481-1.121-0.766-1.156-1.107
			c-0.106-1.037,0.786-0.624,1.289-0.655c0.502-0.032,1.32-0.235,1.196,0.649C29.319,28.854,28.642,29.126,28.04,29.606z"/>
	</g>
</g>
</svg>
