<?xml version="1.0" encoding="utf-8"?>
<!-- Generator: Adobe Illustrator 16.0.0, SVG Export Plug-In . SVG Version: 6.00 Build 0)  -->
<!DOCTYPE svg PUBLIC "-//W3C//DTD SVG 1.1//EN" "http://www.w3.org/Graphics/SVG/1.1/DTD/svg11.dtd">
<svg version="1.1" id="Layer_1" xmlns="http://www.w3.org/2000/svg" xmlns:xlink="http://www.w3.org/1999/xlink" x="0px" y="0px"
	 width="60px" height="60px" viewBox="0 0 60 60" enable-background="new 0 0 60 60" xml:space="preserve">
<g>
	<path d="M49.367,0C55.239,0,60,4.708,60,10.517v38.967C60,55.292,55.239,60,49.367,60H10.633C4.761,60,0,55.292,0,49.483V10.517
		C0,4.708,4.761,0,10.633,0H49.367z"/>
	<g>
		<path fill-rule="evenodd" clip-rule="evenodd" fill="#FFFFFF" stroke="#FEFEFE" stroke-width="0.3" stroke-miterlimit="10" d="
			M39.176,20.636c-2.2-0.596-3.77-0.884-5.066-2.48c-1.977-2.433-4.754-3.137-7.868-2.237c-0.92,0.266-1.918,0.464-2.862,0.406
			c-1.934-0.119-2.752,0.674-2.434,2.614c0.714,4.349,5.433,7.791,10.101,7.513c1.027-0.061,2.125,0.278,3.122,0.626
			c2.031,0.709,4.049,1.482,6.004,2.377c0.582,0.266,0.951,1.014,1.396,1.559c0.53,0.65,0.945,1.43,1.574,1.956
			c1.321,1.104,2.852,1.97,4.114,3.131c2.579,2.371,2.778,5.609,0.153,7.928c-1.737,1.535-3.956,3.066-6.157,3.442
			c-10.716,1.828-20.286-0.776-27.767-8.935C8.55,33.153,7.511,26.599,9.663,19.685c1.668-5.358,6.113-8.085,12.487-7.669
			c6.194,0.404,11.512,3,15.987,7.299C38.396,19.563,38.587,19.88,39.176,20.636z M22.674,34.351c-1.7-0.035-3.056,1.276-3.08,2.98
			c-0.026,1.718,1.253,3.065,2.949,3.108c1.696,0.042,3.037-1.256,3.078-2.979C25.661,35.737,24.38,34.385,22.674,34.351z
			 M27.84,40.847c-0.013,1.638,1.39,3.031,3.049,3.031c1.664-0.001,3.06-1.389,3.048-3.03c-0.012-1.625-1.446-3.06-3.057-3.06
			C29.252,37.789,27.853,39.198,27.84,40.847z M18.764,21.558c-0.016-1.726-1.359-3.001-3.109-2.95
			c-1.614,0.047-2.949,1.366-2.978,2.943c-0.03,1.669,1.352,3.063,3.043,3.068C17.413,24.626,18.779,23.252,18.764,21.558z
			 M19.39,31.284c0.039-1.737-1.275-3.138-2.941-3.133c-1.679,0.005-3.097,1.393-3.1,3.036c-0.003,1.65,1.408,3.023,3.108,3.026
			C18.108,34.217,19.351,32.976,19.39,31.284z"/>
		<path fill-rule="evenodd" clip-rule="evenodd" fill="#FFFFFF" stroke="#FEFEFE" stroke-width="0.3" stroke-miterlimit="10" d="
			M33.338,24.8c0.043-0.299,0.038-0.491,0.1-0.658c1.196-3.256,1.544-3.471,4.708-2.021c4.034,1.849,8.024,3.802,11.971,5.831
			c0.602,0.31,0.864,1.276,1.284,1.939c-0.702,0.335-1.55,1.11-2.084,0.935c-4.852-1.6-9.651-3.354-14.454-5.099
			C34.304,25.524,33.825,25.103,33.338,24.8z"/>
		<path fill-rule="evenodd" clip-rule="evenodd" fill="#FFFFFF" stroke="#FEFEFE" stroke-width="0.3" stroke-miterlimit="10" d="
			M22.464,18.289c1.628-0.326,3.091-0.808,4.569-0.861c1.472-0.052,3.1,0.008,4.407,0.587c2.353,1.04,2.654,2.342,1.665,4.762
			c-0.902,2.209-1.795,2.608-4.349,1.944C24.967,23.735,22.821,21.507,22.464,18.289z M28.77,19.089
			c1.3,0.784,2.305,1.391,3.551,2.143C31.869,18.958,30.778,18.287,28.77,19.089z"/>
		<path fill-rule="evenodd" clip-rule="evenodd" fill="#B01116" d="M27.422,40.849c0.015-1.875,1.606-3.477,3.457-3.478
			c1.831-0.001,3.462,1.631,3.476,3.479c0.013,1.867-1.573,3.444-3.466,3.445C29.003,44.296,27.408,42.711,27.422,40.849z"/>
		<path fill-rule="evenodd" clip-rule="evenodd" fill="#FDC010" d="M19.222,37.387c0.015-1.875,1.606-3.477,3.457-3.478
			c1.832-0.001,3.463,1.631,3.476,3.479c0.013,1.867-1.573,3.444-3.466,3.445C20.803,40.834,19.208,39.249,19.222,37.387z"/>
		<path fill-rule="evenodd" clip-rule="evenodd" fill="#05A25C" d="M12.922,31.137c0.015-1.875,1.606-3.477,3.457-3.478
			c1.831-0.001,3.462,1.631,3.476,3.479c0.013,1.867-1.573,3.444-3.466,3.445C14.503,34.584,12.908,32.999,12.922,31.137z"/>
		<path fill-rule="evenodd" clip-rule="evenodd" fill="#03A0FF" d="M12.289,21.565c0.015-1.875,1.606-3.477,3.457-3.478
			c1.831-0.001,3.462,1.631,3.476,3.479c0.013,1.867-1.573,3.444-3.466,3.445C13.87,25.013,12.275,23.428,12.289,21.565z"/>
		<path fill-rule="evenodd" clip-rule="evenodd" fill="#FFFFFF" d="M28.77,19.089c2.009-0.802,3.1-0.131,3.551,2.143
			C31.074,20.479,30.069,19.873,28.77,19.089z"/>
	</g>
</g>
</svg>
