<?xml version="1.0" encoding="utf-8"?>
<!-- Generator: Adobe Illustrator 16.0.0, SVG Export Plug-In . SVG Version: 6.00 Build 0)  -->
<!DOCTYPE svg PUBLIC "-//W3C//DTD SVG 1.1//EN" "http://www.w3.org/Graphics/SVG/1.1/DTD/svg11.dtd">
<svg version="1.1" id="Layer_1" xmlns="http://www.w3.org/2000/svg" xmlns:xlink="http://www.w3.org/1999/xlink" x="0px" y="0px"
	 width="60px" height="60px" viewBox="0 0 60 60" enable-background="new 0 0 60 60" xml:space="preserve">
<g>
	<path d="M60,49.367C60,55.239,55.292,60,49.483,60H10.517C4.708,60,0,55.239,0,49.367V10.633C0,4.761,4.708,0,10.517,0h38.967
		C55.292,0,60,4.761,60,10.633V49.367z"/>
	<g>
		<g>
			<path fill="#FFFFFF" stroke="#000000" stroke-width="0.2776" stroke-miterlimit="10" d="M51.4,26.984
				c0,3.253-1.714,6.235-4.563,8.556c-0.912,0.743,4.151,11.64,4.151,11.64s-10.075-8.311-11.684-7.85
				c-2.369,0.678-4.975,1.053-7.709,1.053c-10.937,0-19.804-5.999-19.804-13.398s8.867-13.397,19.804-13.397
				C42.533,13.587,51.4,19.585,51.4,26.984z"/>
			<g>
				<circle stroke="#000000" stroke-width="0.2776" stroke-miterlimit="10" cx="20.596" cy="26.424" r="3.192"/>
				<circle stroke="#000000" stroke-width="0.2776" stroke-miterlimit="10" cx="31.596" cy="26.424" r="3.192"/>
				<circle stroke="#000000" stroke-width="0.2776" stroke-miterlimit="10" cx="42.597" cy="26.424" r="3.192"/>
			</g>
		</g>
		<g>
			<path fill="#03A0FF" d="M8.6,26.218c0,3.253,1.714,6.235,4.563,8.556c0.912,0.743-4.151,11.64-4.151,11.64
				s10.075-8.311,11.684-7.851c2.369,0.679,4.975,1.054,7.709,1.054c10.937,0,19.804-5.999,19.804-13.398S39.341,12.82,28.404,12.82
				C17.467,12.82,8.6,18.818,8.6,26.218z"/>
			<g>
				<circle stroke="#000000" stroke-width="0.2776" stroke-miterlimit="10" cx="39.404" cy="25.657" r="3.192"/>
				<circle stroke="#000000" stroke-width="0.2776" stroke-miterlimit="10" cx="28.404" cy="25.657" r="3.192"/>
				<circle stroke="#000000" stroke-width="0.2776" stroke-miterlimit="10" cx="17.403" cy="25.657" r="3.192"/>
			</g>
		</g>
	</g>
</g>
</svg>
