<?xml version="1.0" encoding="utf-8"?>
<!-- Generator: Adobe Illustrator 16.0.0, SVG Export Plug-In . SVG Version: 6.00 Build 0)  -->
<!DOCTYPE svg PUBLIC "-//W3C//DTD SVG 1.1//EN" "http://www.w3.org/Graphics/SVG/1.1/DTD/svg11.dtd">
<svg version="1.1" id="Layer_1" xmlns="http://www.w3.org/2000/svg" xmlns:xlink="http://www.w3.org/1999/xlink" x="0px" y="0px"
	 width="60px" height="60px" viewBox="0 0 60 60" enable-background="new 0 0 60 60" xml:space="preserve">
<g>
	<path d="M60,49.367C60,55.239,55.292,60,49.483,60H10.517C4.708,60,0,55.239,0,49.367V10.633C0,4.761,4.708,0,10.517,0h38.967
		C55.292,0,60,4.761,60,10.633V49.367z"/>
	<g>
		<path fill="#FFFFFF" d="M40.409,24.519l-1.657-3.423l-2.686-3.629l-5.983,0.984l-5.377-0.372l-3.413,3.415l-1.214,3.024
			c0,0-2.696,5.324-2.065,10.598c0,0,1.675,11.139,6.796,11.139c1.966,0,2.993-1.866,5.958-1.866s4.365,2.345,5.877,1.983
			c0.06-0.014,5.603-2.597,5.603-10.521S40.409,24.519,40.409,24.519z"/>
		<path d="M23.734,19.966c-0.874,0.951-1.736,1.913-2.736,2.728c-0.237,0.192-0.373,0.478-0.485,0.772
			c-1.411,3.719-2.35,7.548-2.494,11.567c-0.024,0.686-0.381,1.258-0.808,1.752c-0.276,0.32-0.607,0.221-0.849-0.231
			c-0.365-0.684-0.437-1.447-0.455-2.207c-0.082-3.216,0.731-6.203,2.16-9.021c1.025-2.023,2.197-3.94,3.851-5.481
			c0.179-0.167,0.251-0.384,0.336-0.597c0.952-2.392,1.769-4.832,2.369-7.349c0.067-0.282,0.16-0.559,0.241-0.838
			c1.602-1.404,2.777-1.652,4.695-0.407c-0.667-1.522-1.891-1.951-3.287-1.177c-0.28,0.155-0.492,0.499-0.88,0.399
			c0.89-1.884,2.352-2.931,4.334-3.13c0.886-0.089,1.788-0.074,2.669,0.146c1.618,0.402,2.801,1.393,3.584,2.919
			c-0.231,0.116-0.386-0.056-0.556-0.164c-1.499-0.968-2.692-0.648-3.59,0.962c1.912-1.413,3.702-0.663,4.741,0.678
			c0.389,1.432,0.352,2.937,0.684,4.382c0.257,1.119,0.545,2.225,0.925,3.305c0.182,0.515,0.444,0.953,0.795,1.38
			c3.228,3.928,5.141,8.408,5.12,13.674c-0.003,0.743-0.081,1.484-0.332,2.186c-0.145,0.404-0.246,0.919-0.823,0.861
			c-0.338-0.034-0.733-0.734-0.696-1.224c0.078-1.017,0.029-2.029-0.04-3.042c-0.195-2.859-0.798-5.622-1.798-8.29
			c-0.146-0.388-0.362-0.705-0.688-0.968c-0.937-0.754-1.621-1.768-2.431-2.654c-0.211-0.058-0.314-0.239-0.435-0.404
			c-0.16-0.19-0.313-0.388-0.482-0.57c-0.033-0.036-0.063-0.076-0.09-0.118c-0.078-0.126-0.159-0.248-0.241-0.371
			c-0.094-0.146-0.218-0.252-0.373-0.318c-0.136-0.061-0.279-0.063-0.424-0.062c-0.076,0.003-0.152,0.004-0.229,0.003
			c-0.105,0.002-0.21,0.003-0.314,0.008c-0.166,0-0.321,0.063-0.482,0.093c-0.202,0.028-0.404,0.06-0.601,0.118
			c-1.011,0.252-2.038,0.416-3.071,0.479c-1.022,0.062-2.025-0.14-3.004-0.457c-0.108-0.032-0.213-0.079-0.321-0.111
			c-0.149-0.043-0.297-0.091-0.444-0.139c-0.048-0.014-0.095-0.031-0.141-0.051c-0.089-0.036-0.18-0.07-0.271-0.1
			c-0.135-0.048-0.273-0.079-0.417-0.079c-0.097,0-0.193,0-0.289-0.001c-0.073,0.002-0.146,0.001-0.219,0.001
			c-0.071,0.004-0.144,0.009-0.215,0.021c-0.17,0.035-0.303,0.145-0.44,0.243c-0.124,0.08-0.244,0.164-0.347,0.275
			C24.223,19.582,24.015,19.82,23.734,19.966z"/>
		<path d="M38.991,47.222c0.302,0.34,0.609,0.674,0.904,1.021c0.136,0.159,0.271,0.328,0.36,0.517
			c0.103,0.214,0.132,0.465-0.061,0.649c-0.199,0.191-0.394,0.025-0.555-0.088c-0.501-0.351-0.856-0.863-1.271-1.311
			c-0.177-0.189-0.35-0.383-0.565-0.544c0.091,0.545,0.27,1.049,0.256,1.589c-0.005,0.175-0.003,0.376-0.212,0.42
			c-0.178,0.038-0.271-0.126-0.331-0.262c-0.135-0.298-0.247-0.607-0.364-0.914c-0.172-0.451-0.319-0.908-0.682-1.256
			c-0.31-0.297-0.331-0.665-0.147-1.067c0.193-0.423,0.615-0.296,0.915-0.457c0.029-0.016,0.129,0.031,0.129,0.048
			c-0.01,0.624,0.499,0.452,0.801,0.548c1.093,0.346,2.147,0.77,3.063,1.503c0.136,0.109,0.384,0.207,0.272,0.443
			c-0.126,0.266-0.362,0.134-0.54,0.048c-0.648-0.314-1.291-0.646-1.936-0.971C39.016,47.165,39.004,47.193,38.991,47.222z"/>
		<path d="M21.981,47.011c-0.525,0.28-1.05,0.563-1.578,0.838c-0.166,0.087-0.339,0.166-0.517,0.216
			c-0.135,0.037-0.311,0.099-0.395-0.089c-0.082-0.184,0.059-0.284,0.176-0.383c0.57-0.481,1.212-0.837,1.887-1.124
			c0.535-0.228,1.081-0.443,1.654-0.517c0.347-0.044,0.461-0.521,0.926-0.38c0.525,0.158,0.893,0.693,0.529,1.137
			c-0.541,0.662-0.784,1.444-1.091,2.213c-0.08,0.201-0.165,0.512-0.444,0.435c-0.283-0.076-0.203-0.391-0.179-0.605
			c0.052-0.44,0.146-0.876,0.254-1.489c-0.462,0.521-0.813,0.93-1.181,1.325c-0.207,0.224-0.426,0.438-0.662,0.627
			c-0.157,0.126-0.368,0.275-0.558,0.1c-0.209-0.194-0.177-0.474-0.047-0.701c0.229-0.406,0.558-0.73,0.884-1.052
			c0.146-0.144,0.293-0.285,0.439-0.427C22.047,47.093,22.015,47.052,21.981,47.011z"/>
		<path fill="#FDC010" d="M25.393,9.876c0.384-0.23,0.75-0.505,1.154-0.685c1.461-0.648,2.839,0.107,3.31,1.791
			c-0.13,0.119-0.198-0.019-0.276-0.079c-1.519-1.189-2.605-1.22-4.184-0.124c-0.165,0.114-0.3,0.302-0.532,0.281
			C24.972,10.632,25.087,10.208,25.393,9.876z"/>
		<path fill="#FDC010" d="M36.575,11.287c-0.333-0.247-0.656-0.511-1.001-0.737c-1.221-0.802-2.419-0.746-3.583,0.146
			c-0.142,0.108-0.25,0.305-0.505,0.216c0.105-0.189,0.199-0.367,0.302-0.539c0.912-1.532,2.209-1.844,3.664-0.885
			c0.172,0.113,0.351,0.215,0.526,0.322C36.191,10.297,36.442,10.766,36.575,11.287z"/>
		<path fill="#FFFFFF" d="M24.851,17.385c-1.165,1.44-2.331,2.882-3.558,4.397c0.042-0.401,0.215-0.629,0.36-0.867
			c0.712-1.165,1.418-2.334,2.147-3.486c0.216-0.342,0.309-0.669,0.267-1.085c-0.094-0.936,0.04-1.813,0.827-2.559
			c-0.031,0.521-0.061,0.946-0.082,1.371c-0.031,0.646,0.309,1.039,0.822,1.313C25.725,16.997,25.548,17.204,24.851,17.385z"/>
		<path fill="#FFFFFF" d="M35.374,16.346c0.99-0.601,0.809-1.53,0.58-2.593c0.7,0.641,0.999,1.38,0.813,2.145
			c-0.215,0.887,0.103,1.513,0.521,2.188c0.525,0.848,1.009,1.725,1.509,2.589c0.109,0.19,0.232,0.378,0.139,0.672
			c-0.93-1.268-1.859-2.534-2.789-3.802C35.8,17.207,35.428,16.889,35.374,16.346z"/>
		<path fill="#FDC010" d="M27.846,14.784c0.917,0.05,1.579-0.512,2.312-0.896c0.323-0.17,0.652-0.171,0.964,0.003
			c0.693,0.389,1.348,0.86,2.157,1.068c-0.186,0.213-0.363,0.133-0.519,0.14c-0.496,0.021-0.976-0.004-1.434,0.326
			c-0.397,0.286-0.915,0.271-1.333,0.013c-0.555-0.343-1.136-0.434-1.756-0.424C28.118,15.018,27.971,15.051,27.846,14.784z"/>
		<path fill="#FFFFFF" d="M29.216,17.049c0.068,0.032,0.138,0.064,0.207,0.097c0.952-0.068,1.907-0.145,2.848,0.101
			c0.508,0.134,0.648,0.432,0.42,0.822c-1.583,0.201-3.162,0.219-4.737-0.075c0.041-0.229,0.166-0.41,0.376-0.464
			C28.666,17.442,28.926,17.22,29.216,17.049z"/>
		<path fill="#FBFBFB" d="M26.813,14.684c-0.563-0.012-1.001-0.511-0.978-1.112c0.023-0.584,0.457-1.009,1.021-0.996
			c0.548,0.012,0.988,0.474,0.992,1.042C27.853,14.195,27.366,14.696,26.813,14.684z"/>
		<path fill="#FCFBFC" d="M34.544,14.684c-0.563-0.006-1.006-0.498-0.988-1.101c0.017-0.583,0.448-1.015,1.01-1.008
			c0.548,0.006,0.993,0.462,1.004,1.03C35.58,14.182,35.098,14.689,34.544,14.684z"/>
		<path fill="#FFFFFF" d="M29.216,17.049c-0.156,0.324-0.382,0.564-0.746,0.568c-0.27,0.004-0.301,0.32-0.517,0.376
			c-0.293-0.018-0.592,0.004-0.863-0.147c-0.042-0.517,0.443-0.607,0.671-0.906C28.246,16.977,28.73,17.013,29.216,17.049z"/>
		<path fill="#FFFFFF" d="M27.761,16.939c-0.045,0.448-0.557,0.516-0.671,0.906c-0.325,0.049-0.617-0.066-0.905-0.198
			c0.03-0.452,0.396-0.604,0.679-0.829C27.163,16.859,27.462,16.899,27.761,16.939z"/>
		<path fill="#FFFFFF" d="M32.69,18.068c0.201-0.429-0.126-0.562-0.385-0.662c-0.551-0.214-1.125-0.304-1.719-0.259
			c-0.387,0.028-0.776,0.001-1.164-0.002c0.339-0.225,0.714-0.083,1.07-0.103c0.575-0.03,1.151-0.019,1.728-0.025
			c0.023,0.006,0.047,0.012,0.07,0.017c0.221,0.102,0.436,0.216,0.676,0.261c0.047,0.02,0.089,0.046,0.128,0.078
			c0.116,0.188,0.298,0.346,0.265,0.604C33.147,18.094,32.92,18.089,32.69,18.068z"/>
		<path fill="#FFFFFF" d="M32.912,16.942c0.297-0.039,0.594-0.078,0.891-0.117c0.104,0.533,0.573,0.668,0.928,0.929
			c-0.332,0.143-0.687,0.151-1.035,0.199c-0.234-0.174-0.41-0.426-0.672-0.565l0,0c-0.089-0.088-0.17-0.179-0.174-0.317
			C32.854,17.02,32.875,16.977,32.912,16.942z"/>
		<path fill="#FFFFFF" d="M35.374,16.346c0.303,0.367,0.554,0.771,0.772,1.198c-0.135-0.009-0.27-0.018-0.404-0.026
			c-0.48-0.036-0.771-0.33-0.926-0.937C35.003,16.503,35.188,16.424,35.374,16.346z"/>
		<path fill="#FFFFFF" d="M26.863,16.818c-0.159,0.336-0.465,0.541-0.679,0.829c-0.188-0.029-0.396,0.024-0.55-0.146
			c-0.13-0.508,0.278-0.608,0.558-0.805C26.417,16.737,26.64,16.777,26.863,16.818z"/>
		<path fill="#FFFFFF" d="M34.73,17.754c-0.511,0.063-0.738-0.364-1.032-0.666c-0.136-0.14,0.072-0.173,0.104-0.263
			c0.106-0.023,0.213-0.048,0.32-0.07c0.369,0.219,0.669,0.491,0.691,0.979l-0.038,0.029L34.73,17.754z"/>
		<path fill="#FFFFFF" d="M26.192,16.697c-0.137,0.305-0.523,0.421-0.558,0.805c-0.277,0.081-0.504-0.215-0.784-0.117
			c0.33-0.241,0.778-0.371,0.784-0.916C25.875,16.398,25.964,16.735,26.192,16.697z"/>
		<path fill="#FFFFFF" d="M34.814,17.733c-0.23-0.326-0.461-0.653-0.691-0.979c0.104-0.113,0.234-0.064,0.357-0.063
			c0.513,0.078,0.648,0.504,0.782,0.932C35.132,17.744,34.978,17.759,34.814,17.733z"/>
		<path fill="#FFFFFF" d="M35.263,17.624c-0.295-0.279-0.427-0.709-0.782-0.932c0.096-0.092,0.199-0.157,0.336-0.111
			c0.308,0.313,0.448,0.807,0.926,0.937C35.6,17.643,35.433,17.64,35.263,17.624z"/>
		<path fill="#FFFFFF" d="M33.023,17.388c0.375-0.008,0.574,0.213,0.672,0.565c-0.111,0.009-0.224,0.017-0.336,0.024
			C33.172,17.828,33.113,17.599,33.023,17.388z"/>
		<path fill="#FFFFFF" d="M32.912,16.942c0,0.031,0,0.063,0,0.094c-0.213,0.206-0.432,0.119-0.651,0.015l-0.04-0.033
			C32.443,16.916,32.678,16.929,32.912,16.942z"/>
		<path fill="#302522" d="M26.811,14.009c-0.236-0.027-0.371-0.179-0.353-0.419c0.019-0.242,0.18-0.38,0.418-0.352
			c0.205,0.025,0.334,0.157,0.329,0.388C27.198,13.885,27.054,14.001,26.811,14.009z"/>
		<path fill="#2F2522" d="M34.932,13.595c-0.008,0.27-0.127,0.408-0.371,0.412c-0.245,0.005-0.385-0.146-0.396-0.379
			c-0.012-0.246,0.16-0.4,0.377-0.405C34.758,13.219,34.918,13.354,34.932,13.595z"/>
		<path fill="#FFFFFF" d="M32.261,17.051c0.217-0.005,0.434-0.01,0.651-0.015c0.037,0.116,0.074,0.233,0.111,0.352
			C32.723,17.391,32.432,17.37,32.261,17.051z"/>
	</g>
</g>
</svg>
