<?xml version="1.0" encoding="utf-8"?>
<!-- Generator: Adobe Illustrator 16.0.0, SVG Export Plug-In . SVG Version: 6.00 Build 0)  -->
<!DOCTYPE svg PUBLIC "-//W3C//DTD SVG 1.1//EN" "http://www.w3.org/Graphics/SVG/1.1/DTD/svg11.dtd">
<svg version="1.1" id="Layer_1" xmlns="http://www.w3.org/2000/svg" xmlns:xlink="http://www.w3.org/1999/xlink" x="0px" y="0px"
	 width="40px" height="40px" viewBox="0 0 40 40" enable-background="new 0 0 40 40" xml:space="preserve">
<circle fill="#FFFF00" cx="20" cy="20" r="19.48"/>
<path fill="#FDC010" d="M20,40C8.972,40,0,31.028,0,20S8.972,0,20,0s20,8.972,20,20S31.028,40,20,40z M20,1.039
	C9.545,1.039,1.039,9.545,1.039,20S9.545,38.961,20,38.961S38.961,30.455,38.961,20S30.455,1.039,20,1.039z"/>
<path fill="#FDC010" d="M18.521,23.721v7.854H12.94V8.425h9.237c1.771,0,3.337,0.326,4.699,0.978
	c1.361,0.652,2.417,1.58,3.164,2.783s1.121,2.567,1.121,4.094c0,2.258-0.809,4.063-2.425,5.414s-3.835,2.027-6.654,2.027H18.521z
	 M18.521,19.412h3.656c1.082,0,1.906-0.271,2.473-0.812c0.567-0.54,0.851-1.304,0.851-2.289c0-1.082-0.291-1.945-0.874-2.592
	s-1.378-0.976-2.385-0.986h-3.721V19.412z"/>
<path fill="#FFFF00" d="M19.041,32.095h-6.62V7.905h9.757c1.841,0,3.497,0.346,4.923,1.029c1.447,0.691,2.585,1.693,3.382,2.977
	c0.795,1.281,1.199,2.751,1.199,4.368c0,2.408-0.879,4.364-2.611,5.813c-1.705,1.426-4.057,2.148-6.987,2.148h-3.042V32.095z
	 M13.46,31.056h4.542v-7.854h4.081c2.681,0,4.808-0.642,6.321-1.906c1.506-1.26,2.238-2.9,2.238-5.016
	c0-1.421-0.352-2.706-1.043-3.82c-0.69-1.111-1.683-1.982-2.947-2.588c-1.285-0.615-2.791-0.927-4.475-0.927H13.46V31.056z
	 M22.178,19.932h-4.176v-7.718h4.24c1.158,0.013,2.089,0.402,2.771,1.158c0.669,0.742,1.008,1.73,1.008,2.939
	c0,1.128-0.34,2.025-1.011,2.665C24.345,19.61,23.393,19.932,22.178,19.932z M19.041,18.893h3.137c0.938,0,1.65-0.225,2.114-0.668
	c0.464-0.442,0.69-1.068,0.69-1.913c0-0.957-0.243-1.691-0.742-2.244c-0.485-0.539-1.141-0.805-2.004-0.814h-3.195V18.893z"/>
</svg>
