<?xml version="1.0" encoding="utf-8"?>
<!-- Generator: Adobe Illustrator 16.0.0, SVG Export Plug-In . SVG Version: 6.00 Build 0)  -->
<!DOCTYPE svg PUBLIC "-//W3C//DTD SVG 1.1//EN" "http://www.w3.org/Graphics/SVG/1.1/DTD/svg11.dtd">
<svg version="1.1" id="Layer_1" xmlns="http://www.w3.org/2000/svg" xmlns:xlink="http://www.w3.org/1999/xlink" x="0px" y="0px"
	 width="30px" height="30px" viewBox="0 0 30 30" enable-background="new 0 0 30 30" xml:space="preserve">
<path fill="#231F20" d="M29.652,27.99l-11.276-11.27c1.407-1.762,2.255-3.986,2.255-6.414C20.631,4.625,16.006,0,10.314,0
	C4.625,0,0,4.625,0,10.307c0,5.686,4.625,10.311,10.314,10.311c2.415,0,4.632-0.84,6.392-2.232l11.279,11.27
	C28.215,29.885,28.518,30,28.82,30c0.3,0,0.602-0.115,0.832-0.346C30.116,29.193,30.116,28.449,29.652,27.99z M10.314,18.26
	c-4.387,0-7.956-3.566-7.956-7.953s3.569-7.949,7.956-7.949c4.39,0,7.958,3.563,7.958,7.949S14.704,18.26,10.314,18.26z"/>
</svg>
