<?xml version="1.0" encoding="utf-8"?>
<!-- Generator: Adobe Illustrator 16.0.0, SVG Export Plug-In . SVG Version: 6.00 Build 0)  -->
<!DOCTYPE svg PUBLIC "-//W3C//DTD SVG 1.1//EN" "http://www.w3.org/Graphics/SVG/1.1/DTD/svg11.dtd">
<svg version="1.1" id="Layer_1" xmlns="http://www.w3.org/2000/svg" xmlns:xlink="http://www.w3.org/1999/xlink" x="0px" y="0px"
	 width="30.122px" height="30px" viewBox="0 0 30.122 30" enable-background="new 0 0 30.122 30" xml:space="preserve">
<path fill="#FFFFFF" d="M29.821,28.25L18.786,17.216c-0.291-0.292-0.715-0.365-1.078-0.231c1.633-1.806,2.639-4.19,2.639-6.812
	C20.347,4.563,15.782,0,10.173,0S-0.001,4.563-0.001,10.173c0,5.61,4.564,10.174,10.174,10.174c2.678,0,5.111-1.048,6.93-2.746
	c-0.127,0.36-0.055,0.777,0.234,1.065L28.37,29.7c0.201,0.2,0.463,0.3,0.727,0.3c0.262,0,0.523-0.1,0.725-0.3
	C30.222,29.3,30.222,28.65,29.821,28.25z M10.173,19.05c-4.895,0-8.877-3.982-8.877-8.877c0-4.894,3.982-8.876,8.877-8.876
	s8.877,3.982,8.877,8.876C19.05,15.067,15.067,19.05,10.173,19.05z"/>
</svg>
