<?xml version="1.0" encoding="utf-8"?>
<!-- Generator: Adobe Illustrator 16.0.0, SVG Export Plug-In . SVG Version: 6.00 Build 0)  -->
<!DOCTYPE svg PUBLIC "-//W3C//DTD SVG 1.1//EN" "http://www.w3.org/Graphics/SVG/1.1/DTD/svg11.dtd">
<svg version="1.1" id="Layer_1" xmlns="http://www.w3.org/2000/svg" xmlns:xlink="http://www.w3.org/1999/xlink" x="0px" y="0px"
	 width="44px" height="30px" viewBox="0 0 44 30" enable-background="new 0 0 44 30" xml:space="preserve">
<g>
	<g>
		<path d="M44,4c0,1.249-0.758,2.263-1.693,2.263H1.691C0.758,6.263,0,5.249,0,4l0,0c0-1.249,0.758-2.263,1.691-2.263h40.615
			C43.242,1.737,44,2.751,44,4L44,4z"/>
		<circle fill="#FFFFFF" cx="35.39" cy="4" r="3.097"/>
		<path d="M35.389,8.001c-2.205,0-4-1.795-4-4.001c0-2.205,1.795-4,4-4c2.207,0,4,1.795,4,4C39.389,6.206,37.596,8.001,35.389,8.001
			z M35.389,1.808c-1.209,0-2.193,0.982-2.193,2.192s0.984,2.193,2.193,2.193c1.211,0,2.193-0.983,2.193-2.193
			S36.6,1.808,35.389,1.808z"/>
	</g>
	<g>
		<path d="M44,26c0,1.249-0.758,2.263-1.693,2.263H1.691C0.758,28.263,0,27.249,0,26l0,0c0-1.249,0.758-2.263,1.691-2.263h40.615
			C43.242,23.737,44,24.751,44,26L44,26z"/>
		<g>
			<circle fill="#FFFFFF" cx="35.39" cy="26" r="3.097"/>
			<path d="M35.389,30c-2.205,0-4-1.795-4-4s1.795-4,4-4c2.207,0,4,1.795,4,4S37.596,30,35.389,30z M35.389,23.808
				c-1.209,0-2.193,0.982-2.193,2.192s0.984,2.192,2.193,2.192c1.211,0,2.193-0.982,2.193-2.192S36.6,23.808,35.389,23.808z"/>
		</g>
	</g>
	<g>
		<path d="M0,15c0,1.248,0.758,2.262,1.691,2.262h40.615C43.242,17.262,44,16.248,44,15l0,0c0-1.25-0.758-2.264-1.693-2.264H1.691
			C0.758,12.736,0,13.75,0,15L0,15z"/>
		<g>
			<circle fill="#FFFFFF" cx="7.731" cy="14.998" r="3.097"/>
			<path d="M7.732,19c-2.207,0-4-1.795-4-4.002c0-2.205,1.793-3.998,4-3.998c2.205,0,3.998,1.793,3.998,3.998
				C11.73,17.205,9.938,19,7.732,19z M7.732,12.807c-1.211,0-2.193,0.982-2.193,2.191c0,1.211,0.982,2.193,2.193,2.193
				c1.209,0,2.191-0.982,2.191-2.193C9.924,13.789,8.941,12.807,7.732,12.807z"/>
		</g>
	</g>
</g>
</svg>
