<?xml version="1.0" encoding="utf-8"?>
<!-- Generator: Adobe Illustrator 16.0.0, SVG Export Plug-In . SVG Version: 6.00 Build 0)  -->
<!DOCTYPE svg PUBLIC "-//W3C//DTD SVG 1.1//EN" "http://www.w3.org/Graphics/SVG/1.1/DTD/svg11.dtd">
<svg version="1.1" id="Layer_1" xmlns="http://www.w3.org/2000/svg" xmlns:xlink="http://www.w3.org/1999/xlink" x="0px" y="0px"
	 width="32.563px" height="30px" viewBox="0 0 32.563 30" enable-background="new 0 0 32.563 30" xml:space="preserve">
<g>
	<g>
		<path d="M0,16.825c0,0.401,0.325,0.726,0.727,0.726H11.17l1.457-1.45h-11.9C0.325,16.101,0,16.425,0,16.825z"/>
		<path d="M0,11.458c0,0.401,0.325,0.726,0.727,0.726h15.836l1.455-1.45H0.727C0.325,10.733,0,11.058,0,11.458z"/>
		<path d="M0,27.559c0,0.301,0.185,0.559,0.445,0.669l1.4-1.395H0.727C0.325,26.833,0,27.158,0,27.559z"/>
		<path d="M0,22.191c0,0.401,0.325,0.726,0.727,0.726H5.78l1.456-1.45h-6.51C0.325,21.467,0,21.791,0,22.191z"/>
		<path d="M0,6.092c0,0.401,0.325,0.726,0.727,0.726h21.227l1.457-1.45H0.727C0.325,5.367,0,5.691,0,6.092z"/>
		<path d="M28.285,0H0.727C0.325,0,0,0.324,0,0.726c0,0.4,0.325,0.725,0.727,0.725h26.618l1.328-1.322
			C28.559,0.054,28.431,0,28.285,0z"/>
	</g>
	<polygon points="20.234,15.052 20.234,15.495 32.563,15.495 32.563,3.167 32.365,3.167 	"/>
	<rect x="20.234" y="17.671" width="12.328" height="12.329"/>
	<polygon points="5.004,30 17.332,30 17.332,17.893 5.004,29.971 	"/>
</g>
</svg>
