<?xml version="1.0" encoding="utf-8"?>
<!-- Generator: Adobe Illustrator 22.1.0, SVG Export Plug-In . SVG Version: 6.00 Build 0)  -->
<svg version="1.1" id="레이어_1" xmlns="http://www.w3.org/2000/svg" xmlns:xlink="http://www.w3.org/1999/xlink" x="0px"
	 y="0px" viewBox="0 0 7680 1080" style="enable-background:new 0 0 7680 1080;" xml:space="preserve">
<style type="text/css">
	.st0{fill:none;stroke:#FFFFFF;stroke-miterlimit:10;}
	.st1{fill-rule:evenodd;clip-rule:evenodd;fill:#FFFFFF;}
</style>
<g>
	<path class="st0" d="M-3.6,429c0,0,710.3-416,710.3-128s584,298.4,1057.5,13.2s647.1-306.8,647.1,0s805,402.8,1104.9,98.8
		s260.4,112,260.4,264s986.5-648,1365.3-504c378.8,144,108.5,710.6,646.1,523.3s806-669,1216.3-604.2
		C7414.7,157,7397,989,7682.1,813C7967.2,637,8093.4,0,8093.4,0"/>
	<path class="st0" d="M-3.6,469.4c0,0,710.3-416,710.3-128s584,298.4,1057.5,13.2s647.1-306.8,647.1,0s805,402.8,1104.9,98.8
		s260.4,112,260.4,264s986.5-648,1365.3-504c378.8,144,108.5,710.6,646.1,523.3s806-669,1216.3-604.2
		c410.4,64.9,392.6,896.9,677.7,720.9c285.1-176,411.4-813,411.4-813"/>
	<path class="st0" d="M-3.6,509.9c0,0,710.3-416,710.3-128s584,298.4,1057.5,13.2s647.1-306.8,647.1,0s805,402.8,1104.9,98.8
		s260.4,112,260.4,264s986.5-648,1365.3-504c378.8,144,108.5,710.6,646.1,523.3s806-669,1216.3-604.2
		c410.4,64.9,392.6,896.9,677.7,720.9c285.1-176,411.4-813,411.4-813"/>
	<path class="st0" d="M-3.6,550.3c0,0,710.3-416,710.3-128s584,298.4,1057.5,13.2s647.1-306.8,647.1,0s805,402.8,1104.9,98.8
		s260.4,112,260.4,264s986.5-648,1365.3-504c378.8,144,108.5,710.6,646.1,523.3s806-669,1216.3-604.2
		c410.4,64.9,392.6,896.9,677.7,720.9c285.1-176,411.4-813,411.4-813"/>
	<path class="st0" d="M-3.6,590.7c0,0,710.3-416,710.3-128s584,298.4,1057.5,13.2s647.1-306.8,647.1,0s805,402.8,1104.9,98.8
		s260.4,112,260.4,264s986.5-648,1365.3-504c378.8,144,108.5,710.6,646.1,523.3s806-669,1216.3-604.2
		c410.4,64.9,392.6,896.9,677.7,720.9c285.1-176,411.4-813,411.4-813"/>
	<path class="st0" d="M-3.6,631.2c0,0,710.3-416,710.3-128s584,298.4,1057.5,13.2s647.1-306.8,647.1,0s805,402.8,1104.9,98.8
		s260.4,112,260.4,264s986.5-648,1365.3-504c378.8,144,108.5,710.6,646.1,523.3s806-669,1216.3-604.2
		c410.4,64.9,392.6,896.9,677.7,720.9c285.1-176,411.4-813,411.4-813"/>
	<path class="st0" d="M-3.6,671.6c0,0,710.3-416,710.3-128s584,298.4,1057.5,13.2s647.1-306.8,647.1,0s805,402.8,1104.9,98.8
		s260.4,112,260.4,264s986.5-648,1365.3-504c378.8,144,108.5,710.6,646.1,523.3s806-669,1216.3-604.2
		c410.4,64.9,392.6,896.9,677.7,720.9c285.1-176,411.4-813,411.4-813"/>
</g>
<path class="st1" d="M5312.9,529.6c-3.3,4.8-8.9,8.6-14.9,10.9c-5.9,2.3-12.1,3.1-16.4,2.1c-2.7-0.7-4.6-2.2-5.3-4.3
	c-0.8-2.1-0.2-4.7,1.7-7.5c3-4.4,8.7-8.2,14.6-10.5c6-2.4,12.1-3.5,16-2.5c3.4,0.8,6,2.1,6.5,4.3l56.3-83l2.4,0.6
	c-2.4,3.9-5.5,9.4-4.2,14.6c1.6,5.8,2.9,11.5,3.1,16.4c0.3,6.4-1.6,14-6.3,21c-2.4,3.5-5.4,7.1-8.6,10.3c-0.8,4.1-2.6,8.1-5.6,12.6
	c-5.1,7.5-11.4,13.3-17.7,17.8l-1.6-0.4c4.4-3,12.4-10.5,15.7-15.8c3.7-5.8,5.5-9.2,5.3-14.5c-0.3-6.1-6.5-13.8-9.1-19.3
	L5312.9,529.6z M5363.2,492.3c3.7-5.7,4.1-10.8,3.9-16.1c-0.3-6.1-3.5-11.9-6.7-16.6c-5.1,7.8-5.8,16.8-4.5,22
	c1.6,5.8,2.3,8.8,2.5,13.4c0.1,1.4,0,2.9-0.1,4.2C5360,496.9,5362,494.1,5363.2,492.3z"/>
<path class="st1" d="M7032.9,339.8c-1,8.3-6.9,15.2-14.7,19.8c-7.6,4.6-17.2,6.8-25.2,5.8c-5.1-0.6-9.7-2.9-12.6-6
	c-3.1-3.2-4.7-7.5-4.1-12.2c0.9-7.5,7-14.4,14.6-19.1c7.7-4.8,16.9-7.4,24.2-6.5c6.4,0.8,11.8,2.4,14.7,5.9l17.5-141.6l4.6,0.6
	c-0.5,6.7-0.5,16,6.5,24.1c8,9,15.3,17.9,20,25.8c6.4,10.3,10.2,22.7,8.7,34.6c-0.8,6.1-2.4,12.2-4.8,17.9c2.3,6.6,3.2,13.4,2.2,21
	c-1.6,12.9-6.7,23-13.1,31.2l-2.9-0.4c4.6-5.4,10.9-18.8,11.6-27.7c0.8-9.8,0.8-15.6-4.5-24c-6.1-9.7-23.4-21.2-32.8-29.6
	L7032.9,339.8z M7082.1,272.2c0.8-9.8-3-17.9-8.3-26.4c-6-9.7-16.7-18.5-26.2-25.6c-1.3,13.3,5.7,27.7,12.7,35.9
	c8,9,11.9,13.8,16.4,21c1.4,2.2,2.6,4.6,3.6,6.8C7081.1,280.1,7081.9,275.3,7082.1,272.2z"/>
<path class="st1" d="M5913.1,729.7c-4.6-4.2-6.3-10.8-5.8-17.6c0.5-6.7,3.3-13.5,7.4-18c2.6-2.9,6-4.7,9.2-5.1
	c3.3-0.5,6.6,0.4,9.3,2.8c4.2,3.8,5.8,10.5,5.4,17.2c-0.4,6.8-2.8,13.6-6.5,17.6c-3.3,3.6-6.6,6.2-10,6.4l79.1,72l-2.3,2.6
	c-3.9-3.2-9.6-7.2-17.6-6.5c-9,1-17.6,1.6-24.5,1.1c-9-0.6-18.3-3.6-25-9.6c-3.4-3.1-6.4-6.8-8.9-10.7c-5.1-1.4-9.6-3.9-13.8-7.7
	c-7.2-6.5-11.2-14.1-13.4-21.5l1.5-1.6c1.3,5.1,6.8,14.8,11.9,19.1c5.6,4.7,9.2,7.2,16.6,7.7c8.6,0.5,23.1-5.2,32.3-7.3
	L5913.1,729.7z M5933.2,789.1c5.6,4.7,12.3,5.9,19.7,6.4c8.6,0.5,18.5-2.2,27-5c-7.6-6.5-19.4-8.5-27.4-7.8c-9,1-13.6,1.3-20,0.9
	c-2-0.1-3.9-0.4-5.7-0.7C5928.8,785,5931.4,787.6,5933.2,789.1z"/>
<path class="st1" d="M2196,345.3c2.7,5.3,2,11.7-0.8,17.5c-2.7,5.8-7.4,10.8-12.6,13.4c-3.3,1.7-6.8,2.1-9.8,1.4
	c-3.1-0.6-5.7-2.5-7.2-5.6c-2.4-4.8-1.6-11.3,1.1-17c2.6-5.9,7-11.1,11.7-13.4c4.1-2.1,7.9-3.3,11-2.3l-45.7-90.3l2.9-1.5
	c2.4,4.1,6,9.6,13.4,11.6c8.3,2.1,16.1,4.5,22,7.3c7.8,3.5,15,9.3,18.8,16.9c2,3.9,3.4,8.1,4.2,12.4c4,3,7.2,6.7,9.6,11.5
	c4.1,8.2,5.1,16.2,4.6,23.6l-1.9,0.9c0.6-5-1-15.4-4.1-20.9c-3.4-6.1-5.7-9.5-12.1-12.4c-7.4-3.3-22.2-3.2-31-4.5L2196,345.3z
	 M2198.3,286.1c-3.4-6.1-8.9-9.4-15.3-12.3c-7.4-3.3-17.1-4.3-25.6-4.7c4.5,8.3,14.3,14.1,21.7,16.1c8.3,2.1,12.4,3.4,18,5.9
	c1.7,0.8,3.3,1.7,4.8,2.6C2200.8,291.1,2199.4,288,2198.3,286.1z"/>
<path class="st1" d="M2869.3,769.5c1.3,3.2,0.3,6.6-2,9.5c-2.3,2.9-5.9,5.2-9.5,6.1c-2.3,0.6-4.7,0.5-6.7-0.2c-2-0.7-3.6-2-4.4-3.8
	c-1.2-2.9-0.1-6.3,2.1-9.2c2.2-2.9,5.6-5.3,8.9-6.2c2.9-0.7,5.5-1,7.5-0.2l-23-54l2.1-0.5c1.2,2.5,3.2,5.9,8,7.7
	c5.3,2,10.4,4.1,14.1,6.2c4.9,2.7,9.2,6.6,11.2,11.2c1,2.3,1.6,4.8,1.8,7.2c2.4,2,4.2,4.4,5.5,7.2c2.1,4.9,2.1,9.4,1.1,13.3
	l-1.3,0.3c0.8-2.7,0.6-8.5-1-11.8c-1.7-3.7-3-5.8-7.1-8c-4.7-2.6-14.5-4-20.3-5.6L2869.3,769.5z M2875.7,737.4
	c-1.8-3.7-5.1-6-9.2-8.3c-4.7-2.6-11.1-4.1-16.7-5.2c2.3,5,8.4,9.1,13.1,11c5.3,2,8,3.1,11.5,5c1.1,0.6,2.1,1.3,3,1.9
	C2877,740.4,2876.3,738.5,2875.7,737.4z"/>
<path class="st1" d="M477,385.7c-1.2,7-6.5,12.6-13.3,16.1c-6.7,3.6-14.9,5-21.6,3.8c-4.3-0.8-8.1-2.9-10.4-5.7
	c-2.5-2.8-3.6-6.5-2.9-10.5c1.1-6.3,6.5-11.9,13.2-15.5c6.7-3.8,14.6-5.5,20.8-4.5c5.4,1,9.9,2.5,12.2,5.6l21-119.1l3.9,0.7
	c-0.7,5.6-1.1,13.5,4.4,20.7c6.4,8,12.1,15.8,15.9,22.7c4.9,9,7.7,19.7,5.9,29.7c-0.9,5.1-2.6,10.2-4.8,14.9
	c1.7,5.7,2.1,11.5,1,17.9c-1.9,10.8-6.7,19.2-12.5,25.8L507,388c4.1-4.4,10-15.4,11-22.9c1.1-8.2,1.4-13.1-2.7-20.6
	c-4.7-8.5-18.9-18.9-26.5-26.5L477,385.7z M521.6,330.6c1.1-8.2-1.8-15.3-5.8-22.7c-4.7-8.5-13.3-16.4-21.1-22.8
	c-1.6,11.2,3.6,23.7,9.2,30.9c6.4,8,9.4,12.2,12.9,18.5c1.1,1.9,2,4,2.8,5.9C520.4,337.3,521.3,333.3,521.6,330.6z"/>
<path class="st1" d="M5405.9,755.2c-3,5-8.5,9.1-14.4,11.6c-5.8,2.6-12,3.6-16.4,2.7c-2.8-0.6-4.8-2.1-5.6-4.2
	c-0.9-2.1-0.5-4.7,1.2-7.7c2.8-4.6,8.3-8.6,14.1-11.2c5.9-2.7,12-3.9,16-3.1c3.5,0.7,6.2,1.9,6.8,4.2l51.7-86.2l2.5,0.5
	c-2.2,4.1-5,9.8-3.3,15c2,5.8,3.6,11.5,4.1,16.5c0.7,6.5-0.7,14.3-5.1,21.6c-2.2,3.7-5,7.4-8,10.8c-0.6,4.1-2.1,8.4-4.8,12.9
	c-4.7,7.8-10.7,13.9-16.8,18.7l-1.6-0.3c4.2-3.1,11.8-11.1,14.9-16.5c3.4-6,5-9.5,4.5-14.9c-0.7-6.2-7.4-13.8-10.4-19.3
	L5405.9,755.2z M5454.4,715.5c3.4-6,3.5-11.1,2.9-16.5c-0.7-6.2-4.3-11.9-7.7-16.7c-4.6,8.1-4.8,17.2-3.1,22.5
	c2,5.8,2.9,8.9,3.4,13.5c0.2,1.4,0.2,2.9,0.1,4.3C5451.5,720.3,5453.3,717.4,5454.4,715.5z"/>
<path class="st1" d="M753.8,602c-0.6,5-4.1,9.3-8.8,12.2c-4.6,2.9-10.4,4.3-15.3,3.8c-3.1-0.3-5.9-1.7-7.7-3.6
	c-1.9-1.9-2.9-4.5-2.6-7.4c0.5-4.6,4.1-8.8,8.7-11.7c4.6-3,10.2-4.7,14.7-4.2c3.9,0.4,7.2,1.4,9,3.5l9.4-86.3l2.8,0.3
	c-0.2,4.1-0.2,9.7,4.2,14.6c4.9,5.4,9.4,10.8,12.4,15.5c3.9,6.2,6.4,13.7,5.6,21c-0.4,3.7-1.4,7.4-2.8,10.9c1.5,4,2,8.2,1.5,12.7
	c-0.9,7.8-3.9,14.1-7.7,19.1l-1.8-0.2c2.7-3.3,6.5-11.5,6.8-16.9c0.4-6,0.4-9.5-2.9-14.6c-3.8-5.8-14.4-12.7-20.2-17.7L753.8,602z
	 M783.2,560.5c0.4-6-2-10.9-5.2-16c-3.8-5.9-10.3-11.1-16.2-15.4c-0.7,8.1,3.7,16.8,8,21.7c4.9,5.4,7.3,8.3,10.1,12.7
	c0.9,1.3,1.6,2.8,2.3,4.1C782.6,565.3,783.1,562.4,783.2,560.5z"/>
<path class="st1" d="M3537.1,501.5l41.8-24.5l0,0l-18.8-51.3c1.6,0.7,3.7,0.3,6-0.6c2.7-1,5.4-3.5,7.1-6.5c1.8-2.9,2.7-6.3,1.7-9.1
	c-0.6-1.7-1.9-2.9-3.5-3.5c-1.6-0.6-3.5-0.5-5.4,0.2c-2.9,1.1-5.8,3.5-7.6,6.4c-1.9,2.9-2.7,6.3-1.6,9.3l18.2,49.6l-38.7,22.7
	l-16.5-45c1.6,0.7,3.7,0.3,6-0.6c2.7-1,5.4-3.5,7.1-6.5c1.8-2.9,2.6-6.3,1.7-9.1c-0.6-1.7-1.9-2.9-3.5-3.5c-1.6-0.6-3.5-0.5-5.4,0.2
	c-2.9,1.1-5.8,3.5-7.6,6.4c-1.9,2.9-2.7,6.3-1.6,9.3L3537.1,501.5z"/>
<path class="st1" d="M1651.8,480.1l-75.2,32.2l0,0l20.7,89.9c-2.6-1.5-6.2-1.3-10.2-0.3c-4.6,1.1-9.7,4.7-13.3,9.3
	c-3.6,4.5-5.8,10-4.7,14.8c0.7,3,2.6,5.3,5.2,6.5c2.5,1.3,5.8,1.6,9,0.9c5.1-1.2,10.4-4.6,14.1-9.1c3.7-4.5,5.8-10,4.6-15.3
	l-20-86.8l69.7-29.8l18.2,78.9c-2.6-1.5-6.2-1.3-10.2-0.3c-4.6,1.1-9.7,4.7-13.3,9.3c-3.6,4.5-5.8,10-4.7,14.8
	c0.7,3,2.6,5.3,5.2,6.5c2.5,1.3,5.8,1.6,9,0.9c5.1-1.2,10.4-4.6,14.1-9.1c3.7-4.5,5.8-10,4.6-15.3L1651.8,480.1z"/>
<path class="st1" d="M636,512.7l32.9-16.6l0,0L688.2,363c0.4,3.1,1.6,4.1,3.1,4.3c1.8,0.3,4.4-2.9,6.9-8c2.4-4.9,4.7-11.8,5.7-18.9
	c0.7-4.5,0.7-8.4,0.3-11.1c-0.4-2.7-1.3-4.4-2.6-4.6c-1.9-0.3-4.6,2.5-7.1,7.4c-2.5,4.9-4.7,11.8-5.8,19.6L670,480.4l-30.5,15.3
	l16.9-116.8c0.4,3,1.6,4.1,3.1,4.3c1.8,0.3,4.4-2.9,6.9-8c2.4-4.9,4.7-11.8,5.7-18.9c0.6-4.5,0.7-8.3,0.2-11
	c-0.4-2.7-1.3-4.4-2.6-4.6c-2-0.3-4.6,2.5-7,7.4c-2.5,4.9-4.7,11.8-5.8,19.6L636,512.7z"/>
<path class="st1" d="M4841.3,326.9l-74,27l0,0l15.2,87.5c-2.4-1.6-5.9-1.6-9.8-0.9c-4.5,0.8-9.6,4-13.3,8.3c-3.7,4.2-6.1,9.4-5.3,14
	c0.5,3,2.2,5.2,4.6,6.6c2.3,1.3,5.5,1.9,8.6,1.3c5-0.9,10.3-3.9,14-8c3.8-4.2,6.1-9.4,5.2-14.5l-14.7-84.6l68.6-25l13.4,76.8
	c-2.4-1.6-5.9-1.6-9.8-0.9c-4.5,0.8-9.6,4-13.3,8.3c-3.7,4.2-6.1,9.4-5.3,14c0.5,3,2.2,5.2,4.6,6.6c2.3,1.3,5.5,1.9,8.6,1.3
	c5-0.9,10.3-3.9,14-8c3.8-4.2,6.1-9.4,5.2-14.5L4841.3,326.9z"/>
<path class="st1" d="M3265.9,691.7c-0.9,4.4-2.8,9.6-0.4,16.4c1.9,5.2,4.3,10.1,5.6,14.3c1.8,5.5,2.3,11.7,0.3,17.1
	c-3.2,8.6-10.4,15.7-15,19.4l-1.3-0.5c3.6-3.8,10.3-9.7,12.9-17.7c1.5-4.5,1.5-9.8,0-14.3c-1.7-5.2-5.8-10.4-10.3-12.4l-17.3,47.1
	c-1.4,3.7-4.9,6.3-9,7.6c-4.1,1.3-8.8,1.3-12.4,0c-2.3-0.9-4.2-2.4-5.2-4.2c-1.1-1.8-1.4-4-0.6-6.1c1.2-3.4,4.8-6,8.9-7.3
	c4.1-1.4,8.7-1.6,12-0.4c2.9,1.1,5.2,2.4,6.2,4.4l23.5-64L3265.9,691.7z"/>
<path class="st1" d="M6479.6,451.3c-1.7,7.7-4.9,17-0.7,29c3.3,9.2,7.5,17.9,10,25.3c3.2,9.7,4,20.6,0.5,30.1
	c-5.6,15.2-18.4,27.7-26.5,34.2l-2.3-0.9c6.4-6.6,18.2-17.1,22.7-31.2c2.6-7.9,2.7-17.3,0-25.3c-2.9-9.2-10.2-18.4-18.2-22
	l-30.5,83.1c-2.4,6.6-8.6,11.2-15.9,13.5c-7.2,2.4-15.4,2.3-21.9,0c-4.1-1.5-7.4-4.2-9.2-7.4c-2-3.2-2.4-7-1-10.8
	c2.2-6,8.5-10.5,15.7-12.9c7.2-2.5,15.3-2.9,21.2-0.7c5.1,1.9,9.2,4.2,10.9,7.7l41.5-113L6479.6,451.3z"/>
<path class="st1" d="M1272.6,454.5c0.1,7.8-1,17.5,5.8,28.2c5.2,8.1,11.2,15.6,15.2,22.2c5.3,8.6,8.5,19,7.2,29
	c-2,16-11.7,30.8-18,38.9l-2.5-0.3c4.7-7.8,13.8-20.6,15.1-35.2c0.7-8.2-1.2-17.3-5.6-24.4c-4.9-8.3-13.9-15.5-22.4-17.2l-11.1,87.1
	c-0.9,6.9-5.8,12.7-12.4,16.5c-6.4,3.9-14.4,5.7-21.2,4.8c-4.3-0.5-8.1-2.4-10.6-5.1c-2.6-2.7-3.9-6.3-3.4-10.3
	c0.8-6.3,5.9-12.1,12.3-15.9c6.4-4,14.2-6.2,20.3-5.4c5.4,0.7,9.9,2,12.3,5l15-118.4L1272.6,454.5z"/>
<path class="st1" d="M2712.9,678.7c-1-6.8-1.2-15.4-8.4-23.9c-5.5-6.5-11.6-12.3-15.9-17.6c-5.6-6.9-9.6-15.6-9.7-24.4
	c-0.1-14.2,6.5-28.2,11.1-36l2.2,0c-3.2,7.4-9.6,19.5-8.9,32.5c0.3,7.2,3.1,14.9,7.8,20.6c5.2,6.6,13.9,11.9,21.6,12.3l-0.7-77.2
	c-0.1-6.1,3.6-11.7,8.8-15.9c5.1-4.1,11.9-6.6,17.9-6.7c3.8,0,7.3,1.2,9.8,3.2c2.6,2,4.1,5,4.1,8.5c0,5.6-3.7,11.2-8.8,15.3
	c-5.1,4.3-11.6,7-17,7.1c-4.8,0-8.8-0.6-11.3-2.9l0.9,104.9L2712.9,678.7z"/>
<path class="st1" d="M863.9,540.7c-0.6-5.7,1.6-11.1,5.1-15.3c3.4-4.2,8.2-6.9,12.6-7.3c2.8-0.3,5.5,0.6,7.5,2.3
	c2.1,1.7,3.4,4.4,3.8,7.7c0.5,5.2-1.8,10.6-5.2,14.8c-3.4,4.3-7.9,7.3-11.9,7.7c-3.5,0.3-6.5,0-8.5-2l9.5,97.4l-2.5,0.2L863.9,540.7
	z"/>
<path class="st1" d="M2861.5,840.7c1.9,5.8,0.2,12.3-3.6,17.8c-3.6,5.5-9.4,10-15.1,11.9c-3.6,1.2-7.4,1.2-10.4,0
	c-3.1-1.1-5.5-3.5-6.6-6.8c-1.8-5.3,0.1-11.8,3.7-17.3c3.6-5.7,9-10.3,14.2-12c4.5-1.5,8.7-2.2,11.7-0.8l-33.2-99.5l3.2-1.1
	L2861.5,840.7z"/>
<path class="st1" d="M4011.1,727.4c1.9,5.8,0.2,12.3-3.6,17.8c-3.6,5.5-9.4,10-15.1,11.9c-3.6,1.2-7.4,1.2-10.4,0
	c-3.1-1.1-5.5-3.5-6.6-6.8c-1.8-5.3,0.1-11.8,3.7-17.3c3.6-5.7,9-10.3,14.2-12c4.5-1.5,8.7-2.2,11.7-0.8l-33.2-99.5l3.2-1.1
	L4011.1,727.4z"/>
<path class="st1" d="M4465.7,496.5c1.5,4.3,0.3,9.1-2.4,13.2c-2.6,4.1-6.8,7.5-11,9c-2.7,0.9-5.5,1-7.7,0.2c-2.3-0.8-4.1-2.5-5-5
	c-1.4-3.9-0.1-8.7,2.5-12.9c2.6-4.2,6.5-7.7,10.3-9.1c3.3-1.2,6.4-1.7,8.7-0.7l-25.9-73.2l2.4-0.8L4465.7,496.5z"/>
<path class="st1" d="M3086.9,657.8c2.1,5.8,0.4,12.3-3.3,18c-3.6,5.6-9.2,10.2-14.9,12.2c-3.6,1.3-7.4,1.3-10.4,0.2
	c-3.1-1.1-5.6-3.4-6.8-6.7c-1.9-5.3-0.1-11.9,3.5-17.5c3.5-5.7,8.8-10.5,14-12.3c4.5-1.6,8.7-2.3,11.8-1l-35.1-99.3l3.2-1.1
	L3086.9,657.8z"/>
<path class="st1" d="M7395.1,697.9c-0.5,5.8-4.4,10.8-9.8,14.2c-5.2,3.5-11.9,5.2-17.6,4.8c-3.6-0.3-6.9-1.7-9.1-3.9
	c-2.3-2.1-3.5-5.1-3.2-8.4c0.4-5.3,4.5-10.3,9.8-13.7c5.3-3.6,11.7-5.7,16.9-5.2c4.5,0.4,8.4,1.3,10.5,3.7l8.2-99.4l3.2,0.3
	L7395.1,697.9z"/>
<path class="st1" d="M87.5,532.6c2.8-0.7,5.6-1.2,8.4-1.5c27.7-2.9,49.5,20.1,52,48.2c2.3,23.4-10,42-29.7,54l13.1,43.5
	c1,3.6,1.3,6.9,1.6,10c2.2,22.3-10.4,38-33.2,42.7c-17.9,3.7-39.8-6.7-43.7-26.1c-2.6-13,5-27.4,17.5-30.1
	c11.4-2.4,22.9,6.8,24.5,18.8c2.3,16.7-13.7,23.8-20.2,22.9c1.4,7.4,14.5,8.9,20.6,7.7c20-4.4,28.4-17.8,27.3-35.5
	c-0.5-4.8-1.5-10.4-3.3-15.8l-10.8-34.2c-6.8,2.6-13.5,4.2-20,4.8c-37.5,3.7-71.1-25.2-78.2-66.2c-7.4-42.2,23.7-77.3,47.4-106.9
	c-5.5-15.8-9.4-31.3-11.1-47.9c-1.9-19.9,3.2-61.4,23.2-71c8.6-4.4,29.5,37.9,31.4,62.2c2.6,30.6-8.5,61.2-27.8,84.5L87.5,532.6z
	 M88.1,558.8c-11.8,4.9-21.1,18.6-19.5,32.1c1.1,11.6,9.5,18.2,19.5,21.9c1.1,0.3,1.7,1.2,1.7,2c0.1,1.3-1.3,2.5-2.8,2.5
	c-17.1-4.1-30.5-19.1-32.1-37.4c-1.8-17.9,10.6-37.4,26-44.9l-9.8-32.3C50,525.5,26.9,552.4,30,586.3c3.3,34.1,34.2,52.2,65.2,47.8
	c5-0.7,9.7-2,14.3-4L88.1,558.8z M93.6,394.7c-0.9-7-5.7-13.5-13.3-12.8c-17.9,5.5-21.4,37.6-20.3,53.3c0.9,9.2,3.4,18.4,6.4,27.1
	C82.3,445.6,96.9,419.3,93.6,394.7z M116.3,627.2c12.4-8.3,20-23.3,17.8-39c-3.5-19.9-19.7-33.1-39.1-31L116.3,627.2z"/>
<path class="st1" d="M958.2,667.4c12.2,0,35.2,4.3,35.7,21.4c0.5,16.8-22.6,21.4-34.5,21.4c-12.6,0-35-4.3-35.5-21.4
	C923.4,672.2,946.5,667.4,958.2,667.4z M962.9,706.9c7.3-1,10.2-4.2,9.7-14.3c-0.9-13.8-9.5-23.1-18-21.8c-7.1,1.2-10,4.1-9.5,14.1
	C945.8,698.7,954.4,708.2,962.9,706.9z"/>
<path class="st1" d="M7579.9,907.6c-1,5.8-5.5,10.5-11.2,13.5c-5.6,3-12.4,4.2-18.1,3.1c-3.6-0.7-6.7-2.4-8.7-4.8
	c-2.1-2.4-3-5.5-2.4-8.8c1-5.3,5.5-9.9,11.1-12.9c5.6-3.1,12.3-4.6,17.4-3.7c4.5,0.8,8.3,2.2,10.2,4.8l17.9-99.6l3.2,0.6
	c-0.6,4.7-1,11.3,3.7,17.3c5.3,6.7,10.1,13.3,13.2,19c4.1,7.5,6.3,16.5,4.8,24.9c-0.8,4.3-2.2,8.5-4.1,12.5
	c1.4,4.8,1.7,9.6,0.8,14.9c-1.6,9-5.7,16.1-10.5,21.6l-2.1-0.4c3.4-3.6,8.4-12.9,9.3-19.1c1-6.9,1.2-11-2.2-17.2
	c-3.9-7.1-15.8-15.9-22.1-22.2L7579.9,907.6z M7617.5,861.7c1-6.9-1.4-12.8-4.8-19c-3.9-7.1-11.1-13.7-17.6-19.2
	c-1.4,9.3,2.9,19.9,7.6,25.9c5.3,6.7,7.9,10.2,10.8,15.5c0.9,1.6,1.7,3.4,2.3,4.9C7616.5,867.2,7617.2,863.9,7617.5,861.7z"/>
<path class="st1" d="M5044.4,240.5c-1.2,7-6.5,12.6-13.3,16.1c-6.7,3.6-14.9,5-21.6,3.8c-4.3-0.8-8.1-2.9-10.4-5.7
	c-2.5-2.8-3.6-6.5-2.9-10.5c1.1-6.3,6.5-11.9,13.2-15.5c6.7-3.8,14.6-5.5,20.8-4.5c5.4,1,9.9,2.5,12.2,5.6l21-119.1l3.9,0.7
	c-0.7,5.6-1.1,13.5,4.4,20.7c6.4,8,12.1,15.8,15.9,22.7c4.9,9,7.7,19.7,5.9,29.7c-0.9,5.1-2.6,10.2-4.8,14.9
	c1.7,5.7,2.1,11.5,1,17.9c-1.9,10.8-6.7,19.2-12.5,25.8l-2.5-0.4c4.1-4.4,10-15.4,11-22.9c1.1-8.2,1.4-13.1-2.7-20.6
	c-4.7-8.5-18.9-18.9-26.5-26.5L5044.4,240.5z M5089,185.4c1.1-8.2-1.8-15.3-5.8-22.7c-4.7-8.5-13.3-16.4-21.1-22.8
	c-1.6,11.2,3.6,23.7,9.2,30.9c6.4,8,9.4,12.2,12.9,18.5c1.1,1.9,2,4,2.8,5.9C5087.8,192.1,5088.7,188.1,5089,185.4z"/>
<path class="st1" d="M1918.2,357c-1,9.1-7.4,16.9-15.9,22.1c-8.4,5.2-18.9,7.8-27.8,6.8c-5.7-0.6-10.7-3-14-6.5
	c-3.5-3.5-5.3-8.2-4.7-13.5c0.9-8.3,7.5-16,15.8-21.3c8.4-5.5,18.5-8.5,26.6-7.6c7.1,0.8,13,2.5,16.3,6.3l17.1-156.6l5.1,0.6
	c-0.4,7.3-0.3,17.6,7.5,26.5c9,9.8,17.1,19.5,22.5,28.2c7.2,11.3,11.6,24.9,10.2,38.1c-0.7,6.7-2.5,13.5-5,19.8
	c2.7,7.3,3.7,14.8,2.8,23.1c-1.6,14.2-7.1,25.5-14,34.6l-3.2-0.4c5-6,11.7-20.9,12.4-30.7c0.8-10.8,0.7-17.2-5.3-26.5
	c-6.8-10.6-26.2-23-36.6-32.2L1918.2,357z M1971.5,281.7c0.8-10.8-3.6-19.7-9.5-29c-6.8-10.6-18.7-20.1-29.3-27.9
	c-1.2,14.7,6.7,30.5,14.5,39.4c9,9.8,13.3,15,18.4,23c1.6,2.4,2.9,5.1,4.1,7.4C1970.5,290.4,1971.3,285.2,1971.5,281.7z"/>
<path class="st1" d="M4194.1,810.8l74.2-34.4l0,0l-23.4-89.2c2.6,1.4,6.2,1.1,10.3,0c4.6-1.2,9.6-5,13-9.7c3.5-4.6,5.5-10.2,4.2-15
	c-0.8-3-2.7-5.2-5.4-6.4c-2.5-1.2-5.8-1.4-9-0.6c-5.1,1.3-10.3,4.9-13.8,9.6c-3.6,4.7-5.5,10.2-4.1,15.4l22.6,86.2l-68.7,31.9
	l-20.5-78.3c2.6,1.4,6.2,1.1,10.3,0c4.6-1.2,9.5-5,13-9.7c3.5-4.6,5.5-10.2,4.2-15c-0.8-3-2.7-5.2-5.4-6.4c-2.5-1.2-5.8-1.4-9-0.6
	c-5.1,1.3-10.3,4.9-13.8,9.5c-3.6,4.7-5.5,10.2-4.1,15.4L4194.1,810.8z"/>
<path class="st1" d="M2428.4,342.3c-0.4,7.7-1.2,17.5,0.7,27.4c1.5,7.6,3.3,14.5,4.5,20.6c1.5,8.1,2.1,18.1,1.2,28.1
	c-1.6,16-5.9,31.6-8.6,40.2l-0.9-0.1c2.1-8.2,6.1-21.6,7.3-36.3c0.7-8.2,0.4-17.1-0.8-23.7c-1.4-7.8-4.3-14.1-7.3-15l-8.5,87.4
	c-0.7,6.9-2.8,13.1-5.4,17.5c-2.5,4.4-5.6,6.9-8,6.7c-1.5-0.1-2.8-1.7-3.6-4.1c-0.8-2.4-1.1-5.9-0.7-9.9c0.6-6.3,2.8-12.5,5.3-16.9
	c2.6-4.6,5.5-7.4,7.7-7.2c1.9,0.2,3.5,1.1,4.3,3.8l11.5-118.8L2428.4,342.3z"/>
<path class="st1" d="M7195.8,434.9c-0.8-8.1,2.3-15.8,7.3-21.7c4.8-5.9,11.6-9.8,17.8-10.4c4-0.4,7.8,0.9,10.6,3.3
	c2.9,2.4,4.9,6.2,5.3,10.9c0.7,7.3-2.5,15.1-7.4,21c-4.8,6.1-11.2,10.3-16.9,10.9c-4.9,0.5-9.3,0-12.1-2.8l13.5,138l-3.5,0.3
	L7195.8,434.9z"/>
<path class="st1" d="M6246.5,598.2c12.2,0,35.2,4.3,35.7,21.4c0.5,16.8-22.6,21.4-34.5,21.4c-12.6,0-35-4.3-35.5-21.4
	C6211.7,603,6234.8,598.2,6246.5,598.2z M6251.2,637.7c7.3-1,10.2-4.2,9.7-14.3c-0.9-13.8-9.5-23.1-18-21.8
	c-7.1,1.2-10,4.1-9.5,14.1C6234.1,629.5,6242.8,639,6251.2,637.7z"/>
<path class="st1" d="M3662.2,512c18.5-3.1,29.9-4.2,44.1-14.5c6.1-4.4,12.5-11.9,15.4-18.2c2.3-5.1,3.7-9,3.5-13.5
	c-0.3-5.2-3.5-10.7-9.8-12.9c-4.2-1.5-9.8-2.2-12.8-0.9c-1.7,0.7-3.4,1.9-4.7,3c-1.1,0.9-1.4,3,0.8,4.1c0.8,0.4,3,0.5,4.1,0.8
	c5,1.6,7.3,7.3,5.4,11.4c-1.8,4.1-7.4,6.7-13.1,4.1c-5.9-2.7-9-9-6.6-14.9c2.6-6.3,9.5-10.7,16.7-11.2c3.9-0.6,11.4,0.7,14.6,2.2
	c5.9,2.7,10.7,6.1,14.2,13.2c3.4,7.1,3.6,11.7,0.9,19.9c-3.8,11.5-19.4,21.8-31.6,25c-11.4,3.1-27.3,4.2-41.2,4.6L3662.2,512z
	 M3750.3,474c3,1.4,3.9,4.7,2.7,7.2c-1.2,2.6-4.2,4.2-7.3,2.8c-3.2-1.5-3.9-4.8-2.8-7.4C3744.1,474.1,3747.1,472.5,3750.3,474z
	 M3741.1,494.1c3,1.4,3.9,4.7,2.7,7.2c-1.2,2.6-4.2,4.2-7.3,2.8c-3.2-1.5-3.9-4.8-2.8-7.4C3734.9,494.3,3737.9,492.7,3741.1,494.1z"
	/>
<path class="st1" d="M6690.3,243.4l3.5-2.1l27.4,46.3c1.7-4.2,3.8-8.3,7.9-10.7c4.7-2.8,12.3-0.9,15.2,4.4c4,7.2,0.4,16.4-2.2,23.2
	c-2.2,6-3.6,12.2-4.9,18.1L6690.3,243.4z M6736,312.6c1.2-6.9,4-18.5,0.1-25.2c-2.2-3.7-5.7-4.8-8.4-3.7c-3,1.1-4.3,7.5-3.4,9.1
	L6736,312.6z"/>
<path class="st1" d="M212.1,380.9l-10.8,6.4l9.9,33.4l-5.1,1.5l-9.5-32l-7.6,4.5l-5.3-17.8l7.6-4.5l-7.3-24.5l-7.6,4.5l-5.1-17.3
	l7.6-4.5l-9.9-33.4l5.1-1.5l9.5,32l10.8-6.4l-9.8-33.2l5.1-1.5l9.5,32l7.6-4.5l5.1,17.3l-7.6,4.5l7.3,24.5l7.6-4.5l5.3,17.8
	l-7.6,4.5l9.5,32l-5.1,1.5L212.1,380.9z M196,369.4l10.8-6.4l-7.3-24.5l-10.8,6.4L196,369.4z"/>
<path class="st1" d="M287.4,425.4l-10.8,6.4l9.9,33.4l-5.1,1.5l-9.5-32l-7.6,4.5l-5.3-17.8l7.6-4.5l-7.3-24.5l-7.6,4.5l-5.1-17.3
	l7.6-4.5l-9.9-33.4l5.1-1.5l9.5,32l10.8-6.4l-9.8-33.2l5.1-1.5l9.5,32l7.6-4.5l5.1,17.3l-7.6,4.5l7.3,24.5l7.6-4.5l5.3,17.8
	l-7.6,4.5l9.5,32l-5.1,1.5L287.4,425.4z M271.3,413.9l10.8-6.4l-7.3-24.5l-10.8,6.4L271.3,413.9z"/>
</svg>
