<?xml version="1.0" encoding="utf-8"?>
<!-- Generator: Adobe Illustrator 16.0.0, SVG Export Plug-In . SVG Version: 6.00 Build 0)  -->
<!DOCTYPE svg PUBLIC "-//W3C//DTD SVG 1.1//EN" "http://www.w3.org/Graphics/SVG/1.1/DTD/svg11.dtd">
<svg version="1.1" id="Layer_1" xmlns="http://www.w3.org/2000/svg" xmlns:xlink="http://www.w3.org/1999/xlink" x="0px" y="0px"
	 width="80px" height="80px" viewBox="0 0 80 80" enable-background="new 0 0 80 80" xml:space="preserve">
<g>
	<path fill="#E35225" d="M9.799,0C4.387,0,0,4.388,0,9.799v60.404C0,75.615,4.387,80,9.799,80H40V0H9.799z"/>
	<path fill="#EC652E" d="M70.201,0H40v80h30.201C75.613,80,80,75.615,80,70.203V9.799C80,4.388,75.613,0,70.201,0z"/>
</g>
<g>
	<path fill="#E35225" d="M0,39.999c0,22.092,17.909,40,40,40V0C17.909,0,0,17.908,0,39.999z M23.537,61.679h-3.734v-6.627h-6.444
		v6.627H9.624V45.511h3.734v6.262h6.444v-6.262h3.734V61.679z M25.28,30.445l-4.327,2.732l4.327,2.574v4.074l-9.61-5.692v-1.729
		l9.61-5.83V30.445z M38.953,48.791h-4.919v12.889H30.3V48.791h-4.941v-3.279h13.595V48.791z"/>
	<path fill="#EC652E" d="M40,0v80c22.091,0,40-17.908,40-40C80,17.908,62.091,0,40,0z M54.699,35.752l4.348-2.574l-4.348-2.732
		v-3.871l9.631,5.83v1.729l-9.631,5.692V35.752z M57.261,61.679h-3.734v-9.678l-3.508,7.037h-2.004l-3.506-7.037v9.678h-3.735
		V45.511h4.053l4.189,8.449l4.213-8.449h4.031V61.679z M60.357,61.679V45.511h3.734V58.4h7.834v3.279H60.357z"/>
	<polygon fill="#FFFFFF" points="19.803,51.773 13.358,51.773 13.358,45.511 9.624,45.511 9.624,61.679 13.358,61.679 
		13.358,55.052 19.803,55.052 19.803,61.679 23.537,61.679 23.537,45.511 19.803,45.511 	"/>
	<polygon fill="#FFFFFF" points="25.358,48.791 30.3,48.791 30.3,61.679 34.034,61.679 34.034,48.791 38.953,48.791 38.953,45.511 
		25.358,45.511 	"/>
	<polygon fill="#FFFFFF" points="49.017,53.96 44.828,45.511 40.774,45.511 40.774,61.679 44.509,61.679 44.509,52.001 
		48.015,59.039 50.019,59.039 53.527,52.001 53.527,61.679 57.261,61.679 57.261,45.511 53.23,45.511 	"/>
	<polygon fill="#FFFFFF" points="64.091,58.4 64.091,45.511 60.357,45.511 60.357,61.679 71.925,61.679 71.925,58.4 	"/>
	<polygon fill="#FFFFFF" points="15.67,34.134 25.28,39.826 25.28,35.752 20.953,33.178 25.28,30.445 25.28,26.574 15.67,32.404 	
		"/>
	<polygon fill="#FFFFFF" points="64.33,32.404 54.699,26.574 54.699,30.445 59.046,33.178 54.699,35.752 54.699,39.826 
		64.33,34.134 	"/>
</g>
</svg>
