<?xml version="1.0" encoding="utf-8"?>
<!-- Generator: Adobe Illustrator 16.0.0, SVG Export Plug-In . SVG Version: 6.00 Build 0)  -->
<!DOCTYPE svg PUBLIC "-//W3C//DTD SVG 1.1//EN" "http://www.w3.org/Graphics/SVG/1.1/DTD/svg11.dtd">
<svg version="1.1" id="Layer_1" xmlns="http://www.w3.org/2000/svg" xmlns:xlink="http://www.w3.org/1999/xlink" x="0px" y="0px"
	 width="80px" height="80px" viewBox="0 0 80 80" enable-background="new 0 0 80 80" xml:space="preserve">
<g>
	<path fill="#D14227" d="M80,70.266C80,75.641,75.643,80,70.266,80H9.735C4.358,80,0,75.641,0,70.266V9.733C0,4.357,4.358,0,9.735,0
		h60.531C75.643,0,80,4.357,80,9.733V70.266z"/>
	<path fill="#FFFFFF" d="M33.348,47.01v14.803H22.833V18.187h17.408c3.333,0,6.287,0.615,8.853,1.843
		c2.566,1.229,4.555,2.977,5.963,5.244c1.408,2.267,2.111,4.838,2.111,7.715c0,4.255-1.523,7.655-4.568,10.201
		c-3.047,2.547-7.227,3.82-12.539,3.82H33.348z M33.348,38.891h6.893c2.037,0,3.589-0.509,4.658-1.528
		c1.068-1.018,1.604-2.456,1.604-4.314c0-2.037-0.551-3.665-1.648-4.883c-1.1-1.219-2.596-1.838-4.494-1.858h-7.012V38.891z"/>
</g>
</svg>
