<?xml version="1.0" encoding="utf-8"?>
<!-- Generator: Adobe Illustrator 16.0.0, SVG Export Plug-In . SVG Version: 6.00 Build 0)  -->
<!DOCTYPE svg PUBLIC "-//W3C//DTD SVG 1.1//EN" "http://www.w3.org/Graphics/SVG/1.1/DTD/svg11.dtd">
<svg version="1.1" id="Layer_1" xmlns="http://www.w3.org/2000/svg" xmlns:xlink="http://www.w3.org/1999/xlink" x="0px" y="0px"
	 width="80px" height="80px" viewBox="0 0 80 80" enable-background="new 0 0 80 80" xml:space="preserve">
<g>
	<path fill="#E3A129" d="M9.799,0C4.387,0,0,4.388,0,9.799v60.404C0,75.615,4.387,80,9.799,80H40V0H9.799z"/>
	<path fill="#EFBF23" d="M70.201,0H40v80h30.201C75.613,80,80,75.615,80,70.203V9.799C80,4.388,75.613,0,70.201,0z"/>
</g>
<g>
	<path fill="#EFBF23" d="M41.264,60.719c0.334,0.213,0.748,0.424,1.242,0.637c0.492,0.213,1.043,0.402,1.65,0.57
		c0.605,0.166,1.223,0.25,1.844,0.25c1.32,0,1.982-0.402,1.982-1.207c0-0.303-0.1-0.555-0.297-0.752s-0.471-0.375-0.818-0.535
		c-0.352-0.158-0.764-0.307-1.242-0.443s-1-0.287-1.561-0.455c-0.744-0.229-1.389-0.475-1.936-0.74s-0.998-0.572-1.356-0.924
		c-0.342-0.334-0.6-0.721-0.773-1.154v5.654l0.673-1.334C40.732,60.361,40.929,60.506,41.264,60.719z"/>
	<path fill="#E3A129" d="M39.033,63.541L40,61.619v-5.654c-0.007-0.018-0.016-0.033-0.022-0.051
		c-0.175-0.455-0.262-0.986-0.262-1.594c0-0.654,0.097-1.248,0.284-1.785V0C17.909,0,0,17.908,0,40S17.909,80,40,80V64.105
		C39.662,63.932,39.335,63.748,39.033,63.541z M30.983,28.852c0.183-0.773,0.429-1.555,0.74-2.344
		c0.311-0.791,0.676-1.586,1.093-2.393c0.418-0.805,0.869-1.615,1.354-2.436l2.778,1.139c-0.213,0.334-0.478,0.809-0.797,1.422
		c-0.318,0.615-0.63,1.311-0.934,2.084c-0.304,0.775-0.565,1.586-0.785,2.438c-0.221,0.85-0.33,1.678-0.33,2.482
		c0,1.229,0.258,2.492,0.773,3.791c0.516,1.297,1.177,2.66,1.981,4.088l-2.642,1.297c-0.471-0.697-0.919-1.428-1.343-2.186
		c-0.426-0.76-0.798-1.529-1.116-2.311c-0.319-0.783-0.574-1.572-0.764-2.369s-0.284-1.59-0.284-2.379
		C30.709,30.4,30.801,29.627,30.983,28.852z M25.814,35.365h2.983v3.711h-2.983V35.365z M37.256,57.416
		c0,1.23-0.065,2.35-0.193,3.359c-0.13,1.01-0.411,1.871-0.843,2.584c-0.432,0.715-1.066,1.268-1.902,1.662
		c-0.834,0.395-1.949,0.592-3.346,0.592c-1.367,0-2.536-0.334-3.507-1l0.819-3.053c0.151,0.121,0.475,0.273,0.968,0.455
		c0.493,0.184,1.066,0.273,1.72,0.273c0.561,0,1.009-0.094,1.344-0.285c0.333-0.189,0.592-0.48,0.773-0.875
		c0.183-0.395,0.299-0.9,0.353-1.516c0.054-0.613,0.08-1.346,0.08-2.197v-8.221h3.734V57.416z"/>
	<path fill="#EFBF23" d="M40,0L40,0v52.535c0.057-0.162,0.121-0.318,0.193-0.469c0.318-0.654,0.752-1.203,1.299-1.652
		c0.547-0.447,1.18-0.785,1.9-1.014c0.721-0.227,1.484-0.342,2.289-0.342c0.561,0,1.115,0.055,1.662,0.16
		c0.547,0.107,1.07,0.244,1.57,0.41c0.502,0.168,0.969,0.357,1.4,0.57c0.434,0.211,0.832,0.424,1.197,0.637l-1.641,3.098
		c-0.045-0.061-0.205-0.176-0.479-0.342c-0.271-0.168-0.613-0.342-1.023-0.523c-0.41-0.184-0.859-0.344-1.344-0.48
		c-0.486-0.135-0.971-0.203-1.457-0.203c-1.336,0-2.006,0.447-2.006,1.344c0,0.271,0.072,0.5,0.219,0.682
		c0.143,0.182,0.355,0.346,0.637,0.49s0.633,0.277,1.059,0.398s0.918,0.258,1.48,0.41c0.773,0.213,1.473,0.443,2.096,0.695
		c0.621,0.25,1.148,0.561,1.582,0.934c0.432,0.371,0.766,0.822,1.002,1.354c0.234,0.531,0.352,1.17,0.352,1.914
		c0,0.91-0.17,1.682-0.512,2.311c-0.342,0.631-0.793,1.139-1.355,1.525c-0.561,0.387-1.207,0.668-1.936,0.842
		c-0.729,0.176-1.48,0.264-2.254,0.264c-0.592,0-1.199-0.047-1.822-0.137c-0.621-0.092-1.229-0.225-1.82-0.4
		c-0.592-0.174-1.166-0.383-1.719-0.625c-0.197-0.086-0.383-0.184-0.57-0.279V80l0,0c22.092,0,40-17.908,40-40S62.092,0,40,0z
		 M54.447,33.555c-0.189,0.797-0.443,1.586-0.762,2.369c-0.318,0.781-0.691,1.551-1.117,2.311c-0.424,0.758-0.871,1.488-1.342,2.186
		l-2.643-1.297c0.805-1.428,1.465-2.791,1.982-4.088c0.516-1.299,0.773-2.563,0.773-3.791c0-0.805-0.109-1.633-0.33-2.482
		c-0.221-0.852-0.482-1.662-0.785-2.438c-0.305-0.773-0.615-1.469-0.934-2.084c-0.32-0.613-0.586-1.088-0.799-1.422l2.779-1.139
		c0.484,0.82,0.938,1.631,1.355,2.436c0.416,0.807,0.781,1.602,1.092,2.393c0.311,0.789,0.559,1.57,0.74,2.344
		c0.182,0.775,0.273,1.549,0.273,2.324C54.732,31.965,54.639,32.758,54.447,33.555z"/>
	<rect x="25.814" y="35.365" fill="#FFFFFF" width="2.983" height="3.711"/>
	<path fill="#FFFFFF" d="M31.757,35.924c0.318,0.781,0.69,1.551,1.116,2.311c0.424,0.758,0.872,1.488,1.343,2.186l2.642-1.297
		c-0.805-1.428-1.466-2.791-1.981-4.088c-0.516-1.299-0.773-2.563-0.773-3.791c0-0.805,0.109-1.633,0.33-2.482
		c0.22-0.852,0.481-1.662,0.785-2.438c0.304-0.773,0.615-1.469,0.934-2.084c0.319-0.613,0.584-1.088,0.797-1.422L34.17,21.68
		c-0.485,0.82-0.937,1.631-1.354,2.436c-0.417,0.807-0.782,1.602-1.093,2.393c-0.312,0.789-0.558,1.57-0.74,2.344
		c-0.182,0.775-0.273,1.549-0.273,2.324c0,0.789,0.095,1.582,0.284,2.379S31.438,35.141,31.757,35.924z"/>
	<path fill="#FFFFFF" d="M53.719,26.508c-0.311-0.791-0.676-1.586-1.092-2.393c-0.418-0.805-0.871-1.615-1.355-2.436l-2.779,1.139
		c0.213,0.334,0.479,0.809,0.799,1.422c0.318,0.615,0.629,1.311,0.934,2.084c0.303,0.775,0.564,1.586,0.785,2.438
		c0.221,0.85,0.33,1.678,0.33,2.482c0,1.229-0.258,2.492-0.773,3.791c-0.518,1.297-1.178,2.66-1.982,4.088l2.643,1.297
		c0.471-0.697,0.918-1.428,1.342-2.186c0.426-0.76,0.799-1.529,1.117-2.311c0.318-0.783,0.572-1.572,0.762-2.369
		c0.191-0.797,0.285-1.59,0.285-2.379c0-0.775-0.092-1.549-0.273-2.324C54.277,28.078,54.029,27.297,53.719,26.508z"/>
	<path fill="#FFFFFF" d="M33.522,57.416c0,0.852-0.026,1.584-0.08,2.197c-0.054,0.615-0.17,1.121-0.353,1.516
		c-0.182,0.395-0.44,0.686-0.773,0.875c-0.335,0.191-0.783,0.285-1.344,0.285c-0.653,0-1.227-0.09-1.72-0.273
		c-0.493-0.182-0.816-0.334-0.968-0.455l-0.819,3.053c0.971,0.666,2.14,1,3.507,1c1.396,0,2.512-0.197,3.346-0.592
		c0.836-0.395,1.471-0.947,1.902-1.662c0.432-0.713,0.713-1.574,0.843-2.584c0.128-1.01,0.193-2.129,0.193-3.359v-8.221h-3.734
		V57.416z"/>
	<path fill="#FFFFFF" d="M39.033,63.541c0.303,0.207,0.629,0.391,0.967,0.564v-2.486L39.033,63.541z"/>
	<path fill="#FFFFFF" d="M39.977,55.914c0.007,0.018,0.016,0.033,0.022,0.051v-3.43c-0.188,0.537-0.284,1.131-0.284,1.785
		C39.715,54.928,39.802,55.459,39.977,55.914z"/>
	<path fill="#FFFFFF" d="M40.773,57.119c0.358,0.352,0.809,0.658,1.356,0.924s1.191,0.512,1.936,0.74
		c0.561,0.168,1.082,0.318,1.561,0.455s0.891,0.285,1.242,0.443c0.348,0.16,0.621,0.338,0.818,0.535s0.297,0.449,0.297,0.752
		c0,0.805-0.662,1.207-1.982,1.207c-0.621,0-1.238-0.084-1.844-0.25c-0.607-0.168-1.158-0.357-1.65-0.57
		c-0.494-0.213-0.908-0.424-1.242-0.637c-0.334-0.213-0.532-0.357-0.591-0.434L40,61.619v2.486c0.188,0.096,0.373,0.193,0.57,0.279
		c0.553,0.242,1.127,0.451,1.719,0.625c0.592,0.176,1.199,0.309,1.82,0.4c0.623,0.09,1.23,0.137,1.822,0.137
		c0.773,0,1.525-0.088,2.254-0.264c0.729-0.174,1.375-0.455,1.936-0.842c0.563-0.387,1.014-0.895,1.355-1.525
		c0.342-0.629,0.512-1.4,0.512-2.311c0-0.744-0.117-1.383-0.352-1.914c-0.236-0.531-0.57-0.982-1.002-1.354
		c-0.434-0.373-0.961-0.684-1.582-0.934c-0.623-0.252-1.322-0.482-2.096-0.695c-0.563-0.152-1.055-0.289-1.48-0.41
		s-0.777-0.254-1.059-0.398s-0.494-0.309-0.637-0.49c-0.146-0.182-0.219-0.41-0.219-0.682c0-0.896,0.67-1.344,2.006-1.344
		c0.486,0,0.971,0.068,1.457,0.203c0.484,0.137,0.934,0.297,1.344,0.48c0.41,0.182,0.752,0.355,1.023,0.523
		c0.273,0.166,0.434,0.281,0.479,0.342l1.641-3.098c-0.365-0.213-0.764-0.426-1.197-0.637c-0.432-0.213-0.898-0.402-1.4-0.57
		c-0.5-0.166-1.023-0.303-1.57-0.41c-0.547-0.105-1.102-0.16-1.662-0.16c-0.805,0-1.568,0.115-2.289,0.342
		c-0.721,0.229-1.354,0.566-1.9,1.014c-0.547,0.449-0.981,0.998-1.299,1.652c-0.072,0.15-0.137,0.307-0.193,0.469v3.43
		C40.173,56.398,40.431,56.785,40.773,57.119z"/>
</g>
</svg>
