<?xml version="1.0" encoding="utf-8"?>
<!-- Generator: Adobe Illustrator 16.0.0, SVG Export Plug-In . SVG Version: 6.00 Build 0)  -->
<!DOCTYPE svg PUBLIC "-//W3C//DTD SVG 1.1//EN" "http://www.w3.org/Graphics/SVG/1.1/DTD/svg11.dtd">
<svg version="1.1" id="레이어_1" xmlns="http://www.w3.org/2000/svg" xmlns:xlink="http://www.w3.org/1999/xlink" x="0px"
	 y="0px" width="1920px" height="1080px" viewBox="0 0 1920 1080" enable-background="new 0 0 1920 1080" xml:space="preserve">
<g>
	<g>
		<path d="M840.646,264.906h66.954L960,413.369l55.31-148.463h64.043l-75.687,195.041l66.954,160.107l136.819-358.059h75.688
			l-180.485,439.569h-58.221l-81.51-197.951l-81.51,197.951h-58.221L639.784,261.995h75.688l136.819,358.059l66.954-160.107
			L840.646,264.906z"/>
	</g>
</g>
<g>
	<g>
		<path d="M960,413.369l55.31-148.463h64.043l-75.687,195.041 M962.911,503.612l-81.51,197.951h-58.221L639.784,261.995h75.688
			l136.819,358.059l66.954-160.107"/>
	</g>
</g>
<g>
	<path d="M680.539,689.919c-17.466,17.467-43.666,17.467-61.132,0c-17.467-17.466-17.467-43.665,0-61.132
		c17.466-17.467,43.666-17.467,61.132,0C698.005,643.343,698.005,672.453,680.539,689.919z"/>
	<path d="M680.539,625.876c17.466,17.467,17.466,43.666,0,61.132c-17.466,17.467-43.666,17.467-61.132,0"/>
</g>
</svg>
