<?xml version="1.0" encoding="utf-8"?>
<!-- Generator: Adobe Illustrator 16.0.0, SVG Export Plug-In . SVG Version: 6.00 Build 0)  -->
<!DOCTYPE svg PUBLIC "-//W3C//DTD SVG 1.1//EN" "http://www.w3.org/Graphics/SVG/1.1/DTD/svg11.dtd">
<svg version="1.1" id="레이어_1" xmlns="http://www.w3.org/2000/svg" xmlns:xlink="http://www.w3.org/1999/xlink" x="0px"
	 y="0px" width="1920px" height="1080px" viewBox="0 0 1920 1080" enable-background="new 0 0 1920 1080" xml:space="preserve">
<g>
	<path d="M960,1080c-221.24,0-433.747-119.354-541.456-328.949c-64.043-122.264-84.42-264.905-58.221-401.725
		c26.2-133.908,98.976-256.172,200.862-346.415c5.822-5.822,17.467-2.911,23.289,2.911c2.911,5.822,2.911,14.555-2.911,20.377
		c-206.685,177.574-261.995,468.68-136.819,710.297C549.542,934.447,750.404,1047.979,960,1047.979
		c90.243,0,183.396-20.377,267.816-66.954c282.372-148.464,392.992-500.701,244.528-783.073
		c-34.933-66.955-81.509-122.264-136.819-171.752c-5.822-5.822-5.822-14.555-2.911-20.377C1338.437,0,1347.17,0,1352.992,2.911
		c58.221,49.488,107.709,110.62,142.642,180.485c157.196,299.838,40.754,669.542-259.084,823.827
		C1152.13,1056.712,1056.064,1080,960,1080z"/>
</g>
<g>
	<path d="M960,1024.69c-55.31,0-110.62-8.733-165.93-26.2c-142.642-43.665-256.173-139.73-326.038-270.728
		c-58.221-110.62-78.598-241.617-52.399-363.881c23.289-122.265,90.243-232.885,183.396-314.394c2.911-2.911,5.822,0,5.822,0
		c2.911,2.911,0,5.822,0,5.822c-195.04,165.93-247.439,439.569-128.086,666.63c66.954,128.087,180.485,224.151,320.216,267.817
		c139.73,43.665,288.193,29.11,416.28-37.844c267.816-139.73,369.703-468.68,229.973-736.496
		c-32.021-61.132-75.687-116.442-128.086-160.108c-2.911-2.911-2.911-5.822,0-5.822c2.911-2.911,5.822-2.911,5.822,0
		c52.398,46.577,96.064,101.887,130.997,163.019c142.642,270.728,37.844,605.499-232.884,748.14
		C1137.574,1001.401,1050.243,1024.69,960,1024.69z"/>
</g>
</svg>
