<?xml version="1.0" encoding="utf-8"?>
<!-- Generator: Adobe Illustrator 16.0.0, SVG Export Plug-In . SVG Version: 6.00 Build 0)  -->
<!DOCTYPE svg PUBLIC "-//W3C//DTD SVG 1.1//EN" "http://www.w3.org/Graphics/SVG/1.1/DTD/svg11.dtd">
<svg version="1.1" id="레이어_1" xmlns="http://www.w3.org/2000/svg" xmlns:xlink="http://www.w3.org/1999/xlink" x="0px"
	 y="0px" width="1216.464px" height="1080.263px" viewBox="349.205 -0.263 1216.464 1080.263"
	 enable-background="new 349.205 -0.263 1216.464 1080.263" xml:space="preserve">
<g>
	<g>
		<g>
			<path d="M840.646,264.906H907.6L960,413.369l55.31-148.463h64.043l-75.687,195.041l66.954,160.106l136.818-358.059h75.688
				l-180.485,439.569h-58.221l-81.51-197.951l-81.51,197.951H823.18L639.784,261.995h75.688l136.819,358.059l66.954-160.106
				L840.646,264.906z"/>
		</g>
	</g>
	<g>
		<path d="M960,1080c-221.24,0-433.747-119.354-541.456-328.949c-64.043-122.264-84.42-264.904-58.221-401.725
			c26.2-133.908,98.976-256.172,200.861-346.415c5.822-5.822,17.468-2.911,23.289,2.911c2.911,5.822,2.911,14.555-2.91,20.377
			c-206.686,177.574-261.996,468.68-136.819,710.297C549.542,934.447,750.404,1047.979,960,1047.979
			c90.243,0,183.396-20.377,267.816-66.953c282.372-148.465,392.991-500.701,244.527-783.073
			c-34.933-66.955-81.509-122.264-136.818-171.752c-5.822-5.822-5.822-14.555-2.911-20.377C1338.437,0,1347.17,0,1352.992,2.911
			c58.221,49.488,107.709,110.62,142.642,180.485c157.196,299.838,40.754,669.542-259.084,823.827
			C1152.13,1056.712,1056.063,1080,960,1080z"/>
	</g>
	<g>
		<path d="M960,1024.689c-55.31,0-110.62-8.732-165.93-26.199c-142.643-43.665-256.173-139.73-326.038-270.729
			c-58.221-110.62-78.598-241.617-52.399-363.881c23.289-122.265,90.243-232.885,183.396-314.394c2.911-2.911,5.821,0,5.821,0
			c2.911,2.911,0,5.822,0,5.822c-195.04,165.93-247.438,439.569-128.086,666.63c66.954,128.087,180.485,224.15,320.217,267.816
			c139.729,43.665,288.192,29.11,416.279-37.844c267.816-139.73,369.703-468.68,229.974-736.496
			c-32.021-61.132-75.688-116.442-128.086-160.108c-2.911-2.911-2.911-5.822,0-5.822c2.911-2.911,5.821-2.911,5.821,0
			c52.398,46.577,96.064,101.887,130.997,163.019c142.643,270.729,37.845,605.499-232.884,748.14
			C1137.574,1001.401,1050.243,1024.689,960,1024.689z"/>
	</g>
	<g>
		<g>
			<path d="M960,413.369l55.31-148.463h64.043l-75.687,195.041 M962.911,503.612l-81.51,197.95H823.18L639.784,261.995h75.688
				l136.819,358.059l66.954-160.106"/>
		</g>
	</g>
	<g>
		<path d="M680.539,689.919c-17.466,17.467-43.666,17.467-61.132,0c-17.467-17.466-17.467-43.665,0-61.132
			c17.466-17.467,43.666-17.467,61.132,0C698.005,643.343,698.005,672.453,680.539,689.919z"/>
		<path d="M677.125,628.875c17.466,17.467,20.88,40.667,3.414,58.133c-17.466,17.467-43.666,17.467-61.132,0"/>
	</g>
</g>
<circle cx="649.973" cy="659.354" r="43.666"/>
</svg>
