<?xml version="1.0" encoding="utf-8"?>
<!-- Generator: Adobe Illustrator 16.0.0, SVG Export Plug-In . SVG Version: 6.00 Build 0)  -->
<!DOCTYPE svg PUBLIC "-//W3C//DTD SVG 1.1//EN" "http://www.w3.org/Graphics/SVG/1.1/DTD/svg11.dtd">
<svg version="1.1" id="Layer_1" xmlns="http://www.w3.org/2000/svg" xmlns:xlink="http://www.w3.org/1999/xlink" x="0px" y="0px"
	 width="80px" height="80px" viewBox="0 0 80 80" enable-background="new 0 0 80 80" xml:space="preserve">
<g>
	<g>
		<g>
			<path fill="#1375BB" d="M9.799,0C4.387,0,0,4.388,0,9.799v60.404C0,75.615,4.387,80,9.799,80H40V0H9.799z"/>
		</g>
		<path fill="#2EA8DB" d="M70.201,0H40v80h30.201C75.613,80,80,75.615,80,70.203V9.799C80,4.388,75.613,0,70.201,0z"/>
	</g>
</g>
<g>
	<path fill="#1375BB" d="M39.317,65.408c-0.623-0.09-1.229-0.223-1.822-0.398c-0.592-0.174-1.164-0.381-1.719-0.625
		c-0.555-0.242-1.066-0.523-1.537-0.842l1.641-3.258c0.061,0.076,0.258,0.221,0.592,0.434c0.332,0.213,0.746,0.426,1.24,0.637
		c0.492,0.213,1.043,0.402,1.65,0.57c0.213,0.059,0.424,0.104,0.639,0.141v-3.068c-0.236-0.068-0.477-0.141-0.729-0.215
		c-0.744-0.227-1.391-0.475-1.936-0.74c-0.547-0.266-0.998-0.572-1.355-0.922s-0.623-0.752-0.797-1.207
		c-0.176-0.455-0.262-0.986-0.262-1.594c0-0.852,0.158-1.602,0.479-2.254c0.318-0.652,0.75-1.203,1.297-1.652
		c0.547-0.447,1.18-0.785,1.902-1.012c0.449-0.143,0.916-0.234,1.4-0.289V0C17.909,0,0,17.908,0,40s17.908,40,40,40V65.484
		C39.774,65.463,39.547,65.443,39.317,65.408z M19.792,29.604c0.15,0,0.303-0.049,0.455-0.148c0.152-0.098,0.285-0.223,0.398-0.375
		s0.205-0.322,0.273-0.512s0.104-0.377,0.104-0.559v-5.102c0-0.273,0.068-0.455,0.205-0.547c0.135-0.09,0.242-0.135,0.318-0.135
		h4.008v2.891h-1.252v4.123c0,0.348-0.084,0.656-0.252,0.922s-0.373,0.504-0.615,0.717c0.229,0.213,0.43,0.451,0.604,0.717
		c0.176,0.266,0.264,0.574,0.264,0.924v4.371h1.252v2.893h-4.008c-0.092,0-0.203-0.047-0.33-0.137
		c-0.131-0.092-0.193-0.273-0.193-0.547v-5.352c0-0.439-0.131-0.805-0.389-1.094c-0.258-0.287-0.539-0.469-0.842-0.545V29.604z
		 M32.43,63.336c-0.48,0.473-1.029,0.867-1.652,1.186s-1.283,0.563-1.98,0.729c-0.699,0.166-1.383,0.252-2.049,0.252
		c-1.17,0-2.244-0.24-3.223-0.719c-0.98-0.479-1.822-1.111-2.529-1.902c-0.705-0.787-1.252-1.684-1.639-2.686s-0.58-2.02-0.58-3.051
		c0-0.973,0.182-1.941,0.547-2.904c0.363-0.965,0.895-1.826,1.594-2.584c0.697-0.76,1.549-1.375,2.551-1.846
		c1-0.469,2.141-0.705,3.416-0.705c1.516,0,2.834,0.326,3.949,0.979c1.115,0.654,1.947,1.504,2.494,2.551l-2.869,2.004
		c-0.184-0.426-0.414-0.777-0.695-1.059s-0.588-0.508-0.922-0.684c-0.334-0.174-0.676-0.297-1.025-0.365
		c-0.348-0.068-0.689-0.102-1.023-0.102c-0.715,0-1.336,0.145-1.867,0.434c-0.533,0.287-0.973,0.66-1.322,1.115
		s-0.605,0.971-0.773,1.549c-0.166,0.576-0.25,1.16-0.25,1.752c0,0.639,0.098,1.254,0.295,1.846c0.199,0.592,0.482,1.115,0.855,1.57
		c0.371,0.455,0.818,0.816,1.344,1.082c0.523,0.266,1.111,0.398,1.764,0.398c0.334,0,0.68-0.041,1.035-0.125
		c0.357-0.084,0.699-0.213,1.025-0.387c0.326-0.176,0.627-0.402,0.9-0.684s0.492-0.625,0.66-1.035l3.051,1.799
		C33.268,62.336,32.907,62.867,32.43,63.336z"/>
	<path fill="#2EA8DB" d="M43.188,60.969c0-0.303-0.1-0.555-0.297-0.75c-0.195-0.199-0.471-0.377-0.818-0.535
		c-0.35-0.16-0.764-0.309-1.242-0.445c-0.262-0.074-0.541-0.156-0.83-0.24v3.068c0.398,0.07,0.801,0.109,1.207,0.109
		C42.527,62.176,43.188,61.773,43.188,60.969z"/>
	<path fill="#2EA8DB" d="M38.77,53.729c0,0.273,0.072,0.5,0.217,0.682s0.355,0.346,0.637,0.49c0.113,0.059,0.24,0.113,0.377,0.168
		v-2.615C39.184,52.605,38.77,53.027,38.77,53.729z"/>
	<path fill="#2EA8DB" d="M40,0v49.113c0.291-0.033,0.584-0.055,0.887-0.055c0.562,0,1.117,0.055,1.664,0.16
		c0.545,0.107,1.07,0.244,1.57,0.41c0.5,0.168,0.967,0.357,1.4,0.57c0.434,0.211,0.83,0.424,1.195,0.637l-1.641,3.098
		c-0.043-0.061-0.203-0.176-0.477-0.342c-0.273-0.168-0.615-0.342-1.025-0.525c-0.41-0.182-0.857-0.342-1.344-0.477
		c-0.484-0.137-0.971-0.205-1.457-0.205c-0.291,0-0.545,0.025-0.773,0.068v2.615c0.203,0.08,0.428,0.158,0.684,0.23
		c0.423,0.123,0.917,0.258,1.478,0.41c0.775,0.213,1.473,0.443,2.096,0.695c0.623,0.25,1.15,0.561,1.582,0.934
		c0.434,0.371,0.768,0.822,1.002,1.354c0.236,0.531,0.354,1.17,0.354,1.914c0,0.91-0.172,1.682-0.512,2.311
		c-0.342,0.631-0.795,1.139-1.355,1.525c-0.563,0.387-1.207,0.668-1.936,0.842c-0.729,0.176-1.48,0.262-2.254,0.262
		c-0.375,0-0.753-0.023-1.138-0.061V80c22.091,0,40-17.908,40-40S62.092,0,40,0z M54.447,36.891h1.252V32.52
		c0-0.35,0.084-0.658,0.25-0.924c0.168-0.266,0.365-0.504,0.592-0.717c-0.242-0.213-0.443-0.451-0.604-0.717
		c-0.158-0.266-0.238-0.574-0.238-0.922v-4.123h-1.252v-2.891h3.984c0.092,0,0.201,0.045,0.33,0.135
		c0.129,0.092,0.193,0.273,0.193,0.547v5.102c0,0.182,0.035,0.369,0.104,0.559c0.066,0.189,0.162,0.359,0.285,0.512
		c0.119,0.152,0.252,0.277,0.398,0.375c0.143,0.1,0.299,0.148,0.465,0.148v2.506c-0.303,0.076-0.588,0.258-0.854,0.545
		c-0.266,0.289-0.398,0.654-0.398,1.094V39.1c0,0.273-0.061,0.455-0.182,0.547c-0.121,0.09-0.236,0.137-0.342,0.137h-3.984V36.891z
		 M60.688,62.916c-0.342,0.631-0.795,1.139-1.355,1.525s-1.207,0.668-1.936,0.842c-0.729,0.176-1.48,0.262-2.254,0.262
		c-0.592,0-1.199-0.043-1.822-0.137c-0.623-0.09-1.23-0.223-1.822-0.398c-0.592-0.174-1.164-0.381-1.719-0.625
		c-0.555-0.242-1.066-0.523-1.537-0.842l1.641-3.258c0.061,0.076,0.258,0.221,0.592,0.434s0.746,0.426,1.24,0.637
		c0.492,0.213,1.043,0.402,1.65,0.57s1.223,0.25,1.846,0.25c1.32,0,1.98-0.402,1.98-1.207c0-0.303-0.1-0.555-0.295-0.75
		c-0.199-0.199-0.473-0.377-0.82-0.535c-0.35-0.16-0.764-0.309-1.24-0.445c-0.48-0.137-1-0.287-1.561-0.455
		c-0.744-0.227-1.389-0.475-1.936-0.74s-0.998-0.572-1.355-0.922s-0.623-0.752-0.797-1.207s-0.262-0.986-0.262-1.594
		c0-0.852,0.16-1.602,0.479-2.254s0.75-1.203,1.297-1.652c0.547-0.447,1.18-0.785,1.902-1.012c0.721-0.229,1.482-0.344,2.289-0.344
		c0.561,0,1.115,0.055,1.66,0.16c0.547,0.107,1.072,0.244,1.572,0.41c0.502,0.168,0.969,0.357,1.4,0.57
		c0.434,0.211,0.832,0.424,1.195,0.637l-1.639,3.098c-0.047-0.061-0.205-0.176-0.479-0.342c-0.273-0.168-0.615-0.342-1.025-0.525
		c-0.41-0.182-0.857-0.342-1.342-0.477c-0.486-0.137-0.973-0.205-1.459-0.205c-1.336,0-2.002,0.447-2.002,1.344
		c0,0.273,0.07,0.5,0.215,0.682s0.357,0.346,0.637,0.49c0.281,0.145,0.635,0.277,1.061,0.398c0.424,0.123,0.918,0.258,1.479,0.41
		c0.775,0.213,1.473,0.443,2.096,0.695c0.623,0.25,1.15,0.561,1.582,0.934c0.434,0.371,0.768,0.822,1.002,1.354
		c0.236,0.531,0.354,1.17,0.354,1.914C61.199,61.516,61.027,62.287,60.688,62.916z"/>
	<path fill="#FFFFFF" d="M29.799,60.98c-0.273,0.281-0.574,0.508-0.9,0.684c-0.326,0.174-0.668,0.303-1.025,0.387
		c-0.355,0.084-0.701,0.125-1.035,0.125c-0.652,0-1.24-0.133-1.764-0.398c-0.525-0.266-0.973-0.627-1.344-1.082
		c-0.373-0.455-0.656-0.979-0.855-1.57c-0.197-0.592-0.295-1.207-0.295-1.846c0-0.592,0.084-1.176,0.25-1.752
		c0.168-0.578,0.424-1.094,0.773-1.549s0.789-0.828,1.322-1.115c0.531-0.289,1.152-0.434,1.867-0.434
		c0.334,0,0.676,0.033,1.023,0.102c0.35,0.068,0.691,0.191,1.025,0.365c0.334,0.176,0.641,0.402,0.922,0.684
		s0.512,0.633,0.695,1.059l2.869-2.004c-0.547-1.047-1.379-1.896-2.494-2.551c-1.115-0.652-2.434-0.979-3.949-0.979
		c-1.275,0-2.416,0.236-3.416,0.705c-1.002,0.471-1.854,1.086-2.551,1.846c-0.699,0.758-1.23,1.619-1.594,2.584
		c-0.365,0.963-0.547,1.932-0.547,2.904c0,1.031,0.193,2.049,0.58,3.051s0.934,1.898,1.639,2.686
		c0.707,0.791,1.549,1.424,2.529,1.902c0.979,0.479,2.053,0.719,3.223,0.719c0.666,0,1.35-0.086,2.049-0.252
		c0.697-0.166,1.357-0.41,1.98-0.729s1.172-0.713,1.652-1.186c0.477-0.469,0.838-1,1.08-1.592l-3.051-1.799
		C30.292,60.355,30.073,60.699,29.799,60.98z"/>
	<path fill="#FFFFFF" d="M40.831,59.238c0.478,0.137,0.892,0.285,1.242,0.445c0.348,0.158,0.623,0.336,0.818,0.535
		c0.197,0.195,0.297,0.447,0.297,0.75c0,0.805-0.66,1.207-1.98,1.207c-0.406,0-0.808-0.039-1.207-0.109v3.418
		c0.385,0.037,0.764,0.061,1.138,0.061c0.773,0,1.525-0.086,2.254-0.262c0.729-0.174,1.373-0.455,1.936-0.842
		c0.561-0.387,1.014-0.895,1.355-1.525c0.34-0.629,0.512-1.4,0.512-2.311c0-0.744-0.117-1.383-0.354-1.914
		c-0.234-0.531-0.568-0.982-1.002-1.354c-0.432-0.373-0.959-0.684-1.582-0.934c-0.623-0.252-1.32-0.482-2.096-0.695
		c-0.561-0.152-1.055-0.287-1.478-0.41c-0.256-0.072-0.48-0.15-0.684-0.23v3.93C40.29,59.082,40.569,59.164,40.831,59.238z"/>
	<path fill="#FFFFFF" d="M40.774,52.385c0.486,0,0.972,0.068,1.457,0.205c0.486,0.135,0.934,0.295,1.344,0.477
		c0.41,0.184,0.752,0.357,1.025,0.525c0.273,0.166,0.434,0.281,0.477,0.342l1.641-3.098c-0.365-0.213-0.762-0.426-1.195-0.637
		c-0.434-0.213-0.9-0.402-1.4-0.57c-0.5-0.166-1.025-0.303-1.57-0.41c-0.547-0.105-1.102-0.16-1.664-0.16
		c-0.303,0-0.596,0.021-0.887,0.055v3.34C40.229,52.41,40.483,52.385,40.774,52.385z"/>
	<path fill="#FFFFFF" d="M39.362,61.926c-0.607-0.168-1.158-0.357-1.65-0.57c-0.494-0.211-0.908-0.424-1.24-0.637
		c-0.334-0.213-0.531-0.357-0.592-0.434l-1.641,3.258c0.471,0.318,0.982,0.6,1.537,0.842c0.555,0.244,1.127,0.451,1.719,0.625
		c0.594,0.176,1.199,0.309,1.822,0.398c0.23,0.035,0.457,0.055,0.684,0.076v-3.418C39.786,62.029,39.575,61.984,39.362,61.926z"/>
	<path fill="#FFFFFF" d="M36.698,50.414c-0.547,0.449-0.979,1-1.297,1.652c-0.32,0.652-0.479,1.402-0.479,2.254
		c0,0.607,0.086,1.139,0.262,1.594c0.174,0.455,0.439,0.857,0.797,1.207s0.809,0.656,1.355,0.922
		c0.545,0.266,1.191,0.514,1.936,0.74c0.252,0.074,0.492,0.146,0.729,0.215v-3.93c-0.137-0.055-0.264-0.109-0.377-0.168
		c-0.281-0.145-0.492-0.309-0.637-0.49s-0.217-0.408-0.217-0.682c0-0.701,0.414-1.123,1.23-1.275v-3.34
		c-0.484,0.055-0.951,0.146-1.4,0.289C37.877,49.629,37.245,49.967,36.698,50.414z"/>
	<path fill="#FFFFFF" d="M59.844,57.338c-0.432-0.373-0.959-0.684-1.582-0.934c-0.623-0.252-1.32-0.482-2.096-0.695
		c-0.561-0.152-1.055-0.287-1.479-0.41c-0.426-0.121-0.779-0.254-1.061-0.398c-0.279-0.145-0.492-0.309-0.637-0.49
		s-0.215-0.408-0.215-0.682c0-0.896,0.666-1.344,2.002-1.344c0.486,0,0.973,0.068,1.459,0.205c0.484,0.135,0.932,0.295,1.342,0.477
		c0.41,0.184,0.752,0.357,1.025,0.525c0.273,0.166,0.432,0.281,0.479,0.342l1.639-3.098c-0.363-0.213-0.762-0.426-1.195-0.637
		c-0.432-0.213-0.898-0.402-1.4-0.57c-0.5-0.166-1.025-0.303-1.572-0.41c-0.545-0.105-1.1-0.16-1.66-0.16
		c-0.807,0-1.568,0.115-2.289,0.344c-0.723,0.227-1.355,0.564-1.902,1.012c-0.547,0.449-0.979,1-1.297,1.652
		s-0.479,1.402-0.479,2.254c0,0.607,0.088,1.139,0.262,1.594s0.439,0.857,0.797,1.207s0.809,0.656,1.355,0.922
		s1.191,0.514,1.936,0.74c0.561,0.168,1.08,0.318,1.561,0.455c0.477,0.137,0.891,0.285,1.24,0.445
		c0.348,0.158,0.621,0.336,0.82,0.535c0.195,0.195,0.295,0.447,0.295,0.75c0,0.805-0.66,1.207-1.98,1.207
		c-0.623,0-1.238-0.082-1.846-0.25s-1.158-0.357-1.65-0.57c-0.494-0.211-0.906-0.424-1.24-0.637s-0.531-0.357-0.592-0.434
		l-1.641,3.258c0.471,0.318,0.982,0.6,1.537,0.842c0.555,0.244,1.127,0.451,1.719,0.625c0.592,0.176,1.199,0.309,1.822,0.398
		c0.623,0.094,1.23,0.137,1.822,0.137c0.773,0,1.525-0.086,2.254-0.262c0.729-0.174,1.375-0.455,1.936-0.842
		s1.014-0.895,1.355-1.525c0.34-0.629,0.512-1.4,0.512-2.311c0-0.744-0.117-1.383-0.354-1.914
		C60.611,58.16,60.277,57.709,59.844,57.338z"/>
	<path fill="#FFFFFF" d="M21.022,33.748V39.1c0,0.273,0.063,0.455,0.193,0.547c0.127,0.09,0.238,0.137,0.33,0.137h4.008v-2.893
		h-1.252V32.52c0-0.35-0.088-0.658-0.264-0.924c-0.174-0.266-0.375-0.504-0.604-0.717c0.242-0.213,0.447-0.451,0.615-0.717
		s0.252-0.574,0.252-0.922v-4.123h1.252v-2.891h-4.008c-0.076,0-0.184,0.045-0.318,0.135c-0.137,0.092-0.205,0.273-0.205,0.547
		v5.102c0,0.182-0.035,0.369-0.104,0.559s-0.16,0.359-0.273,0.512s-0.246,0.277-0.398,0.375c-0.152,0.1-0.305,0.148-0.455,0.148
		v2.506c0.303,0.076,0.584,0.258,0.842,0.545C20.891,32.943,21.022,33.309,21.022,33.748z"/>
	<path fill="#FFFFFF" d="M58.773,39.646c0.121-0.092,0.182-0.273,0.182-0.547v-5.352c0-0.439,0.133-0.805,0.398-1.094
		c0.266-0.287,0.551-0.469,0.854-0.545v-2.506c-0.166,0-0.322-0.049-0.465-0.148c-0.146-0.098-0.279-0.223-0.398-0.375
		c-0.123-0.152-0.219-0.322-0.285-0.512c-0.068-0.189-0.104-0.377-0.104-0.559v-5.102c0-0.273-0.064-0.455-0.193-0.547
		c-0.129-0.09-0.238-0.135-0.33-0.135h-3.984v2.891h1.252v4.123c0,0.348,0.08,0.656,0.238,0.922c0.16,0.266,0.361,0.504,0.604,0.717
		c-0.227,0.213-0.424,0.451-0.592,0.717c-0.166,0.266-0.25,0.574-0.25,0.924v4.371h-1.252v2.893h3.984
		C58.537,39.783,58.652,39.736,58.773,39.646z"/>
</g>
</svg>
