<?xml version="1.0" encoding="utf-8"?>
<!-- Generator: Adobe Illustrator 16.0.0, SVG Export Plug-In . SVG Version: 6.00 Build 0)  -->
<!DOCTYPE svg PUBLIC "-//W3C//DTD SVG 1.1//EN" "http://www.w3.org/Graphics/SVG/1.1/DTD/svg11.dtd">
<svg version="1.1" id="Layer_1" xmlns="http://www.w3.org/2000/svg" xmlns:xlink="http://www.w3.org/1999/xlink" x="0px" y="0px"
	 width="80px" height="80px" viewBox="0 0 80 80" enable-background="new 0 0 80 80" xml:space="preserve">
<g>
	<linearGradient id="SVGID_1_" gradientUnits="userSpaceOnUse" x1="2.8706" y1="2.8706" x2="77.1313" y2="77.1313">
		<stop  offset="0" style="stop-color:#3BC6F4"/>
		<stop  offset="1" style="stop-color:#407EC1"/>
	</linearGradient>
	<path fill="url(#SVGID_1_)" d="M80,70.203C80,75.613,75.613,80,70.202,80H9.799C4.388,80,0,75.613,0,70.203V9.799
		C0,4.388,4.388,0,9.799,0h60.403C75.613,0,80,4.388,80,9.799V70.203z"/>
	<path fill="#08212C" d="M76.881,67.846c0,4.99-4.046,9.035-9.034,9.035H12.154c-4.989,0-9.034-4.045-9.034-9.035V12.154
		c0-4.989,4.045-9.034,9.034-9.034h55.692c4.988,0,9.034,4.045,9.034,9.034V67.846z"/>
	<g>
		<g>
			<linearGradient id="SVGID_2_" gradientUnits="userSpaceOnUse" x1="12.7397" y1="22.8335" x2="32.2201" y2="50.6543">
				<stop  offset="0" style="stop-color:#3BC6F4"/>
				<stop  offset="1" style="stop-color:#407EC1"/>
			</linearGradient>
			<path fill="url(#SVGID_2_)" d="M14.064,57.594V21.905h15.23c1.708,0,3.274,0.353,4.699,1.056
				c1.424,0.703,2.646,1.627,3.669,2.765c1.022,1.14,1.826,2.43,2.413,3.87c0.586,1.441,0.88,2.898,0.88,4.373
				c0,1.576-0.277,3.084-0.829,4.523c-0.554,1.441-1.324,2.732-2.313,3.871s-2.188,2.043-3.594,2.713
				c-1.408,0.672-2.966,1.006-4.675,1.006h-7.238v11.512H14.064z M22.308,38.895h6.734c0.973,0,1.812-0.418,2.515-1.256
				s1.055-2.063,1.055-3.67c0-0.838-0.109-1.559-0.326-2.162c-0.219-0.602-0.511-1.105-0.88-1.507
				c-0.369-0.403-0.787-0.695-1.257-0.88c-0.469-0.184-0.938-0.276-1.407-0.276h-6.434V38.895z"/>
			<linearGradient id="SVGID_3_" gradientUnits="userSpaceOnUse" x1="46.332" y1="33.3789" x2="62.3586" y2="56.2672">
				<stop  offset="0" style="stop-color:#3BC6F4"/>
				<stop  offset="1" style="stop-color:#407EC1"/>
			</linearGradient>
			<path fill="url(#SVGID_3_)" d="M55.129,58.096c-2.245,0-4.456-0.359-6.635-1.08c-2.18-0.721-4.021-1.768-5.528-3.143l2.864-4.926
				c1.609,1.105,3.175,1.961,4.699,2.564s2.992,0.904,4.399,0.904c1.038,0,1.842-0.184,2.412-0.553
				c0.569-0.369,0.854-0.904,0.854-1.609c0-0.703-0.361-1.264-1.081-1.682c-0.721-0.42-1.985-0.863-3.795-1.334
				c-1.775-0.502-3.275-0.988-4.497-1.457c-1.225-0.471-2.221-0.988-2.992-1.559c-0.771-0.568-1.324-1.223-1.658-1.961
				c-0.336-0.736-0.502-1.607-0.502-2.613c0-1.34,0.267-2.564,0.804-3.67c0.535-1.105,1.272-2.043,2.212-2.813
				c0.938-0.771,2.051-1.374,3.342-1.811c1.289-0.435,2.689-0.653,4.197-0.653c1.977,0,3.828,0.27,5.555,0.805
				c1.726,0.535,3.393,1.508,5.001,2.915l-3.117,4.827c-1.508-1.039-2.848-1.794-4.021-2.264c-1.174-0.47-2.313-0.704-3.418-0.704
				c-0.872,0-1.608,0.177-2.211,0.528c-0.604,0.353-0.906,0.914-0.906,1.684c0,0.738,0.328,1.291,0.98,1.658
				c0.653,0.369,1.867,0.773,3.645,1.207c1.876,0.504,3.46,1.006,4.75,1.508c1.289,0.504,2.338,1.064,3.142,1.684
				c0.804,0.621,1.39,1.332,1.759,2.137s0.553,1.76,0.553,2.865c0,2.613-0.972,4.691-2.914,6.232
				C61.077,57.324,58.447,58.096,55.129,58.096z"/>
		</g>
	</g>
</g>
</svg>
