<?xml version="1.0" encoding="utf-8"?>
<!-- Generator: Adobe Illustrator 16.0.0, SVG Export Plug-In . SVG Version: 6.00 Build 0)  -->
<!DOCTYPE svg PUBLIC "-//W3C//DTD SVG 1.1//EN" "http://www.w3.org/Graphics/SVG/1.1/DTD/svg11.dtd">
<svg version="1.1" id="Layer_1" xmlns="http://www.w3.org/2000/svg" xmlns:xlink="http://www.w3.org/1999/xlink" x="0px" y="0px"
	 width="80px" height="80px" viewBox="0 0 80 80" enable-background="new 0 0 80 80" xml:space="preserve">
<g>
	<path fill="#2A579B" d="M80,70.266C80,75.641,75.641,80,70.266,80H9.734C4.357,80,0,75.641,0,70.266V9.733C0,4.357,4.357,0,9.734,0
		h60.531C75.641,0,80,4.357,80,9.733V70.266z"/>
	<path fill="#FFFFFF" d="M50.516,45.543l5.004-27.356h10.428l-9.258,43.626H45.783l-5.844-24.869l-5.723,24.869H23.34l-9.287-43.626
		H24.51l5.002,27.356l5.994-27.356h8.928L50.516,45.543z"/>
	<path fill="#2A579B" d="M80,70.266C80,75.641,75.641,80,70.266,80H9.734C4.357,80,0,75.641,0,70.266V9.733C0,4.357,4.357,0,9.734,0
		h60.531C75.641,0,80,4.357,80,9.733V70.266z"/>
	<path fill="#FFFFFF" d="M50.516,45.543l5.004-27.356h10.428l-9.258,43.626H45.783l-5.844-24.869l-5.723,24.869H23.34l-9.287-43.626
		H24.51l5.002,27.356l5.994-27.356h8.928L50.516,45.543z"/>
	<path fill="#2A579B" d="M80,70.266C80,75.641,75.641,80,70.266,80H9.734C4.357,80,0,75.641,0,70.266V9.733C0,4.357,4.357,0,9.734,0
		h60.531C75.641,0,80,4.357,80,9.733V70.266z"/>
	<path fill="#FFFFFF" d="M50.516,45.543l5.004-27.356h10.428l-9.258,43.626H45.783l-5.844-24.869l-5.723,24.869H23.34l-9.287-43.626
		H24.51l5.002,27.356l5.994-27.356h8.928L50.516,45.543z"/>
</g>
</svg>
