<?xml version="1.0" encoding="utf-8"?>
<!-- Generator: Adobe Illustrator 16.0.0, SVG Export Plug-In . SVG Version: 6.00 Build 0)  -->
<!DOCTYPE svg PUBLIC "-//W3C//DTD SVG 1.1//EN" "http://www.w3.org/Graphics/SVG/1.1/DTD/svg11.dtd">
<svg version="1.1" id="Layer_1" xmlns="http://www.w3.org/2000/svg" xmlns:xlink="http://www.w3.org/1999/xlink" x="0px" y="0px"
	 width="19.999px" height="29.3px" viewBox="0 0 19.999 29.3" enable-background="new 0 0 19.999 29.3" xml:space="preserve">
<path fill-rule="evenodd" clip-rule="evenodd" fill="#FFFFFF" d="M5.24,14.999c0-2.062,0.022-3.952-0.024-5.84
	c-0.007-0.291-0.26-0.655-0.507-0.846c-1.617-1.248-2.275-3.31-1.617-5.215C3.76,1.166,5.6-0.08,7.665,0.004
	c1.993,0.081,3.726,1.466,4.212,3.447c0.458,1.865-0.032,3.497-1.536,4.696C9.801,8.576,9.59,8.97,9.655,9.617
	c0.049,0.499,0.01,1.005,0.01,1.579c1.552-0.557,2.678-0.168,3.342,1.271c1.767-0.66,2.722-0.254,3.472,1.414
	c0.53-0.055,1.057-0.188,1.567-0.144c0.972,0.083,1.862,0.941,1.883,1.99c0.049,2.649,0.166,5.318-0.084,7.946
	c-0.285,3-2.25,4.857-5.344,5.386c-2.212,0.377-4.447,0.341-6.624-0.309c-2.604-0.778-4.076-2.608-4.65-5.204
	c-0.218-0.989-0.352-1.998-0.523-2.998c-0.269-1.573-0.955-2.936-2.057-4.091c-0.862-0.904-0.864-2.254-0.009-3.113
	c0.869-0.873,2.221-0.928,3.117-0.068C4.256,13.757,4.669,14.329,5.24,14.999z M6.262,11.421c-0.002,0-0.004,0-0.006,0
	c0,2.256,0.015,4.512-0.02,6.767c-0.003,0.261-0.286,0.518-0.439,0.777c-0.186-0.195-0.54-0.397-0.532-0.584
	c0.073-1.722-1.024-2.877-1.944-4.102c-0.542-0.721-1.339-0.771-1.909-0.244c-0.548,0.507-0.514,1.15,0.107,1.842
	c1.218,1.358,1.97,2.93,2.233,4.743c0.138,0.946,0.287,1.896,0.509,2.826c0.54,2.262,1.866,3.812,4.18,4.398
	c1.971,0.5,3.974,0.548,5.958,0.19c2.558-0.461,4.184-1.939,4.422-4.432c0.246-2.569,0.131-5.179,0.09-7.77
	c-0.011-0.658-0.512-1.145-1.262-1.103c-0.741,0.042-1.095,0.517-1.13,1.229c-0.024,0.45,0.06,0.915-0.029,1.348
	c-0.059,0.291-0.334,0.537-0.514,0.804c-0.167-0.28-0.396-0.539-0.482-0.842c-0.081-0.286-0.007-0.615-0.011-0.925
	c-0.007-0.677,0.009-1.355-0.042-2.028c-0.052-0.668-0.407-1.113-1.126-1.133c-0.722-0.021-1.074,0.424-1.191,1.074
	c-0.059,0.329-0.045,0.674-0.048,1.011c-0.006,0.676,0.03,1.355-0.022,2.029c-0.014,0.186-0.275,0.353-0.421,0.53
	c-0.191-0.166-0.442-0.299-0.552-0.508c-0.094-0.178-0.027-0.441-0.029-0.667c-0.005-1.184,0.01-2.368-0.024-3.552
	c-0.019-0.644-0.382-1.055-1.044-1.118c-0.71-0.068-1.106,0.336-1.277,0.977c-0.063,0.239-0.039,0.504-0.04,0.757
	c-0.004,1.156,0.023,2.313-0.026,3.468c-0.01,0.219-0.316,0.425-0.485,0.638c-0.172-0.214-0.386-0.408-0.502-0.648
	c-0.077-0.161-0.015-0.388-0.015-0.585C8.64,12.73,8.644,8.867,8.64,5.004c0-1.004-0.485-1.618-1.227-1.592
	C6.692,3.437,6.267,4.008,6.264,4.992C6.258,7.135,6.262,9.278,6.262,11.421z M9.657,7.271c1.225-0.826,1.669-2.479,1.144-3.908
	C10.252,1.87,8.724,0.896,7.146,1.032c-1.62,0.14-3.016,1.422-3.241,2.98C3.705,5.4,4.268,6.759,5.242,7.164
	c0-0.803-0.011-1.592,0.003-2.382c0.025-1.395,0.958-2.397,2.21-2.395c1.253,0.002,2.176,1,2.2,2.402
	C9.668,5.592,9.657,6.396,9.657,7.271z"/>
<path fill="#FFFFFF" d="M17.07,6.293l-0.467,0.253V0.904l0.467,0.254C17.121,1.185,17.178,1.2,17.231,1.2
	c0.12,0,0.237-0.064,0.3-0.178c0.087-0.164,0.027-0.371-0.137-0.459l-0.959-0.521c-0.002-0.001-0.002-0.001-0.002-0.001
	c-0.008-0.004-0.018-0.008-0.025-0.01c-0.006-0.002-0.011-0.004-0.014-0.006c-0.004-0.001-0.005-0.001-0.006-0.002
	c-0.006-0.002-0.014-0.005-0.019-0.007c-0.007-0.002-0.013-0.002-0.021-0.004c-0.008-0.001-0.015-0.003-0.021-0.004
	c-0.001,0-0.002,0-0.003,0C16.319,0.003,16.313,0.002,16.307,0c-0.007,0-0.015,0-0.022,0c-0.003,0-0.008,0-0.01,0
	c-0.004,0-0.009,0-0.012,0c-0.005,0-0.007,0-0.01,0c-0.006,0.001-0.012,0.002-0.019,0.003c-0.011,0.002-0.022,0.003-0.033,0.006
	c-0.002,0-0.005,0-0.006,0c-0.006,0.001-0.013,0.002-0.019,0.004c-0.008,0.002-0.018,0.007-0.024,0.009v0
	c-0.004,0.001-0.008,0.003-0.015,0.005c-0.007,0.003-0.015,0.006-0.024,0.011c0,0,0,0-0.002,0.001l-0.96,0.521
	c-0.164,0.089-0.223,0.295-0.134,0.459C15.078,1.136,15.195,1.2,15.314,1.2c0.055,0,0.11-0.015,0.162-0.042l0.467-0.254v5.643
	l-0.467-0.253c-0.165-0.09-0.37-0.029-0.459,0.135s-0.03,0.37,0.134,0.459l0.96,0.521c0.016,0.009,0.031,0.013,0.047,0.019
	c0.011,0.004,0.02,0.009,0.029,0.011c0.028,0.008,0.057,0.012,0.085,0.012c0,0,0,0,0.002,0l0,0c0.027,0,0.057-0.003,0.085-0.012
	c0.01-0.002,0.019-0.007,0.026-0.01c0.017-0.006,0.034-0.011,0.05-0.02l0.959-0.521c0.164-0.089,0.224-0.295,0.137-0.459
	C17.439,6.263,17.235,6.203,17.07,6.293z"/>
<path fill="#FFFFFF" d="M13.706,4.522l-0.254-0.467h5.643l-0.254,0.467C18.813,4.572,18.8,4.629,18.8,4.684
	c0,0.12,0.063,0.236,0.177,0.299c0.165,0.088,0.371,0.028,0.46-0.137l0.522-0.959c0,0,0,0,0.001-0.002
	c0.003-0.007,0.007-0.016,0.009-0.024c0.003-0.005,0.005-0.009,0.006-0.013c0.001-0.003,0.002-0.005,0.002-0.007
	c0.003-0.006,0.006-0.012,0.008-0.018c0.003-0.007,0.003-0.014,0.005-0.021s0.003-0.015,0.004-0.021c0-0.002,0-0.003,0.001-0.004
	c0.001-0.006,0.003-0.011,0.004-0.018c0-0.008,0-0.015,0-0.021c0-0.004,0.001-0.008,0.001-0.012s-0.001-0.007-0.001-0.011
	c0-0.003,0-0.007,0-0.008c0-0.007-0.003-0.013-0.003-0.019c-0.002-0.012-0.002-0.022-0.006-0.034c0-0.001,0-0.004,0-0.004
	c-0.001-0.007-0.002-0.013-0.005-0.021c-0.003-0.007-0.006-0.016-0.01-0.023l0,0C19.974,3.6,19.972,3.596,19.97,3.59
	c-0.003-0.008-0.005-0.016-0.01-0.024c-0.001-0.002-0.001-0.002-0.001-0.003l-0.522-0.959c-0.089-0.164-0.295-0.225-0.46-0.135
	C18.863,2.53,18.8,2.647,18.8,2.767c0,0.055,0.013,0.111,0.041,0.162l0.254,0.467h-5.643l0.254-0.467
	c0.091-0.165,0.028-0.37-0.136-0.46c-0.164-0.089-0.371-0.029-0.461,0.135l-0.521,0.959c-0.009,0.016-0.013,0.032-0.019,0.047
	c-0.004,0.01-0.009,0.019-0.011,0.029c-0.008,0.028-0.011,0.057-0.011,0.085c0,0,0,0,0,0l0,0c0,0.028,0.003,0.058,0.011,0.085
	c0.002,0.011,0.007,0.018,0.01,0.028c0.006,0.016,0.011,0.032,0.02,0.048l0.521,0.959c0.09,0.165,0.297,0.225,0.461,0.137
	C13.735,4.892,13.797,4.687,13.706,4.522z"/>
</svg>
