<?xml version="1.0" encoding="utf-8"?>
<!-- Generator: Adobe Illustrator 16.0.0, SVG Export Plug-In . SVG Version: 6.00 Build 0)  -->
<!DOCTYPE svg PUBLIC "-//W3C//DTD SVG 1.1//EN" "http://www.w3.org/Graphics/SVG/1.1/DTD/svg11.dtd">
<svg version="1.1" id="Layer_1" xmlns="http://www.w3.org/2000/svg" xmlns:xlink="http://www.w3.org/1999/xlink" x="0px" y="0px"
	 width="80px" height="80px" viewBox="0 0 80 80" enable-background="new 0 0 80 80" xml:space="preserve">
<g>
	<linearGradient id="SVGID_1_" gradientUnits="userSpaceOnUse" x1="0" y1="40" x2="80" y2="40">
		<stop  offset="0" style="stop-color:#A575B3"/>
		<stop  offset="1" style="stop-color:#7A4FA0"/>
	</linearGradient>
	<path fill="url(#SVGID_1_)" d="M80,70.201C80,75.613,75.613,80,70.203,80H9.799C4.388,80,0,75.613,0,70.201V9.799
		C0,4.387,4.388,0,9.799,0h60.404C75.613,0,80,4.387,80,9.799V70.201z"/>
	<path fill="#261037" d="M76.881,67.846c0,4.99-4.045,9.035-9.033,9.035H12.154c-4.989,0-9.034-4.045-9.034-9.035V12.154
		c0-4.99,4.045-9.034,9.034-9.034h55.693c4.988,0,9.033,4.044,9.033,9.034V67.846z"/>
	<g>
		<g>
			<linearGradient id="SVGID_2_" gradientUnits="userSpaceOnUse" x1="14.9766" y1="23.0835" x2="34.4563" y2="50.9035">
				<stop  offset="0" style="stop-color:#A575B3"/>
				<stop  offset="1" style="stop-color:#7A4FA0"/>
			</linearGradient>
			<path fill="url(#SVGID_2_)" d="M16.302,57.844V22.156h15.229c1.709,0,3.275,0.353,4.699,1.056
				c1.424,0.704,2.646,1.626,3.669,2.765c1.021,1.139,1.827,2.43,2.415,3.87c0.584,1.441,0.879,2.898,0.879,4.374
				c0,1.574-0.277,3.082-0.83,4.523s-1.324,2.73-2.313,3.869c-0.989,1.141-2.186,2.045-3.594,2.715
				c-1.407,0.672-2.965,1.006-4.674,1.006h-7.237v11.51H16.302z M24.545,39.146h6.734c0.972,0,1.81-0.42,2.514-1.258
				c0.704-0.837,1.057-2.061,1.057-3.668c0-0.838-0.109-1.559-0.328-2.162s-0.512-1.106-0.879-1.508
				c-0.37-0.402-0.788-0.694-1.257-0.88c-0.47-0.184-0.938-0.276-1.407-0.276h-6.434V39.146z"/>
			<linearGradient id="SVGID_3_" gradientUnits="userSpaceOnUse" x1="46.4619" y1="31.8066" x2="61.5054" y2="53.291">
				<stop  offset="0" style="stop-color:#A575B3"/>
				<stop  offset="1" style="stop-color:#7A4FA0"/>
			</linearGradient>
			<path fill="url(#SVGID_3_)" d="M63.699,38.342c-1.943,0.033-3.703,0.352-5.277,0.955c-1.576,0.604-2.715,1.508-3.418,2.715
				v15.832h-8.041V31.455h7.389v5.328c0.904-1.775,2.068-3.166,3.492-4.172c1.424-1.005,2.939-1.524,4.549-1.559
				c0.369,0,0.637,0,0.805,0c0.166,0,0.334,0.018,0.502,0.051V38.342z"/>
		</g>
	</g>
</g>
</svg>
