<?xml version="1.0" encoding="utf-8"?>
<!-- Generator: Adobe Illustrator 16.0.0, SVG Export Plug-In . SVG Version: 6.00 Build 0)  -->
<!DOCTYPE svg PUBLIC "-//W3C//DTD SVG 1.1//EN" "http://www.w3.org/Graphics/SVG/1.1/DTD/svg11.dtd">
<svg version="1.1" id="Layer_1" xmlns="http://www.w3.org/2000/svg" xmlns:xlink="http://www.w3.org/1999/xlink" x="0px" y="0px"
	 width="80px" height="80px" viewBox="0 0 80 80" enable-background="new 0 0 80 80" xml:space="preserve">
<linearGradient id="SVGID_1_" gradientUnits="userSpaceOnUse" x1="2.8701" y1="2.8711" x2="77.1301" y2="77.1311">
	<stop  offset="0" style="stop-color:#F79920"/>
	<stop  offset="1" style="stop-color:#F06B23"/>
</linearGradient>
<path fill="url(#SVGID_1_)" d="M80,70.202C80,75.614,75.613,80,70.201,80H9.799C4.387,80,0,75.614,0,70.202V9.799
	C0,4.388,4.387,0,9.799,0h60.402C75.613,0,80,4.388,80,9.799V70.202z"/>
<linearGradient id="SVGID_2_" gradientUnits="userSpaceOnUse" x1="48.6289" y1="-4.3896" x2="31.3718" y2="84.3906">
	<stop  offset="0" style="stop-color:#77C1F7"/>
	<stop  offset="0.6276" style="stop-color:#4287C7"/>
</linearGradient>
<path fill="url(#SVGID_2_)" d="M80,70.266C80,75.641,75.643,80,70.268,80H9.734C4.359,80,0,75.641,0,70.266V9.733
	C0,4.357,4.359,0,9.734,0h60.534C75.643,0,80,4.357,80,9.733V70.266z"/>
<g>
	<path fill="#FFFFFF" d="M47.628,23.216c-1.014-0.914-1.776-1.667-2.604-2.34c-2.573-2.082-5.488-3.38-8.803-3.713
		c-0.369-0.036-0.794-0.007-0.931-0.461c-0.121-0.402,0.122-0.716,0.359-1.015c1.079-1.376,2.948-1.958,4.683-1.432
		c1.125,0.34,2.108,0.933,2.966,1.741C45.345,17.928,46.648,20.298,47.628,23.216z"/>
	<path fill="#FFFFFF" d="M25.506,57.2c0.054-0.961-0.116-1.909-0.211-2.858c0.009-0.305,0.033-0.611,0.023-0.915
		c-0.016-0.518,0.234-0.741,0.738-0.732c1.424,0.021,2.85,0.047,4.273,0.052c0.659,0.002,0.863,0.337,0.89,0.954
		c0.061,1.317-0.119,2.646,0.188,3.948c0.058,1.717,0.65,2.506,2.297,2.871c0.858,0.19,1.746,0.285,2.622,0.325
		c5.779,0.25,11.532,0.043,17.229-1.066c0.295-0.058,0.604-0.047,0.908-0.065c-0.253,1.001-0.506,2.002-0.762,3.002
		c-0.125,1.901-1.319,2.278-3.005,2.411c-5.6,0.436-11.189,0.687-16.804,0.3c-1.593-0.113-3.146-0.386-4.712-0.639
		c-0.249-0.153-0.5-0.309-0.748-0.464c-0.585-0.548-1.152-1.11-1.556-1.813c-0.318-0.689-0.634-1.38-0.952-2.069
		c-0.077-0.606-0.151-1.21-0.225-1.811C25.634,58.152,25.569,57.677,25.506,57.2z"/>
	<path fill="#8F8F8F" d="M41.755,65.938c-1.236,0-2.472,0-3.71,0c0-0.032,0-0.065,0-0.098c1.224,0,2.448,0,3.67,0
		C41.729,65.872,41.74,65.905,41.755,65.938z"/>
	<path fill="#FFFFFF" d="M42.64,52.753c0.346,0.934,0.455,1.869,0.037,2.814c-0.824,1.245-1.933,1.941-3.457,1.598
		c-1.175-0.267-1.939-1.054-2.306-2.211c-0.08-1.312,0.124-2.494,1.319-3.312C39.647,50.677,41.313,51.081,42.64,52.753z"/>
	<path fill="#FFFFFF" d="M49.732,26.371c-0.885-0.043-1.466-0.347-2.081-1.002c-4.324-4.594-9.616-6.639-15.926-5.73
		c-2.873,0.415-4.452,2.173-4.563,4.894c-0.065,1.606-0.038,1.625,1.537,1.381c2.831-0.441,5.665-0.789,8.531-0.365
		c1.098,0.161,2.176,0.38,3.398,1.101c-0.615,0.15-0.96,0.244-1.313,0.319c-1.774,0.374-3.475,0.975-5.056,1.862
		c-3.285,1.848-5.366,4.528-5.808,8.373c-0.133,1.171,0.1,2.305,0.11,3.457c0.95,4.058,3.84,6.275,8.302,6.476
		c5.24,0.234,9.326-2.04,12.172-6.471c1.429-2.671,1.884-5.522,1.494-8.502c-0.098-0.766,0.211-0.8,0.794-0.676
		c0.809,0.172,1.554,0.483,2.273,0.885c0.878,0.492,1.018,0.411,1.09-0.576C54.918,28.581,53.079,26.533,49.732,26.371z
		 M45.554,34.866c0,3.932-2.368,6.848-5.797,7.318c-2.469,0.339-4.267-1.104-4.441-3.6c-0.16-2.336,0.853-4.153,2.662-5.537
		c1.635-1.251,3.545-1.813,5.577-2.018c0.555-0.056,0.885,0.125,1.149,0.61C45.287,32.704,45.631,33.82,45.554,34.866z"/>
</g>
</svg>
