<?xml version="1.0" encoding="utf-8"?>
<!-- Generator: Adobe Illustrator 22.1.0, SVG Export Plug-In . SVG Version: 6.00 Build 0)  -->
<svg version="1.1" id="레이어_1" xmlns="http://www.w3.org/2000/svg" xmlns:xlink="http://www.w3.org/1999/xlink" x="0px"
	 y="0px" viewBox="0 0 33.3 31" style="enable-background:new 0 0 33.3 31;" xml:space="preserve">
<style type="text/css">
	.st0{fill:none;stroke:#FFFFFF;stroke-miterlimit:10;}
	.st1{fill:#FFFFFF;}
</style>
<g>
	<g>
		<g>
			<path class="st0" d="M15.5,30.5c-8.3,0-15-6.7-15-15s6.7-15,15-15c6.2,0,11.5,3.7,13.8,9.1"/>
			<g>
				<path class="st1" d="M30.5,15.5C28.8,13,26.3,9.9,24,8.2l5,0.6l4.3-2.7C31.8,8.7,30.9,12.5,30.5,15.5z"/>
			</g>
		</g>
	</g>
	<g>
		<path class="st1" d="M12.3,19.6c-0.5,0-0.9-0.1-1.3-0.2c-0.4-0.1-0.8-0.3-1-0.6V18v-0.1h0.1c0.4,0.3,0.8,0.5,1.1,0.7
			c0.4,0.1,0.8,0.2,1.2,0.2c0.2,0,0.4,0,0.6-0.1c0.2-0.1,0.4-0.2,0.5-0.3s0.3-0.3,0.3-0.5c0.1-0.2,0.1-0.4,0.1-0.6
			c0-1.1-0.7-1.6-2-1.6h-0.3V15h0.1c0.3,0,0.5,0,0.7-0.1c0.2,0,0.4-0.1,0.6-0.2c0.2-0.1,0.3-0.3,0.4-0.4c0.1-0.2,0.2-0.4,0.2-0.7
			c0-0.5-0.1-0.8-0.4-1c-0.3-0.2-0.6-0.3-1-0.3c-0.3,0-0.7,0.1-1,0.2c-0.4,0.1-0.7,0.3-1,0.6h-0.1c0,0,0,0,0-0.1v-0.8
			c0.1-0.1,0.2-0.2,0.4-0.3c0.1-0.1,0.3-0.2,0.5-0.2c0.2-0.1,0.4-0.1,0.6-0.2c0.2,0,0.4-0.1,0.7-0.1c0.4,0,0.7,0,1,0.1
			s0.6,0.2,0.8,0.4s0.4,0.4,0.5,0.6c0.1,0.3,0.2,0.6,0.2,0.9c0,0.2,0,0.5-0.1,0.7s-0.2,0.4-0.3,0.6c-0.1,0.2-0.3,0.3-0.4,0.4
			c-0.2,0.1-0.4,0.2-0.6,0.2l0,0c0.5,0.1,0.9,0.3,1.2,0.6s0.4,0.8,0.4,1.3c0,0.3-0.1,0.6-0.2,0.9c-0.1,0.3-0.3,0.5-0.5,0.7
			s-0.5,0.4-0.8,0.5C13.1,19.5,12.7,19.6,12.3,19.6z"/>
		<path class="st1" d="M18.4,11.4c0.8,0,1.5,0.3,1.9,1s0.7,1.7,0.7,3.2c0,1.4-0.2,2.4-0.7,3.1c-0.4,0.6-1.1,1-1.9,1
			c-0.4,0-0.8-0.1-1.1-0.2c-0.3-0.2-0.6-0.4-0.8-0.7s-0.4-0.7-0.5-1.3c-0.1-0.5-0.2-1.1-0.2-1.8c0-1.4,0.2-2.5,0.7-3.2
			C17,11.8,17.6,11.4,18.4,11.4z M18.4,12.2c-1.1,0-1.7,1.2-1.7,3.5c0,1.2,0.1,2,0.4,2.5c0.3,0.5,0.7,0.8,1.2,0.8s1-0.3,1.2-0.8
			c0.3-0.5,0.4-1.4,0.4-2.5C20.1,13.3,19.6,12.2,18.4,12.2z"/>
	</g>
</g>
</svg>
