<?xml version="1.0" encoding="utf-8"?>
<!-- Generator: Adobe Illustrator 22.1.0, SVG Export Plug-In . SVG Version: 6.00 Build 0)  -->
<svg version="1.1" id="레이어_1" xmlns="http://www.w3.org/2000/svg" xmlns:xlink="http://www.w3.org/1999/xlink" x="0px"
	 y="0px" viewBox="0 0 30.7 30" style="enable-background:new 0 0 30.7 30;" xml:space="preserve">
<style type="text/css">
	.st0{fill:#221E1F;}
</style>
<path class="st0" d="M19.9,29.2C25.8,27.2,30,21.6,30,15c0-8.3-6.7-15-15-15S0,6.7,0,15s6.7,15,15,15h15.7v-0.8H19.9z M23.8,12.3
	c1.5,0,2.8,1.2,2.8,2.8c0,1.5-1.2,2.8-2.8,2.8c-1.5,0-2.8-1.2-2.8-2.8S22.3,12.3,23.8,12.3z M14.9,3.4c1.5,0,2.8,1.2,2.8,2.8
	c0,1.5-1.2,2.8-2.8,2.8s-2.8-1.2-2.8-2.8C12.2,4.6,13.4,3.4,14.9,3.4z M16.4,15c0,0.8-0.6,1.4-1.4,1.4c-0.8,0-1.4-0.6-1.4-1.4
	s0.6-1.4,1.4-1.4C15.7,13.6,16.4,14.3,16.4,15z M6,17.8c-1.5,0-2.8-1.2-2.8-2.8c0-1.5,1.2-2.8,2.8-2.8c1.5,0,2.8,1.2,2.8,2.8
	C8.8,16.6,7.6,17.8,6,17.8z M12.2,23.9c0-1.5,1.2-2.8,2.8-2.8s2.8,1.2,2.8,2.8c0,1.5-1.2,2.8-2.8,2.8S12.2,25.5,12.2,23.9z"/>
</svg>
