<?xml version="1.0" encoding="utf-8"?>
<!-- Generator: Adobe Illustrator 22.1.0, SVG Export Plug-In . SVG Version: 6.00 Build 0)  -->
<svg version="1.1" id="레이어_1" xmlns="http://www.w3.org/2000/svg" xmlns:xlink="http://www.w3.org/1999/xlink" x="0px"
	 y="0px" viewBox="0 0 44.8 74.8" style="enable-background:new 0 0 44.8 74.8;" xml:space="preserve">
<style type="text/css">
	.st0{fill:#6C6E70;}
</style>
<g>
	<path class="st0" d="M21.4,58.3c-2,0-3.7-1.7-3.7-3.7c0-0.5,0-1.2,0-1.9c0-2.5-0.1-6.4,0.1-12.5c0.2-3.8,4-6.1,8.9-9
		c4.5-2.6,10.6-6.3,10.7-9.9c0.1-2.3-0.7-7.1-4.1-10.4c-2.6-2.6-6.4-3.8-11.1-3.6c-4.9,0.2-8.8,2.4-11.6,6.6c-2.3,3.4-3.1,7-3.2,7.7
		c-0.1,2-1.7,3.6-3.7,3.6S0,23.5,0,21.5c0-1.7,1.2-6.7,4.2-11.2C8.4,3.9,14.5,0.4,21.9,0c6.8-0.3,12.5,1.7,16.6,5.7
		c4.8,4.7,6.4,11.3,6.3,15.9c-0.1,3.6-1.9,6.9-5.5,10c-2.7,2.4-5.9,4.3-8.8,6c-1.8,1.1-4.5,2.6-5.3,3.5c-0.2,5.6-0.1,9.2-0.1,11.6
		c0,0.8,0,1.5,0,2C25.1,56.7,23.4,58.3,21.4,58.3z M7.3,21.4C7.3,21.4,7.3,21.5,7.3,21.4C7.3,21.5,7.3,21.4,7.3,21.4z"/>
	<path class="st0" d="M28,68.8c0,3.3-2.7,6-6,6s-6-2.7-6-6s2.7-6,6-6S28,65.5,28,68.8z"/>
</g>
</svg>
