<?xml version="1.0" encoding="utf-8"?>
<!-- Generator: Adobe Illustrator 22.1.0, SVG Export Plug-In . SVG Version: 6.00 Build 0)  -->
<svg version="1.1" id="레이어_1" xmlns="http://www.w3.org/2000/svg" xmlns:xlink="http://www.w3.org/1999/xlink" x="0px"
	 y="0px" viewBox="0 0 23.2 31.6" style="enable-background:new 0 0 23.2 31.6;" xml:space="preserve">
<style type="text/css">
	.st0{fill:#FFFFFF;}
</style>
<g>
	<g>
		<path class="st0" d="M22.8,14.6h-3C19.8,8.2,16.1,3,11.4,3C6.8,3,3,8.2,3,14.6H0C0,6.6,5.1,0,11.4,0S22.8,6.6,22.8,14.6z"/>
	</g>
	<g>
		<path class="st0" d="M21.9,14.2H1.7c-0.7,0-1.3,0.6-1.3,1.3v14.8c0,0.7,0.6,1.3,1.3,1.3h20.2c0.7,0,1.3-0.6,1.3-1.3V15.4
			C23.1,14.7,22.6,14.2,21.9,14.2z M14.1,20.4c-1.1,0-1.9,0.1-2.2,0.2v1.9c1.2,0.2,2,1.3,2,2.5c0,1.4-1.1,2.5-2.5,2.5
			S8.9,26.4,8.9,25c0-1.2,0.9-2.2,2-2.5v-5l0,0v-0.3h3v1h-2v1.3c0.5-0.1,1.2-0.2,2.2-0.2V20.4z"/>
	</g>
</g>
</svg>
