<?xml version="1.0" encoding="utf-8"?>
<!-- Generator: Adobe Illustrator 22.1.0, SVG Export Plug-In . SVG Version: 6.00 Build 0)  -->
<svg version="1.1" id="레이어_1" xmlns="http://www.w3.org/2000/svg" xmlns:xlink="http://www.w3.org/1999/xlink" x="0px"
	 y="0px" viewBox="0 0 41.9 44.9" style="enable-background:new 0 0 41.9 44.9;" xml:space="preserve">
<style type="text/css">
	.st0{fill:#FFFFFF;}
</style>
<g>
	<circle class="st0" cx="20.4" cy="41.8" r="3.1"/>
	<path class="st0" d="M6.2,35.7c-1.8,1-4,0.4-5-1.4s-0.4-4,1.4-5s4-0.4,5,1.4S8,34.7,6.2,35.7z"/>
	<path class="st0" d="M2.2,17.8c-2.1-1.2-2.8-3.8-1.6-5.9s3.8-2.8,5.9-1.6c2.1,1.2,2.8,3.8,1.6,5.9S4.3,19,2.2,17.8z"/>
	<path class="st0" d="M15.4,4.9c0-2.7,2.2-4.9,4.9-4.9s4.9,2.2,4.9,4.9c0,2.7-2.2,4.9-4.9,4.9C17.6,9.8,15.4,7.6,15.4,4.9z"/>
	<path class="st0" d="M33.6,9.3c2.6-1.5,6-0.6,7.6,2c1.5,2.6,0.6,6-2,7.6c-2.6,1.5-6,0.6-7.6-2C30,14.2,30.9,10.8,33.6,9.3z"/>
</g>
</svg>
