<?xml version="1.0" encoding="utf-8"?>
<!-- Generator: Adobe Illustrator 22.1.0, SVG Export Plug-In . SVG Version: 6.00 Build 0)  -->
<svg version="1.1" id="레이어_1" xmlns="http://www.w3.org/2000/svg" xmlns:xlink="http://www.w3.org/1999/xlink" x="0px"
	 y="0px" viewBox="0 0 41.9 41.9" style="enable-background:new 0 0 41.9 41.9;" xml:space="preserve">
<style type="text/css">
	.st0{fill:#FFFFFF;fill-opacity:0.15;stroke:#221E1F;stroke-width:0.1;stroke-miterlimit:10;}
	.st1{opacity:0.8;fill:#FFFFFF;stroke:#221E1F;stroke-width:0.1;stroke-miterlimit:10;enable-background:new    ;}
	.st2{opacity:0.8;}
	.st3{fill:#FFFFFF;stroke:#221E1F;stroke-width:0.1;stroke-miterlimit:10;}
</style>
<symbol  id="작은_재생버튼" viewBox="-15.1 -15.1 30.1 30.1">
	<g>
		<circle class="st0" cx="0" cy="0" r="14.6"/>
		<path class="st1" d="M0-15c-8.3,0-15,6.7-15,15s6.7,15,15,15S15,8.3,15,0S8.3-15,0-15z M0,14.2c-7.8,0-14.2-6.4-14.2-14.2
			S-7.8-14.2,0-14.2S14.2-7.8,14.2,0S7.8,14.2,0,14.2z"/>
	</g>
	<g class="st2">
		<path class="st3" d="M0.9-7c-2.7-2.1-6.1-1.4-7.5,1.5C-8.1-2.6-8.3,2.2-7.1,5.2s4.5,3.9,7.4,2.1l5.4-3.4c2.9-1.8,3-5,0.3-7L0.9-7z
			"/>
	</g>
</symbol>
<use xlink:href="#작은_재생버튼"  width="30.1" height="30.1" x="-15.1" y="-15.1" transform="matrix(1.3932 0 0 -1.3932 20.9677 20.9677)" style="overflow:visible;"/>
</svg>
