<?xml version="1.0" encoding="utf-8"?>
<!-- Generator: Adobe Illustrator 22.1.0, SVG Export Plug-In . SVG Version: 6.00 Build 0)  -->
<svg version="1.1" id="레이어_1" xmlns="http://www.w3.org/2000/svg" xmlns:xlink="http://www.w3.org/1999/xlink" x="0px"
	 y="0px" viewBox="0 0 33.2 31" style="enable-background:new 0 0 33.2 31;" xml:space="preserve">
<style type="text/css">
	.st0{fill:none;stroke:#FFFFFF;stroke-miterlimit:10;}
	.st1{fill:#FFFFFF;}
</style>
<g>
	<g>
		<g>
			<path class="st0" d="M17.7,30.5c8.3,0,15-6.7,15-15s-6.7-15-15-15c-6.2,0-11.5,3.7-13.8,9.1"/>
			<g>
				<path class="st1" d="M2.7,15.5c-0.4-3-1.4-6.8-2.7-9.4l4.3,2.7l5-0.6C6.9,9.9,4.4,13,2.7,15.5z"/>
			</g>
		</g>
	</g>
	<g>
		<path class="st1" d="M14.6,19.6c-0.5,0-0.9-0.1-1.3-0.2c-0.4-0.1-0.8-0.3-1-0.6V18v-0.1h0.1c0.4,0.3,0.8,0.5,1.1,0.7
			c0.4,0.1,0.8,0.2,1.2,0.2c0.2,0,0.4,0,0.6-0.1s0.4-0.2,0.5-0.3s0.3-0.3,0.3-0.5c0.1-0.2,0.1-0.4,0.1-0.6c0-1.1-0.7-1.6-2-1.6h-0.3
			V15H14c0.3,0,0.5,0,0.7-0.1c0.2,0,0.4-0.1,0.6-0.2c0.2-0.1,0.3-0.3,0.4-0.4c0.1-0.2,0.2-0.4,0.2-0.7c0-0.5-0.1-0.8-0.4-1
			s-0.6-0.3-1-0.3c-0.3,0-0.7,0.1-1,0.2c-0.4,0.1-0.7,0.3-1,0.6h-0.1c0,0,0,0,0-0.1v-0.8c0.1-0.1,0.2-0.2,0.4-0.3
			c0.1-0.1,0.3-0.2,0.5-0.2c0.2-0.1,0.4-0.1,0.6-0.2c0.2,0,0.4-0.1,0.7-0.1c0.3,0,0.7,0,1,0.1s0.6,0.2,0.8,0.4
			c0.2,0.2,0.4,0.4,0.5,0.6c0.1,0.3,0.2,0.6,0.2,0.9c0,0.2,0,0.5-0.1,0.7s-0.2,0.4-0.3,0.6c-0.1,0.2-0.3,0.3-0.4,0.4
			c-0.2,0.1-0.4,0.2-0.6,0.2l0,0c0.5,0.1,0.9,0.3,1.2,0.6c0.3,0.3,0.4,0.8,0.4,1.3c0,0.3-0.1,0.6-0.2,0.9c-0.1,0.3-0.3,0.5-0.5,0.7
			s-0.5,0.4-0.8,0.5C15.4,19.5,15,19.6,14.6,19.6z"/>
		<path class="st1" d="M20.7,11.4c0.8,0,1.5,0.3,1.9,1s0.7,1.7,0.7,3.2c0,1.4-0.2,2.4-0.7,3.1c-0.4,0.6-1.1,1-1.9,1
			c-0.4,0-0.8-0.1-1.1-0.2c-0.3-0.2-0.6-0.4-0.8-0.7c-0.2-0.3-0.4-0.7-0.5-1.3c-0.1-0.5-0.2-1.1-0.2-1.8c0-1.4,0.2-2.5,0.7-3.2
			C19.3,11.8,19.9,11.4,20.7,11.4z M20.7,12.2c-1.1,0-1.7,1.2-1.7,3.5c0,1.2,0.1,2,0.4,2.5s0.7,0.8,1.2,0.8s1-0.3,1.2-0.8
			c0.3-0.5,0.4-1.4,0.4-2.5C22.4,13.3,21.8,12.2,20.7,12.2z"/>
	</g>
</g>
</svg>
