<?xml version="1.0" encoding="utf-8"?>
<!-- Generator: Adobe Illustrator 22.1.0, SVG Export Plug-In . SVG Version: 6.00 Build 0)  -->
<svg version="1.1" id="레이어_1" xmlns="http://www.w3.org/2000/svg" xmlns:xlink="http://www.w3.org/1999/xlink" x="0px"
	 y="0px" viewBox="0 0 34.4 29.9" style="enable-background:new 0 0 34.4 29.9;" xml:space="preserve">
<style type="text/css">
	.st0{fill:#221E1F;}
</style>
<g>
	<path class="st0" d="M13.9,14c0,0.7,0.6,1.2,1.2,1.2h1.5v-2.4h-2.8V14H13.9z"/>
	<path class="st0" d="M13.9,10.6v1.1h2.8V9.3h-1.5C14.5,9.4,13.9,9.9,13.9,10.6z"/>
	<path class="st0" d="M17.8,15.3h1.5c0.7,0,1.2-0.6,1.2-1.2V13h-2.8v2.3H17.8z"/>
	<path class="st0" d="M34.4,13.6L34.4,13.6c0-0.4,0-0.9-0.1-1c0-0.2-2.4-2-5.3-4.2c0-0.1,0-0.2,0-0.3V2.8c0-0.7-0.5-1.3-1.1-1.3
		h-2.1c-0.6,0-1.1,0.6-1.1,1.3v2.4c-3.4-2.5-6.3-4.7-6.5-4.9c-0.3-0.2-0.6-0.3-1-0.3s-0.7,0.1-1,0.3c-0.4,0.3-16,11.9-16.1,12.3
		c0,0.2-0.1,0.6-0.1,1l0,0l0,0c0,0.7,0,1.4,0.1,1.5c0.5,0.7,1.4,0.3,1.4,0.3s1.1-0.9,2.7-2.2v12.7c0,2.2,1.6,4,3.5,4h19.1
		c1.9,0,3.5-1.8,3.5-4V13.2c1.6,1.3,2.7,2.2,2.7,2.2s0.9,0.4,1.4-0.3C34.4,15,34.4,14.2,34.4,13.6L34.4,13.6z M20.4,28.7h-6.3v-7.6
		c0-1,0.3-1.5,0.4-1.6H20c0.1,0.1,0.4,0.7,0.4,1.6L20.4,28.7L20.4,28.7z M29,25.9c0,1.5-1,2.7-2.2,2.7h-5.5V21
		c0-1.2-0.4-2.5-1.3-2.5h-5.6c-0.9,0-1.3,1.3-1.3,2.5v7.6H7.6c-1.2,0-2.2-1.2-2.2-2.7V12.2c4.2-3.4,10.4-8.4,10.9-8.8
		C16.6,3.1,17,3,17.2,2.9c0.3,0,0.6,0.2,0.9,0.5c0.5,0.4,6.6,5.4,10.8,8.7v13.8H29z"/>
	<path class="st0" d="M17.8,11.8h2.8v-1.1c0-0.7-0.6-1.2-1.2-1.2h-1.5v2.3H17.8z"/>
</g>
</svg>
