<?xml version="1.0" encoding="utf-8"?>
<!-- Generator: Adobe Illustrator 22.1.0, SVG Export Plug-In . SVG Version: 6.00 Build 0)  -->
<svg version="1.1" id="레이어_1" xmlns="http://www.w3.org/2000/svg" xmlns:xlink="http://www.w3.org/1999/xlink" x="0px"
	 y="0px" viewBox="0 0 30 29.9" style="enable-background:new 0 0 30 29.9;" xml:space="preserve">
<style type="text/css">
	.st0{fill:#221E1F;}
</style>
<g>
	<g>
		<path class="st0" d="M15,27.7c-3.4,0-6.6-1.3-9-3.7s-3.7-5.6-3.7-9S3.6,8.4,6,6s5.6-3.7,9-3.7s6.6,1.3,9,3.7
			c2.4,2.4,3.7,5.6,3.7,9s-1.3,6.6-3.7,9S18.4,27.7,15,27.7z M15,2.6C8.2,2.6,2.6,8.2,2.6,15S8.2,27.4,15,27.4
			c6.8,0,12.4-5.6,12.4-12.4C27.4,8.1,21.8,2.6,15,2.6z"/>
	</g>
	<g>
		<g>
			<path class="st0" d="M0.1,15C0,15,0,14.9,0,14.9C0,13,0.4,11,1.2,9.2S3,5.8,4.4,4.5c1.4-1.4,3-2.5,4.8-3.2
				C11.1,0.5,13,0.1,15,0.1c0.1,0,0.1,0.1,0.1,0.1c0,0.1-0.1,0.1-0.1,0.1C7,0.3,0.3,7,0.3,14.9C0.3,15,0.2,15,0.1,15z"/>
		</g>
		<g>
			<path class="st0" d="M16.8,0.3L16.8,0.3c-0.4,0-0.9,0-0.9,0c-0.1,0-0.1,0-0.1-0.1s0-0.1,0.1-0.1c0,0,0.5,0,0.9,0
				c0.1,0,0.1,0.1,0.1,0.1L16.8,0.3z"/>
		</g>
	</g>
	<g>
		<g>
			<path class="st0" d="M15.2,29.9c-0.1,0-0.1-0.1-0.1-0.1c0-0.1,0.1-0.1,0.1-0.1c3.9-0.1,7.5-1.7,10.3-4.6
				c2.7-2.8,4.2-6.6,4.1-10.3c0-0.1,0.1-0.1,0.1-0.1l0,0c0.1,0,0.1,0.1,0.1,0.1c0,1.9-0.3,3.9-1.1,5.7c-0.7,1.8-1.8,3.4-3.1,4.8
				c-1.4,1.4-2.9,2.5-4.7,3.3C19.2,29.4,17.2,29.9,15.2,29.9L15.2,29.9z"/>
		</g>
		<g>
			<path class="st0" d="M13.7,29.9c-0.1,0-0.2,0-0.3,0s-0.1-0.1-0.1-0.1c0-0.1,0.1-0.1,0.1-0.1c0.4,0,0.9,0,0.9,0
				c0.1,0,0.1,0,0.1,0.1s0,0.1-0.1,0.1C14.3,29.9,14,29.9,13.7,29.9z"/>
		</g>
	</g>
	<path class="st0" d="M15,6.3c-4.8,0-8.6,3.9-8.6,8.6c0,4.8,3.9,8.6,8.6,8.6c4.8,0,8.6-3.9,8.6-8.6C23.6,10.2,19.7,6.3,15,6.3z
		 M18.1,22.6v0.2c-1,0.4-2,0.6-3.1,0.6s-2.1-0.2-3.1-0.6v-0.2c-3-1.2-5.1-4.2-5.1-7.6c0-4.5,3.7-8.2,8.2-8.2s8.2,3.7,8.2,8.2
		C23.2,18.4,21.1,21.4,18.1,22.6z"/>
	<path class="st0" d="M20.2,17.9c0-1.3-4.1-9.1-5.3-9.1s-5.3,7.9-5.3,9.1c0,0.4,0.9,0.6,2.2,0.7v3.9v0.2c1,0.4,2,0.6,3.1,0.6
		s2.1-0.2,3.1-0.6v-0.2v-3.9C19.3,18.5,20.2,18.3,20.2,17.9z"/>
	<g>
		<path class="st0" d="M25,2.5c-0.1,0-0.2-0.1-0.2-0.2V0.2C24.8,0.1,24.9,0,25,0s0.2,0.1,0.2,0.2v2.1C25.2,2.4,25.1,2.5,25,2.5z"/>
	</g>
	<g>
		<path class="st0" d="M26.1,1.4H24c-0.1,0-0.2-0.1-0.2-0.2S23.9,1,24,1h2.1c0.1,0,0.2,0.1,0.2,0.2S26.2,1.4,26.1,1.4z"/>
	</g>
	<g>
		<path class="st0" d="M28.7,5.9c-0.1,0-0.2-0.1-0.2-0.2V3.6c0-0.1,0.1-0.2,0.2-0.2s0.2,0.1,0.2,0.2v2.1C28.9,5.8,28.9,5.9,28.7,5.9
			z"/>
	</g>
	<g>
		<path class="st0" d="M29.8,4.9h-2.1c-0.1,0-0.2-0.1-0.2-0.2s0.1-0.2,0.2-0.2h2.1c0.1,0,0.2,0.1,0.2,0.2C30,4.8,29.9,4.9,29.8,4.9z
			"/>
	</g>
</g>
</svg>
