<?xml version="1.0" encoding="utf-8"?>
<!-- Generator: Adobe Illustrator 22.1.0, SVG Export Plug-In . SVG Version: 6.00 Build 0)  -->
<svg version="1.1" id="레이어_1" xmlns="http://www.w3.org/2000/svg" xmlns:xlink="http://www.w3.org/1999/xlink" x="0px"
	 y="0px" viewBox="0 0 75.1 60.4" style="enable-background:new 0 0 75.1 60.4;" xml:space="preserve">
<style type="text/css">
	.st0{fill:#929496;fill-opacity:0.8;}
	.st1{fill:#0062AF;}
	.st2{fill:#FFFFFF;}
</style>
<g>
	<path class="st0" d="M0,49c0,1.9,1.5,3.4,3.4,3.4h8.2l-2.5,8l14.1-8H37c1.9,0,3.4-1.5,3.4-3.4V26.8c0-1.9-1.5-3.4-3.4-3.4H3.4
		c-1.9,0-3.4,1.5-3.4,3.4C0,26.8,0,49,0,49z"/>
	<path class="st1" d="M75,36.4c0,2.7-2.2,4.9-4.9,4.9H58.5l8.7,14.2L42.1,41.3H22.5c-2.7,0-4.9-2.2-4.9-4.9V4.9
		c0-2.7,2.2-4.9,4.9-4.9h47.7c2.7,0,4.9,2.2,4.9,4.9v31.5H75z"/>
	<g>
		<path class="st2" d="M29.8,20.7c0,2.6-2.1,4.8-4.8,4.8s-4.8-2.2-4.8-4.8s2.2-4.8,4.8-4.8C27.7,15.9,29.8,18,29.8,20.7z"/>
		<path class="st2" d="M50.6,20.7c0,2.6-2.1,4.8-4.8,4.8c-2.7,0-4.8-2.2-4.8-4.8s2.1-4.8,4.8-4.8C48.5,15.9,50.6,18,50.6,20.7z"/>
		<path class="st2" d="M71.3,20.7c0,2.6-2.1,4.8-4.8,4.8c-2.7,0-4.8-2.2-4.8-4.8s2.1-4.8,4.8-4.8C69.2,15.9,71.3,18,71.3,20.7z"/>
	</g>
</g>
</svg>
