<?xml version="1.0" encoding="utf-8"?>
<!-- Generator: Adobe Illustrator 22.1.0, SVG Export Plug-In . SVG Version: 6.00 Build 0)  -->
<svg version="1.1" id="레이어_1" xmlns="http://www.w3.org/2000/svg" xmlns:xlink="http://www.w3.org/1999/xlink" x="0px"
	 y="0px" viewBox="0 0 22 31.5" style="enable-background:new 0 0 22 31.5;" xml:space="preserve">
<style type="text/css">
	.st0{fill:#FFFFFF;}
</style>
<g>
	<g>
		<path class="st0" d="M21.7,15.1h-3C18.7,12.3,18.3,3,13,3c-4.5,0-9,3.6-9.7,7.9l-3-0.5C1.2,4.6,6.9,0,12.9,0
			C18.4,0,21.7,5.6,21.7,15.1z"/>
	</g>
	<g>
		<path class="st0" d="M20.8,14.7H1.2c-0.7,0-1.2,0.6-1.2,1.2v14.4c0,0.7,0.6,1.2,1.2,1.2h19.6c0.7,0,1.2-0.6,1.2-1.2V15.9
			C22,15.2,21.4,14.7,20.8,14.7z M13.2,20.7c-1.1,0-1.9,0.1-2.2,0.2v1.9c1.1,0.2,2,1.2,2,2.4c0,1.4-1.1,2.5-2.5,2.5S8,26.6,8,25.2
			c0-1.2,0.8-2.2,2-2.4V18l0,0v-0.3h2.9v1h-2V20c0.5-0.1,1.1-0.2,2.2-0.2v0.9H13.2z"/>
	</g>
</g>
</svg>
