<?xml version="1.0" encoding="utf-8"?>
<!-- Generator: Adobe Illustrator 22.1.0, SVG Export Plug-In . SVG Version: 6.00 Build 0)  -->
<svg version="1.1" id="레이어_1" xmlns="http://www.w3.org/2000/svg" xmlns:xlink="http://www.w3.org/1999/xlink" x="0px"
	 y="0px" viewBox="0 0 35.8 30" style="enable-background:new 0 0 35.8 30;" xml:space="preserve">
<style type="text/css">
	.st0{fill:#BBBDBF;}
</style>
<path class="st0" d="M28.6,25.4H7.2c-4,0-7.2-3.1-7.2-6.9V6.9C0,3.1,3.2,0,7.2,0h21.4c4,0,7.2,3.1,7.2,6.9v11.6
	C35.8,22.3,32.6,25.4,28.6,25.4z M7.2,1.5c-3.1,0-5.7,2.4-5.7,5.4v11.6c0,3,2.6,5.4,5.7,5.4h21.4c3.1,0,5.7-2.4,5.7-5.4V6.9
	c0-3-2.6-5.4-5.7-5.4H7.2z M26.6,27H9.1l-1.4,3H28L26.6,27z M21.8,14.7c1.8-1.4,1.7-3.4-0.2-4.6l-3.5-2.2c-1.9-1.2-4.1-0.6-4.8,1.4
	c-0.8,2-0.6,5.1,0.3,7c1,1.9,3.2,2.3,4.9,1L21.8,14.7z"/>
</svg>
