<?xml version="1.0" encoding="utf-8"?>
<!-- Generator: Adobe Illustrator 22.1.0, SVG Export Plug-In . SVG Version: 6.00 Build 0)  -->
<svg version="1.1" id="레이어_1" xmlns="http://www.w3.org/2000/svg" xmlns:xlink="http://www.w3.org/1999/xlink" x="0px"
	 y="0px" viewBox="0 0 113.9 23.2" style="enable-background:new 0 0 113.9 23.2;" xml:space="preserve">
<style type="text/css">
	.st0{fill:#68BC45;}
	.st1{fill:#0062AE;}
	.st2{font-family:'NanumBarunGothicBold';}
	.st3{font-size:12px;}
	.st4{fill:#59A43C;}
</style>
<g>
	<path class="st0" d="M108.9,23.2H5c-2.8,0-5-2.3-5-5V5c0-2.7,2.3-5,5-5h103.9c2.8,0,5,2.3,5,5v13.3C113.9,21,111.7,23.2,108.9,23.2
		z"/>
	<g>
		<text transform="matrix(1 0 0 1 28.8758 16.1538)" class="st1 st2 st3">보고 싶어요</text>
	</g>
	<g>
		<g>
			<path class="st1" d="M19.1,12.6v3.6c0,0.1,0,0.2-0.1,0.3c-0.1,0-0.1,0.1-0.3,0.1h-1.5c-0.1,0-0.2,0-0.3-0.1
				c-0.1,0-0.1-0.1-0.1-0.3v-3.6h-3.6c-0.2,0-0.3-0.1-0.3-0.3v-1.4c0-0.2,0.1-0.3,0.3-0.3h3.6V7c0-0.2,0.1-0.3,0.3-0.3h1.6
				C18.9,6.7,19,6.8,19,7v3.6h3.6c0.1,0,0.2,0,0.3,0.1c0,0.1,0.1,0.1,0.1,0.3v1.4c0,0.1,0,0.2-0.1,0.3s-0.1,0.1-0.3,0.1h-3.5V12.6z"
				/>
		</g>
	</g>
	<polygon class="st4" points="101.8,15.6 105.2,9.8 98.4,9.8 	"/>
</g>
</svg>
