<?xml version="1.0" encoding="utf-8"?>
<!-- Generator: Adobe Illustrator 22.1.0, SVG Export Plug-In . SVG Version: 6.00 Build 0)  -->
<svg version="1.1" id="레이어_1" xmlns="http://www.w3.org/2000/svg" xmlns:xlink="http://www.w3.org/1999/xlink" x="0px"
	 y="0px" viewBox="0 0 30 30" style="enable-background:new 0 0 30 30;" xml:space="preserve">
<style type="text/css">
	.st0{fill:#FFFFFF;fill-opacity:0.8;}
</style>
<path class="st0" d="M28.2,15c0-1.4-0.2-2.7-0.7-3.9L30,9.7l-2.7-4.5l-2.5,1.4c-1.8-2-4.3-3.4-7.1-3.9V0h-5.4v2.7
	C9.5,3.3,7,4.7,5.2,6.6L2.7,5.2L0,9.7l2.5,1.4c-0.4,1.2-0.7,2.5-0.7,3.9s0.2,2.7,0.7,3.9L0,20.3l2.7,4.5l2.5-1.4
	c1.8,2,4.3,3.4,7.1,3.9V30h5.4v-2.7c2.8-0.6,5.3-2,7.1-3.9l2.5,1.4l2.7-4.5l-2.5-1.4C28,17.6,28.2,16.3,28.2,15z M15,25
	C9.2,25,4.4,20.5,4.4,15S9.1,5,15,5s10.6,4.5,10.6,10S20.9,25,15,25z"/>
</svg>
