<?xml version="1.0" encoding="utf-8"?>
<!-- Generator: Adobe Illustrator 22.1.0, SVG Export Plug-In . SVG Version: 6.00 Build 0)  -->
<svg version="1.1" id="레이어_1" xmlns="http://www.w3.org/2000/svg" xmlns:xlink="http://www.w3.org/1999/xlink" x="0px"
	 y="0px" viewBox="0 0 50.5 48.5" style="enable-background:new 0 0 50.5 48.5;" xml:space="preserve">
<style type="text/css">
	.st0{fill:#FFF100;}
	.st1{fill:none;stroke:#221E1F;stroke-miterlimit:10;}
	.st2{fill:#221E1F;}
	.st3{font-family:'NanumBarunGothic';}
	.st4{font-size:8.3229px;}
</style>
<g>
	<path class="st0" d="M32.2,13c0.6,1.1,2,2.1,3.2,2.2l13.9,1.7c1.2,0.1,1.5,1,0.7,1.9l-9.8,10c-0.9,0.9-1.4,2.6-1.1,3.8l2.7,13.7
		c0.2,1.2-0.5,1.7-1.6,1.2l-12.5-6.2c-1.1-0.5-2.9-0.5-3.9,0.1l-12.2,6.8c-1.1,0.6-1.8,0.1-1.6-1.1l2-13.8c0.2-1.2-0.4-2.9-1.3-3.7
		L0.5,20.1c-0.9-0.8-0.6-1.7,0.6-1.9l13.8-2.3c1.2-0.2,2.6-1.3,3.1-2.4l5.9-12.7c0.5-1.1,1.4-1.1,2,0L32.2,13z"/>
	<path class="st1" d="M30.6,14.8c0.6,1.1,2,2.1,3.2,2.2L44,18.2c1.2,0.1,1.5,1,0.7,1.9l-7.2,7.4c-0.9,0.9-1.4,2.6-1.1,3.8l2,10.1
		c0.2,1.2-0.5,1.7-1.6,1.2L27.6,38c-1.1-0.5-2.9-0.5-3.9,0.1l-9,5c-1.1,0.6-1.8,0.1-1.6-1.1l1.5-10.2c0.2-1.2-0.4-2.9-1.3-3.7
		l-7.5-7c-0.9-0.8-0.6-1.7,0.6-1.9l10.2-1.7c1.2-0.2,2.6-1.3,3.1-2.4L24,5.8c0.5-1.1,1.4-1.1,2,0L30.6,14.8z"/>
	<text transform="matrix(1 0 0 1 17.6243 24.7331)" class="st2 st3 st4">평점</text>
	<text transform="matrix(1 0 0 1 18.1243 34.7331)" class="st2 st3 st4">3.9</text>
</g>
</svg>
