<?xml version="1.0" encoding="utf-8"?>
<!-- Generator: Adobe Illustrator 22.1.0, SVG Export Plug-In . SVG Version: 6.00 Build 0)  -->
<svg version="1.1" id="레이어_1" xmlns="http://www.w3.org/2000/svg" xmlns:xlink="http://www.w3.org/1999/xlink" x="0px"
	 y="0px" viewBox="0 0 33.2 31" style="enable-background:new 0 0 33.2 31;" xml:space="preserve">
<style type="text/css">
	.st0{fill:none;stroke:#FFFFFF;stroke-miterlimit:10;}
	.st1{fill:#FFFFFF;}
</style>
<g>
	<g>
		<g>
			<path class="st0" d="M15.5,30.5c-8.3,0-15-6.7-15-15c0-8.3,6.7-15,15-15c6.2,0,11.5,3.7,13.8,9.1"/>
			<g>
				<path class="st1" d="M30.5,15.5C28.8,13,26.3,9.9,24,8.2l5,0.6l4.3-2.7C31.9,8.7,30.9,12.5,30.5,15.5z"/>
			</g>
		</g>
	</g>
	<g>
		<path class="st1" d="M10.3,13.2v-0.7c0.3-0.1,0.6-0.3,0.8-0.5c0.3-0.2,0.5-0.4,0.7-0.6h0.9v8h-0.9v-7h0c-0.2,0.2-0.5,0.4-0.7,0.5
			c-0.2,0.1-0.5,0.3-0.7,0.3C10.3,13.3,10.3,13.3,10.3,13.2z"/>
		<path class="st1" d="M15.8,18.1c0.3,0.2,0.7,0.4,1,0.5c0.4,0.1,0.7,0.2,1.1,0.2c0.3,0,0.5-0.1,0.8-0.2c0.2-0.1,0.4-0.2,0.6-0.4
			c0.2-0.2,0.3-0.4,0.4-0.6c0.1-0.2,0.1-0.5,0.1-0.7c0-0.3-0.1-0.6-0.2-0.8c-0.1-0.2-0.3-0.4-0.5-0.5c-0.2-0.1-0.4-0.2-0.7-0.3
			c-0.3-0.1-0.6-0.1-0.9-0.1c-0.2,0-0.5,0-0.8,0.1c-0.3,0-0.5,0.1-0.8,0.1l0.2-4h4.1v0.7H17l-0.2,2.4h0c0.2,0,0.4,0,0.6-0.1
			c0.2,0,0.4,0,0.5,0c0.4,0,0.8,0.1,1.1,0.2c0.3,0.1,0.6,0.2,0.9,0.4c0.2,0.2,0.4,0.4,0.6,0.7c0.1,0.3,0.2,0.6,0.2,1
			c0,0.4-0.1,0.7-0.2,1c-0.1,0.3-0.3,0.6-0.6,0.8c-0.2,0.2-0.5,0.4-0.9,0.6c-0.4,0.1-0.7,0.2-1.2,0.2c-0.5,0-0.9-0.1-1.2-0.2
			c-0.4-0.1-0.7-0.2-1-0.5v-0.7C15.7,18.2,15.7,18.1,15.8,18.1C15.8,18.1,15.8,18.1,15.8,18.1z"/>
	</g>
</g>
</svg>
