<?xml version="1.0" encoding="utf-8"?>
<!-- Generator: Adobe Illustrator 22.1.0, SVG Export Plug-In . SVG Version: 6.00 Build 0)  -->
<svg version="1.1" id="레이어_1" xmlns="http://www.w3.org/2000/svg" xmlns:xlink="http://www.w3.org/1999/xlink" x="0px"
	 y="0px" viewBox="0 0 33.2 31" style="enable-background:new 0 0 33.2 31;" xml:space="preserve">
<style type="text/css">
	.st0{fill:none;stroke:#FFFFFF;stroke-miterlimit:10;}
	.st1{fill:#FFFFFF;}
</style>
<g>
	<g>
		<g>
			<path class="st0" d="M17.7,30.5c8.3,0,15-6.7,15-15s-6.7-15-15-15c-6.2,0-11.5,3.7-13.8,9.1"/>
			<g>
				<path class="st1" d="M2.7,15.5c-0.4-3-1.4-6.8-2.7-9.4l4.3,2.7l5-0.6C6.9,9.9,4.3,12.9,2.7,15.5z"/>
			</g>
		</g>
	</g>
	<g>
		<path class="st1" d="M12.4,13.2v-0.7c0.3-0.1,0.6-0.3,0.8-0.5c0.3-0.2,0.5-0.4,0.7-0.6h0.9v8h-0.9v-7l0,0
			c-0.2,0.2-0.5,0.4-0.7,0.5S12.7,13.2,12.4,13.2C12.5,13.3,12.4,13.3,12.4,13.2z"/>
		<path class="st1" d="M18,18.1c0.3,0.2,0.7,0.4,1,0.5s0.7,0.2,1.1,0.2c0.3,0,0.5-0.1,0.8-0.2c0.2-0.1,0.4-0.2,0.6-0.4
			c0.2-0.2,0.3-0.4,0.4-0.6s0.1-0.5,0.1-0.7c0-0.3-0.1-0.6-0.2-0.8c-0.1-0.2-0.3-0.4-0.5-0.5s-0.4-0.2-0.7-0.3
			c-0.3-0.1-0.6-0.1-0.9-0.1c-0.2,0-0.5,0-0.8,0.1c-0.3,0-0.5,0.1-0.8,0.1l0.2-4h4.1v0.7H19l-0.2,2.4l0,0c0.2,0,0.4,0,0.6-0.1
			c0.2,0,0.4,0,0.5,0c0.4,0,0.8,0.1,1.1,0.2c0.3,0.1,0.6,0.2,0.9,0.4c0.2,0.2,0.4,0.4,0.6,0.7c0.1,0.3,0.2,0.6,0.2,1s-0.1,0.7-0.2,1
			s-0.3,0.6-0.6,0.8c-0.2,0.2-0.5,0.4-0.9,0.6c-0.4,0.1-0.7,0.2-1.2,0.2s-0.9-0.1-1.2-0.2c-0.4-0.1-0.7-0.2-1-0.5v-0.7
			C17.9,18.1,17.9,18.1,18,18.1C17.9,18.1,17.9,18.1,18,18.1z"/>
	</g>
</g>
</svg>
