<?xml version="1.0" encoding="utf-8"?>
<!-- Generator: Adobe Illustrator 16.0.0, SVG Export Plug-In . SVG Version: 6.00 Build 0)  -->
<!DOCTYPE svg PUBLIC "-//W3C//DTD SVG 1.1//EN" "http://www.w3.org/Graphics/SVG/1.1/DTD/svg11.dtd">
<svg version="1.1" id="Layer_1" xmlns="http://www.w3.org/2000/svg" xmlns:xlink="http://www.w3.org/1999/xlink" x="0px" y="0px"
	 width="16.483px" height="16px" viewBox="0 0 16.483 16" enable-background="new 0 0 16.483 16" xml:space="preserve">
<path fill="#60615A" d="M8.242,4.409c1.215,0,2.204-0.989,2.204-2.204C10.446,0.989,9.457,0,8.242,0S6.038,0.989,6.038,2.205
	C6.038,3.419,7.026,4.409,8.242,4.409 M8.242,1.027c0.649,0,1.177,0.528,1.177,1.177c0,0.649-0.528,1.177-1.177,1.177
	S7.064,2.854,7.064,2.205C7.064,1.556,7.593,1.027,8.242,1.027"/>
<path fill="#60615A" d="M15.047,7.729h-3.152V7.035c0-1.216-0.988-2.204-2.204-2.204h-3.14c-1.215,0-2.204,0.988-2.204,2.204v0.694
	H1.437C0.645,7.729,0,8.373,0,9.166v5.398C0,15.355,0.645,16,1.437,16h13.61c0.792,0,1.437-0.645,1.437-1.436V9.166
	C16.483,8.373,15.839,7.729,15.047,7.729 M5.374,7.035c0-0.649,0.528-1.178,1.177-1.178h3.14c0.649,0,1.177,0.528,1.177,1.178v0.694
	H5.374V7.035z M15.457,14.564c0,0.227-0.185,0.41-0.41,0.41H1.437c-0.226,0-0.41-0.184-0.41-0.41V9.166
	c0-0.227,0.184-0.411,0.41-0.411h13.61c0.226,0,0.41,0.184,0.41,0.411V14.564z"/>
<path fill="#60615A" d="M5.308,12.432c0.199-0.182,0.336-0.32,0.413-0.418c0.115-0.146,0.199-0.287,0.252-0.42
	c0.053-0.133,0.08-0.275,0.08-0.422c0-0.26-0.093-0.479-0.278-0.652c-0.186-0.176-0.44-0.262-0.764-0.262
	c-0.296,0-0.542,0.074-0.739,0.227c-0.197,0.15-0.314,0.398-0.352,0.744l0.628,0.064c0.012-0.184,0.056-0.316,0.134-0.395
	c0.078-0.08,0.182-0.119,0.314-0.119c0.133,0,0.237,0.037,0.312,0.113c0.076,0.074,0.113,0.184,0.113,0.324
	c0,0.127-0.043,0.254-0.129,0.385c-0.064,0.094-0.238,0.273-0.522,0.537c-0.353,0.328-0.589,0.59-0.708,0.787
	c-0.119,0.199-0.191,0.408-0.215,0.629h2.207v-0.584h-1.25c0.033-0.057,0.076-0.115,0.129-0.176
	C4.984,12.736,5.11,12.615,5.308,12.432"/>
<path fill="#60615A" d="M8.693,10.258H8.165L6.74,12.344v0.551h1.344v0.66h0.609v-0.66h0.408V12.34H8.693V10.258z M8.083,12.34
	H7.329l0.754-1.121V12.34z"/>
<path fill="#60615A" d="M11.918,11.408c-0.06-0.084-0.147-0.152-0.264-0.205c-0.117-0.055-0.247-0.082-0.392-0.082
	c-0.282,0-0.525,0.119-0.728,0.357V10.27H9.905v3.285h0.629v-1.191c0-0.201,0.019-0.352,0.058-0.453
	c0.038-0.104,0.098-0.18,0.18-0.23s0.175-0.076,0.28-0.076c0.091,0,0.167,0.02,0.228,0.059c0.061,0.041,0.103,0.094,0.126,0.16
	c0.024,0.068,0.036,0.227,0.036,0.477v1.256h0.63v-1.396c0-0.213-0.011-0.369-0.033-0.473
	C12.018,11.584,11.978,11.492,11.918,11.408"/>
</svg>
