<?xml version="1.0" encoding="utf-8"?>
<!-- Generator: Adobe Illustrator 16.0.0, SVG Export Plug-In . SVG Version: 6.00 Build 0)  -->
<!DOCTYPE svg PUBLIC "-//W3C//DTD SVG 1.1//EN" "http://www.w3.org/Graphics/SVG/1.1/DTD/svg11.dtd">
<svg version="1.1" id="Layer_1" xmlns="http://www.w3.org/2000/svg" xmlns:xlink="http://www.w3.org/1999/xlink" x="0px" y="0px"
	 width="94.669px" height="85.897px" viewBox="0 0 94.669 85.897" enable-background="new 0 0 94.669 85.897" xml:space="preserve">
<path fill="#60615A" d="M86.565,0H8.104C3.635,0,0,3.635,0,8.104v55.462c0,4.468,3.635,8.104,8.104,8.104H31.66l12.856,12.855
	c0.915,0.914,2.117,1.372,3.318,1.372c1.202,0,2.404-0.458,3.319-1.372L64.009,71.67h22.556c4.469,0,8.104-3.637,8.104-8.104V8.104
	C94.669,3.635,91.034,0,86.565,0 M89,63.565C89,64.908,87.908,66,86.565,66H61.66L47.834,79.826L34.009,66H8.104
	c-1.343,0-2.435-1.092-2.435-2.435V8.104c0-1.342,1.092-2.434,2.435-2.434h78.461C87.908,5.67,89,6.762,89,8.104V63.565z"/>
<polygon fill="#60615A" points="30.267,37.903 43.217,37.903 43.217,33.558 30.267,33.558 30.267,27.84 44.185,27.84 44.185,23.476 
	25.059,23.476 25.059,49.27 44.678,49.27 44.678,44.925 30.267,44.925 "/>
<polygon fill="#60615A" points="64.771,40.701 54.214,23.475 49.146,23.475 49.146,49.27 53.985,49.27 53.985,32.449 64.384,49.27 
	69.609,49.27 69.609,23.475 64.771,23.475 "/>
</svg>
