<?xml version="1.0" encoding="utf-8"?>
<!-- Generator: Adobe Illustrator 16.0.0, SVG Export Plug-In . SVG Version: 6.00 Build 0)  -->
<!DOCTYPE svg PUBLIC "-//W3C//DTD SVG 1.1//EN" "http://www.w3.org/Graphics/SVG/1.1/DTD/svg11.dtd">
<svg version="1.1" id="Layer_1" xmlns="http://www.w3.org/2000/svg" xmlns:xlink="http://www.w3.org/1999/xlink" x="0px" y="0px"
	 width="15.238px" height="16px" viewBox="0 0 15.238 16" enable-background="new 0 0 15.238 16" xml:space="preserve">
<path fill="#60615A" d="M11.088,8.232H8.201V4.813c0-0.312-0.253-0.565-0.564-0.565S7.072,4.501,7.072,4.813v3.983
	c0,0.311,0.253,0.565,0.564,0.565h3.452c0.312,0,0.564-0.254,0.564-0.565C11.653,8.485,11.4,8.232,11.088,8.232"/>
<path fill="#60615A" d="M14.574,8.265c0-3.825-3.113-6.938-6.938-6.938S0.699,4.44,0.699,8.265c0,2.247,1.073,4.247,2.732,5.514
	l-0.797,1.373c-0.157,0.27-0.065,0.613,0.205,0.771c0.27,0.156,0.615,0.064,0.771-0.205l0.772-1.328
	c0.971,0.52,2.08,0.813,3.254,0.813c1.176,0,2.283-0.293,3.255-0.813l0.771,1.328C11.767,15.898,11.957,16,12.151,16
	c0.097,0,0.194-0.025,0.283-0.076c0.27-0.158,0.361-0.502,0.204-0.771l-0.797-1.373C13.502,12.512,14.574,10.512,14.574,8.265
	 M7.636,14.074c-3.203,0-5.809-2.605-5.809-5.809c0-3.203,2.605-5.808,5.809-5.808s5.809,2.605,5.809,5.808
	C13.445,11.469,10.839,14.074,7.636,14.074"/>
<path fill="#60615A" d="M3.521,0.964c0.22-0.221,0.22-0.578,0-0.798c-0.221-0.221-0.579-0.221-0.799,0L0.2,2.688
	c-0.221,0.221-0.221,0.578,0,0.798c0.11,0.11,0.255,0.166,0.399,0.166s0.289-0.055,0.399-0.166L3.521,0.964z"/>
<path fill="#60615A" d="M15.072,2.688L12.55,0.166c-0.221-0.221-0.579-0.221-0.799,0c-0.221,0.221-0.221,0.578,0,0.798l2.522,2.522
	c0.111,0.11,0.256,0.166,0.4,0.166s0.289-0.055,0.398-0.166C15.293,3.266,15.293,2.909,15.072,2.688"/>
</svg>
