<?xml version="1.0" encoding="utf-8"?>
<!-- Generator: Adobe Illustrator 16.0.0, SVG Export Plug-In . SVG Version: 6.00 Build 0)  -->
<!DOCTYPE svg PUBLIC "-//W3C//DTD SVG 1.1//EN" "http://www.w3.org/Graphics/SVG/1.1/DTD/svg11.dtd">
<svg version="1.1" id="Layer_1" xmlns="http://www.w3.org/2000/svg" xmlns:xlink="http://www.w3.org/1999/xlink" x="0px" y="0px"
	 width="19.395px" height="16px" viewBox="0 0 19.395 16" enable-background="new 0 0 19.395 16" xml:space="preserve">
<path fill="#60615A" d="M158.576,239.053h-51.672c-3.191,0-5.79,2.598-5.79,5.79v51.672c0,3.192,2.599,5.79,5.79,5.79h51.672
	c3.191,0,5.79-2.598,5.79-5.79v-51.672C164.366,241.65,161.768,239.053,158.576,239.053 M160.114,296.515
	c0,0.849-0.69,1.538-1.538,1.538h-51.672c-0.848,0-1.538-0.689-1.538-1.538v-51.672c0-0.849,0.69-1.538,1.538-1.538h51.672
	c0.848,0,1.538,0.689,1.538,1.538V296.515z"/>
<path fill="#60615A" d="M149.49,256.053h-9.124v-5.161c0-1.727-1.405-3.132-3.132-3.132h-8.988c-1.727,0-3.132,1.405-3.132,3.132
	v5.161h-9.124c-3.24,0-5.876,2.637-5.876,5.876v24.5c0,3.24,2.636,5.876,5.876,5.876h33.5c3.24,0,5.876-2.636,5.876-5.876v-24.5
	C155.366,258.689,152.73,256.053,149.49,256.053 M141.114,288.053h-15.748v-27.748h15.748V288.053z M129.366,252.012h6.748v4.041
	h-6.748V252.012z M114.366,286.429v-24.5c0-0.896,0.728-1.624,1.624-1.624h5.124v27.748h-5.124
	C115.094,288.053,114.366,287.324,114.366,286.429 M151.114,286.429c0,0.896-0.729,1.624-1.624,1.624h-4.124v-27.748h4.124
	c0.895,0,1.624,0.729,1.624,1.624V286.429z"/>
<path fill="#60615A" d="M17.181,5.145c-1.155-3.032-4.015-5.057-7.275-5.138C9.836,0.002,9.77,0,9.707,0
	C6.363,0,3.411,2.051,2.232,5.145C0.972,5.322,0,6.407,0,7.716c0,1.237,0.86,2.273,2.028,2.531C3.019,13.655,6.118,16,9.707,16
	s6.687-2.345,7.678-5.753c1.168-0.258,2.028-1.294,2.028-2.531C19.413,6.407,18.44,5.322,17.181,5.145 M16.877,9.098l-0.458,0.02
	l-0.105,0.446c-0.725,3.078-3.442,5.228-6.607,5.228c-3.165,0-5.882-2.149-6.608-5.228L2.994,9.117l-0.458-0.02
	C1.792,9.066,1.209,8.459,1.209,7.716c0-0.765,0.621-1.386,1.387-1.386h0.001l0.506,0.019l0.14-0.435
	C4.151,3.101,6.748,1.21,9.705,1.209c0.004,0,0.01,0,0.015,0c0.02,0,0.04,0.002,0.06,0.002c0.396,0.022,1.598,0.209,1.598,1.668
	c0,0.811-0.34,1.246-1.07,1.368C9.926,4.311,9.534,4.229,9.232,4.021C8.925,3.809,8.889,3.593,8.889,3.449
	c0-0.199,0.076-0.343,0.232-0.441c0.144-0.091,0.295-0.099,0.36-0.087c0.164,0.258,0.501,0.355,0.78,0.216
	c0.299-0.149,0.42-0.513,0.271-0.812C10.284,1.83,9.678,1.6,9.027,1.753C8.356,1.912,7.68,2.498,7.68,3.449
	c0,0.635,0.299,1.176,0.866,1.567c0.438,0.301,0.971,0.461,1.512,0.461c0.149,0,0.3-0.012,0.448-0.037
	c1.322-0.221,2.081-1.154,2.081-2.561c0-0.428-0.067-0.796-0.181-1.113c1.755,0.757,3.148,2.238,3.763,4.146l0.14,0.435l0.509-0.019
	c0.765,0,1.387,0.622,1.387,1.387C18.204,8.459,17.621,9.066,16.877,9.098"/>
<path fill="#60615A" d="M6.578,6.578c-0.628,0-1.138,0.509-1.138,1.138c0,0.628,0.509,1.138,1.138,1.138s1.138-0.51,1.138-1.138
	C7.715,7.087,7.206,6.578,6.578,6.578"/>
<path fill="#60615A" d="M12.835,6.578c-0.628,0-1.138,0.509-1.138,1.138c0,0.628,0.51,1.138,1.138,1.138s1.138-0.51,1.138-1.138
	C13.973,7.087,13.463,6.578,12.835,6.578"/>
</svg>
