<?xml version="1.0" encoding="utf-8"?>
<!-- Generator: Adobe Illustrator 16.0.0, SVG Export Plug-In . SVG Version: 6.00 Build 0)  -->
<!DOCTYPE svg PUBLIC "-//W3C//DTD SVG 1.1//EN" "http://www.w3.org/Graphics/SVG/1.1/DTD/svg11.dtd">
<svg version="1.1" id="Layer_1" xmlns="http://www.w3.org/2000/svg" xmlns:xlink="http://www.w3.org/1999/xlink" x="0px" y="0px"
	 width="14.311px" height="16px" viewBox="0 0 14.311 16" enable-background="new 0 0 14.311 16" xml:space="preserve">
<path fill="#60615A" d="M13.779,3.251c0.295,0,0.531-0.238,0.531-0.532c0-0.293-0.236-0.531-0.531-0.531h-1.75
	c-0.21,0-0.4,0.124-0.485,0.315L9.904,6.188H7.353L4.758,1.2C4.902,1.141,5.05,1.086,5.201,1.037
	c0.279-0.09,0.433-0.389,0.343-0.668c-0.09-0.279-0.389-0.434-0.668-0.343C1.959,0.964,0,3.654,0,6.72
	c0,3.876,3.154,7.03,7.031,7.03c3.877,0,7.03-3.154,7.03-7.03c0-0.294-0.236-0.532-0.531-0.532h-2.462l1.309-2.937H13.779z
	 M3.816,1.692l2.34,4.496H1.086C1.25,4.324,2.272,2.675,3.816,1.692 M7.031,12.688c-3.111,0-5.674-2.395-5.944-5.437h9.16
	c0.001,0,0.002,0,0.002,0c0.001,0,0.001,0,0.002,0h2.725C12.706,10.293,10.142,12.688,7.031,12.688"/>
<path fill="#60615A" d="M3.031,12.938c-0.844,0-1.531,0.687-1.531,1.531C1.5,15.313,2.187,16,3.031,16s1.531-0.688,1.531-1.531
	C4.563,13.624,3.875,12.938,3.031,12.938 M3.031,14.937c-0.258,0-0.468-0.21-0.468-0.468C2.563,14.21,2.773,14,3.031,14
	S3.5,14.21,3.5,14.469C3.5,14.727,3.29,14.937,3.031,14.937"/>
<path fill="#60615A" d="M11.03,12.938c-0.844,0-1.531,0.687-1.531,1.531c0,0.844,0.688,1.531,1.531,1.531
	c0.845,0,1.532-0.688,1.532-1.531C12.562,13.624,11.875,12.938,11.03,12.938 M11.03,14.937c-0.258,0-0.468-0.21-0.468-0.468
	c0-0.259,0.21-0.469,0.468-0.469c0.259,0,0.469,0.21,0.469,0.469C11.499,14.727,11.289,14.937,11.03,14.937"/>
</svg>
