<?xml version="1.0" encoding="utf-8"?>
<!-- Generator: Adobe Illustrator 16.0.0, SVG Export Plug-In . SVG Version: 6.00 Build 0)  -->
<!DOCTYPE svg PUBLIC "-//W3C//DTD SVG 1.1//EN" "http://www.w3.org/Graphics/SVG/1.1/DTD/svg11.dtd">
<svg version="1.1" id="Layer_1" xmlns="http://www.w3.org/2000/svg" xmlns:xlink="http://www.w3.org/1999/xlink" x="0px" y="0px"
	 width="14.985px" height="16px" viewBox="0 0 14.985 16" enable-background="new 0 0 14.985 16" xml:space="preserve">
<path fill="#60615A" d="M11.767,0c-1.185,0-2.271,0.648-2.834,1.691c-0.137,0.253-0.042,0.57,0.211,0.707
	c0.254,0.137,0.57,0.042,0.707-0.211c0.38-0.706,1.115-1.144,1.916-1.144c1.2,0,2.176,0.976,2.176,2.176s-0.976,2.176-2.176,2.176
	c-0.087,0-0.173-0.005-0.258-0.015c0.286-0.452,0.336-1.009,0.122-1.525c-0.264-0.638-0.857-1.035-1.548-1.035H1.68
	c-0.69,0-1.283,0.397-1.548,1.035C-0.132,4.492,0.007,5.192,0.495,5.68l1.83,1.83l0.001,0.001l2.371,2.371
	c0.193,0.192,0.42,0.328,0.664,0.407v4.668H3.43c-0.288,0-0.521,0.233-0.521,0.521S3.142,16,3.43,16h4.904
	c0.287,0,0.521-0.233,0.521-0.521s-0.234-0.521-0.521-0.521H6.403v-4.668c0.242-0.079,0.471-0.215,0.663-0.407l3.628-3.627
	c0.342,0.121,0.701,0.183,1.072,0.183c1.774,0,3.219-1.444,3.219-3.219S13.541,0,11.767,0 M6.329,9.145
	c-0.247,0.247-0.648,0.247-0.896,0L3.953,7.663h3.858L6.329,9.145z M10.53,4.943L8.854,6.62H2.91L1.232,4.943
	c-0.278-0.277-0.175-0.598-0.137-0.69S1.288,3.862,1.68,3.862h8.403c0.393,0,0.547,0.299,0.585,0.391S10.809,4.666,10.53,4.943"/>
</svg>
