<?xml version="1.0" encoding="utf-8"?>
<!-- Generator: Adobe Illustrator 16.0.0, SVG Export Plug-In . SVG Version: 6.00 Build 0)  -->
<!DOCTYPE svg PUBLIC "-//W3C//DTD SVG 1.1//EN" "http://www.w3.org/Graphics/SVG/1.1/DTD/svg11.dtd">
<svg version="1.1" id="Layer_1" xmlns="http://www.w3.org/2000/svg" xmlns:xlink="http://www.w3.org/1999/xlink" x="0px" y="0px"
	 width="69.5px" height="91px" viewBox="0 0 69.5 91" enable-background="new 0 0 69.5 91" xml:space="preserve">
<path fill="#60615A" d="M65.5,80V53.835c0-2.118-1.717-3.835-3.835-3.835H7.335C5.217,50,3.5,51.717,3.5,53.835V80h7V61.214
	c0-1.223,0.991-2.214,2.214-2.214h2.429c1.223,0,2.214,0.991,2.214,2.214V80h6.857V61.214c0-1.223,0.992-2.214,2.215-2.214h2.428
	c1.223,0,2.214,0.991,2.214,2.214V80h6.858V61.214c0-1.223,0.991-2.214,2.215-2.214h2.428c1.223,0,2.215,0.991,2.215,2.214V80h6.857
	V61.214c0-1.223,0.99-2.214,2.213-2.214h2.43c1.222,0,2.214,0.991,2.214,2.214V80H65.5z"/>
<path fill="#60615A" d="M67.156,85H1.843C0.825,85,0,85.825,0,86.843v2.313C0,90.174,0.825,91,1.843,91h65.313
	C68.175,91,69,90.174,69,89.156v-2.313C69,85.825,68.175,85,67.156,85"/>
<path fill="#60615A" d="M67.656,39h-7.002C57.443,30.608,50.31,24.169,41.5,21.896V19.91c0-1.055-0.856-1.91-1.911-1.91H36.5v-4
	h12.185c1.002,0,1.815-0.813,1.815-1.815v-8.37C50.5,2.812,49.687,2,48.685,2H36.5V1.603C36.5,0.717,35.782,0,34.897,0h-0.795
	C33.217,0,32.5,0.717,32.5,1.603V18h-3.089c-1.056,0-1.911,0.855-1.911,1.91v1.986C18.69,24.169,11.556,30.608,8.345,39H2.343
	C1.325,39,0.5,39.825,0.5,40.843v2.313C0.5,44.174,1.325,45,2.343,45h4.446h55.423h5.444c1.019,0,1.844-0.826,1.844-1.844v-2.313
	C69.5,39.825,68.675,39,67.656,39"/>
</svg>
