<?xml version="1.0" encoding="utf-8"?>
<!-- Generator: Adobe Illustrator 16.0.0, SVG Export Plug-In . SVG Version: 6.00 Build 0)  -->
<!DOCTYPE svg PUBLIC "-//W3C//DTD SVG 1.1//EN" "http://www.w3.org/Graphics/SVG/1.1/DTD/svg11.dtd">
<svg version="1.1" id="Layer_1" xmlns="http://www.w3.org/2000/svg" xmlns:xlink="http://www.w3.org/1999/xlink" x="0px" y="0px"
	 width="16px" height="16px" viewBox="0 0 16 16" enable-background="new 0 0 16 16" xml:space="preserve">
<path fill="#60615A" d="M7.523,0.026c-0.291,0-0.526,0.241-0.526,0.537v2.525c0,0.77-0.494,1.424-1.175,1.65V0.563
	c0-0.296-0.235-0.537-0.526-0.537S4.77,0.267,4.77,0.563v4.176c-0.681-0.227-1.175-0.88-1.175-1.65V0.563
	c0-0.296-0.236-0.537-0.527-0.537c-0.29,0-0.526,0.241-0.526,0.537v2.525c0,1.366,0.96,2.505,2.228,2.757v3.607
	c-0.717,0.229-1.238,0.912-1.238,1.717V14.2c0,0.992,0.791,1.8,1.764,1.8c0.973,0,1.764-0.808,1.764-1.8v-3.031
	c0-0.805-0.521-1.487-1.238-1.717V5.845c1.268-0.251,2.228-1.391,2.228-2.757V0.563C8.049,0.267,7.814,0.026,7.523,0.026
	 M6.007,14.2c0,0.4-0.319,0.727-0.711,0.727c-0.393,0-0.711-0.326-0.711-0.727v-3.031c0-0.398,0.319-0.725,0.711-0.725
	c0.392,0,0.711,0.326,0.711,0.725V14.2z"/>
<path fill="#60615A" d="M13.34,0.026h-1.212c-1.055,0-1.913,0.864-1.913,1.926v3.435c0,1.062,0.858,1.926,1.913,1.926h0.686v1.432
	h-0.505c-1.019,0-1.847,0.833-1.847,1.858v3.571c0,1.024,0.828,1.858,1.847,1.858h1.031c0.29,0,0.526-0.237,0.526-0.53V0.556
	C13.866,0.263,13.63,0.026,13.34,0.026 M12.813,14.974h-0.505c-0.438,0-0.794-0.357-0.794-0.799v-3.571
	c0-0.44,0.355-0.799,0.794-0.799h0.505V14.974z M12.813,6.254h-0.686c-0.475,0-0.86-0.389-0.86-0.867V1.952
	c0-0.478,0.386-0.867,0.86-0.867h0.686V6.254z"/>
</svg>
