<?xml version="1.0" encoding="utf-8"?>
<!-- Generator: Adobe Illustrator 16.0.0, SVG Export Plug-In . SVG Version: 6.00 Build 0)  -->
<!DOCTYPE svg PUBLIC "-//W3C//DTD SVG 1.1//EN" "http://www.w3.org/Graphics/SVG/1.1/DTD/svg11.dtd">
<svg version="1.1" id="Layer_1" xmlns="http://www.w3.org/2000/svg" xmlns:xlink="http://www.w3.org/1999/xlink" x="0px" y="0px"
	 width="17.762px" height="16px" viewBox="0 0 17.762 16" enable-background="new 0 0 17.762 16" xml:space="preserve">
<path fill="#60615A" d="M15.859,2.515h-3.31V1.208C12.549,0.542,12.007,0,11.34,0H6.422C5.755,0,5.213,0.542,5.213,1.208v1.306
	h-3.31C0.854,2.515,0,3.368,0,4.417v9.679C0,15.146,0.854,16,1.903,16h13.957c1.049,0,1.902-0.854,1.902-1.903V4.417
	C17.762,3.368,16.908,2.515,15.859,2.515 M6.401,1.208c0-0.011,0.009-0.021,0.021-0.021h4.918c0.012,0,0.021,0.009,0.021,0.021
	v1.306h-4.96V1.208z M16.574,14.097c0,0.395-0.32,0.715-0.715,0.715H1.903c-0.394,0-0.714-0.32-0.714-0.715v-5.76h2.348v0.641
	c0,0.328,0.266,0.595,0.594,0.595c0.328,0,0.594-0.267,0.594-0.595V8.337h8.314v0.641c0,0.328,0.266,0.595,0.594,0.595
	s0.594-0.267,0.594-0.595V8.337h2.348V14.097z M16.574,7.149h-2.348V6.742c0-0.328-0.266-0.595-0.594-0.595
	s-0.594,0.267-0.594,0.595v0.407H4.725V6.742c0-0.328-0.266-0.595-0.594-0.595c-0.329,0-0.594,0.267-0.594,0.595v0.407H1.188V4.417
	c0-0.394,0.32-0.714,0.714-0.714h13.957c0.395,0,0.715,0.32,0.715,0.714V7.149z"/>
</svg>
