<?xml version="1.0" encoding="utf-8"?>
<!-- Generator: Adobe Illustrator 16.0.0, SVG Export Plug-In . SVG Version: 6.00 Build 0)  -->
<!DOCTYPE svg PUBLIC "-//W3C//DTD SVG 1.1//EN" "http://www.w3.org/Graphics/SVG/1.1/DTD/svg11.dtd">
<svg version="1.1" id="Layer_1" xmlns="http://www.w3.org/2000/svg" xmlns:xlink="http://www.w3.org/1999/xlink" x="0px" y="0px"
	 width="17.685px" height="16px" viewBox="0 0 17.685 16" enable-background="new 0 0 17.685 16" xml:space="preserve">
<path fill="#60615A" d="M158.576,239.053h-51.672c-3.191,0-5.79,2.598-5.79,5.79v51.672c0,3.192,2.599,5.79,5.79,5.79h51.672
	c3.191,0,5.79-2.598,5.79-5.79v-51.672C164.366,241.65,161.768,239.053,158.576,239.053 M160.114,296.515
	c0,0.849-0.69,1.538-1.538,1.538h-51.672c-0.848,0-1.538-0.689-1.538-1.538v-51.672c0-0.849,0.69-1.538,1.538-1.538h51.672
	c0.848,0,1.538,0.689,1.538,1.538V296.515z"/>
<path fill="#60615A" d="M149.49,256.053h-9.124v-5.161c0-1.727-1.405-3.132-3.132-3.132h-8.988c-1.727,0-3.132,1.405-3.132,3.132
	v5.161h-9.124c-3.24,0-5.876,2.637-5.876,5.876v24.5c0,3.24,2.636,5.876,5.876,5.876h33.5c3.24,0,5.876-2.636,5.876-5.876v-24.5
	C155.366,258.689,152.73,256.053,149.49,256.053 M141.114,288.053h-15.748v-27.748h15.748V288.053z M129.366,252.012h6.748v4.041
	h-6.748V252.012z M114.366,286.429v-24.5c0-0.896,0.728-1.624,1.624-1.624h5.124v27.748h-5.124
	C115.094,288.053,114.366,287.324,114.366,286.429 M151.114,286.429c0,0.896-0.729,1.624-1.624,1.624h-4.124v-27.748h4.124
	c0.895,0,1.624,0.729,1.624,1.624V286.429z"/>
<path fill="#60615A" d="M17.229,5.553c-0.314-0.325-0.735-0.507-1.188-0.515l-1.271-0.021c-0.276-0.804-1.037-1.384-1.935-1.384
	H2.045C0.918,3.633,0,4.55,0,5.678v3.574C0,12.973,3.027,16,6.747,16h1.388c2.827,0,5.251-1.75,6.254-4.221
	c0.841-0.037,1.631-0.371,2.24-0.961c0.661-0.639,1.033-1.498,1.048-2.417l0.026-1.646C17.712,6.305,17.543,5.877,17.229,5.553
	 M13.694,9.252c0,3.066-2.494,5.559-5.559,5.559H6.747c-3.065,0-5.559-2.492-5.559-5.559V5.678c0-0.473,0.384-0.857,0.857-0.857
	h7.317v1.327H8.104v3.704h3.704V6.148H10.55V4.821h2.286c0.474,0,0.858,0.385,0.858,0.857V9.252z M10.62,8.663H9.293V7.336h1.327
	V8.663z M16.489,8.382c-0.018,1.049-0.754,1.92-1.731,2.153c0.081-0.416,0.124-0.844,0.124-1.283V6.208l1.14,0.019
	c0.135,0.002,0.26,0.057,0.353,0.153c0.094,0.096,0.145,0.223,0.143,0.357L16.489,8.382z"/>
<path fill="#60615A" d="M3.668,2.585c0.328,0,0.594-0.266,0.594-0.594V0.594C4.262,0.265,3.996,0,3.668,0
	C3.34,0,3.074,0.265,3.074,0.594v1.397C3.074,2.319,3.34,2.585,3.668,2.585"/>
<path fill="#60615A" d="M7.301,2.585c0.328,0,0.594-0.266,0.594-0.594V0.594C7.896,0.265,7.629,0,7.301,0S6.707,0.265,6.707,0.594
	v1.397C6.707,2.319,6.973,2.585,7.301,2.585"/>
<path fill="#60615A" d="M10.935,2.585c0.328,0,0.594-0.266,0.594-0.594V0.594C11.528,0.265,11.262,0,10.935,0
	c-0.328,0-0.594,0.266-0.594,0.594v1.397C10.34,2.319,10.606,2.585,10.935,2.585"/>
</svg>
