<?xml version="1.0" encoding="utf-8"?>
<!-- Generator: Adobe Illustrator 16.0.0, SVG Export Plug-In . SVG Version: 6.00 Build 0)  -->
<!DOCTYPE svg PUBLIC "-//W3C//DTD SVG 1.1//EN" "http://www.w3.org/Graphics/SVG/1.1/DTD/svg11.dtd">
<svg version="1.1" id="Layer_1" xmlns="http://www.w3.org/2000/svg" xmlns:xlink="http://www.w3.org/1999/xlink" x="0px" y="0px"
	 width="19.898px" height="16px" viewBox="0 0 19.898 16" enable-background="new 0 0 19.898 16" xml:space="preserve">
<path fill="#60615A" d="M158.576,239.053h-51.672c-3.191,0-5.79,2.598-5.79,5.79v51.672c0,3.192,2.599,5.79,5.79,5.79h51.672
	c3.191,0,5.79-2.598,5.79-5.79v-51.672C164.366,241.65,161.768,239.053,158.576,239.053 M160.114,296.515
	c0,0.849-0.69,1.538-1.538,1.538h-51.672c-0.848,0-1.538-0.689-1.538-1.538v-51.672c0-0.849,0.69-1.538,1.538-1.538h51.672
	c0.848,0,1.538,0.689,1.538,1.538V296.515z"/>
<path fill="#60615A" d="M149.49,256.053h-9.124v-5.161c0-1.727-1.405-3.132-3.132-3.132h-8.988c-1.727,0-3.132,1.405-3.132,3.132
	v5.161h-9.124c-3.24,0-5.876,2.637-5.876,5.876v24.5c0,3.24,2.636,5.876,5.876,5.876h33.5c3.24,0,5.876-2.636,5.876-5.876v-24.5
	C155.366,258.689,152.73,256.053,149.49,256.053 M141.114,288.053h-15.748v-27.748h15.748V288.053z M129.366,252.012h6.748v4.041
	h-6.748V252.012z M114.366,286.429v-24.5c0-0.896,0.728-1.624,1.624-1.624h5.124v27.748h-5.124
	C115.094,288.053,114.366,287.324,114.366,286.429 M151.114,286.429c0,0.896-0.729,1.624-1.624,1.624h-4.124v-27.748h4.124
	c0.895,0,1.624,0.729,1.624,1.624V286.429z"/>
<path fill="#60615A" d="M17.779,0H2.119C0.951,0,0,0.951,0,2.119v11.762C0,15.05,0.951,16,2.119,16h15.66
	c1.169,0,2.119-0.95,2.119-2.119V2.119C19.898,0.951,18.948,0,17.779,0 M2.119,1.381h15.66c0.407,0,0.738,0.331,0.738,0.737v1.455
	H1.381V2.119C1.381,1.712,1.712,1.381,2.119,1.381 M17.779,14.619H2.119c-0.407,0-0.738-0.332-0.738-0.738V4.955h17.136v8.926
	C18.518,14.287,18.187,14.619,17.779,14.619"/>
<path fill="#60615A" d="M9.462,8.446H3.29c-0.381,0-0.69,0.31-0.69,0.69c0,0.382,0.309,0.691,0.69,0.691h6.172
	c0.381,0,0.69-0.31,0.69-0.691C10.152,8.756,9.843,8.446,9.462,8.446"/>
<path fill="#60615A" d="M13.035,8.446h-0.974c-0.381,0-0.691,0.31-0.691,0.69c0,0.382,0.31,0.691,0.691,0.691h0.974
	c0.381,0,0.691-0.31,0.691-0.691C13.727,8.756,13.416,8.446,13.035,8.446"/>
<path fill="#60615A" d="M8.163,11.045H3.29c-0.381,0-0.69,0.31-0.69,0.691c0,0.381,0.309,0.69,0.69,0.69h4.873
	c0.381,0,0.69-0.31,0.69-0.69C8.853,11.354,8.544,11.045,8.163,11.045"/>
</svg>
