<?xml version="1.0" encoding="utf-8"?>
<!-- Generator: Adobe Illustrator 16.0.0, SVG Export Plug-In . SVG Version: 6.00 Build 0)  -->
<!DOCTYPE svg PUBLIC "-//W3C//DTD SVG 1.1//EN" "http://www.w3.org/Graphics/SVG/1.1/DTD/svg11.dtd">
<svg version="1.1" id="Layer_1" xmlns="http://www.w3.org/2000/svg" xmlns:xlink="http://www.w3.org/1999/xlink" x="0px" y="0px"
	 width="16px" height="16px" viewBox="0 0 16 16" enable-background="new 0 0 16 16" xml:space="preserve">
<image overflow="visible" width="1920" height="1200" xlink:href="CD752998.jpg"  transform="matrix(1 0 0 1 -8184 -8184)">
</image>
<path fill="#60615A" d="M11.521,4.916c-0.157,0-0.305,0.061-0.415,0.172L6.775,9.419L4.894,7.538
	C4.783,7.427,4.636,7.366,4.479,7.366c-0.157,0-0.305,0.061-0.415,0.172c-0.229,0.229-0.229,0.601,0,0.83l2.296,2.296
	c0.11,0.111,0.258,0.172,0.416,0.172c0.157,0,0.304-0.061,0.415-0.172l4.746-4.746c0.229-0.229,0.229-0.601,0-0.83
	C11.826,4.977,11.679,4.916,11.521,4.916"/>
<path fill="#60615A" d="M8,0C3.589,0,0,3.589,0,8s3.589,8,8,8s8-3.589,8-8S12.411,0,8,0 M8,14.698c-3.693,0-6.698-3.005-6.698-6.698
	S4.307,1.302,8,1.302S14.698,4.307,14.698,8S11.693,14.698,8,14.698"/>
</svg>
