<?xml version="1.0" encoding="utf-8"?>
<!-- Generator: Adobe Illustrator 16.0.0, SVG Export Plug-In . SVG Version: 6.00 Build 0)  -->
<!DOCTYPE svg PUBLIC "-//W3C//DTD SVG 1.1//EN" "http://www.w3.org/Graphics/SVG/1.1/DTD/svg11.dtd">
<svg version="1.1" id="Layer_1" xmlns="http://www.w3.org/2000/svg" xmlns:xlink="http://www.w3.org/1999/xlink" x="0px" y="0px"
	 width="16px" height="16px" viewBox="0 0 16 16" enable-background="new 0 0 16 16" xml:space="preserve">
<path fill="#E62851" d="M11.521,4.916c-0.157,0-0.305,0.061-0.415,0.172L6.775,9.419L4.894,7.538
	C4.783,7.427,4.636,7.366,4.479,7.366c-0.157,0-0.305,0.061-0.416,0.172c-0.229,0.229-0.229,0.602,0,0.83l2.296,2.296
	c0.11,0.111,0.258,0.172,0.415,0.172c0.158,0,0.305-0.061,0.415-0.172l4.747-4.746c0.229-0.229,0.229-0.601,0-0.83
	C11.826,4.977,11.679,4.916,11.521,4.916"/>
<path fill="#E62851" d="M8,0C3.588,0,0,3.589,0,8s3.588,8,8,8c4.411,0,8-3.589,8-8S12.411,0,8,0 M8,14.698
	c-3.694,0-6.698-3.005-6.698-6.698S4.306,1.302,8,1.302c3.693,0,6.698,3.004,6.698,6.698S11.693,14.698,8,14.698"/>
</svg>
