<?xml version="1.0" encoding="utf-8"?>
<!-- Generator: Adobe Illustrator 16.0.0, SVG Export Plug-In . SVG Version: 6.00 Build 0)  -->
<!DOCTYPE svg PUBLIC "-//W3C//DTD SVG 1.1//EN" "http://www.w3.org/Graphics/SVG/1.1/DTD/svg11.dtd">
<svg version="1.1" id="Layer_1" xmlns="http://www.w3.org/2000/svg" xmlns:xlink="http://www.w3.org/1999/xlink" x="0px" y="0px"
	 width="69px" height="86.334px" viewBox="0 0 69 86.334" enable-background="new 0 0 69 86.334" xml:space="preserve">
<path fill="#60615A" d="M62.674,21.334H57.28C56.504,9.439,46.587,0,34.5,0S12.496,9.439,11.72,21.334H6.326
	C2.832,21.334,0,24.166,0,27.66v52.348c0,3.494,2.832,6.326,6.326,6.326h56.348c3.494,0,6.326-2.832,6.326-6.326V27.66
	C69,24.166,66.168,21.334,62.674,21.334 M34.5,5.668c8.958,0,16.326,6.902,17.089,15.666H17.41
	C18.174,12.57,25.542,5.668,34.5,5.668 M16.5,36.334c-2.485,0-4.5-2.015-4.5-4.5s2.015-4.5,4.5-4.5s4.5,2.015,4.5,4.5
	S18.985,36.334,16.5,36.334 M53.5,36.334c-2.485,0-4.5-2.015-4.5-4.5s2.015-4.5,4.5-4.5s4.5,2.015,4.5,4.5
	S55.985,36.334,53.5,36.334"/>
</svg>
