<?xml version="1.0" encoding="utf-8"?>
<!-- Generator: Adobe Illustrator 16.0.0, SVG Export Plug-In . SVG Version: 6.00 Build 0)  -->
<!DOCTYPE svg PUBLIC "-//W3C//DTD SVG 1.1//EN" "http://www.w3.org/Graphics/SVG/1.1/DTD/svg11.dtd">
<svg version="1.1" id="Layer_1" xmlns="http://www.w3.org/2000/svg" xmlns:xlink="http://www.w3.org/1999/xlink" x="0px" y="0px"
	 width="14.572px" height="16px" viewBox="0 0 14.572 16" enable-background="new 0 0 14.572 16" xml:space="preserve">
<path fill="#60615A" d="M158.576,239.053h-51.672c-3.191,0-5.79,2.598-5.79,5.79v51.672c0,3.192,2.599,5.79,5.79,5.79h51.672
	c3.191,0,5.79-2.598,5.79-5.79v-51.672C164.366,241.65,161.768,239.053,158.576,239.053 M160.114,296.515
	c0,0.849-0.69,1.538-1.538,1.538h-51.672c-0.848,0-1.538-0.689-1.538-1.538v-51.672c0-0.849,0.69-1.538,1.538-1.538h51.672
	c0.848,0,1.538,0.689,1.538,1.538V296.515z"/>
<path fill="#60615A" d="M149.49,256.053h-9.124v-5.161c0-1.727-1.405-3.132-3.132-3.132h-8.988c-1.727,0-3.132,1.405-3.132,3.132
	v5.161h-9.124c-3.24,0-5.876,2.637-5.876,5.876v24.5c0,3.24,2.636,5.876,5.876,5.876h33.5c3.24,0,5.876-2.636,5.876-5.876v-24.5
	C155.366,258.689,152.73,256.053,149.49,256.053 M141.114,288.053h-15.748v-27.748h15.748V288.053z M129.366,252.012h6.748v4.041
	h-6.748V252.012z M114.366,286.429v-24.5c0-0.896,0.728-1.624,1.624-1.624h5.124v27.748h-5.124
	C115.094,288.053,114.366,287.324,114.366,286.429 M151.114,286.429c0,0.896-0.729,1.624-1.624,1.624h-4.124v-27.748h4.124
	c0.895,0,1.624,0.729,1.624,1.624V286.429z"/>
<path fill="#60615A" d="M4.55,5.056c0.935,0,1.695-0.761,1.695-1.695c0-0.935-0.761-1.695-1.695-1.695
	c-0.935,0-1.695,0.76-1.695,1.695C2.855,4.295,3.615,5.056,4.55,5.056 M4.55,2.677c0.377,0,0.684,0.307,0.684,0.684
	S4.927,4.044,4.55,4.044c-0.377,0-0.684-0.307-0.684-0.684S4.173,2.677,4.55,2.677"/>
<path fill="#60615A" d="M9.546,3.391c0.935,0,1.695-0.76,1.695-1.695C11.242,0.761,10.481,0,9.546,0
	C8.611,0,7.851,0.761,7.851,1.695C7.851,2.63,8.611,3.391,9.546,3.391 M9.546,1.012c0.377,0,0.684,0.307,0.684,0.684
	S9.923,2.379,9.546,2.379c-0.377,0-0.684-0.307-0.684-0.684S9.169,1.012,9.546,1.012"/>
<path fill="#60615A" d="M12.907,8.564V5.512c0-0.809-0.658-1.468-1.467-1.468H7.653c-0.809,0-1.468,0.659-1.468,1.468v0.311
	C6.003,5.751,5.805,5.71,5.597,5.71H3.504c-0.883,0-1.601,0.718-1.601,1.601v1.254H0V16h14.572V8.564H12.907z M7.197,5.512
	c0-0.251,0.205-0.456,0.456-0.456h3.787c0.251,0,0.455,0.205,0.455,0.456v3.052H7.197V7.311V5.512z M2.915,7.311
	c0-0.325,0.264-0.589,0.589-0.589h2.093c0.325,0,0.589,0.264,0.589,0.589v1.254H2.915V7.311z M13.561,14.988h-2.319V10.26H10.23
	v4.729H8.862V10.26H7.851v4.729h-6.84V9.576h5.174v1.739h1.012V9.576h4.698v1.739h1.012V9.576h0.654V14.988z"/>
</svg>
