<?xml version="1.0" encoding="utf-8"?>
<!-- Generator: Adobe Illustrator 16.0.0, SVG Export Plug-In . SVG Version: 6.00 Build 0)  -->
<!DOCTYPE svg PUBLIC "-//W3C//DTD SVG 1.1//EN" "http://www.w3.org/Graphics/SVG/1.1/DTD/svg11.dtd">
<svg version="1.1" id="Layer_1" xmlns="http://www.w3.org/2000/svg" xmlns:xlink="http://www.w3.org/1999/xlink" x="0px" y="0px"
	 width="16px" height="16px" viewBox="0 0 16 16" enable-background="new 0 0 16 16" xml:space="preserve">
<path fill="#60615A" d="M15.454,14.907h-0.995V6.93c0-0.986-0.803-1.789-1.79-1.789h-1.552V2.128c0-1.031-0.84-1.871-1.871-1.871
	H2.899c-1.031,0-1.871,0.84-1.871,1.871v12.779H0.546C0.245,14.907,0,15.151,0,15.453C0,15.756,0.245,16,0.546,16h1.028h8.997h3.341
	h1.542C15.755,16,16,15.756,16,15.453C16,15.151,15.755,14.907,15.454,14.907 M2.121,2.128c0-0.429,0.349-0.778,0.778-0.778h6.347
	c0.429,0,0.777,0.349,0.777,0.778v3.559v9.22H2.121V2.128z M11.117,14.907V6.233h1.552c0.384,0,0.695,0.313,0.695,0.696v7.978
	H11.117z"/>
<path fill="#60615A" d="M8,3.084H4.145c-0.301,0-0.546,0.244-0.546,0.546c0,0.301,0.245,0.546,0.546,0.546H8
	c0.302,0,0.546-0.245,0.546-0.546C8.546,3.329,8.302,3.084,8,3.084"/>
<path fill="#60615A" d="M8,5.655H4.145c-0.301,0-0.546,0.244-0.546,0.546c0,0.302,0.245,0.546,0.546,0.546H8
	c0.302,0,0.546-0.244,0.546-0.546C8.546,5.899,8.302,5.655,8,5.655"/>
<path fill="#60615A" d="M8,8.225H4.145c-0.301,0-0.546,0.245-0.546,0.546c0,0.302,0.245,0.546,0.546,0.546H8
	c0.302,0,0.546-0.244,0.546-0.546C8.546,8.47,8.302,8.225,8,8.225"/>
</svg>
