<?xml version="1.0" encoding="utf-8"?>
<!-- Generator: Adobe Illustrator 16.0.0, SVG Export Plug-In . SVG Version: 6.00 Build 0)  -->
<!DOCTYPE svg PUBLIC "-//W3C//DTD SVG 1.1//EN" "http://www.w3.org/Graphics/SVG/1.1/DTD/svg11.dtd">
<svg version="1.1" id="Layer_1" xmlns="http://www.w3.org/2000/svg" xmlns:xlink="http://www.w3.org/1999/xlink" x="0px" y="0px"
	 width="16px" height="16px" viewBox="0 0 16 16" enable-background="new 0 0 16 16" xml:space="preserve">
<path fill="#60615A" d="M14.89,12.373v2.091c0,0.296,0.248,0.536,0.556,0.536C15.751,15,16,14.76,16,14.464V9.371
	c0-0.828-0.697-1.502-1.555-1.502h-0.209V3.281c0-0.706-0.594-1.28-1.324-1.28H3.087c-0.73,0-1.324,0.574-1.324,1.28v4.588H1.554
	C0.697,7.869,0,8.543,0,9.371v5.093C0,14.76,0.249,15,0.555,15c0.307,0,0.556-0.24,0.556-0.536v-2.091H14.89z M5.561,5.598
	c-0.689,0-1.25,0.542-1.25,1.208v1.063H2.874V3.281c0-0.114,0.096-0.207,0.213-0.207h9.825c0.117,0,0.214,0.093,0.214,0.207v4.588
	h-1.437V6.806c0-0.666-0.561-1.208-1.25-1.208H5.561z M10.439,6.671c0.076,0,0.14,0.061,0.14,0.135v1.063H5.421V6.806
	c0-0.074,0.063-0.135,0.14-0.135H10.439z M1.111,11.3V9.371c0-0.236,0.199-0.43,0.443-0.43h12.891c0.245,0,0.444,0.193,0.444,0.43
	V11.3H1.111z"/>
</svg>
