<?xml version="1.0" encoding="utf-8"?>
<!-- Generator: Adobe Illustrator 16.0.0, SVG Export Plug-In . SVG Version: 6.00 Build 0)  -->
<!DOCTYPE svg PUBLIC "-//W3C//DTD SVG 1.1//EN" "http://www.w3.org/Graphics/SVG/1.1/DTD/svg11.dtd">
<svg version="1.1" id="Layer_1" xmlns="http://www.w3.org/2000/svg" xmlns:xlink="http://www.w3.org/1999/xlink" x="0px" y="0px"
	 width="16px" height="16px" viewBox="0 0 16 16" enable-background="new 0 0 16 16" xml:space="preserve">
<image overflow="visible" width="1920" height="1200" xlink:href="43224456.jpg"  transform="matrix(1 0 0 1 -8184 -8184)">
</image>
<g>
	<path fill="#60615A" d="M14.961,4.186L14.396,3.81c-0.238-0.159-0.517-0.243-0.803-0.243c-0.484,0-0.936,0.238-1.205,0.636
		l-4.4,6.482L3.589,4.203C3.318,3.805,2.868,3.567,2.383,3.567c-0.287,0-0.564,0.084-0.803,0.243L1.016,4.186
		C0.437,4.572,0,5.388,0,6.084v8.47C0,15.352,0.648,16,1.445,16h13.086c0.797,0,1.445-0.648,1.445-1.445v-8.47
		C15.977,5.388,15.54,4.572,14.961,4.186z M15.014,14.555c0,0.266-0.216,0.481-0.482,0.481H1.445c-0.266,0-0.482-0.216-0.482-0.481
		v-8.47c0-0.369,0.28-0.892,0.587-1.097l0.565-0.376c0.079-0.053,0.171-0.081,0.268-0.081c0.165,0,0.318,0.08,0.409,0.213
		l4.798,7.07c0.179,0.264,0.619,0.264,0.797,0l4.798-7.07c0.144-0.212,0.463-0.275,0.677-0.133l0.565,0.376
		c0.307,0.206,0.587,0.728,0.587,1.097V14.555z"/>
	<path fill="#60615A" d="M13.97,8.774h-2.448c-0.267,0-0.481,0.215-0.481,0.481c0,0.268,0.215,0.482,0.481,0.482h2.448
		c0.267,0,0.482-0.215,0.482-0.482C14.452,8.989,14.236,8.774,13.97,8.774z"/>
	<path fill="#60615A" d="M4.397,3.831c0.122,0,0.251-0.034,0.384-0.101l2.992-1.496C7.857,2.192,7.927,2.14,7.988,2.083
		C8.05,2.14,8.12,2.192,8.204,2.234l2.991,1.496c0.134,0.066,0.263,0.101,0.385,0.101c0.206,0,0.387-0.095,0.495-0.261
		c0.087-0.132,0.159-0.36,0.015-0.689l-1.018-2.328c-0.21-0.479-0.821-0.695-1.286-0.451L8.191,0.938
		C8.113,0.979,8.047,1.029,7.988,1.083C7.93,1.029,7.864,0.979,7.786,0.938L6.19,0.102c-0.464-0.245-1.076-0.028-1.285,0.45
		L3.887,2.88C3.742,3.21,3.815,3.438,3.901,3.57C4.01,3.736,4.191,3.831,4.397,3.831z M10.203,0.971l0.663,1.518l-1.82-0.911
		L10.203,0.971z M5.774,0.971l1.158,0.606L5.11,2.488L5.774,0.971z"/>
	<circle fill="#60615A" cx="7.988" cy="5.281" r="0.522"/>
	<circle fill="#60615A" cx="7.988" cy="7.73" r="0.521"/>
</g>
</svg>
