<?xml version="1.0" encoding="utf-8"?>
<!-- Generator: Adobe Illustrator 16.0.0, SVG Export Plug-In . SVG Version: 6.00 Build 0)  -->
<!DOCTYPE svg PUBLIC "-//W3C//DTD SVG 1.1//EN" "http://www.w3.org/Graphics/SVG/1.1/DTD/svg11.dtd">
<svg version="1.1" id="Layer_1" xmlns="http://www.w3.org/2000/svg" xmlns:xlink="http://www.w3.org/1999/xlink" x="0px" y="0px"
	 width="16px" height="16px" viewBox="0 0 16 16" enable-background="new 0 0 16 16" xml:space="preserve">
<image overflow="visible" width="1920" height="1200" xlink:href="6608C519.jpg"  transform="matrix(1 0 0 1 -8184 -8184)">
</image>
<g>
	<path fill="#60615A" d="M13.352,13.323H2.648C1.188,13.323,0,12.136,0,10.676V3.448C0,1.988,1.188,0.8,2.648,0.8h10.703
		C14.813,0.8,16,1.988,16,3.448v7.228C16,12.136,14.813,13.323,13.352,13.323z M2.648,1.683c-0.974,0-1.766,0.792-1.766,1.766v7.228
		c0,0.974,0.792,1.766,1.766,1.766h10.703c0.974,0,1.766-0.792,1.766-1.766V3.448c0-0.974-0.792-1.766-1.766-1.766H2.648z
		 M12,14.317H4V15.2h8V14.317z M7.395,9.89c-0.643,0-1.291-0.473-1.291-1.531V6.593c0-1.058,0.648-1.531,1.291-1.531
		c0.291,0,0.594,0.089,0.9,0.266L9.823,6.21c0.541,0.313,0.852,0.773,0.852,1.265s-0.311,0.953-0.852,1.266L8.294,9.624
		C7.988,9.8,7.686,9.89,7.395,9.89z M7.395,5.944c-0.369,0-0.408,0.454-0.408,0.648v1.766c0,0.195,0.04,0.648,0.408,0.648
		c0.132,0,0.291-0.051,0.458-0.148l1.53-0.882c0.261-0.15,0.409-0.333,0.409-0.5c0-0.167-0.148-0.35-0.409-0.5l-1.53-0.883
		C7.686,5.996,7.527,5.944,7.395,5.944z"/>
</g>
</svg>
