<?xml version="1.0" encoding="utf-8"?>
<!-- Generator: Adobe Illustrator 16.0.0, SVG Export Plug-In . SVG Version: 6.00 Build 0)  -->
<!DOCTYPE svg PUBLIC "-//W3C//DTD SVG 1.1//EN" "http://www.w3.org/Graphics/SVG/1.1/DTD/svg11.dtd">
<svg version="1.1" id="Layer_1" xmlns="http://www.w3.org/2000/svg" xmlns:xlink="http://www.w3.org/1999/xlink" x="0px" y="0px"
	 width="16px" height="16px" viewBox="0 0 16 16" enable-background="new 0 0 16 16" xml:space="preserve">
<image overflow="visible" width="1920" height="1200" xlink:href="89539204.jpg"  transform="matrix(1 0 0 1 -8184 -8184)">
</image>
<g>
	<path fill="#60615A" d="M15.81,9.007H1.951V2.926c0-1.111,0.904-2.014,2.014-2.014c1.111,0,2.015,0.903,2.015,2.014
		c0,0.027,0.011,0.051,0.016,0.076H4.864c-0.252,0-0.456,0.204-0.456,0.456c0,0.251,0.204,0.456,0.456,0.456h3.041
		c0.252,0,0.456-0.205,0.456-0.456c0-0.252-0.204-0.456-0.456-0.456H6.877c0.004-0.025,0.015-0.049,0.015-0.076
		C6.892,1.313,5.579,0,3.965,0C2.504,0,1.292,1.078,1.076,2.48C1.052,2.536,1.039,2.596,1.039,2.66v6.347H0V9.92h1.057
		c0.1,1.854,0.812,3.267,2.082,4.192v1.432C3.139,15.796,3.343,16,3.594,16c0.252,0,0.457-0.204,0.457-0.456v-0.896
		c1.037,0.487,2.323,0.744,3.854,0.744s2.818-0.257,3.854-0.744v0.896c0,0.252,0.205,0.456,0.457,0.456
		c0.251,0,0.455-0.204,0.455-0.456v-1.432c1.27-0.926,1.981-2.339,2.081-4.192h1.058V9.007z M7.905,14.48
		c-2.611,0-5.696-0.813-5.932-4.561h11.864C13.603,13.667,10.518,14.48,7.905,14.48z"/>
	<circle fill="#60615A" cx="6.385" cy="5.017" r="0.456"/>
	<circle fill="#60615A" cx="5.321" cy="6.688" r="0.456"/>
	<circle fill="#60615A" cx="7.449" cy="6.688" r="0.456"/>
</g>
</svg>
