<?xml version="1.0" encoding="utf-8"?>
<!-- Generator: Adobe Illustrator 16.0.0, SVG Export Plug-In . SVG Version: 6.00 Build 0)  -->
<!DOCTYPE svg PUBLIC "-//W3C//DTD SVG 1.1//EN" "http://www.w3.org/Graphics/SVG/1.1/DTD/svg11.dtd">
<svg version="1.1" id="Layer_1" xmlns="http://www.w3.org/2000/svg" xmlns:xlink="http://www.w3.org/1999/xlink" x="0px" y="0px"
	 width="16px" height="16px" viewBox="0 0 16 16" enable-background="new 0 0 16 16" xml:space="preserve">
<image overflow="visible" width="1920" height="1200" xlink:href="3ED22A2E.jpg"  transform="matrix(1 0 0 1 -8184 -8184)">
</image>
<g>
	<path fill="#60615A" d="M12.032,12.597H3.783c-0.247,0-0.446,0.199-0.446,0.445s0.199,0.446,0.446,0.446h8.249
		c0.247,0,0.447-0.2,0.447-0.446S12.279,12.597,12.032,12.597z"/>
	<path fill="#60615A" d="M9.912,14.862H5.863c-0.246,0-0.446,0.2-0.446,0.446s0.2,0.445,0.446,0.445h4.049
		c0.247,0,0.446-0.199,0.446-0.445S10.159,14.862,9.912,14.862z"/>
	<path fill="#60615A" d="M14.04,0.681c-0.96-0.618-2.104-0.824-3.217-0.582c-1.116,0.243-2.07,0.904-2.687,1.864
		C8.003,2.17,8.063,2.446,8.27,2.578c0.207,0.133,0.483,0.074,0.617-0.133c0.487-0.76,1.243-1.284,2.125-1.475
		c0.884-0.191,1.787-0.029,2.546,0.46c1.568,1.009,2.023,3.104,1.015,4.672c-0.133,0.207-0.073,0.483,0.134,0.616
		c0.073,0.047,0.158,0.071,0.24,0.071c0.146,0,0.29-0.072,0.376-0.205C16.596,4.604,16.021,1.955,14.04,0.681z"/>
	<path fill="#60615A" d="M13.088,6.356c-0.257-0.445-0.642-0.7-1.056-0.7c-0.412,0-0.796,0.255-1.054,0.7l-0.737,1.278
		c-0.108,0.188-0.22,0.254-0.282,0.254c-0.063,0-0.175-0.066-0.283-0.254L6.584,2.278C6.326,1.833,5.942,1.578,5.529,1.578
		S4.731,1.833,4.474,2.278L0.216,9.653c-0.257,0.445-0.286,0.906-0.08,1.265c0.207,0.357,0.62,0.563,1.134,0.563h12.667
		c0.514,0,0.928-0.206,1.134-0.563c0.206-0.358,0.178-0.819-0.079-1.265L13.088,6.356z M14.3,10.472
		c-0.032,0.054-0.146,0.117-0.362,0.117H1.271c-0.217,0-0.331-0.063-0.362-0.117c-0.032-0.054-0.029-0.184,0.08-0.372l4.258-7.375
		C5.355,2.536,5.466,2.47,5.529,2.47c0.063,0,0.173,0.066,0.282,0.254L8.904,8.08c0.257,0.445,0.642,0.701,1.055,0.701
		s0.797-0.255,1.055-0.701l0.737-1.278c0.108-0.188,0.219-0.255,0.281-0.255s0.176,0.067,0.284,0.255l1.902,3.297
		C14.328,10.288,14.331,10.418,14.3,10.472z"/>
</g>
</svg>
