<?xml version="1.0" encoding="utf-8"?>
<!-- Generator: Adobe Illustrator 16.0.0, SVG Export Plug-In . SVG Version: 6.00 Build 0)  -->
<!DOCTYPE svg PUBLIC "-//W3C//DTD SVG 1.1//EN" "http://www.w3.org/Graphics/SVG/1.1/DTD/svg11.dtd">
<svg version="1.1" id="Layer_1" xmlns="http://www.w3.org/2000/svg" xmlns:xlink="http://www.w3.org/1999/xlink" x="0px" y="0px"
	 width="16px" height="16px" viewBox="0 0 16 16" enable-background="new 0 0 16 16" xml:space="preserve">
<g>
	<rect x="1.288" y="1" fill="#60615A" width="13.425" height="1.471"/>
	<path fill="#60615A" d="M16,3.483H0v2.575h1.44v9.104c0,0.203,0.165,0.368,0.368,0.368h5.088c0.003,0,0.006,0,0.007,0
		c0.203,0,0.368-0.165,0.368-0.368c0-0.028-0.003-0.055-0.009-0.081c0-0.291,0.052-1.557,0.914-2.464
		c0.634-0.666,1.577-1.007,2.803-1.011c0.036,0.004,0.1,0.01,0.185,0.01c0.365,0,1.301-0.109,2.111-1.123
		c0.759-0.948,1.208-2.442,1.352-4.435H16V3.483z M12.7,10.033c-0.61,0.764-1.277,0.847-1.536,0.847
		c-0.057,0-0.094-0.005-0.101-0.005c-0.02-0.004-0.04-0.005-0.06-0.005c-1.451,0-2.583,0.419-3.366,1.245
		c-0.867,0.916-1.061,2.082-1.101,2.678H2.176V4.985h11.768C13.902,7.324,13.476,9.065,12.7,10.033z"/>
</g>
</svg>
