<?xml version="1.0" encoding="utf-8"?>
<!-- Generator: Adobe Illustrator 16.0.0, SVG Export Plug-In . SVG Version: 6.00 Build 0)  -->
<!DOCTYPE svg PUBLIC "-//W3C//DTD SVG 1.1//EN" "http://www.w3.org/Graphics/SVG/1.1/DTD/svg11.dtd">
<svg version="1.1" id="Layer_1" xmlns="http://www.w3.org/2000/svg" xmlns:xlink="http://www.w3.org/1999/xlink" x="0px" y="0px"
	 width="13.968px" height="16px" viewBox="0 0 13.968 16" enable-background="new 0 0 13.968 16" xml:space="preserve">
<path fill="#60615A" d="M9.72,12.718c-0.253-0.156-0.584-0.077-0.74,0.175c-0.784,1.272-2.144,2.032-3.636,2.032
	c-2.354,0-4.268-1.915-4.268-4.269c0-1.787,1.127-3.399,2.805-4.011c0.279-0.103,0.422-0.411,0.321-0.69
	C4.099,5.676,3.791,5.532,3.512,5.635C1.411,6.401,0,8.419,0,10.656C0,13.603,2.397,16,5.344,16c1.868,0,3.569-0.95,4.552-2.542
	C10.052,13.205,9.973,12.873,9.72,12.718"/>
<path fill="#60615A" d="M6.608,4.617c1.273,0,2.309-1.036,2.309-2.309S7.882,0,6.608,0C5.336,0,4.3,1.036,4.3,2.309
	S5.336,4.617,6.608,4.617 M6.608,1.076c0.68,0,1.233,0.553,1.233,1.233c0,0.68-0.554,1.233-1.233,1.233S5.376,2.989,5.376,2.309
	C5.376,1.629,5.929,1.076,6.608,1.076"/>
<path fill="#60615A" d="M13.749,11.941l-2.484-3.389c-0.211-0.287-0.549-0.458-0.904-0.458H8.379c-0.121,0-0.221-0.1-0.221-0.222
	V6.356c0-0.854-0.695-1.55-1.55-1.55s-1.55,0.695-1.55,1.55v3.542c0,0.854,0.695,1.55,1.55,1.55h2.739
	c0.014,0,0.027,0.007,0.036,0.019l1.714,2.355c0.181,0.249,0.457,0.414,0.758,0.452c0.106,0.014,0.224,0.023,0.348,0.023
	c0.367,0,0.793-0.08,1.149-0.363c0.35-0.277,0.555-0.687,0.609-1.215C13.99,12.442,13.915,12.167,13.749,11.941 M12.685,13.091
	c-0.201,0.159-0.552,0.134-0.691,0.116c-0.009-0.001-0.019-0.008-0.026-0.018l-1.713-2.356c-0.21-0.289-0.549-0.462-0.906-0.462
	H6.608c-0.261,0-0.474-0.213-0.474-0.474V6.356c0-0.262,0.213-0.474,0.474-0.474c0.262,0,0.474,0.212,0.474,0.474v1.517
	c0,0.038,0.005,0.074,0.012,0.109C7.149,8.646,7.701,9.17,8.379,9.17h1.981c0.015,0,0.028,0.007,0.036,0.019l2.485,3.39
	c0.007,0.009,0.012,0.021,0.011,0.031C12.868,12.841,12.8,12.999,12.685,13.091"/>
</svg>
