<?xml version="1.0" encoding="utf-8"?>
<!-- Generator: Adobe Illustrator 16.0.0, SVG Export Plug-In . SVG Version: 6.00 Build 0)  -->
<!DOCTYPE svg PUBLIC "-//W3C//DTD SVG 1.1//EN" "http://www.w3.org/Graphics/SVG/1.1/DTD/svg11.dtd">
<svg version="1.1" id="Layer_1" xmlns="http://www.w3.org/2000/svg" xmlns:xlink="http://www.w3.org/1999/xlink" x="0px" y="0px"
	 width="15.771px" height="16px" viewBox="0 0 15.771 16" enable-background="new 0 0 15.771 16" xml:space="preserve">
<path fill="#60615A" d="M0.596,5.293h0.738L2.073,7.88C2.146,8.136,2.38,8.313,2.646,8.313s0.5-0.177,0.573-0.433l0.739-2.586h0.565
	L5.263,7.88C5.336,8.136,5.57,8.313,5.835,8.313c0.267,0,0.5-0.177,0.573-0.433l0.739-2.586h0.511c0.329,0,0.596-0.267,0.596-0.596
	S7.988,4.101,7.659,4.101h-0.17l0.516-1.803c0.09-0.317-0.094-0.646-0.41-0.737S6.948,1.654,6.858,1.971l-0.609,2.13H5.423
	l-0.609-2.13C4.741,1.715,4.507,1.539,4.241,1.539s-0.5,0.176-0.573,0.432L3.06,4.101H2.234l-0.609-2.13
	c-0.091-0.316-0.42-0.499-0.737-0.409c-0.317,0.09-0.5,0.42-0.41,0.737l0.515,1.803H0.596C0.267,4.101,0,4.368,0,4.697
	S0.267,5.293,0.596,5.293 M5.908,5.293L5.835,5.546L5.763,5.293H5.908z M2.719,5.293L2.646,5.546L2.574,5.293H2.719z"/>
<path fill="#60615A" d="M7.886,0C7.557,0,7.291,0.268,7.291,0.597s0.267,0.596,0.596,0.596c3.691,0,6.694,3.003,6.694,6.694
	c0,0.329,0.268,0.596,0.596,0.596c0.33,0,0.596-0.267,0.596-0.596C15.771,3.538,12.235,0,7.886,0"/>
<path fill="#60615A" d="M7.886,14.581c-3.691,0-6.694-3.003-6.694-6.694c0-0.329-0.267-0.596-0.596-0.596S0,7.558,0,7.887
	c0,4.349,3.538,7.887,7.886,7.887c0.329,0,0.596-0.268,0.596-0.597S8.215,14.581,7.886,14.581"/>
<path fill="#60615A" d="M11.9,10.495V8.504c0.382,0.046,0.666,0.169,0.846,0.366c0.28,0.311,0.246,0.75,0.244,0.771
	c-0.038,0.324,0.194,0.618,0.518,0.659c0.326,0.043,0.625-0.191,0.666-0.518c0.012-0.099,0.102-0.981-0.527-1.694
	c-0.404-0.458-0.992-0.72-1.747-0.782V7.01c0-0.313-0.225-0.596-0.535-0.627c-0.357-0.036-0.657,0.244-0.657,0.593v0.38
	C9.15,7.608,8.429,8.573,8.429,9.481c0,0.459,0.185,1.845,2.278,2.134v2.196c-0.828-0.25-1.08-0.982-1.109-1.076
	c-0.095-0.333-0.454-0.519-0.786-0.394c-0.302,0.114-0.442,0.464-0.344,0.771c0.198,0.627,0.884,1.678,2.239,1.923v0.335
	c0,0.312,0.224,0.596,0.534,0.626c0.357,0.036,0.658-0.243,0.658-0.593v-0.356c1.76-0.231,2.506-1.299,2.506-2.149
	C14.406,12.052,13.865,10.651,11.9,10.495 M9.622,9.481c0-0.31,0.305-0.734,1.086-0.913v1.843
	C10.146,10.307,9.622,10.057,9.622,9.481 M11.9,13.843v-2.149c0.823,0.091,1.137,0.481,1.252,0.82
	c0.09,0.264,0.031,0.546-0.153,0.755C12.806,13.488,12.464,13.736,11.9,13.843"/>
</svg>
