<?xml version="1.0" encoding="utf-8"?>
<!-- Generator: Adobe Illustrator 16.0.0, SVG Export Plug-In . SVG Version: 6.00 Build 0)  -->
<!DOCTYPE svg PUBLIC "-//W3C//DTD SVG 1.1//EN" "http://www.w3.org/Graphics/SVG/1.1/DTD/svg11.dtd">
<svg version="1.1" id="Layer_1" xmlns="http://www.w3.org/2000/svg" xmlns:xlink="http://www.w3.org/1999/xlink" x="0px" y="0px"
	 width="17.803px" height="16px" viewBox="0 0 17.803 16" enable-background="new 0 0 17.803 16" xml:space="preserve">
<path fill="#60615A" d="M1.24,11.794c0.353,0,0.639-0.286,0.639-0.639v-5.07h4.168c0.353,0,0.639-0.287,0.639-0.639
	c0-0.353-0.286-0.639-0.639-0.639H1.878v-3.53h4.168c0.353,0,0.639-0.286,0.639-0.639S6.4,0,6.047,0H1.24
	C0.887,0,0.601,0.286,0.601,0.639v10.517C0.601,11.508,0.887,11.794,1.24,11.794"/>
<path fill="#60615A" d="M17.164,4.807h-6.31c-0.353,0-0.639,0.286-0.639,0.639v4.469h-5.07c-0.353,0-0.639,0.286-0.639,0.639v4.169
	H0.639C0.286,14.723,0,15.009,0,15.361S0.286,16,0.639,16h4.507c0.353,0,0.639-0.286,0.639-0.639v-4.169h5.07
	c0.353,0,0.639-0.286,0.639-0.639V6.085h5.671c0.353,0,0.639-0.286,0.639-0.639C17.803,5.093,17.517,4.807,17.164,4.807"/>
</svg>
