<?xml version="1.0" encoding="utf-8"?>
<!-- Generator: Adobe Illustrator 16.0.0, SVG Export Plug-In . SVG Version: 6.00 Build 0)  -->
<!DOCTYPE svg PUBLIC "-//W3C//DTD SVG 1.1//EN" "http://www.w3.org/Graphics/SVG/1.1/DTD/svg11.dtd">
<svg version="1.1" id="Layer_1" xmlns="http://www.w3.org/2000/svg" xmlns:xlink="http://www.w3.org/1999/xlink" x="0px" y="0px"
	 width="16px" height="16px" viewBox="0 0 16 16" enable-background="new 0 0 16 16" xml:space="preserve">
<path fill="#60615A" d="M158.576,239.053h-51.672c-3.191,0-5.79,2.598-5.79,5.79v51.672c0,3.192,2.599,5.79,5.79,5.79h51.672
	c3.191,0,5.79-2.598,5.79-5.79v-51.672C164.366,241.65,161.768,239.053,158.576,239.053 M160.114,296.515
	c0,0.849-0.69,1.538-1.538,1.538h-51.672c-0.848,0-1.538-0.689-1.538-1.538v-51.672c0-0.849,0.69-1.538,1.538-1.538h51.672
	c0.848,0,1.538,0.689,1.538,1.538V296.515z"/>
<path fill="#60615A" d="M149.49,256.053h-9.124v-5.161c0-1.727-1.405-3.132-3.132-3.132h-8.988c-1.727,0-3.132,1.405-3.132,3.132
	v5.161h-9.124c-3.24,0-5.876,2.637-5.876,5.876v24.5c0,3.24,2.636,5.876,5.876,5.876h33.5c3.24,0,5.876-2.636,5.876-5.876v-24.5
	C155.366,258.689,152.73,256.053,149.49,256.053 M141.114,288.053h-15.748v-27.748h15.748V288.053z M129.366,252.012h6.748v4.041
	h-6.748V252.012z M114.366,286.429v-24.5c0-0.896,0.728-1.624,1.624-1.624h5.124v27.748h-5.124
	C115.094,288.053,114.366,287.324,114.366,286.429 M151.114,286.429c0,0.896-0.729,1.624-1.624,1.624h-4.124v-27.748h4.124
	c0.895,0,1.624,0.729,1.624,1.624V286.429z"/>
<path fill="#60615A" d="M14.391,3.187h-1.578V1.215c0-0.67-0.545-1.215-1.215-1.215H4.402c-0.67,0-1.215,0.545-1.215,1.215v1.972
	H1.61C0.722,3.187,0,3.909,0,4.797v6.141c0,0.888,0.722,1.61,1.61,1.61h1.577v2.237c0,0.67,0.545,1.215,1.215,1.215h7.196
	c0.67,0,1.215-0.545,1.215-1.215v-2.237h1.578c0.887,0,1.609-0.723,1.609-1.61V4.797C16,3.909,15.277,3.187,14.391,3.187
	 M4.315,1.215c0-0.047,0.039-0.086,0.086-0.086h7.196c0.048,0,0.086,0.039,0.086,0.086v1.972H4.315V1.215z M11.684,14.785
	c0,0.048-0.038,0.086-0.086,0.086H4.402c-0.048,0-0.086-0.038-0.086-0.086V10.51c0-0.048,0.039-0.087,0.086-0.087h7.196
	c0.048,0,0.086,0.039,0.086,0.087V14.785z M14.871,10.938c0,0.266-0.215,0.481-0.48,0.481h-1.578V10.51
	c0-0.67-0.545-1.215-1.215-1.215H4.402c-0.67,0-1.215,0.545-1.215,1.215v0.909H1.61c-0.265,0-0.481-0.216-0.481-0.481V4.797
	c0-0.266,0.216-0.481,0.481-0.481h12.781c0.266,0,0.48,0.216,0.48,0.481V10.938z"/>
<path fill="#60615A" d="M7.734,6.107H3.751c-0.312,0-0.564,0.253-0.564,0.564c0,0.313,0.253,0.564,0.564,0.564h3.983
	c0.312,0,0.564-0.252,0.564-0.564C8.299,6.36,8.046,6.107,7.734,6.107"/>
</svg>
