<?xml version="1.0" encoding="utf-8"?>
<!-- Generator: Adobe Illustrator 16.0.0, SVG Export Plug-In . SVG Version: 6.00 Build 0)  -->
<!DOCTYPE svg PUBLIC "-//W3C//DTD SVG 1.1//EN" "http://www.w3.org/Graphics/SVG/1.1/DTD/svg11.dtd">
<svg version="1.1" id="Layer_1" xmlns="http://www.w3.org/2000/svg" xmlns:xlink="http://www.w3.org/1999/xlink" x="0px" y="0px"
	 width="27.739px" height="16px" viewBox="0 0 27.739 16" enable-background="new 0 0 27.739 16" xml:space="preserve">
<path fill="#60615A" d="M25.613,4.165H24.71V2.391C24.71,1.072,23.638,0,22.318,0h-1.372c-1.317,0-2.391,1.073-2.391,2.391v3.037
	H9.184V2.391C9.184,1.072,8.111,0,6.793,0H5.421C4.103,0,3.03,1.072,3.03,2.391v1.774H2.127C0.955,4.165,0,5.119,0,6.292v3.415
	c0,1.174,0.954,2.127,2.126,2.127H3.03v1.773C3.03,14.926,4.103,16,5.421,16h1.372c1.318,0,2.391-1.074,2.391-2.393v-3.035h9.372
	v3.035c0,1.318,1.073,2.393,2.391,2.393h1.372c1.319,0,2.392-1.074,2.392-2.393v-1.773h0.903c1.173,0,2.126-0.953,2.126-2.127V6.292
	C27.739,5.119,26.786,4.165,25.613,4.165 M2.127,10.225c-0.285,0-0.516-0.232-0.516-0.518V6.292c0-0.285,0.231-0.517,0.516-0.517
	H3.03v4.45H2.127z M7.574,13.607c0,0.432-0.35,0.781-0.781,0.781H5.421c-0.431,0-0.781-0.35-0.781-0.781V2.391
	c0-0.431,0.35-0.781,0.781-0.781h1.372c0.431,0,0.781,0.35,0.781,0.781V13.607z M9.184,7.038h9.372v1.924H9.184V7.038z M23.1,13.607
	c0,0.432-0.35,0.781-0.781,0.781h-1.372c-0.43,0-0.78-0.35-0.78-0.781V2.391c0-0.431,0.351-0.781,0.78-0.781h1.372
	c0.432,0,0.781,0.35,0.781,0.781V13.607z M26.13,9.707c0,0.285-0.232,0.518-0.517,0.518H24.71v-4.45h0.903
	c0.284,0,0.517,0.232,0.517,0.517V9.707z"/>
</svg>
