<?xml version="1.0" encoding="utf-8"?>
<!-- Generator: Adobe Illustrator 16.0.0, SVG Export Plug-In . SVG Version: 6.00 Build 0)  -->
<!DOCTYPE svg PUBLIC "-//W3C//DTD SVG 1.1//EN" "http://www.w3.org/Graphics/SVG/1.1/DTD/svg11.dtd">
<svg version="1.1" id="Layer_1" xmlns="http://www.w3.org/2000/svg" xmlns:xlink="http://www.w3.org/1999/xlink" x="0px" y="0px"
	 width="17.578px" height="16px" viewBox="0 0 17.578 16" enable-background="new 0 0 17.578 16" xml:space="preserve">
<path fill="#60615A" d="M158.576,239.053h-51.672c-3.191,0-5.79,2.598-5.79,5.79v51.672c0,3.192,2.599,5.79,5.79,5.79h51.672
	c3.191,0,5.79-2.598,5.79-5.79v-51.672C164.366,241.65,161.768,239.053,158.576,239.053 M160.114,296.515
	c0,0.849-0.69,1.538-1.538,1.538h-51.672c-0.848,0-1.538-0.689-1.538-1.538v-51.672c0-0.849,0.69-1.538,1.538-1.538h51.672
	c0.848,0,1.538,0.689,1.538,1.538V296.515z"/>
<path fill="#60615A" d="M149.49,256.053h-9.124v-5.161c0-1.727-1.405-3.132-3.132-3.132h-8.988c-1.727,0-3.132,1.405-3.132,3.132
	v5.161h-9.124c-3.24,0-5.876,2.637-5.876,5.876v24.5c0,3.24,2.636,5.876,5.876,5.876h33.5c3.24,0,5.876-2.636,5.876-5.876v-24.5
	C155.366,258.689,152.73,256.053,149.49,256.053 M141.114,288.053h-15.748v-27.748h15.748V288.053z M129.366,252.012h6.748v4.041
	h-6.748V252.012z M114.366,286.429v-24.5c0-0.896,0.728-1.624,1.624-1.624h5.124v27.748h-5.124
	C115.094,288.053,114.366,287.324,114.366,286.429 M151.114,286.429c0,0.896-0.729,1.624-1.624,1.624h-4.124v-27.748h4.124
	c0.895,0,1.624,0.729,1.624,1.624V286.429z"/>
<path fill="#60615A" d="M17.463,1.018c-0.143-0.31-0.412-0.55-0.736-0.658l-0.885-0.295c-0.51-0.171-1.07,0.004-1.391,0.435
	l-3.025,4.032c-0.22,0.293-0.582,0.437-0.942,0.377L2.498,3.578C1.72,3.449,0.963,3.739,0.472,4.354
	C-0.02,4.97-0.135,5.772,0.163,6.501l1.215,2.971c0.492,1.201,1.596,2.063,2.881,2.246h0.001c0,0.035-0.005,0.069-0.005,0.105
	C4.256,14.126,6.129,16,8.433,16c2.303,0,4.178-1.874,4.178-4.177c0-0.512-0.097-0.998-0.266-1.451
	c1.372-0.337,2.133-0.835,2.706-2.267l2.439-6.1C17.617,1.688,17.607,1.329,17.463,1.018 M15.449,1.247l0.885,0.296l-0.748,1.869
	l-1.332-0.573L15.449,1.247z M8.433,14.754c-1.616,0-2.931-1.314-2.931-2.931s1.315-2.932,2.931-2.932s2.931,1.315,2.931,2.932
	S10.049,14.754,8.433,14.754 M13.893,7.643c-0.408,1.021-0.773,1.3-2.184,1.596c-0.765-0.968-1.948-1.593-3.275-1.593
	c-1.837,0-3.397,1.193-3.956,2.845l-0.042-0.006C3.586,10.363,2.856,9.794,2.532,9L1.316,6.029C1.192,5.725,1.24,5.389,1.445,5.132
	c0.206-0.257,0.523-0.377,0.847-0.325l7.987,1.332c0.822,0.137,1.644-0.192,2.144-0.859l1.062-1.414l1.639,0.705L13.893,7.643z"/>
<path fill="#60615A" d="M6.817,11.823c-0.357,0-0.646,0.289-0.646,0.646c0,0.357,0.289,0.646,0.646,0.646s0.646-0.289,0.646-0.646
	C7.464,12.112,7.174,11.823,6.817,11.823"/>
<path fill="#60615A" d="M8.433,12.792c-0.357,0-0.646,0.29-0.646,0.646c0,0.357,0.289,0.646,0.646,0.646s0.646-0.289,0.646-0.646
	C9.08,13.082,8.79,12.792,8.433,12.792"/>
<path fill="#60615A" d="M9.402,12.146c0,0.356,0.29,0.646,0.646,0.646s0.646-0.289,0.646-0.646c0-0.357-0.289-0.646-0.646-0.646
	S9.402,11.789,9.402,12.146"/>
</svg>
