<?xml version="1.0" encoding="utf-8"?>
<!-- Generator: Adobe Illustrator 16.0.0, SVG Export Plug-In . SVG Version: 6.00 Build 0)  -->
<!DOCTYPE svg PUBLIC "-//W3C//DTD SVG 1.1//EN" "http://www.w3.org/Graphics/SVG/1.1/DTD/svg11.dtd">
<svg version="1.1" id="Layer_1" xmlns="http://www.w3.org/2000/svg" xmlns:xlink="http://www.w3.org/1999/xlink" x="0px" y="0px"
	 width="12.965px" height="16px" viewBox="0 0 12.965 16" enable-background="new 0 0 12.965 16" xml:space="preserve">
<g>
	<path fill="#60615A" d="M8.886,3.604C8.72,3.516,8.518,3.521,8.356,3.618C8.194,3.715,8.095,3.89,8.095,4.079v2.358
		C8.007,6.541,7.89,6.632,7.846,6.634C7.829,6.631,7.757,6.592,7.652,6.449V3.59c0.012-0.205,0.039-1.44-0.859-2.418
		C6.076,0.395,4.994,0,3.573,0C3.395,0,3.229,0.092,3.129,0.24c-0.1,0.147-0.119,0.338-0.052,0.504
		C3.102,0.807,3.67,2.283,2.138,4.255C0.341,6.564,0,7.932,0,9.645C0,10.987,1.079,16,6.355,16c5.229,0,6.609-4.157,6.609-6.355
		C12.965,6.45,10.747,4.597,8.886,3.604 M6.355,14.925c-4.384,0-5.28-4.166-5.28-5.28c0-1.288,0.142-2.454,1.91-4.729
		c1.235-1.589,1.353-2.979,1.264-3.802c0.764,0.093,1.349,0.353,1.743,0.777c0.646,0.692,0.587,1.631,0.587,1.637
		c-0.002,0.015-0.002,0.03-0.002,0.045v3.036c0,0.097,0.026,0.192,0.076,0.276c0.408,0.68,0.874,0.823,1.192,0.823
		c0.732,0,1.197-0.739,1.248-0.823c0.05-0.084,0.077-0.18,0.077-0.276V5.022c1.805,1.191,2.719,2.743,2.719,4.622
		C11.89,9.859,11.826,14.925,6.355,14.925"/>
	<path fill="#60615A" d="M5.344,7.083c-0.177,0-0.342,0.086-0.442,0.231c-0.378,0.548-1.612,2.408-1.612,3.342
		c0,1.133,0.922,2.055,2.055,2.055c1.134,0,2.056-0.922,2.056-2.055c0-0.934-1.234-2.794-1.612-3.342
		C5.687,7.169,5.521,7.083,5.344,7.083 M5.344,11.636c-0.54,0-0.979-0.439-0.979-0.979c0-0.324,0.454-1.21,0.979-2.054
		c0.526,0.844,0.98,1.729,0.98,2.054C6.324,11.196,5.885,11.636,5.344,11.636"/>
</g>
</svg>
