<?xml version="1.0" encoding="utf-8"?>
<!-- Generator: Adobe Illustrator 16.0.0, SVG Export Plug-In . SVG Version: 6.00 Build 0)  -->
<!DOCTYPE svg PUBLIC "-//W3C//DTD SVG 1.1//EN" "http://www.w3.org/Graphics/SVG/1.1/DTD/svg11.dtd">
<svg version="1.1" id="Layer_1" xmlns="http://www.w3.org/2000/svg" xmlns:xlink="http://www.w3.org/1999/xlink" x="0px" y="0px"
	 width="19.531px" height="20px" viewBox="0 0 19.531 20" enable-background="new 0 0 19.531 20" xml:space="preserve">
<path fill="#60615A" d="M14.396,0H5.134C2.303,0,0,2.304,0,5.134v14.869h1.235V5.134c0-2.15,1.75-3.899,3.899-3.899h9.262
	c2.151,0,3.899,1.749,3.899,3.899v14.869h1.235V5.134C19.531,2.304,17.229,0,14.396,0"/>
<path fill="#60615A" d="M13.169,3.231h-0.354V2.996c0-0.351-0.285-0.636-0.636-0.636H7.352c-0.351,0-0.636,0.285-0.636,0.636v0.235
	H6.363c-1.85,0-3.35,1.5-3.35,3.35v9.833c0,0.538,0.438,0.976,0.977,0.976h11.551c0.539,0,0.977-0.438,0.977-0.976V6.581
	C16.518,4.731,15.02,3.231,13.169,3.231 M5.845,15.428c-0.841,0-1.524-0.682-1.524-1.523s0.683-1.525,1.524-1.525
	c0.842,0,1.525,0.684,1.525,1.525S6.687,15.428,5.845,15.428 M13.687,15.428c-0.842,0-1.524-0.682-1.524-1.523
	s0.683-1.525,1.524-1.525s1.524,0.684,1.524,1.525S14.528,15.428,13.687,15.428 M15.319,9.184c0,1.043-0.845,1.889-1.888,1.889H6.1
	c-1.043,0-1.889-0.846-1.889-1.889V6.862c0-1.043,0.846-1.888,1.889-1.888h7.332c1.043,0,1.888,0.845,1.888,1.888V9.184z"/>
<path fill="#60615A" d="M14.411,18.144c-0.078-0.065-0.178-0.1-0.279-0.1H9.766H5.399c-0.102,0-0.2,0.034-0.278,0.1l-1.156,0.959
	c-0.101,0.083-0.042,0.247,0.089,0.247h5.712h5.711c0.132,0,0.191-0.164,0.09-0.247L14.411,18.144z"/>
</svg>
