<?xml version="1.0" encoding="utf-8"?>
<!-- Generator: Adobe Illustrator 16.0.0, SVG Export Plug-In . SVG Version: 6.00 Build 0)  -->
<!DOCTYPE svg PUBLIC "-//W3C//DTD SVG 1.1//EN" "http://www.w3.org/Graphics/SVG/1.1/DTD/svg11.dtd">
<svg version="1.1" id="Layer_1" xmlns="http://www.w3.org/2000/svg" xmlns:xlink="http://www.w3.org/1999/xlink" x="0px" y="0px"
	 width="16px" height="10.741px" viewBox="0 0 16 10.741" enable-background="new 0 0 16 10.741" xml:space="preserve">
<path fill="#60615A" d="M4.194,3.528c0.972,0,1.757-0.789,1.757-1.764C5.952,0.794,5.166,0,4.194,0C3.218,0,2.426,0.794,2.426,1.764
	C2.426,2.74,3.218,3.528,4.194,3.528"/>
<path fill="#60615A" d="M15.775,9.086l-4.401-7.623c-0.525-0.91-1.386-0.91-1.911,0L5.76,7.876L4.297,5.342
	c-0.526-0.911-1.386-0.911-1.911,0L0.224,9.086c-0.525,0.911-0.095,1.655,0.956,1.655h1.352h2.973h0.513h2.561h6.242
	C15.871,10.741,16.302,9.997,15.775,9.086z"/>
</svg>
