<?xml version="1.0" encoding="utf-8"?>
<!-- Generator: Adobe Illustrator 16.0.0, SVG Export Plug-In . SVG Version: 6.00 Build 0)  -->
<!DOCTYPE svg PUBLIC "-//W3C//DTD SVG 1.1//EN" "http://www.w3.org/Graphics/SVG/1.1/DTD/svg11.dtd">
<svg version="1.1" id="Layer_1" xmlns="http://www.w3.org/2000/svg" xmlns:xlink="http://www.w3.org/1999/xlink" x="0px" y="0px"
	 width="20px" height="20px" viewBox="0 0 20 20" enable-background="new 0 0 20 20" xml:space="preserve">
<path fill="#60615A" d="M14.333,18.394H9.902H5.47c-0.377,0-0.683,0.306-0.683,0.683s0.306,0.683,0.683,0.683h4.432h4.431
	c0.377,0,0.683-0.306,0.683-0.683S14.71,18.394,14.333,18.394"/>
<path fill="#60615A" d="M16.502,17.111c0.768-0.108,1.346-0.79,1.299-1.587L17.08,3.286c-0.059-0.99-0.879-1.763-1.871-1.763h-3.025
	v-0.38l0,0C12.17,0.509,11.652,0,11.018,0H9.901H8.785C8.149,0,7.633,0.509,7.619,1.142H7.617v0.38H4.594
	c-0.992,0-1.812,0.773-1.87,1.763L2.002,15.524c-0.047,0.797,0.531,1.479,1.299,1.587l-1.115,1.857
	c-0.192,0.32-0.088,0.734,0.231,0.926c0.109,0.064,0.228,0.096,0.346,0.096c0.229,0,0.453-0.117,0.579-0.327l1.521-2.535h5.037
	h5.036l1.523,2.535c0.125,0.21,0.348,0.327,0.578,0.327c0.117,0,0.236-0.031,0.346-0.096c0.32-0.191,0.424-0.605,0.232-0.926
	L16.502,17.111z M5.809,14.272c-0.788,0-1.427-0.639-1.427-1.427s0.639-1.427,1.427-1.427c0.789,0,1.428,0.639,1.428,1.427
	S6.598,14.272,5.809,14.272 M4.953,8.183V4.377h4.948h4.948v3.806H9.901H4.953z M13.992,14.272c-0.787,0-1.426-0.639-1.426-1.427
	s0.639-1.427,1.426-1.427c0.789,0,1.428,0.639,1.428,1.427S14.781,14.272,13.992,14.272"/>
</svg>
