<?xml version="1.0" encoding="utf-8"?>
<!-- Generator: Adobe Illustrator 16.0.0, SVG Export Plug-In . SVG Version: 6.00 Build 0)  -->
<!DOCTYPE svg PUBLIC "-//W3C//DTD SVG 1.1//EN" "http://www.w3.org/Graphics/SVG/1.1/DTD/svg11.dtd">
<svg version="1.1" id="Layer_1" xmlns="http://www.w3.org/2000/svg" xmlns:xlink="http://www.w3.org/1999/xlink" x="0px" y="0px"
	 width="16px" height="20px" viewBox="0 0 16 20" enable-background="new 0 0 16 20" xml:space="preserve">
<path fill="#60615A" d="M14.533,4.947h-1.251C13.103,2.189,10.803,0,8,0S2.897,2.189,2.718,4.947H1.467C0.657,4.947,0,5.604,0,6.414
	v12.139c0,0.81,0.657,1.467,1.467,1.467h13.066c0.811,0,1.467-0.657,1.467-1.467V6.414C16,5.604,15.344,4.947,14.533,4.947 M8,1.314
	c2.077,0,3.786,1.601,3.963,3.632H4.037C4.214,2.915,5.923,1.314,8,1.314 M3.826,8.425c-0.576,0-1.043-0.467-1.043-1.043
	S3.25,6.338,3.826,6.338S4.87,6.806,4.87,7.382S4.402,8.425,3.826,8.425 M12.406,8.425c-0.577,0-1.044-0.467-1.044-1.043
	s0.467-1.043,1.044-1.043c0.576,0,1.043,0.467,1.043,1.043S12.982,8.425,12.406,8.425"/>
</svg>
