<?xml version="1.0" encoding="utf-8"?>
<!-- Generator: Adobe Illustrator 16.0.0, SVG Export Plug-In . SVG Version: 6.00 Build 0)  -->
<!DOCTYPE svg PUBLIC "-//W3C//DTD SVG 1.1//EN" "http://www.w3.org/Graphics/SVG/1.1/DTD/svg11.dtd">
<svg version="1.1" id="Layer_1" xmlns="http://www.w3.org/2000/svg" xmlns:xlink="http://www.w3.org/1999/xlink" x="0px" y="0px"
	 width="20px" height="20px" viewBox="0 0 20 20" enable-background="new 0 0 20 20" xml:space="preserve">
<path fill="#60615A" d="M16.642,0.425c-0.48,0.233-0.914,0.55-1.29,0.928l-3.416,3.415c-0.123,0.123-0.29,0.192-0.464,0.192H1.814
	c-0.214,0-0.418,0.094-0.558,0.257L0.162,6.493c-0.188,0.22-0.092,0.562,0.184,0.651l6.906,2.219C7.48,9.436,7.549,9.724,7.38,9.894
	l-2.482,2.481l-3.824,0.132c-0.2,0.007-0.39,0.09-0.531,0.23l-0.437,0.438c-0.171,0.17-0.13,0.456,0.082,0.572l3.55,1.947
	c0.292,0.16,0.533,0.4,0.692,0.692l1.947,3.55c0.116,0.212,0.402,0.254,0.573,0.083l0.437-0.438c0.141-0.142,0.224-0.33,0.23-0.53
	l0.132-3.825l2.481-2.481c0.169-0.169,0.457-0.1,0.53,0.128l2.22,6.905c0.089,0.276,0.43,0.374,0.649,0.185l1.277-1.095
	c0.162-0.139,0.256-0.343,0.256-0.558V8.654c0-0.174,0.07-0.341,0.192-0.464l3.416-3.416c0.374-0.374,0.689-0.803,0.922-1.278
	c0.407-0.836,0.764-2.084-0.109-2.957C18.718-0.33,17.477,0.02,16.642,0.425 M18.446,3.392L17.59,2.536L16.734,1.68
	c0.855-0.855,1.712,0,1.712,0S19.301,2.536,18.446,3.392"/>
</svg>
