<?xml version="1.0" encoding="utf-8"?>
<!-- Generator: Adobe Illustrator 16.0.0, SVG Export Plug-In . SVG Version: 6.00 Build 0)  -->
<!DOCTYPE svg PUBLIC "-//W3C//DTD SVG 1.1//EN" "http://www.w3.org/Graphics/SVG/1.1/DTD/svg11.dtd">
<svg version="1.1" id="Layer_1" xmlns="http://www.w3.org/2000/svg" xmlns:xlink="http://www.w3.org/1999/xlink" x="0px" y="0px"
	 width="72.854px" height="89.344px" viewBox="0 0 72.854 89.344" enable-background="new 0 0 72.854 89.344" xml:space="preserve">
<g>
	<path fill="#60615A" d="M24.994,78.049c-0.062,3.481-2.909,6.295-6.404,6.295h-3.18c-3.496,0-6.342-2.813-6.404-6.295
		C3.648,79.06,0,81.051,0,83.344c0,3.313,7.611,6,17,6c9.389,0,17-2.687,17-6C34,81.051,30.351,79.06,24.994,78.049"/>
	<path fill="#60615A" d="M71.573,21.631L20,1.666l-4.054-1.568C15.009-0.266,14,0.426,14,1.431v76.503c0,0.779,0.631,1.41,1.41,1.41
		h3.18c0.778,0,1.41-0.631,1.41-1.41v-26.59v-2.373V29.344c0-1.656,1.343-3,3-3c1.656,0,3,1.344,3,3v14.598
		c0,1.068,1.105,1.777,2.077,1.333l43.606-19.956C73.295,24.582,73.225,22.27,71.573,21.631"/>
</g>
</svg>
