<?xml version="1.0" encoding="utf-8"?>
<!-- Generator: Adobe Illustrator 16.0.0, SVG Export Plug-In . SVG Version: 6.00 Build 0)  -->
<!DOCTYPE svg PUBLIC "-//W3C//DTD SVG 1.1//EN" "http://www.w3.org/Graphics/SVG/1.1/DTD/svg11.dtd">
<svg version="1.1" id="Layer_1" xmlns="http://www.w3.org/2000/svg" xmlns:xlink="http://www.w3.org/1999/xlink" x="0px" y="0px"
	 width="17.249px" height="16px" viewBox="0 0 17.249 16" enable-background="new 0 0 17.249 16" xml:space="preserve">
<path fill="#60615A" d="M4.504,4.505c0.153,0.154,0.358,0.238,0.575,0.238h0.234v3.361c0,0.448,0.365,0.813,0.813,0.813h5.014
	c0.448,0,0.813-0.364,0.813-0.813V4.744h0.233c0.218,0,0.422-0.084,0.575-0.238l0.873-0.874c0.306-0.305,0.318-0.797,0.029-1.118
	l-2.021-2.245C11.49,0.098,11.27,0,11.04,0h-0.638C10,0,9.663,0.29,9.601,0.69C9.528,1.162,9.111,1.518,8.633,1.518
	S7.737,1.162,7.664,0.69C7.603,0.29,7.266,0,6.862,0H6.226c-0.23,0-0.45,0.098-0.604,0.269L3.601,2.514
	c-0.289,0.322-0.276,0.813,0.03,1.118L4.504,4.505z M6.343,1.076h0.306c0.237,0.892,1.04,1.518,1.984,1.518s1.746-0.626,1.984-1.518
	h0.306l1.775,1.972l-0.62,0.62H11.69c-0.448,0-0.813,0.365-0.813,0.813v3.361h-4.49V4.481c0-0.448-0.365-0.813-0.813-0.813H5.188
	l-0.62-0.62L6.343,1.076z"/>
<path fill="#60615A" d="M16.857,7.352c-0.289-0.071-0.58,0.104-0.652,0.392l-0.84,3.375c-0.534-0.046-0.806-0.225-1.134-0.444
	c-0.425-0.284-0.954-0.638-2.014-0.638c-1.138,0-1.725,0.662-2.194,1.193c-0.471,0.53-0.767,0.83-1.391,0.83s-0.92-0.3-1.391-0.83
	c-0.471-0.531-1.057-1.193-2.195-1.193c-1.059,0-1.588,0.354-2.014,0.638c-0.328,0.22-0.599,0.398-1.134,0.444L1.06,7.743
	C0.988,7.455,0.696,7.28,0.408,7.352C0.12,7.424-0.055,7.715,0.016,8.004l1.889,7.588C1.965,15.832,2.18,16,2.427,16h12.412
	c0.247,0,0.462-0.168,0.521-0.408l1.889-7.588C17.321,7.715,17.146,7.424,16.857,7.352 M14.418,14.925H2.847l-0.686-2.758
	c0.708-0.097,1.125-0.369,1.47-0.599c0.381-0.255,0.683-0.457,1.416-0.457c0.624,0,0.92,0.301,1.39,0.831
	c0.471,0.531,1.057,1.193,2.195,1.193s1.725-0.662,2.195-1.193c0.47-0.53,0.766-0.831,1.39-0.831c0.733,0,1.035,0.202,1.417,0.457
	c0.344,0.229,0.762,0.502,1.47,0.599L14.418,14.925z"/>
<path fill="#60615A" d="M13.438,8.38c0,0.278,0.228,0.506,0.506,0.506c0.279,0,0.507-0.228,0.507-0.506
	c0-0.28-0.228-0.507-0.507-0.507C13.666,7.873,13.438,8.1,13.438,8.38"/>
<path fill="#60615A" d="M14.451,6.861c0.278,0,0.506-0.227,0.506-0.506S14.729,5.85,14.451,5.85c-0.279,0-0.507,0.226-0.507,0.505
	S14.172,6.861,14.451,6.861"/>
</svg>
