<?xml version="1.0" encoding="utf-8"?>
<!-- Generator: Adobe Illustrator 16.0.0, SVG Export Plug-In . SVG Version: 6.00 Build 0)  -->
<!DOCTYPE svg PUBLIC "-//W3C//DTD SVG 1.1//EN" "http://www.w3.org/Graphics/SVG/1.1/DTD/svg11.dtd">
<svg version="1.1" id="Layer_1" xmlns="http://www.w3.org/2000/svg" xmlns:xlink="http://www.w3.org/1999/xlink" x="0px" y="0px"
	 width="13.102px" height="16px" viewBox="0 0 13.102 16" enable-background="new 0 0 13.102 16" xml:space="preserve">
<path fill="#60615A" d="M158.576,239.053h-51.672c-3.191,0-5.79,2.598-5.79,5.79v51.672c0,3.192,2.599,5.79,5.79,5.79h51.672
	c3.191,0,5.79-2.598,5.79-5.79v-51.672C164.366,241.65,161.768,239.053,158.576,239.053 M160.114,296.515
	c0,0.849-0.69,1.538-1.538,1.538h-51.672c-0.848,0-1.538-0.689-1.538-1.538v-51.672c0-0.849,0.69-1.538,1.538-1.538h51.672
	c0.848,0,1.538,0.689,1.538,1.538V296.515z"/>
<path fill="#60615A" d="M149.49,256.053h-9.124v-5.161c0-1.727-1.405-3.132-3.132-3.132h-8.988c-1.727,0-3.132,1.405-3.132,3.132
	v5.161h-9.124c-3.24,0-5.876,2.637-5.876,5.876v24.5c0,3.24,2.636,5.876,5.876,5.876h33.5c3.24,0,5.876-2.636,5.876-5.876v-24.5
	C155.366,258.689,152.73,256.053,149.49,256.053 M141.114,288.053h-15.748v-27.748h15.748V288.053z M129.366,252.012h6.748v4.041
	h-6.748V252.012z M114.366,286.429v-24.5c0-0.896,0.728-1.624,1.624-1.624h5.124v27.748h-5.124
	C115.094,288.053,114.366,287.324,114.366,286.429 M151.114,286.429c0,0.896-0.729,1.624-1.624,1.624h-4.124v-27.748h4.124
	c0.895,0,1.624,0.729,1.624,1.624V286.429z"/>
<path fill="#60615A" d="M12.588,6.038H8.242c-0.284,0-0.514,0.229-0.514,0.513v3.371c0,0.018,0,0.035,0.002,0.052
	c0.001,0.019,0.004,0.037,0.007,0.056c0.104,0.588,0.686,1.633,2.165,1.832v3.112H9.208c-0.283,0-0.513,0.229-0.513,0.513
	S8.924,16,9.208,16h2.174c0.283,0,0.514-0.23,0.514-0.514s-0.23-0.513-0.514-0.513h-0.453v-3.112
	c1.479-0.199,2.061-1.244,2.166-1.832c0.002-0.019,0.006-0.037,0.006-0.056c0.002-0.017,0.002-0.034,0.002-0.052V6.551
	C13.102,6.268,12.873,6.038,12.588,6.038 M12.076,9.878c-0.045,0.17-0.327,0.989-1.661,0.989c-1.321,0-1.608-0.791-1.66-0.991V7.064
	h3.321V9.878z"/>
<path fill="#60615A" d="M4.649,4.473V0.514C4.649,0.23,4.419,0,4.136,0h-1.69C2.162,0,1.932,0.23,1.932,0.514v3.843
	C0.798,4.84,0,5.966,0,7.275v8.211C0,15.771,0.23,16,0.514,16h5.313c0.284,0,0.514-0.229,0.514-0.514V7.275
	C6.34,6.062,5.654,5.005,4.649,4.473 M2.959,1.027h0.664v3.111C3.475,4.117,3.324,4.105,3.17,4.105
	c-0.071,0-0.141,0.002-0.211,0.007V1.027z M1.027,8.514h1.872v3.078H1.027V8.514z M5.313,14.974H1.027v-2.354h2.385
	c0.284,0,0.514-0.23,0.514-0.514V8c0-0.283-0.23-0.514-0.514-0.514H1.027V7.275c0-1.182,0.961-2.143,2.143-2.143
	c1.182,0,2.144,0.961,2.144,2.143V14.974z"/>
</svg>
