<?xml version="1.0" encoding="utf-8"?>
<!-- Generator: Adobe Illustrator 16.0.0, SVG Export Plug-In . SVG Version: 6.00 Build 0)  -->
<!DOCTYPE svg PUBLIC "-//W3C//DTD SVG 1.1//EN" "http://www.w3.org/Graphics/SVG/1.1/DTD/svg11.dtd">
<svg version="1.1" id="Layer_1" xmlns="http://www.w3.org/2000/svg" xmlns:xlink="http://www.w3.org/1999/xlink" x="0px" y="0px"
	 width="16px" height="16px" viewBox="0 0 16 16" enable-background="new 0 0 16 16" xml:space="preserve">
<path fill="#60615A" d="M158.576,239.053h-51.672c-3.191,0-5.79,2.598-5.79,5.79v51.672c0,3.192,2.599,5.79,5.79,5.79h51.672
	c3.191,0,5.79-2.598,5.79-5.79v-51.672C164.366,241.65,161.768,239.053,158.576,239.053 M160.114,296.515
	c0,0.849-0.69,1.538-1.538,1.538h-51.672c-0.848,0-1.538-0.689-1.538-1.538v-51.672c0-0.849,0.69-1.538,1.538-1.538h51.672
	c0.848,0,1.538,0.689,1.538,1.538V296.515z"/>
<path fill="#60615A" d="M149.49,256.053h-9.124v-5.161c0-1.727-1.405-3.132-3.132-3.132h-8.988c-1.727,0-3.132,1.405-3.132,3.132
	v5.161h-9.124c-3.24,0-5.876,2.637-5.876,5.876v24.5c0,3.24,2.636,5.876,5.876,5.876h33.5c3.24,0,5.876-2.636,5.876-5.876v-24.5
	C155.366,258.689,152.73,256.053,149.49,256.053 M141.114,288.053h-15.748v-27.748h15.748V288.053z M129.366,252.012h6.748v4.041
	h-6.748V252.012z M114.366,286.429v-24.5c0-0.896,0.728-1.624,1.624-1.624h5.124v27.748h-5.124
	C115.094,288.053,114.366,287.324,114.366,286.429 M151.114,286.429c0,0.896-0.729,1.624-1.624,1.624h-4.124v-27.748h4.124
	c0.895,0,1.624,0.729,1.624,1.624V286.429z"/>
<path fill="#60615A" d="M14.535,0H1.465C0.657,0,0,0.657,0,1.465v13.07C0,15.343,0.657,16,1.465,16h13.07
	C15.343,16,16,15.343,16,14.535V1.465C16,0.657,15.343,0,14.535,0 M14.925,14.535c0,0.215-0.175,0.39-0.39,0.39H1.465
	c-0.215,0-0.389-0.175-0.389-0.39V1.465c0-0.215,0.174-0.389,0.389-0.389h13.07c0.215,0,0.39,0.174,0.39,0.389V14.535z"/>
<path fill="#60615A" d="M12.237,4.3H9.929V2.995c0-0.437-0.355-0.792-0.792-0.792H6.863c-0.437,0-0.792,0.355-0.792,0.792V4.3H3.763
	c-0.82,0-1.487,0.667-1.487,1.486v6.198c0,0.819,0.667,1.486,1.487,1.486h8.474c0.82,0,1.487-0.667,1.487-1.486V5.787
	C13.724,4.967,13.057,4.3,12.237,4.3 M10.118,12.395H6.135V5.376h3.983V12.395z M7.146,3.278h1.707V4.3H7.146V3.278z M3.352,11.984
	V5.787c0-0.227,0.184-0.411,0.411-0.411h1.296v7.019H3.763C3.536,12.395,3.352,12.211,3.352,11.984 M12.647,11.984
	c0,0.227-0.185,0.41-0.411,0.41h-1.043V5.376h1.043c0.226,0,0.411,0.184,0.411,0.411V11.984z"/>
</svg>
