<?xml version="1.0" encoding="utf-8"?>
<!-- Generator: Adobe Illustrator 16.0.0, SVG Export Plug-In . SVG Version: 6.00 Build 0)  -->
<!DOCTYPE svg PUBLIC "-//W3C//DTD SVG 1.1//EN" "http://www.w3.org/Graphics/SVG/1.1/DTD/svg11.dtd">
<svg version="1.1" id="Layer_1" xmlns="http://www.w3.org/2000/svg" xmlns:xlink="http://www.w3.org/1999/xlink" x="0px" y="0px"
	 width="14.74px" height="16px" viewBox="0 0 14.74 16" enable-background="new 0 0 14.74 16" xml:space="preserve">
<path fill="#60615A" d="M158.576,239.053h-51.672c-3.191,0-5.79,2.598-5.79,5.79v51.672c0,3.192,2.599,5.79,5.79,5.79h51.672
	c3.191,0,5.79-2.598,5.79-5.79v-51.672C164.366,241.65,161.768,239.053,158.576,239.053 M160.114,296.515
	c0,0.849-0.69,1.538-1.538,1.538h-51.672c-0.848,0-1.538-0.689-1.538-1.538v-51.672c0-0.849,0.69-1.538,1.538-1.538h51.672
	c0.848,0,1.538,0.689,1.538,1.538V296.515z"/>
<path fill="#60615A" d="M149.49,256.053h-9.124v-5.161c0-1.727-1.405-3.132-3.132-3.132h-8.988c-1.727,0-3.132,1.405-3.132,3.132
	v5.161h-9.124c-3.24,0-5.876,2.637-5.876,5.876v24.5c0,3.24,2.636,5.876,5.876,5.876h33.5c3.24,0,5.876-2.636,5.876-5.876v-24.5
	C155.366,258.689,152.73,256.053,149.49,256.053 M141.114,288.053h-15.748v-27.748h15.748V288.053z M129.366,252.012h6.748v4.041
	h-6.748V252.012z M114.366,286.429v-24.5c0-0.896,0.728-1.624,1.624-1.624h5.124v27.748h-5.124
	C115.094,288.053,114.366,287.324,114.366,286.429 M151.114,286.429c0,0.896-0.729,1.624-1.624,1.624h-4.124v-27.748h4.124
	c0.895,0,1.624,0.729,1.624,1.624V286.429z"/>
<path fill="#60615A" d="M5.571,6.106c1.684,0,3.053-1.37,3.053-3.053C8.625,1.369,7.255,0,5.571,0c-1.684,0-3.053,1.37-3.053,3.054
	C2.518,4.737,3.888,6.106,5.571,6.106 M5.571,1.07c1.093,0,1.983,0.89,1.983,1.983s-0.89,1.982-1.983,1.982S3.589,4.146,3.589,3.053
	S4.478,1.07,5.571,1.07"/>
<path fill="#60615A" d="M14.477,13.935c0.002-0.007,0.004-0.014,0.008-0.021c0.164-0.397,0.256-0.834,0.256-1.292
	c0-0.457-0.092-0.894-0.256-1.292c-0.004-0.007-0.006-0.014-0.008-0.021c-0.514-1.213-1.716-2.065-3.114-2.065
	c-0.423,0-0.826,0.082-1.199,0.224C9.123,7.953,7.406,7.05,5.571,7.05C2.5,7.05,0,9.55,0,12.621v2.77
	c0,0.296,0.24,0.536,0.535,0.536h9.222c0.149,0,0.284-0.062,0.381-0.16C10.519,15.915,10.93,16,11.362,16h0l0,0h0
	C12.76,16,13.963,15.147,14.477,13.935 M9.182,14.147h0.854c0.142,0.338,0.323,0.679,0.545,1.021
	C10.008,14.992,9.518,14.627,9.182,14.147 M10.383,10.146c-0.181,0.26-0.358,0.576-0.493,0.95H9.182
	C9.479,10.672,9.896,10.339,10.383,10.146 M11.363,10.082c0.196,0.198,0.486,0.541,0.701,1.014h-1.402
	C10.876,10.623,11.167,10.28,11.363,10.082 M9.796,13.434h-0.97c-0.083-0.256-0.128-0.529-0.128-0.813s0.045-0.556,0.128-0.812H9.71
	c-0.005,0.033-0.012,0.066-0.017,0.101C9.63,12.409,9.666,12.918,9.796,13.434 M10.82,14.147h1.084
	c-0.145,0.296-0.326,0.597-0.542,0.899C11.146,14.744,10.965,14.443,10.82,14.147 M10.541,13.434
	c-0.146-0.486-0.197-0.962-0.141-1.423c0.008-0.069,0.021-0.136,0.033-0.201h1.859c0.012,0.065,0.024,0.132,0.032,0.201
	c0.058,0.461,0.006,0.937-0.141,1.423H10.541z M13.031,11.91c-0.004-0.034-0.012-0.067-0.016-0.101H13.9
	c0.082,0.256,0.127,0.528,0.127,0.812s-0.045,0.557-0.127,0.813h-0.97C13.061,12.918,13.096,12.409,13.031,11.91 M13.545,11.096
	h-0.709c-0.135-0.374-0.313-0.69-0.493-0.95C12.83,10.339,13.246,10.672,13.545,11.096 M1.071,12.621c0-2.481,2.019-4.5,4.5-4.5
	c1.454,0,2.814,0.702,3.659,1.883c-0.424,0.347-0.764,0.793-0.98,1.305c-0.003,0.007-0.005,0.014-0.008,0.021
	c-0.166,0.397-0.258,0.834-0.258,1.291c0,0.458,0.092,0.894,0.258,1.292c0.002,0.008,0.005,0.015,0.008,0.021
	c0.144,0.34,0.344,0.649,0.585,0.922H1.071V12.621z M12.145,15.169c0.222-0.343,0.404-0.684,0.546-1.021h0.854
	C13.207,14.627,12.717,14.992,12.145,15.169"/>
</svg>
