<?xml version="1.0" encoding="utf-8"?>
<!-- Generator: Adobe Illustrator 16.0.0, SVG Export Plug-In . SVG Version: 6.00 Build 0)  -->
<!DOCTYPE svg PUBLIC "-//W3C//DTD SVG 1.1//EN" "http://www.w3.org/Graphics/SVG/1.1/DTD/svg11.dtd">
<svg version="1.1" id="Layer_1" xmlns="http://www.w3.org/2000/svg" xmlns:xlink="http://www.w3.org/1999/xlink" x="0px" y="0px"
	 width="14.388px" height="16px" viewBox="0 0 14.388 16" enable-background="new 0 0 14.388 16" xml:space="preserve">
<path fill="#60615A" d="M158.576,239.053h-51.672c-3.191,0-5.79,2.598-5.79,5.79v51.672c0,3.192,2.599,5.79,5.79,5.79h51.672
	c3.191,0,5.79-2.598,5.79-5.79v-51.672C164.366,241.65,161.768,239.053,158.576,239.053 M160.114,296.515
	c0,0.849-0.69,1.538-1.538,1.538h-51.672c-0.848,0-1.538-0.689-1.538-1.538v-51.672c0-0.849,0.69-1.538,1.538-1.538h51.672
	c0.848,0,1.538,0.689,1.538,1.538V296.515z"/>
<path fill="#60615A" d="M149.49,256.053h-9.124v-5.161c0-1.727-1.405-3.132-3.132-3.132h-8.988c-1.727,0-3.132,1.405-3.132,3.132
	v5.161h-9.124c-3.24,0-5.876,2.637-5.876,5.876v24.5c0,3.24,2.636,5.876,5.876,5.876h33.5c3.24,0,5.876-2.636,5.876-5.876v-24.5
	C155.366,258.689,152.73,256.053,149.49,256.053 M141.114,288.053h-15.748v-27.748h15.748V288.053z M129.366,252.012h6.748v4.041
	h-6.748V252.012z M114.366,286.429v-24.5c0-0.896,0.728-1.624,1.624-1.624h5.124v27.748h-5.124
	C115.094,288.053,114.366,287.324,114.366,286.429 M151.114,286.429c0,0.896-0.729,1.624-1.624,1.624h-4.124v-27.748h4.124
	c0.895,0,1.624,0.729,1.624,1.624V286.429z"/>
<path fill="#60615A" d="M3.306,2.398c0.125,0,0.25-0.042,0.353-0.128c0.014-0.012,1.427-1.168,3.536-1.168
	c2.081,0,3.509,1.147,3.537,1.169c0.103,0.085,0.228,0.127,0.352,0.127c0.157,0,0.314-0.067,0.424-0.199
	c0.194-0.233,0.163-0.581-0.071-0.776C11.365,1.366,9.698,0,7.194,0C4.69,0,3.022,1.366,2.953,1.424
	C2.719,1.619,2.688,1.966,2.882,2.2C2.991,2.331,3.148,2.398,3.306,2.398"/>
<path fill="#60615A" d="M1.381,10.93C0.416,6.587,2.307,3.882,2.327,3.854C2.504,3.609,2.45,3.265,2.204,3.086
	c-0.246-0.179-0.591-0.125-0.77,0.122c-0.091,0.125-2.208,3.108-1.129,7.961c0.057,0.257,0.285,0.432,0.538,0.432
	c0.039,0,0.08-0.005,0.12-0.013C1.26,11.521,1.447,11.227,1.381,10.93"/>
<path fill="#60615A" d="M4.602,8.49c1.376,0,2.495-0.945,2.495-2.106c0-1.162-1.119-2.107-2.495-2.107S2.106,5.222,2.106,6.384
	C2.106,7.545,3.226,8.49,4.602,8.49 M4.602,5.379c0.755,0,1.393,0.459,1.393,1.004c0,0.544-0.638,1.004-1.393,1.004
	c-0.755,0-1.393-0.46-1.393-1.004C3.208,5.839,3.847,5.379,4.602,5.379"/>
<path fill="#60615A" d="M12.953,3.208c-0.178-0.247-0.523-0.301-0.77-0.122s-0.301,0.523-0.121,0.77
	c0.02,0.026,1.916,2.7,0.944,7.073c-0.066,0.297,0.121,0.592,0.418,0.658c0.041,0.008,0.081,0.013,0.12,0.013
	c0.253,0,0.48-0.175,0.537-0.432C15.161,6.316,13.044,3.333,12.953,3.208"/>
<path fill="#60615A" d="M7.394,16c3.645-0.146,5.714-2.681,5.803-2.792c0.176-0.219,0.158-0.535-0.041-0.734l-1.555-1.555
	c-0.216-0.215-0.564-0.215-0.78,0c-0.215,0.216-0.215,0.564,0,0.779L12,12.876c-0.677,0.654-2.351,1.979-4.806,2.024
	c-2.442-0.046-4.125-1.373-4.805-2.025l1.176-1.177c0.216-0.215,0.216-0.563,0-0.779c-0.215-0.215-0.564-0.215-0.779,0l-1.556,1.555
	c-0.198,0.199-0.216,0.516-0.041,0.734C1.279,13.319,3.349,15.854,6.994,16H7.394z"/>
<path fill="#60615A" d="M8.295,11.225c0.238-0.166,0.445-0.397,0.566-0.716c0.104-0.276,0.006-0.604-0.259-0.732
	c-0.306-0.147-0.66,0.01-0.764,0.321c-0.045,0.138-0.159,0.228-0.285,0.287c-0.253,0.119-0.56,0.106-0.796-0.041
	c-0.09-0.057-0.166-0.133-0.203-0.237c-0.08-0.22-0.275-0.387-0.51-0.388c-0.406-0.001-0.655,0.38-0.539,0.728
	c0.133,0.4,0.397,0.672,0.697,0.85c0.288,0.171,0.625,0.241,0.96,0.241h0.053C7.597,11.537,7.981,11.444,8.295,11.225"/>
<path fill="#60615A" d="M12.281,6.384c0-1.162-1.119-2.107-2.495-2.107S7.291,5.222,7.291,6.384c0,1.161,1.119,2.106,2.495,2.106
	S12.281,7.545,12.281,6.384 M8.393,6.384c0-0.545,0.638-1.004,1.393-1.004c0.755,0,1.393,0.459,1.393,1.004
	c0,0.544-0.638,1.004-1.393,1.004C9.031,7.388,8.393,6.928,8.393,6.384"/>
</svg>
