<?xml version="1.0" encoding="utf-8"?>
<!-- Generator: Adobe Illustrator 16.0.0, SVG Export Plug-In . SVG Version: 6.00 Build 0)  -->
<!DOCTYPE svg PUBLIC "-//W3C//DTD SVG 1.1//EN" "http://www.w3.org/Graphics/SVG/1.1/DTD/svg11.dtd">
<svg version="1.1" id="Layer_1" xmlns="http://www.w3.org/2000/svg" xmlns:xlink="http://www.w3.org/1999/xlink" x="0px" y="0px"
	 width="16px" height="16px" viewBox="0 0 16 16" enable-background="new 0 0 16 16" xml:space="preserve">
<path fill="#60615A" d="M3.767,6.289c0.034,0,0.069-0.004,0.104-0.011c0.287-0.057,0.473-0.336,0.416-0.623
	C4.27,5.574,4.258,5.297,4.367,5.165c0.066-0.081,0.199-0.122,0.396-0.122c0.043,0,0.087-0.005,0.128-0.016
	c0.598-0.149,1.393-0.835,1.138-2.111C5.971,2.629,5.693,2.443,5.406,2.5C5.12,2.558,4.934,2.836,4.991,3.124
	c0.12,0.601-0.157,0.8-0.315,0.862C4.071,4.009,3.729,4.271,3.548,4.493c-0.449,0.547-0.316,1.287-0.3,1.37
	C3.298,6.114,3.519,6.289,3.767,6.289"/>
<path fill="#60615A" d="M13.662,2.354c-0.002-0.003-0.004-0.006-0.008-0.009c-0.002-0.003-0.006-0.005-0.008-0.008
	C12.197,0.894,10.201,0,8,0C3.589,0,0,3.589,0,8c0,4.412,3.589,8,8,8c4.412,0,8-3.588,8-8C16,5.798,15.105,3.803,13.662,2.354
	 M8,1.059c1.724,0,3.3,0.633,4.515,1.676L8.777,6.475H3.99c-0.964,0-1.749,0.784-1.749,1.749v0.051c0,0.964,0.784,1.749,1.749,1.749
	h1.238l-2.493,2.492C1.692,11.301,1.059,9.723,1.059,8C1.059,4.173,4.173,1.059,8,1.059 M12.012,7.533
	c0.379,0,0.688,0.31,0.688,0.69v0.051c0,0.381-0.309,0.69-0.688,0.69H11.02V7.533H12.012z M9.961,7.533v1.431H7.784l1.433-1.431
	H9.961z M6.287,8.964H3.99c-0.38,0-0.69-0.309-0.69-0.69V8.224c0-0.381,0.31-0.69,0.69-0.69h3.729L6.287,8.964z M8,14.941
	c-1.724,0-3.301-0.633-4.517-1.676l3.241-3.242h5.287c0.963,0,1.748-0.785,1.748-1.749V8.224c0-0.965-0.785-1.749-1.748-1.749
	h-1.736l2.99-2.99C14.309,4.699,14.941,6.277,14.941,8C14.941,11.826,11.828,14.941,8,14.941"/>
</svg>
