<?xml version="1.0" encoding="utf-8"?>
<!-- Generator: Adobe Illustrator 16.0.0, SVG Export Plug-In . SVG Version: 6.00 Build 0)  -->
<!DOCTYPE svg PUBLIC "-//W3C//DTD SVG 1.1//EN" "http://www.w3.org/Graphics/SVG/1.1/DTD/svg11.dtd">
<svg version="1.1" id="Layer_1" xmlns="http://www.w3.org/2000/svg" xmlns:xlink="http://www.w3.org/1999/xlink" x="0px" y="0px"
	 width="16px" height="16px" viewBox="0 0 16 16" enable-background="new 0 0 16 16" xml:space="preserve">
<path fill="#60615A" d="M158.576,239.053h-51.672c-3.191,0-5.79,2.598-5.79,5.79v51.672c0,3.192,2.599,5.79,5.79,5.79h51.672
	c3.191,0,5.79-2.598,5.79-5.79v-51.672C164.366,241.65,161.768,239.053,158.576,239.053 M160.114,296.515
	c0,0.849-0.69,1.538-1.538,1.538h-51.672c-0.848,0-1.538-0.689-1.538-1.538v-51.672c0-0.849,0.69-1.538,1.538-1.538h51.672
	c0.848,0,1.538,0.689,1.538,1.538V296.515z"/>
<path fill="#60615A" d="M149.49,256.053h-9.124v-5.161c0-1.727-1.405-3.132-3.132-3.132h-8.988c-1.727,0-3.132,1.405-3.132,3.132
	v5.161h-9.124c-3.24,0-5.876,2.637-5.876,5.876v24.5c0,3.24,2.636,5.876,5.876,5.876h33.5c3.24,0,5.876-2.636,5.876-5.876v-24.5
	C155.366,258.689,152.73,256.053,149.49,256.053 M141.114,288.053h-15.748v-27.748h15.748V288.053z M129.366,252.012h6.748v4.041
	h-6.748V252.012z M114.366,286.429v-24.5c0-0.896,0.728-1.624,1.624-1.624h5.124v27.748h-5.124
	C115.094,288.053,114.366,287.324,114.366,286.429 M151.114,286.429c0,0.896-0.729,1.624-1.624,1.624h-4.124v-27.748h4.124
	c0.895,0,1.624,0.729,1.624,1.624V286.429z"/>
<g>
	<path fill="#60615A" d="M3.766,6.288c0.034,0,0.069-0.003,0.104-0.01c0.287-0.058,0.472-0.336,0.415-0.623
		C4.27,5.574,4.258,5.297,4.367,5.165c0.066-0.081,0.199-0.122,0.396-0.122c0.043,0,0.086-0.006,0.128-0.016
		c0.597-0.149,1.393-0.835,1.138-2.111C5.971,2.629,5.693,2.443,5.406,2.5C5.119,2.558,4.933,2.837,4.991,3.124
		c0.12,0.601-0.157,0.8-0.315,0.862C4.071,4.009,3.729,4.272,3.548,4.494c-0.449,0.547-0.317,1.287-0.3,1.369
		C3.298,6.114,3.519,6.288,3.766,6.288"/>
	<path fill="#60615A" d="M13.662,2.354c-0.002-0.003-0.004-0.006-0.008-0.009c-0.002-0.003-0.006-0.005-0.01-0.008
		C12.198,0.894,10.202,0,8,0C3.589,0,0,3.589,0,8s3.589,8,8,8c4.411,0,8-3.589,8-8C16,5.799,15.105,3.803,13.662,2.354 M8,1.059
		c1.723,0,3.301,0.633,4.516,1.677L8.777,6.475H3.99c-0.964,0-1.749,0.784-1.749,1.748v0.053c0,0.964,0.784,1.748,1.749,1.748h1.238
		l-2.492,2.492C1.691,11.301,1.059,9.724,1.059,8C1.059,4.172,4.172,1.059,8,1.059 M12.01,7.533c0.38,0,0.689,0.31,0.689,0.689
		v0.053c0,0.38-0.31,0.689-0.689,0.689H11.02V7.533H12.01z M9.96,7.533v1.432H7.784l1.431-1.432H9.96z M6.287,8.965H3.99
		c-0.38,0-0.69-0.31-0.69-0.689V8.223c0-0.38,0.31-0.689,0.69-0.689h3.728L6.287,8.965z M8,14.941c-1.724,0-3.301-0.633-4.516-1.677
		l3.241-3.241h5.285c0.965,0,1.748-0.784,1.748-1.748V8.223c0-0.964-0.783-1.748-1.748-1.748h-1.736l2.991-2.991
		C14.309,4.699,14.941,6.276,14.941,8C14.941,11.827,11.828,14.941,8,14.941"/>
</g>
</svg>
