<?xml version="1.0" encoding="utf-8"?>
<!-- Generator: Adobe Illustrator 16.0.0, SVG Export Plug-In . SVG Version: 6.00 Build 0)  -->
<!DOCTYPE svg PUBLIC "-//W3C//DTD SVG 1.1//EN" "http://www.w3.org/Graphics/SVG/1.1/DTD/svg11.dtd">
<svg version="1.1" id="Layer_1" xmlns="http://www.w3.org/2000/svg" xmlns:xlink="http://www.w3.org/1999/xlink" x="0px" y="0px"
	 width="14.648px" height="16px" viewBox="0 0 14.648 16" enable-background="new 0 0 14.648 16" xml:space="preserve">
<path fill="#60615A" d="M158.576,239.053h-51.672c-3.191,0-5.79,2.598-5.79,5.79v51.672c0,3.192,2.599,5.79,5.79,5.79h51.672
	c3.191,0,5.79-2.598,5.79-5.79v-51.672C164.366,241.65,161.768,239.053,158.576,239.053 M160.114,296.515
	c0,0.849-0.69,1.538-1.538,1.538h-51.672c-0.848,0-1.538-0.689-1.538-1.538v-51.672c0-0.849,0.69-1.538,1.538-1.538h51.672
	c0.848,0,1.538,0.689,1.538,1.538V296.515z"/>
<path fill="#60615A" d="M149.49,256.053h-9.124v-5.161c0-1.727-1.405-3.132-3.132-3.132h-8.988c-1.727,0-3.132,1.405-3.132,3.132
	v5.161h-9.124c-3.24,0-5.876,2.637-5.876,5.876v24.5c0,3.24,2.636,5.876,5.876,5.876h33.5c3.24,0,5.876-2.636,5.876-5.876v-24.5
	C155.366,258.689,152.73,256.053,149.49,256.053 M141.114,288.053h-15.748v-27.748h15.748V288.053z M129.366,252.012h6.748v4.041
	h-6.748V252.012z M114.366,286.429v-24.5c0-0.896,0.728-1.624,1.624-1.624h5.124v27.748h-5.124
	C115.094,288.053,114.366,287.324,114.366,286.429 M151.114,286.429c0,0.896-0.729,1.624-1.624,1.624h-4.124v-27.748h4.124
	c0.895,0,1.624,0.729,1.624,1.624V286.429z"/>
<path fill="#60615A" d="M14.428,12.531l-1.498-1.498c-0.113-0.113-0.176-0.264-0.176-0.424V8c0-2.35-1.504-4.351-3.598-5.105V1.831
	C9.156,0.821,8.334,0,7.324,0S5.493,0.821,5.493,1.831v1.063C3.398,3.648,1.895,5.649,1.895,8v2.61c0,0.16-0.063,0.311-0.176,0.424
	l-1.498,1.498c-0.216,0.215-0.28,0.537-0.164,0.818c0.117,0.283,0.39,0.465,0.695,0.465h4.005C4.959,15.051,6.032,16,7.324,16
	c1.293,0,2.365-0.949,2.566-2.186h4.005c0.306,0,0.578-0.182,0.695-0.465C14.708,13.068,14.644,12.746,14.428,12.531 M6.585,1.831
	c0-0.407,0.332-0.739,0.739-0.739s0.739,0.332,0.739,0.739v0.795C7.821,2.593,7.576,2.57,7.324,2.57
	c-0.251,0-0.497,0.023-0.739,0.056V1.831z M7.324,14.906c-0.687,0-1.268-0.461-1.45-1.092h1.45h1.45
	C8.592,14.445,8.012,14.906,7.324,14.906 M7.324,12.723H1.576l0.916-0.916c0.32-0.32,0.496-0.746,0.496-1.197V8
	c0-2.392,1.946-4.337,4.337-4.337c2.392,0,4.337,1.945,4.337,4.337v2.61c0,0.451,0.176,0.877,0.496,1.197l0.916,0.916H7.324z"/>
</svg>
