<?xml version="1.0" encoding="utf-8"?>
<!-- Generator: Adobe Illustrator 16.0.0, SVG Export Plug-In . SVG Version: 6.00 Build 0)  -->
<!DOCTYPE svg PUBLIC "-//W3C//DTD SVG 1.1//EN" "http://www.w3.org/Graphics/SVG/1.1/DTD/svg11.dtd">
<svg version="1.1" id="Layer_1" xmlns="http://www.w3.org/2000/svg" xmlns:xlink="http://www.w3.org/1999/xlink" x="0px" y="0px"
	 width="16.76px" height="16px" viewBox="0 0 16.76 16" enable-background="new 0 0 16.76 16" xml:space="preserve">
<path fill="#60615A" d="M8.508,6.174c0,0-2.948,0.036-4.365,3.153c-1.053,2.317-1.887,4.881-0.089,6.32
	c0.351,0.28,0.711,0.391,1.066,0.391c0.754,0,1.488-0.493,2.074-0.887c0.479-0.322,0.975-0.655,1.313-0.655
	c0.338,0,0.834,0.333,1.313,0.654c0.863,0.58,2.045,1.373,3.142,0.497c1.009-0.808,1.788-2.19-0.09-6.32
	C11.455,6.21,8.508,6.174,8.508,6.174 M12.235,14.738c-0.387,0.311-0.857,0.057-1.766-0.553c-0.624-0.42-1.27-0.853-1.962-0.853
	s-1.338,0.433-1.962,0.853c-0.909,0.609-1.378,0.863-1.766,0.553c-0.947-0.758-0.825-2.186,0.422-4.93
	c0.542-1.192,1.354-1.81,2.038-2.13c0.81-0.378,1.734-0.382,2.544-0.003c0.68,0.317,1.484,0.935,2.029,2.133
	C13.061,12.553,13.183,13.98,12.235,14.738"/>
<path fill="#60615A" d="M6.207,5.292c1.043,0,1.859-1.154,1.859-2.627c0-1.473-0.816-2.627-1.859-2.627
	c-1.043,0-1.86,1.154-1.86,2.627C4.347,4.138,5.164,5.292,6.207,5.292 M6.207,1.201c0.277,0,0.696,0.583,0.696,1.463
	S6.484,4.128,6.207,4.128c-0.278,0-0.697-0.584-0.697-1.464S5.929,1.201,6.207,1.201"/>
<path fill="#60615A" d="M1.86,3.361C0.817,3.361,0,4.516,0,5.989s0.817,2.626,1.86,2.626s1.86-1.153,1.86-2.626
	S2.903,3.361,1.86,3.361 M1.86,7.452c-0.278,0-0.697-0.583-0.697-1.463c0-0.88,0.419-1.464,0.697-1.464
	c0.277,0,0.696,0.583,0.696,1.464C2.557,6.869,2.138,7.452,1.86,7.452"/>
<path fill="#60615A" d="M10.553,5.292c1.043,0,1.86-1.154,1.86-2.627c0-1.473-0.817-2.627-1.86-2.627S8.693,1.192,8.693,2.665
	C8.693,4.138,9.51,5.292,10.553,5.292 M10.553,1.201c0.278,0,0.697,0.583,0.697,1.463s-0.419,1.464-0.697,1.464
	c-0.277,0-0.696-0.584-0.696-1.464S10.275,1.201,10.553,1.201"/>
<path fill="#60615A" d="M14.899,3.361c-1.043,0-1.86,1.154-1.86,2.627s0.817,2.626,1.86,2.626s1.86-1.153,1.86-2.626
	S15.942,3.361,14.899,3.361 M14.899,7.452c-0.277,0-0.696-0.583-0.696-1.463c0-0.88,0.419-1.464,0.696-1.464
	s0.696,0.583,0.696,1.464C15.596,6.869,15.177,7.452,14.899,7.452"/>
</svg>
