<?xml version="1.0" encoding="utf-8"?>
<!-- Generator: Adobe Illustrator 16.0.0, SVG Export Plug-In . SVG Version: 6.00 Build 0)  -->
<!DOCTYPE svg PUBLIC "-//W3C//DTD SVG 1.1//EN" "http://www.w3.org/Graphics/SVG/1.1/DTD/svg11.dtd">
<svg version="1.1" id="Layer_1" xmlns="http://www.w3.org/2000/svg" xmlns:xlink="http://www.w3.org/1999/xlink" x="0px" y="0px"
	 width="19.053px" height="16px" viewBox="0 0 19.053 16" enable-background="new 0 0 19.053 16" xml:space="preserve">
<path fill="#60615A" d="M158.576,239.053h-51.672c-3.191,0-5.79,2.598-5.79,5.79v51.672c0,3.192,2.599,5.79,5.79,5.79h51.672
	c3.191,0,5.79-2.598,5.79-5.79v-51.672C164.366,241.65,161.768,239.053,158.576,239.053 M160.114,296.515
	c0,0.849-0.69,1.538-1.538,1.538h-51.672c-0.848,0-1.538-0.689-1.538-1.538v-51.672c0-0.849,0.69-1.538,1.538-1.538h51.672
	c0.848,0,1.538,0.689,1.538,1.538V296.515z"/>
<path fill="#60615A" d="M149.49,256.053h-9.124v-5.161c0-1.727-1.405-3.132-3.132-3.132h-8.988c-1.727,0-3.132,1.405-3.132,3.132
	v5.161h-9.124c-3.24,0-5.876,2.637-5.876,5.876v24.5c0,3.24,2.636,5.876,5.876,5.876h33.5c3.24,0,5.876-2.636,5.876-5.876v-24.5
	C155.366,258.689,152.73,256.053,149.49,256.053 M141.114,288.053h-15.748v-27.748h15.748V288.053z M129.366,252.012h6.748v4.041
	h-6.748V252.012z M114.366,286.429v-24.5c0-0.896,0.728-1.624,1.624-1.624h5.124v27.748h-5.124
	C115.094,288.053,114.366,287.324,114.366,286.429 M151.114,286.429c0,0.896-0.729,1.624-1.624,1.624h-4.124v-27.748h4.124
	c0.895,0,1.624,0.729,1.624,1.624V286.429z"/>
<path fill="#60615A" d="M6.717,6.283C6.2,6.283,5.78,6.842,5.78,7.532S6.2,8.781,6.717,8.781s0.937-0.56,0.937-1.249
	S7.234,6.283,6.717,6.283"/>
<path fill="#60615A" d="M18.73,7.825l-0.456,0.114c0.021-0.334,0.032-0.678,0.032-1.031c0-0.036-0.001-0.07-0.001-0.105l0.747-0.188
	L18.73,5.327l-0.482,0.121c-0.36-4.332-2.289-5.292-2.529-5.394c-0.26-0.112-0.562-0.046-0.752,0.164l-2.924,3.217H7.01L4.086,0.218
	c-0.19-0.209-0.493-0.275-0.752-0.164c-0.24,0.103-2.169,1.062-2.529,5.394L0.322,5.327L0,6.615l0.747,0.188
	c0,0.035-0.001,0.069-0.001,0.105c0,0.354,0.012,0.697,0.033,1.031L0.322,7.825L0,9.113l0.944,0.234C1.7,13.711,4.627,16,9.526,16
	c4.899,0,7.826-2.289,8.583-6.652l0.943-0.234L18.73,7.825z M9.526,14.674c-4.017,0-6.376-1.635-7.158-4.969l2.626,0.656
	l0.322-1.287L2.144,8.28C2.108,7.914,2.086,7.534,2.08,7.135l2.915,0.729l0.322-1.288L2.112,5.775c0.178-2.573,0.944-3.74,1.4-4.215
	l2.713,2.985C6.352,4.683,6.53,4.762,6.717,4.762h5.619c0.187,0,0.365-0.079,0.491-0.217l2.712-2.983
	c0.462,0.479,1.225,1.648,1.402,4.213l-3.205,0.801l0.321,1.288l2.915-0.729c-0.006,0.398-0.027,0.778-0.063,1.145l-3.173,0.794
	l0.321,1.287l2.627-0.656C15.902,13.039,13.543,14.674,9.526,14.674"/>
<path fill="#60615A" d="M12.336,6.283c-0.517,0-0.937,0.559-0.937,1.249s0.419,1.249,0.937,1.249c0.518,0,0.937-0.56,0.937-1.249
	S12.854,6.283,12.336,6.283"/>
</svg>
