<?xml version="1.0" encoding="utf-8"?>
<!-- Generator: Adobe Illustrator 16.0.0, SVG Export Plug-In . SVG Version: 6.00 Build 0)  -->
<!DOCTYPE svg PUBLIC "-//W3C//DTD SVG 1.1//EN" "http://www.w3.org/Graphics/SVG/1.1/DTD/svg11.dtd">
<svg version="1.1" id="Layer_1" xmlns="http://www.w3.org/2000/svg" xmlns:xlink="http://www.w3.org/1999/xlink" x="0px" y="0px"
	 width="50px" height="50px" viewBox="0 0 50 50" enable-background="new 0 0 50 50" xml:space="preserve">
<g>
	<path fill-rule="evenodd" clip-rule="evenodd" fill="#FFFFFF" d="M43.044,11.629c0.666-0.179,1.343-0.323,1.99-0.551
		c0.437-0.153,0.67-0.079,0.912,0.32c0.249,0.407-0.104,0.532-0.258,0.733c-0.412,0.538-0.857,1.049-1.365,1.665
		c0.809-0.246,1.514-0.435,2.199-0.68c0.343-0.123,0.548-0.088,0.706,0.249c0.091,0.192,0.229,0.363,0.364,0.574
		c-1.376,0.391-2.716,0.77-4.054,1.153c-0.136,0.039-0.19-0.023-0.263-0.117c-0.561-0.713-0.561-0.711,0.002-1.404
		c0.334-0.41,0.666-0.821,1.064-1.312c-0.738,0.197-1.389,0.355-2.027,0.55c-0.289,0.09-0.454,0.06-0.621-0.22
		c-0.371-0.619-0.389-0.608,0.082-1.169c0.752-0.896,1.503-1.79,2.256-2.686c0.016-0.02,0.043-0.031,0.087-0.062
		c0.173,0.257,0.333,0.521,0.52,0.766c0.14,0.183,0.002,0.269-0.092,0.375c-0.511,0.58-1.024,1.158-1.538,1.735
		C43.021,11.577,43.032,11.603,43.044,11.629z"/>
	<path fill-rule="evenodd" clip-rule="evenodd" fill="#FFFFFF" d="M2.226,25.258c-0.695-0.273-1.28-0.52-1.878-0.731
		C0.094,24.437-0.007,24.322,0,24.037c0.021-0.731,0.003-0.731,0.726-0.848c1.045-0.167,2.093-0.328,3.136-0.509
		c0.22-0.038,0.304-0.038,0.311,0.227c0.022,0.813,0.035,0.813-0.763,0.929c-0.47,0.068-0.941,0.134-1.411,0.202
		c-0.005,0-0.008,0.019-0.033,0.075c0.619,0.253,1.239,0.505,1.857,0.761c0.18,0.072,0.377,0.102,0.383,0.387
		c0.007,0.291-0.212,0.286-0.368,0.353c-0.617,0.267-1.241,0.518-1.849,0.848c0.623,0.087,1.245,0.186,1.871,0.254
		c0.263,0.029,0.371,0.104,0.366,0.396c-0.011,0.766,0.007,0.757-0.768,0.628c-1.018-0.17-2.037-0.332-3.058-0.484
		C0.153,27.218,0,27.149,0.047,26.856c0.021-0.131,0.003-0.272-0.018-0.406c-0.042-0.265,0.087-0.381,0.324-0.467
		C0.951,25.767,1.539,25.526,2.226,25.258z"/>
	<path fill-rule="evenodd" clip-rule="evenodd" fill="#FFFFFF" d="M15.209,46.254c0.361-0.701,0.681-1.294,0.973-1.901
		c0.129-0.269,0.238-0.348,0.53-0.181c0.619,0.354,0.629,0.335,0.297,0.979c-0.478,0.93-0.962,1.855-1.427,2.791
		c-0.109,0.221-0.192,0.241-0.424,0.149c-0.516-0.201-0.777-0.519-0.843-1.092c-0.09-0.779-0.285-1.546-0.456-2.424
		c-0.349,0.674-0.67,1.255-0.95,1.855c-0.142,0.304-0.257,0.395-0.582,0.204c-0.586-0.342-0.599-0.318-0.291-0.916
		c0.483-0.941,0.976-1.879,1.444-2.827c0.118-0.239,0.207-0.249,0.455-0.156c0.529,0.203,0.761,0.548,0.831,1.106
		C14.861,44.609,15.041,45.363,15.209,46.254z"/>
	<path fill-rule="evenodd" clip-rule="evenodd" fill="#FFFFFF" d="M8.084,12.543c-0.005,1.109-0.961,2.163-2.03,2.238
		c-1.122,0.079-2.274-0.817-2.449-1.905c-0.169-1.063,0.593-2.25,1.619-2.519c0.026-0.008,0.051-0.019,0.078-0.025
		c0.648-0.14,0.714-0.058,0.616,0.585c-0.054,0.354-0.14,0.53-0.559,0.532c-0.476,0.002-0.808,0.532-0.735,1.035
		c0.11,0.754,0.991,1.347,1.732,1.168c0.562-0.136,0.925-0.797,0.69-1.258c-0.104-0.206-0.217-0.333-0.371-0.034
		c-0.037,0.073-0.099,0.133-0.133,0.205c-0.115,0.246-0.236,0.296-0.483,0.115c-0.417-0.306-0.431-0.286-0.137-0.734
		c0.253-0.387,0.502-0.775,0.755-1.161c0.064-0.098,0.111-0.226,0.276-0.107C7.6,11.139,8.087,11.691,8.084,12.543z"/>
	<path fill-rule="evenodd" clip-rule="evenodd" fill="#FFFFFF" d="M22.745,47.181c-0.135,0.744-0.303,1.666-0.469,2.586
		c-0.013,0.07-0.026,0.152-0.111,0.139c-0.308-0.049-0.621-0.084-0.915-0.178c-0.127-0.041-0.037-0.225-0.018-0.334
		c0.113-0.642,0.237-1.281,0.359-1.922c0.043-0.228,0.089-0.462,0.01-0.685c-0.114-0.319-0.38-0.466-0.701-0.456
		c-0.349,0.01-0.594,0.213-0.666,0.556c-0.15,0.717-0.288,1.438-0.406,2.16c-0.052,0.317-0.128,0.456-0.502,0.368
		c-0.663-0.156-0.669-0.126-0.542-0.805c0.101-0.533,0.236-1.063,0.297-1.601c0.19-1.667,1.75-1.978,2.903-1.346
		C22.508,45.95,22.767,46.398,22.745,47.181z"/>
	<path fill-rule="evenodd" clip-rule="evenodd" fill="#FFFFFF" d="M33.245,46.889c-0.887,0.042-1.244-0.181-1.454-0.906
		c-0.199-0.686,0.073-1.264,0.774-1.647c0.469-0.256,0.967-0.34,1.496-0.281c0.222,0.024,0.324,0.107,0.256,0.34
		c-0.02,0.064-0.034,0.135-0.029,0.201c0.029,0.367-0.059,0.553-0.488,0.414c-0.229-0.074-0.486-0.025-0.708,0.106
		c-0.179,0.107-0.284,0.247-0.228,0.471c0.055,0.216,0.22,0.264,0.405,0.26c0.218-0.004,0.433-0.031,0.65-0.042
		c0.649-0.033,0.96,0.139,1.179,0.648c0.256,0.596,0.16,1.176-0.285,1.567c-0.477,0.422-1.063,0.507-1.675,0.497
		c-0.157-0.003-0.179-0.079-0.159-0.205c0.013-0.08,0.029-0.163,0.028-0.243c-0.005-0.324,0.038-0.573,0.475-0.462
		c0.114,0.03,0.268-0.035,0.388-0.091c0.17-0.077,0.289-0.212,0.244-0.42c-0.043-0.205-0.211-0.228-0.381-0.228
		C33.571,46.868,33.409,46.882,33.245,46.889z"/>
	<path fill-rule="evenodd" clip-rule="evenodd" fill="#FFFFFF" d="M24.024,0.001c0.052,0.006,0.217,0.009,0.376,0.041
		c0.714,0.14,0.706,0.147,0.418,0.804c-0.104,0.238-0.201,0.276-0.412,0.141c-0.086-0.056-0.205-0.071-0.311-0.083
		c-0.246-0.026-0.494,0.011-0.559,0.286c-0.07,0.295,0.191,0.344,0.398,0.406c0.182,0.054,0.369,0.094,0.55,0.151
		c0.578,0.185,0.85,0.498,0.885,1.036c0.039,0.588-0.133,1.085-0.693,1.359c-0.724,0.356-1.447,0.275-2.158-0.063
		c-0.132-0.063-0.185-0.144-0.089-0.282c0.045-0.065,0.072-0.146,0.097-0.224c0.114-0.352,0.25-0.574,0.656-0.257
		c0.2,0.156,0.482,0.179,0.744,0.095c0.165-0.054,0.291-0.153,0.306-0.342c0.015-0.191-0.091-0.311-0.259-0.369
		c-0.166-0.057-0.336-0.104-0.508-0.145c-0.814-0.189-1.14-0.57-1.082-1.276c0.062-0.754,0.562-1.236,1.327-1.278
		C23.777-0.002,23.846,0.001,24.024,0.001z"/>
	<path fill-rule="evenodd" clip-rule="evenodd" fill="#FFFFFF" d="M47.868,22.97c0.544-0.026,1.088-0.037,1.631-0.086
		c0.307-0.027,0.431,0.046,0.429,0.38c-0.005,0.557,0.025,1.115,0.069,1.671c0.02,0.256-0.053,0.352-0.307,0.325
		c-0.105-0.011-0.218-0.001-0.324,0.017c-0.225,0.034-0.33-0.037-0.314-0.28c0.012-0.188-0.009-0.38-0.015-0.57
		c-0.011-0.388-0.228-0.529-0.591-0.396c-0.104,0.038-0.108,0.103-0.104,0.187c0.009,0.136,0.018,0.271,0.025,0.408
		c0.032,0.623,0.031,0.606-0.588,0.653c-0.256,0.019-0.346-0.055-0.34-0.301c0.005-0.176-0.039-0.355-0.016-0.528
		c0.041-0.325-0.101-0.375-0.391-0.364c-0.271,0.011-0.371,0.085-0.316,0.354c0.023,0.119,0.017,0.244,0.021,0.367
		c0.026,0.6,0.025,0.58-0.583,0.615c-0.29,0.018-0.339-0.099-0.345-0.341c-0.014-0.598-0.035-1.197-0.074-1.794
		c-0.014-0.219,0.08-0.247,0.258-0.246c0.625,0.004,1.249,0.002,1.873,0.002C47.868,23.018,47.868,22.993,47.868,22.97z"/>
	<path fill-rule="evenodd" clip-rule="evenodd" fill="#FFFFFF" d="M14.564,5.424c0.165,0.257,0.283,0.49,0.448,0.686
		c0.252,0.299,0.162,0.501-0.093,0.747c-0.688,0.664-1.672,0.865-2.519,0.479c-0.82-0.375-1.311-1.248-1.236-2.199
		c0.073-0.904,0.73-1.671,1.633-1.926c0.243-0.069,0.396-0.038,0.518,0.206c0.129,0.264,0.308,0.502,0.475,0.77
		c-0.919-0.024-1.444,0.318-1.527,0.974c-0.066,0.526,0.324,1.1,0.847,1.244C13.727,6.571,14.239,6.237,14.564,5.424z"/>
	<path fill-rule="evenodd" clip-rule="evenodd" fill="#FFFFFF" d="M45.587,39.328c-0.274,0.333-0.506,0.599-0.718,0.878
		c-0.13,0.171-0.283,0.111-0.441,0.094c-1.053-0.121-1.063-0.117-0.745,0.867c0.079,0.251,0.068,0.43-0.119,0.621
		c-0.207,0.211-0.384,0.45-0.622,0.736c-0.2-0.745-0.399-1.426-0.56-2.115c-0.076-0.321-0.213-0.564-0.481-0.761
		c-0.339-0.249-0.648-0.536-0.979-0.796c-0.15-0.118-0.196-0.192-0.054-0.372c0.534-0.667,0.563-0.714,1.165-0.12
		c0.621,0.612,1.328,0.867,2.181,0.855C44.642,39.21,45.07,39.283,45.587,39.328z"/>
	<path fill-rule="evenodd" clip-rule="evenodd" fill="#FFFFFF" d="M30.29,1.546c-0.715-0.065-0.712-0.064-0.827,0.648
		c-0.112,0.696-0.245,1.39-0.345,2.088c-0.04,0.285-0.152,0.345-0.425,0.29c-0.729-0.146-0.729-0.135-0.597-0.869
		c0.125-0.695,0.229-1.393,0.373-2.083c0.066-0.325-0.047-0.437-0.35-0.457c-0.154-0.012-0.416,0.019-0.43-0.136
		c-0.021-0.26,0.064-0.533,0.133-0.794c0.023-0.085,0.145-0.033,0.221-0.021c0.762,0.129,1.521,0.268,2.287,0.386
		c0.242,0.037,0.33,0.132,0.262,0.373c-0.037,0.13-0.063,0.266-0.073,0.4C30.507,1.531,30.44,1.595,30.29,1.546z"/>
	<path fill-rule="evenodd" clip-rule="evenodd" fill="#FFFFFF" d="M10.964,9.674c-0.224,0.211-0.436,0.468-0.702,0.642
		c-0.164,0.106-0.251-0.148-0.351-0.251C9.131,9.251,8.368,8.42,7.583,7.611C7.382,7.402,7.396,7.292,7.605,7.103
		c0.544-0.495,0.533-0.506,1.04,0.032c0.708,0.751,1.416,1.501,2.123,2.254C10.84,9.464,10.938,9.523,10.964,9.674z"/>
	<path fill-rule="evenodd" clip-rule="evenodd" fill="#FFFFFF" d="M4.066,35.117c-0.361,0.009-0.651-0.264-0.662-0.623
		c-0.012-0.383,0.27-0.677,0.65-0.676c0.354,0,0.652,0.292,0.653,0.641C4.709,34.807,4.415,35.108,4.066,35.117z"/>
	<path fill-rule="evenodd" clip-rule="evenodd" d="M26.985,10.941c0.035-0.046,0.07-0.093,0.106-0.139
		c0.099,0.05,0.212,0.094,0.068,0.22C27.101,10.995,27.043,10.969,26.985,10.941z"/>
	<path fill-rule="evenodd" clip-rule="evenodd" fill="#FFFFFF" d="M27.585,45.563c-1.346-0.002-2.374,0.961-2.365,2.217
		c0.009,1.276,0.966,2.217,2.261,2.221c1.349,0.002,2.367-0.952,2.363-2.217C29.839,46.509,28.879,45.563,27.585,45.563z
		 M27.513,48.939c-0.639-0.01-1.162-0.546-1.149-1.177c0.011-0.63,0.552-1.146,1.19-1.137c0.641,0.008,1.16,0.541,1.148,1.178
		C28.69,48.441,28.159,48.95,27.513,48.939z"/>
	<path fill-rule="evenodd" clip-rule="evenodd" fill="#FFFFFF" d="M11.676,41.083c-0.332-0.302-0.649-0.62-0.976-0.928
		c-0.396-0.371-0.875-0.531-1.476-0.542c-0.806,0.053-1.487,0.417-1.829,1.245c-0.34,0.823-0.226,1.604,0.386,2.272
		c0.321,0.351,0.69,0.655,1.023,0.995c0.142,0.146,0.227,0.131,0.358-0.008c0.841-0.888,1.685-1.774,2.54-2.651
		C11.864,41.302,11.82,41.215,11.676,41.083z M10.298,41.342c-0.435,0.449-0.873,0.896-1.294,1.356
		c-0.147,0.162-0.231,0.108-0.356-0.012c-0.362-0.353-0.474-0.783-0.302-1.225C8.527,40.994,9,40.661,9.475,40.666
		c0.359-0.014,0.607,0.194,0.852,0.417C10.446,41.192,10.38,41.259,10.298,41.342z"/>
	<path fill-rule="evenodd" clip-rule="evenodd" fill="#FFFFFF" d="M49.062,18.373c-0.122-0.445-0.245-0.889-0.366-1.333
		c-0.04-0.144-0.081-0.237-0.275-0.179c-1.196,0.349-2.396,0.685-3.597,1.021c-0.114,0.033-0.225,0.054-0.175,0.203
		c0.218,0.655,0.307,1.354,0.62,1.976c0.261,0.518,0.704,0.745,1.189,0.656c0.615-0.114,0.871-0.383,0.977-1.043
		c0.514,0.234,0.992,0.194,1.358-0.111C49.183,19.238,49.185,18.817,49.062,18.373z M46.319,19.605
		c-0.256,0.027-0.566-0.34-0.537-0.699c0.03-0.377,0.43-0.302,0.633-0.317c0.328-0.027,0.193,0.35,0.275,0.505
		C46.718,19.406,46.597,19.578,46.319,19.605z M47.79,18.88c-0.287-0.015-0.434-0.261-0.397-0.473
		c0.048-0.282,0.386-0.219,0.597-0.268c0.265-0.06,0.125,0.236,0.223,0.325C48.177,18.729,48.052,18.894,47.79,18.88z"/>
	<path fill-rule="evenodd" clip-rule="evenodd" fill="#FFFFFF" d="M49.478,28.197c-1.012-0.186-2.021-0.389-3.034-0.577
		c-0.745-0.139-0.739-0.133-0.889,0.617c-0.045,0.227-0.029,0.345,0.244,0.379c0.388,0.047,0.769,0.147,1.228,0.241
		c-0.256,0.105-0.436,0.216-0.627,0.252c-0.926,0.179-1.32,0.762-1.319,1.666c0,0.012,0.004,0.025,0.017,0.098
		c0.564-0.28,1.107-0.552,1.652-0.819c0.095-0.046,0.188-0.159,0.255,0.071c0.196,0.674,0.602,0.951,1.281,0.931
		c0.62-0.019,1.024-0.364,1.177-1.031c0.107-0.476,0.178-0.96,0.295-1.434C49.823,28.319,49.718,28.242,49.478,28.197z
		 M48.194,29.927c-0.357-0.021-0.484-0.243-0.473-0.588c0.053-0.107-0.066-0.399,0.201-0.311c0.27,0.091,0.707-0.101,0.793,0.313
		C48.782,29.662,48.481,29.944,48.194,29.927z"/>
	<path fill-rule="evenodd" clip-rule="evenodd" fill="#FFFFFF" d="M47.927,34.23c-0.926-0.419-1.84-0.867-2.759-1.301
		c-0.747-0.354-0.741-0.351-1.087,0.403c-0.086,0.186-0.078,0.271,0.128,0.357c0.362,0.151,0.71,0.34,1.171,0.565
		c-0.622,0.083-1.114,0.154-1.607,0.213c-0.146,0.017-0.252,0.048-0.318,0.198c-0.145,0.335-0.307,0.661-0.492,1.054
		c0.717-0.149,1.375-0.286,2.031-0.423c0.016,0.036,0.036,0.059,0.037,0.084c0.027,0.773,0.346,1.176,1.045,1.323
		c0.617,0.13,1.095-0.141,1.422-0.814c0.196-0.403,0.371-0.816,0.58-1.211C48.197,34.452,48.181,34.345,47.927,34.23z M46.365,35.61
		c-0.261-0.001-0.49-0.231-0.493-0.526c0.063-0.146,0.029-0.379,0.241-0.474c0.095-0.043,0.815,0.373,0.823,0.446
		C46.955,35.262,46.595,35.611,46.365,35.61z"/>
	<path fill-rule="evenodd" clip-rule="evenodd" fill="#FFFFFF" d="M34.964,2.136c-0.432-0.196-0.879-0.361-1.306-0.568
		c-0.239-0.116-0.343-0.085-0.446,0.172c-0.381,0.944-0.786,1.878-1.182,2.814c-0.324,0.767-0.32,0.758,0.454,1.063
		c0.208,0.083,0.277,0.033,0.351-0.161c0.137-0.365,0.305-0.719,0.504-1.177c0.074,0.392,0.182,0.675,0.169,0.952
		c-0.032,0.753,0.396,1.081,1.041,1.251c0.089,0.024,0.184,0.118,0.262,0.052c0.095-0.081,0.029-0.205,0.003-0.307
		c-0.117-0.459-0.244-0.917-0.359-1.378c-0.027-0.111-0.125-0.247,0.133-0.271c0.688-0.065,1.074-0.443,1.167-1.083
		C35.845,2.873,35.587,2.419,34.964,2.136z M34.134,3.758c-0.146-0.08-0.404-0.004-0.471-0.251
		c-0.037-0.133,0.357-0.815,0.437-0.817c0.22-0.004,0.579,0.348,0.556,0.57C34.625,3.552,34.46,3.729,34.134,3.758z"/>
	<path fill-rule="evenodd" clip-rule="evenodd" fill="#FFFFFF" d="M40.452,5.401c-0.202-0.166-0.344-0.18-0.566-0.046
		c-0.942,0.566-1.898,1.112-2.848,1.666c-0.744,0.436-0.742,0.437-0.042,0.974c0.118,0.09,0.235,0.217,0.386,0.075
		c0.396-0.371,0.715-0.192,1.029,0.123c0.134,0.134,0.287,0.251,0.441,0.36c0.145,0.1,0.215,0.217,0.121,0.375
		c-0.248,0.412-0.078,0.671,0.287,0.886c0.149,0.088,0.277,0.212,0.453,0.351c0.393-1.188,0.766-2.322,1.14-3.455
		C41.111,5.928,41.104,5.938,40.452,5.401z M39.398,7.716c-0.036,0.137-0.119,0.113-0.209,0.038
		c-0.166-0.139-0.335-0.273-0.534-0.435c0.379-0.242,0.709-0.453,1.078-0.688C39.702,7.047,39.495,7.365,39.398,7.716z"/>
	<path fill-rule="evenodd" clip-rule="evenodd" fill="#FFFFFF" d="M1.473,17.156c-0.124,0.008-0.189,0.045-0.241,0.165
		c-0.368,0.852-0.355,0.927,0.372,1.498c0.939,0.736,1.883,1.467,2.859,2.227c0.103-0.339,0.181-0.64,0.287-0.93
		c0.054-0.151,0.009-0.245-0.111-0.302c-0.479-0.223-0.44-0.572-0.259-0.972c0.055-0.122,0.094-0.257,0.113-0.39
		c0.044-0.325,0.217-0.459,0.545-0.448c0.159,0.007,0.362,0.05,0.423-0.206c0.069-0.287,0.164-0.569,0.267-0.918
		C4.263,16.976,2.868,17.068,1.473,17.156z M3.649,18.395c-0.061,0.16-0.11,0.323-0.176,0.522c-0.35-0.25-0.674-0.482-1.084-0.776
		c0.412-0.023,0.722-0.028,1.028-0.063C3.708,18.043,3.739,18.162,3.649,18.395z"/>
	<path fill-rule="evenodd" clip-rule="evenodd" d="M12.563,23.775c0,0.517,0,1.034,0,1.552
		C12.435,24.81,12.437,24.292,12.563,23.775z"/>
	<path fill-rule="evenodd" clip-rule="evenodd" d="M12.566,25.652c0.152,0.173,0.05,0.382,0.08,0.572
		C12.492,26.052,12.595,25.844,12.566,25.652z"/>
	<g>
		<polygon fill-rule="evenodd" clip-rule="evenodd" points="29.451,21.484 29.45,21.484 29.451,21.484 		"/>
		<rect x="29.451" y="21.483" fill-rule="evenodd" clip-rule="evenodd" width="0.001" height="0.001"/>
		<rect x="22.348" y="25.826" fill-rule="evenodd" clip-rule="evenodd" width="0.001" height="0.001"/>
		<polygon fill-rule="evenodd" clip-rule="evenodd" points="22.348,25.825 22.348,25.825 22.348,25.825 		"/>
		<rect x="34.593" y="29.241" fill-rule="evenodd" clip-rule="evenodd" width="0.004" height="0.005"/>
		<polygon fill-rule="evenodd" clip-rule="evenodd" points="34.595,29.244 34.595,29.243 34.595,29.244 		"/>
		<path fill-rule="evenodd" clip-rule="evenodd" fill="#D67994" d="M36.782,22.856c-0.086-1.491-0.414-2.929-1.123-4.264
			c-0.531-1.003-1.309-1.795-2.132-2.552c-0.037-0.129-0.147-0.19-0.247-0.261c-1.1-0.78-2.257-1.431-3.588-1.751
			c-0.997-0.242-2.01-0.271-3.023-0.334c-0.293-0.018-0.575-0.172-0.879-0.075c-0.043,0.004-0.09,0.002-0.135,0.003
			c-0.059-0.018-0.111-0.045-0.141-0.116l0,0c0.063-0.034,0.125-0.066,0.188-0.101c0.563-0.597,1.05-1.242,1.31-2.034
			c0.117-0.089,0.062-0.25,0.148-0.35c0.019-0.123-0.073-0.117-0.149-0.129c-0.516,0.236-0.834,0.712-1.262,1.054
			c-0.031,0.045-0.059,0.094-0.087,0.141c-0.022,0.042-0.051,0.076-0.075,0.116c-0.077,0.057-0.149,0.12-0.213,0.192
			c-0.039,0.021-0.065,0.055-0.116,0.062c-0.221,0.167-0.423,0.354-0.595,0.572c-0.006,0.024-0.026,0.035-0.036,0.057
			c-0.017,0.009-0.034,0.017-0.051,0.025c-0.084,0.099-0.168,0.197-0.252,0.298c-0.204,0.104-0.386,0.31-0.648,0.134
			c0.005-0.023-0.003-0.043-0.022-0.058c-0.017-0.514-0.063-1.021-0.351-1.468c-0.106-0.166-0.274-0.352-0.429-0.103
			c-0.174,0.278-0.439,0.503-0.519,0.837c-0.199,0.246-0.228,0.571-0.387,0.835l0.003-0.002c-0.112,0.048-0.132,0.158-0.173,0.255
			c-0.086,0.101-0.172,0.2-0.258,0.301c-0.119,0.071-0.206,0.169-0.25,0.302c-0.209,0.23-0.378,0.51-0.703,0.607
			c-0.412,0.191-0.425,0.181-0.467-0.271c-0.024-0.269-0.083-0.526-0.258-0.743c-0.042-0.046-0.073-0.105-0.103-0.165
			c-0.056-0.17-0.131-0.331-0.243-0.476h0.001c-0.039-0.161-0.119-0.298-0.24-0.411v0.001c-0.11-0.284-0.296-0.512-0.512-0.721
			c-0.089-0.109-0.178-0.217-0.267-0.325c0-0.021,0-0.043-0.001-0.063c-0.125-0.123-0.268-0.232-0.371-0.371
			c-0.259-0.346-0.565-0.482-0.975-0.281c-0.041,0.044-0.082,0.088-0.123,0.132c-0.022,0.027-0.044,0.052-0.065,0.077
			c-0.146,0.152-0.094,0.322-0.048,0.491c0.069,0.014,0.138,0.026,0.208,0.04c0.194,0.181,0.44,0.305,0.585,0.539
			c0.039,0.058,0.081,0.111,0.159,0.102c0.06,0.101,0.119,0.2,0.179,0.3c0.034,0.03,0.068,0.06,0.102,0.09
			c-0.001,0.003-0.005,0.002-0.006,0.005c0.025,0.298,0.233,0.499,0.384,0.731c0.051,0.109,0.077,0.231,0.152,0.328
			c0.029,0.029,0.058,0.059,0.087,0.088c0.121,0.415,0.246,0.829,0.359,1.245c0.037,0.134,0.151,0.307-0.013,0.402
			c-0.16,0.094-0.357,0.118-0.535-0.016c-0.062-0.045-0.142-0.066-0.213-0.099c0.004-0.025-0.003-0.047-0.021-0.063
			c-0.359-0.428-0.847-0.618-1.367-0.748c-0.567-0.218-1.135-0.435-1.702-0.651c-0.177-0.157-0.396-0.218-0.623-0.235
			c-0.5-0.037-0.713,0.265-0.546,0.754C14.1,14.8,14.098,14.86,14.178,14.88c0.021,0.058,0.042,0.114,0.062,0.171
			c0.421,0.756,1.057,1.271,1.831,1.631c0.229,0.181,0.534,0.248,0.722,0.488c0.089,0.349-0.046,0.592-0.341,0.778
			c-0.245,0.154-0.476,0.331-0.713,0.498c-0.325,0.196-0.649,0.393-0.974,0.589l0.011,0.022c0,0,0,0.001,0,0.001
			c-0.004-0.008-0.007-0.016-0.011-0.023c-0.698,0.296-1.426,0.404-2.181,0.403c-0.188-0.001-0.488-0.133-0.545,0.071
			c-0.052,0.186,0.272,0.236,0.428,0.35c0.391,0.297,0.867,0.327,1.323,0.417c0.053-0.002,0.107-0.004,0.16-0.005
			c-0.15,0.597-0.321,1.184-0.792,1.622c-0.026-0.013-0.056-0.018-0.092-0.008c-0.418,0.647-0.625,1.361-0.709,2.124
			c-0.1,0.902,0.014,1.787,0.175,2.666c0.146,0.797,0.304,1.595,0.691,2.322c0.386,0.791,0.716,1.614,1.293,2.298
			c0.255,0.374,0.511,0.748,0.766,1.122c0.046,0.059,0.092,0.116,0.138,0.176c0.098,0.078,0.196,0.157,0.295,0.236
			c-0.002,0.01-0.011,0.017-0.012,0.026c0.241,0.486,0.737,0.697,1.117,1.033c0.113,0.146,0.253,0.256,0.424,0.325
			c0.419,0.218,0.764,0.557,1.201,0.744c0.472,0.352,1.004,0.59,1.535,0.828c2.176,0.98,4.497,1.512,6.798,2.064
			c1.694,0.407,3.334-0.028,4.835-0.919c0.526-0.236,0.925-0.622,1.27-1.073c0.562-0.476,0.937-1.091,1.299-1.716
			c0.646-1.015,1.161-2.089,1.482-3.251c0.538-1.511,0.818-3.075,0.985-4.663C36.858,25.112,36.849,23.982,36.782,22.856z
			 M13.647,26.597c-0.094,0.069-0.17-0.009-0.195-0.116c0,0,0,0,0,0c-0.121-0.105-0.107-0.236-0.056-0.363
			c0.03-0.078,0.095-0.13,0.185-0.127c0.102,0.004,0.139,0.081,0.136,0.163C13.712,26.304,13.8,26.485,13.647,26.597z
			 M13.709,23.342c-0.178,0.017-0.178-0.121-0.189-0.358c-0.006-0.089,0.071-0.235,0.284-0.26c0.184-0.021,0.227,0.117,0.22,0.263
			C14.014,23.182,13.916,23.321,13.709,23.342z M17.053,17.646c0,0.001,0.001,0.003,0.001,0.005c-0.001,0-0.002,0-0.004,0.001
			C17.052,17.65,17.052,17.648,17.053,17.646z M14.58,23.465c-0.093-0.174-0.095-0.325,0.1-0.431c0.095-0.1,0.207-0.099,0.273,0.009
			c0.097,0.157,0.105,0.329-0.027,0.483v-0.001C14.777,23.696,14.663,23.668,14.58,23.465z M15.373,26.94
			c-0.217-0.083-0.343-0.254-0.361-0.487c-0.008-0.096,0.061-0.159,0.154-0.131c0.228,0.068,0.349,0.234,0.385,0.464
			C15.537,26.895,15.492,26.986,15.373,26.94z M15.415,20.434l-0.001-0.002c-0.146-0.217-0.038-0.299,0.171-0.328
			c0.053-0.001,0.106-0.004,0.159-0.005c0.308,0.116,0.183,0.307,0.084,0.492h0C15.623,20.796,15.578,20.778,15.415,20.434z
			 M16.228,24.829c-0.124,0.016-0.244,0.008-0.322-0.106c-0.094-0.136-0.157-0.282-0.071-0.446c0.042-0.081,0.121-0.111,0.204-0.085
			c0.178,0.054,0.182,0.211,0.191,0.358C16.236,24.644,16.229,24.737,16.228,24.829z M16.431,21.449
			c-0.238-0.017-0.326-0.246-0.335-0.438c-0.009-0.183,0.169-0.27,0.347-0.263c0.236,0.01,0.25,0.205,0.279,0.359
			C16.72,21.321,16.607,21.461,16.431,21.449z M17.212,28.502c-0.088,0.003-0.176,0.006-0.264,0.008
			c-0.056-0.202-0.359-0.306-0.23-0.58c0.024-0.028,0.047-0.057,0.071-0.085c0.293-0.163,0.454-0.097,0.444,0.259
			C17.231,28.236,17.22,28.369,17.212,28.502z M17.39,26.298c-0.235-0.03-0.249-0.245-0.27-0.419
			c0.003-0.167,0.009-0.34,0.222-0.313c0.241,0.031,0.251,0.252,0.275,0.433C17.638,26.158,17.582,26.322,17.39,26.298z
			 M18.167,23.418c-0.189,0.061-0.245-0.145-0.308-0.287c-0.147-0.162-0.18-0.352,0.001-0.482c0.169-0.124,0.329-0.039,0.416,0.153
			c0.029,0.058,0.073,0.113,0.082,0.173C18.384,23.159,18.342,23.361,18.167,23.418z M18.43,18.842
			c-0.078,0.078-0.178,0.031-0.254-0.036c-0.135-0.118-0.192-0.27-0.137-0.438c0.035-0.104,0.118-0.192,0.234-0.06
			c0.056,0.061,0.111,0.12,0.166,0.182C18.571,18.609,18.533,18.739,18.43,18.842z M19.965,17.475
			c0.015-0.104,0.024-0.225,0.163-0.223c0.142,0.002,0.201,0.098,0.188,0.237c0.002,0.056,0.003,0.11,0.005,0.165
			c0.007,0.129,0.055,0.319-0.099,0.34c-0.195,0.027-0.225-0.174-0.251-0.332C19.896,17.604,19.899,17.54,19.965,17.475z
			 M19.813,20.025c0.181,0.017,0.182,0.271,0.228,0.446c-0.021,0.124-0.012,0.315-0.18,0.306c-0.186-0.011-0.252-0.207-0.24-0.371
			C19.63,20.261,19.622,20.008,19.813,20.025z M19.445,13.603c-0.007-0.001-0.012-0.004-0.02-0.004
			c-0.001-0.01-0.004-0.02-0.005-0.029C19.431,13.578,19.436,13.593,19.445,13.603z M19.803,30.287
			c-0.308,0.085-0.415-0.129-0.486-0.353c-0.066-0.205,0.092-0.25,0.25-0.272c0.082,0.082,0.163,0.166,0.244,0.25
			C19.808,30.037,19.806,30.162,19.803,30.287z M20.3,25.396c-0.151-0.011-0.253-0.095-0.329-0.22
			c-0.025-0.024-0.052-0.049-0.078-0.073c-0.047-0.033-0.093-0.067-0.14-0.1c-0.018-0.158-0.088-0.359,0.086-0.438
			c0.155-0.07,0.333-0.003,0.417,0.184C20.367,24.958,20.486,25.167,20.3,25.396z M20.364,15.717
			c-0.015-0.01-0.022-0.03-0.045-0.027l0.001-0.002c0.026,0.002,0.053,0.002,0.079,0.004C20.387,15.7,20.376,15.709,20.364,15.717z
			 M20.651,15.596c0.001,0.004,0.005,0.01,0.007,0.014c-0.007,0-0.014,0.001-0.021,0C20.641,15.604,20.646,15.601,20.651,15.596z
			 M20.59,15.746c0.01-0.016,0.02-0.031,0.027-0.046c0.015,0.001,0.029,0.002,0.043,0.002C20.637,15.717,20.614,15.731,20.59,15.746
			z M21.198,21.85c-0.243-0.104-0.293-0.364-0.295-0.61c-0.001-0.108,0.012-0.301,0.169-0.254c0.28,0.086,0.262,0.371,0.309,0.586
			C21.363,21.713,21.312,21.897,21.198,21.85z M22.091,17.252c0.239-0.016,0.272,0.176,0.31,0.352
			c-0.031,0.162-0.052,0.371-0.256,0.356c-0.226-0.018-0.261-0.252-0.29-0.435C21.831,17.369,21.94,17.262,22.091,17.252z
			 M22.257,29.485c-0.173,0.011-0.544-0.417-0.564-0.642c-0.014-0.164,0.044-0.26,0.221-0.267c0.265-0.012,0.492,0.273,0.502,0.647
			C22.402,29.325,22.441,29.474,22.257,29.485z M22.882,26.146c-0.029,0.077-0.074,0.155-0.176,0.121
			c-0.209-0.072-0.329-0.22-0.358-0.44c0,0,0,0.001,0,0.001c-0.139-0.164-0.093-0.311,0.075-0.399
			c0.154-0.081,0.291,0.003,0.378,0.14C22.915,25.746,22.961,25.94,22.882,26.146z M23.242,20.905
			c-0.171-0.016-0.314-0.093-0.42-0.223c-0.074-0.091-0.172-0.195-0.095-0.326c0.064-0.107,0.186-0.1,0.294-0.092
			c0.144,0.009,0.226,0.097,0.234,0.235C23.264,20.634,23.249,20.771,23.242,20.905L23.242,20.905z M23.817,34.321
			c-0.02-0.015-0.041-0.024-0.065-0.013c0,0,0-0.001,0-0.002c0.024,0.001,0.049,0.001,0.074,0.002
			C23.823,34.313,23.82,34.316,23.817,34.321z M23.679,24.31c-0.229-0.071-0.404-0.305-0.424-0.581
			c-0.013-0.167,0.08-0.298,0.259-0.287c0.36,0.02,0.283,0.319,0.329,0.54C23.801,24.107,23.876,24.371,23.679,24.31z
			 M30.667,19.106c-0.137,0.124-0.279,0.047-0.416,0.008c-0.192-0.056-0.359-0.172-0.363-0.38c-0.006-0.226,0.169-0.316,0.378-0.335
			c0.168,0.102,0.3,0.238,0.396,0.409C30.663,18.908,30.665,19.009,30.667,19.106z M29.892,15.871
			c0.348,0.023,0.375,0.326,0.43,0.601c0.018,0.151-0.07,0.223-0.215,0.193c-0.253-0.051-0.457-0.179-0.484-0.461
			C29.604,16.021,29.708,15.858,29.892,15.871z M29.45,21.482c0,0,0.001,0.001,0.002,0.001c0.099-0.265,0.284-0.215,0.44-0.087
			c0.202,0.165,0.244,0.41,0.218,0.662c-0.014,0.134-0.094,0.187-0.226,0.16c-0.247-0.05-0.491-0.464-0.435-0.734
			C29.45,21.484,29.45,21.483,29.45,21.482z M28.071,17.911c0.004,0.238-0.113,0.286-0.305,0.206
			c-0.148-0.062-0.285-0.146-0.428-0.219l-0.004-0.005c-0.051-0.29-0.008-0.527,0.354-0.521
			C28.048,17.378,28.067,17.64,28.071,17.911z M27.731,21.074c-0.168-0.206-0.361-0.398-0.497-0.624
			c-0.14-0.233-0.091-0.422,0.239-0.418C27.764,20.329,27.969,20.647,27.731,21.074z M27.252,14.914
			c0.216,0.147,0.382,0.334,0.423,0.604c0.02,0.132-0.018,0.257-0.188,0.247c-0.301-0.017-0.428-0.213-0.449-0.484
			C27.026,15.13,27.069,14.986,27.252,14.914z M24.766,15.111c0.049,0.012,0.11,0.012,0.152,0.04c0.239,0.16,0.577,0.226,0.6,0.598
			c0.007,0.094-0.053,0.165-0.147,0.156c-0.351-0.03-0.61-0.236-0.803-0.504C24.438,15.221,24.592,15.143,24.766,15.111z
			 M23.996,13.98c0,0,0-0.001,0-0.002c0,0,0,0,0.001,0C23.997,13.979,23.996,13.979,23.996,13.98z M24.703,29.867
			c-0.13,0.02-0.491-0.433-0.483-0.599s0.086-0.317,0.262-0.291c0.341,0.05,0.328,0.339,0.341,0.612
			C24.798,29.68,24.889,29.838,24.703,29.867z M24.761,17.712c-0.227-0.062-0.376-0.203-0.365-0.462
			c0.001-0.026,0.007-0.052,0.01-0.077c0,0-0.001,0-0.002,0l0.002-0.003c0,0.001,0,0.002,0,0.003
			c0.013-0.001,0.026-0.001,0.039-0.004c0.311-0.058,0.406,0.14,0.446,0.389C24.904,17.645,24.862,17.74,24.761,17.712z
			 M25.051,20.645c-0.016-0.147,0.031-0.305,0.202-0.286c0.293,0.034,0.369,0.289,0.416,0.529c0.021,0.114-0.008,0.248-0.182,0.277
			C25.262,21.065,25.079,20.918,25.051,20.645z M25.651,27.814c-0.278-0.056-0.361-0.309-0.391-0.558
			c-0.016-0.135,0.077-0.262,0.215-0.238c0.289,0.05,0.314,0.292,0.32,0.533C25.767,27.652,25.841,27.852,25.651,27.814z
			 M25.715,24.376c0.011-0.123,0.04-0.268,0.188-0.279c0.184-0.014,0.297,0.107,0.359,0.274c0.083,0.198,0.163,0.396,0.156,0.617
			C26.054,25.034,25.683,24.714,25.715,24.376z M27.143,31.187c-0.228,0.022-0.563-0.277-0.56-0.502
			c0.004-0.202,0.119-0.309,0.311-0.295c0.299,0.02,0.402,0.234,0.441,0.474C27.33,31.025,27.335,31.168,27.143,31.187z
			 M27.921,28.529c-0.236-0.032-0.372-0.211-0.406-0.441c-0.02-0.142,0.07-0.237,0.216-0.228c0.245,0.017,0.347,0.174,0.358,0.391
			C28.067,28.38,28.089,28.551,27.921,28.529z M28.396,25.317c-0.057,0.007-0.113,0.012-0.172,0.02
			c-0.303-0.086-0.402-0.357-0.492-0.602c-0.083-0.225,0.032-0.425,0.266-0.517c0.232-0.093,0.342,0.045,0.434,0.237
			C28.57,24.754,28.652,25.039,28.396,25.317z M29.608,31.008c-0.225-0.012-0.318-0.167-0.315-0.384
			c0.001-0.141-0.03-0.295,0.136-0.385c0.223,0.116,0.383,0.28,0.424,0.513C29.881,30.903,29.757,31.014,29.608,31.008z
			 M29.942,28.514c-0.189-0.03-0.381-0.1-0.402-0.327c-0.02-0.184,0.123-0.25,0.259-0.286c0.255,0.026,0.315,0.209,0.353,0.397
			C30.183,28.454,30.083,28.535,29.942,28.514z M30.415,33.987c-0.211,0.021-0.17-0.26-0.208-0.412
			c-0.047-0.188,0.031-0.343,0.243-0.4c0.186,0.023,0.304,0.129,0.297,0.315C30.739,33.718,30.632,33.967,30.415,33.987z
			 M30.966,26.043c-0.22-0.09-0.479-0.168-0.516-0.455c-0.019-0.143,0.107-0.202,0.221-0.242c0.267,0.093,0.42,0.273,0.467,0.529
			C31.157,25.982,31.065,26.084,30.966,26.043z M31.247,37.005c0-0.002,0-0.003,0-0.003c0.001-0.001,0.002-0.001,0.004-0.001
			C31.249,37.002,31.249,37.003,31.247,37.005z M35.167,18.909c0.155-0.262,0.288,0.007,0.43,0.051
			c0.179,0.258,0.187,0.532,0.08,0.819c0.001,0,0.001,0.001,0.001,0.001h-0.001C35.401,19.719,35.038,19.128,35.167,18.909z
			 M35.009,20.549c0.277,0.071,0.326,0.325,0.33,0.582c-0.021,0.124,0.029,0.29-0.158,0.326c-0.139,0.026-0.452-0.425-0.434-0.62
			C34.763,20.679,34.837,20.505,35.009,20.549z M31.944,21.175c0.238,0.021,0.289,0.212,0.282,0.449
			c-0.04,0.129,0.003,0.406-0.22,0.375c-0.241-0.035-0.249-0.319-0.264-0.538C31.734,21.317,31.765,21.158,31.944,21.175z
			 M31.743,24.707c-0.141-0.169-0.057-0.329,0.021-0.486c0.055-0.109,0.153-0.152,0.27-0.114c0.166,0.05,0.265,0.173,0.321,0.334
			c0.056,0.16,0.001,0.319,0.001,0.479c-0.213,0.213-0.338-0.07-0.51-0.09C31.812,24.788,31.777,24.748,31.743,24.707z
			 M31.995,27.873c0.193-0.079,0.307,0.014,0.328,0.22c0.002-0.002-0.001,0,0.002-0.002c0.105,0.138,0.131,0.307-0.042,0.367
			c-0.195,0.069-0.263-0.139-0.337-0.273C31.886,28.076,31.848,27.934,31.995,27.873z M32.058,35.685
			c-0.174,0.027-0.139-0.154-0.154-0.264c0.005-0.181,0.004-0.382,0.224-0.419c0.155-0.026,0.257,0.117,0.24,0.258
			C32.347,35.446,32.268,35.651,32.058,35.685z M32.354,32.968c-0.223,0.023-0.177-0.185-0.207-0.267
			c-0.014-0.225,0.017-0.393,0.23-0.396c0.176-0.003,0.197,0.152,0.199,0.292C32.581,32.769,32.556,32.947,32.354,32.968z
			 M32.331,18.501c0.022-0.195,0.164-0.267,0.346-0.258c0.277,0.013,0.531,0.316,0.523,0.62c-0.003,0.155-0.059,0.263-0.236,0.254
			C32.763,19.107,32.312,18.68,32.331,18.501z M32.962,35.626c0-0.002-0.002-0.004-0.002-0.006c0.002-0.002,0.004-0.004,0.006-0.006
			C32.965,35.618,32.964,35.622,32.962,35.626z M32.951,25.015c-0.034-0.142-0.048-0.284,0.01-0.427H32.96
			c0.04-0.189,0.137-0.351,0.348-0.302c0.197,0.045,0.248,0.233,0.242,0.422c-0.004,0.131,0.035,0.275-0.088,0.378l0,0
			c-0.095,0.271-0.22,0.396-0.434,0.09C33.003,25.122,32.977,25.069,32.951,25.015z M33.347,30.361
			c-0.185-0.025-0.216-0.256-0.217-0.436c0-0.161,0.064-0.32,0.244-0.312c0.201,0.011,0.238,0.188,0.24,0.374
			C33.562,30.135,33.573,30.392,33.347,30.361z M33.521,17.497c-0.024-0.024-0.049-0.049-0.074-0.073
			c-0.131-0.122-0.293-0.265-0.123-0.436c0.149-0.152,0.357-0.125,0.506,0.037c0.147,0.16,0.307,0.373,0.137,0.572
			C33.837,17.749,33.643,17.657,33.521,17.497z M34.101,34.141c0.002-0.004,0.004-0.008,0.006-0.012
			c0.008,0.005,0.014,0.009,0.021,0.013C34.118,34.142,34.11,34.141,34.101,34.141z M33.8,22.053
			c0.004-0.202,0.078-0.342,0.306-0.337c0.379,0.008,0.288,0.311,0.331,0.511c-0.014,0.192,0.013,0.395-0.222,0.435
			C34.019,22.696,33.796,22.358,33.8,22.053z M34.196,26.806c-0.01-0.151,0-0.319,0.205-0.32c0.208,0,0.241,0.173,0.271,0.333
			c-0.057,0.161-0.014,0.418-0.23,0.419C34.204,27.239,34.209,26.989,34.196,26.806z M34.892,29.742
			c-0.037,0.052-0.13,0.008-0.181-0.037c-0.144-0.126-0.3-0.253-0.116-0.462v-0.001c0.148-0.156,0.245-0.049,0.305,0.078
			C34.962,29.454,34.985,29.613,34.892,29.742z M35.097,24.991c-0.17-0.148-0.172-0.36-0.209-0.559
			c-0.037-0.188-0.018-0.379,0.186-0.437c0.223-0.063,0.385,0.12,0.43,0.291c0.07,0.269,0.105,0.574-0.235,0.731
			C35.21,25.01,35.153,25,35.097,24.991z M35.613,27.085c-0.223,0.026-0.091-0.229-0.179-0.337c0.064-0.15-0.02-0.401,0.232-0.404
			c0.156-0.002,0.241,0.162,0.25,0.32C35.927,26.881,35.802,27.064,35.613,27.085z M36.099,23.486
			c-0.004-0.004-0.009-0.008-0.014-0.011c0.008-0.007,0.012-0.008,0.019-0.014C36.101,23.47,36.101,23.478,36.099,23.486z
			 M36.152,23.362c-0.208-0.078-0.284-0.251-0.321-0.434c-0.025-0.128,0.072-0.204,0.193-0.194c0.205,0.018,0.299,0.151,0.295,0.354
			C36.317,23.213,36.296,23.326,36.152,23.362z M36.452,25.005c-0.002-0.012-0.004-0.023-0.004-0.034c0.002,0,0.004,0,0.004,0
			c0.01,0.012,0.012,0.023,0.021,0.034C36.466,25.008,36.459,25.001,36.452,25.005z M36.557,26.225c0-0.004,0-0.008,0-0.012
			c0.009,0.005,0.019,0.009,0.026,0.013C36.574,26.226,36.565,26.226,36.557,26.225z"/>
		<polygon fill-rule="evenodd" clip-rule="evenodd" points="13.452,26.479 13.453,26.48 13.454,26.479 		"/>
	</g>
</g>
</svg>
