<?xml version="1.0" encoding="utf-8"?>
<!-- Generator: Adobe Illustrator 16.0.0, SVG Export Plug-In . SVG Version: 6.00 Build 0)  -->
<!DOCTYPE svg PUBLIC "-//W3C//DTD SVG 1.1//EN" "http://www.w3.org/Graphics/SVG/1.1/DTD/svg11.dtd">
<svg version="1.1" id="Layer_1" xmlns="http://www.w3.org/2000/svg" xmlns:xlink="http://www.w3.org/1999/xlink" x="0px" y="0px"
	 width="40px" height="40px" viewBox="0 0 40 40" enable-background="new 0 0 40 40" xml:space="preserve">
<g>
	<g>
		<g>
			<path fill="#FFFFFF" d="M20,0C8.955,0,0,8.955,0,20s8.955,20,20,20c11.045,0,20-8.955,20-20S31.045,0,20,0z M20,30.822
				c-5.977,0-10.822-4.846-10.822-10.822S14.023,9.178,20,9.178c5.977,0,10.822,4.846,10.822,10.822S25.977,30.822,20,30.822z"/>
		</g>
	</g>
	<g>
		<g>
			<path fill="#FFFFFF" d="M13.724,18.518c-0.536,0-0.971-0.436-0.971-0.972v-2.622c0-0.536,0.435-0.972,0.971-0.972
				s0.972,0.436,0.972,0.972v2.622C14.695,18.082,14.26,18.518,13.724,18.518z"/>
		</g>
	</g>
	<g>
		<g>
			<path fill="#FFFFFF" d="M26.025,18.518c-0.537,0-0.971-0.436-0.971-0.972v-2.622c0-0.536,0.434-0.972,0.971-0.972
				s0.973,0.436,0.973,0.972v2.622C26.998,18.082,26.563,18.518,26.025,18.518z"/>
		</g>
	</g>
	<g>
		<g>
			<path fill="#FFFFFF" d="M20.35,20.816c-0.207,0-0.414-0.079-0.572-0.236l-2.297-2.297c-0.317-0.316-0.317-0.83,0-1.146
				l2.303-2.305c0.316-0.316,0.83-0.316,1.146,0s0.316,0.829,0,1.146l-1.732,1.731l1.725,1.725c0.316,0.316,0.316,0.829,0,1.146
				C20.764,20.737,20.557,20.816,20.35,20.816z"/>
		</g>
	</g>
	<g>
		<g>
			<path fill="#FFFFFF" d="M19.816,25.606c-3.433,0-4.725-2.924-4.928-4.47c-0.067-0.506,0.29-0.971,0.797-1.038
				c0.506-0.061,0.969,0.289,1.038,0.794c0.042,0.297,0.483,2.862,3.093,2.862c2.525,0,2.689-2.484,2.701-2.768
				c0.018-0.509,0.451-0.923,0.953-0.893c0.51,0.015,0.91,0.438,0.896,0.946C24.326,22.619,23.32,25.606,19.816,25.606z"/>
		</g>
	</g>
</g>
</svg>
