<?xml version="1.0" encoding="utf-8"?>
<!-- Generator: Adobe Illustrator 16.0.0, SVG Export Plug-In . SVG Version: 6.00 Build 0)  -->
<!DOCTYPE svg PUBLIC "-//W3C//DTD SVG 1.1//EN" "http://www.w3.org/Graphics/SVG/1.1/DTD/svg11.dtd">
<svg version="1.1" id="Layer_1" xmlns="http://www.w3.org/2000/svg" xmlns:xlink="http://www.w3.org/1999/xlink" x="0px" y="0px"
	 width="40px" height="40px" viewBox="0 0 40 40" enable-background="new 0 0 40 40" xml:space="preserve">
<path fill-rule="evenodd" clip-rule="evenodd" fill="#FFFFFF" d="M20,0C8.955,0,0,8.955,0,20s8.955,20,20,20
	c11.045,0,20-8.955,20-20S31.045,0,20,0z M32.568,15.136c-0.439,0.244-0.793,0.412-0.75,1.058c0.404,6.23-2.703,10.681-7.564,13.984
	c-4.81,3.269-10.105,4.065-15.683,2.027c-0.288-0.105-0.567-0.238-0.845-0.368c-0.103-0.05-0.188-0.132-0.566-0.402
	c4.648,0.329,8.054-1.174,10.162-5.456c-0.906,0.144-1.674,0.442-2.338-0.117c-0.763-0.642-0.216-1.334,0.024-2.205
	c-1.123,0.504-2.129,0.643-3.158,0.26c-1.252-0.467-1.327-0.875-0.283-1.762c0.159-0.136,0.354-0.228,0.663-0.424
	c-1.024-0.193-1.972-0.012-2.811-0.418c-0.631-0.306-1.41-0.624-1.495-1.349c-0.071-0.614,0.88-0.541,1.281-1.08
	c-1.611-0.482-3.222-0.948-3.912-2.843c4.238,0.059,8.412-0.409,12.519,1.057c0.075-2.19,0.119-4.312,0.502-6.43
	c0.348-1.923,1.468-3.015,3.037-3.85c0.283,0.277-0.23,0.414-0.078,0.656c0.703-0.037,1.393-1.307,1.74-0.687
	c0.512,0.913-0.967,1.176-1.449,2.05c2.084-0.577,3.992-0.379,5.791,0.637c0.771,0.436,1.588,0.903,2.027,1.641
	c0.838,1.402,1.787,0.992,2.859,0.438c0.445-0.23,0.73-0.77,1.408-0.715c-0.098,1.294-1.158,1.893-2.012,2.824
	c0.449-0.102,0.732-0.168,1.016-0.232c0.742-0.009,1.299-0.648,2.059-0.602C34.428,13.995,33.529,14.607,32.568,15.136z"/>
</svg>
