<?xml version="1.0" encoding="utf-8"?>
<!-- Generator: Adobe Illustrator 16.0.0, SVG Export Plug-In . SVG Version: 6.00 Build 0)  -->
<!DOCTYPE svg PUBLIC "-//W3C//DTD SVG 1.1//EN" "http://www.w3.org/Graphics/SVG/1.1/DTD/svg11.dtd">
<svg version="1.1" id="Layer_1" xmlns="http://www.w3.org/2000/svg" xmlns:xlink="http://www.w3.org/1999/xlink" x="0px" y="0px"
	 width="40px" height="40px" viewBox="0 0 40 40" enable-background="new 0 0 40 40" xml:space="preserve">
<g>
	<path fill-rule="evenodd" clip-rule="evenodd" fill="#FFFFFF" d="M20,0C8.955,0,0,8.955,0,20s8.955,20,20,20s20-8.955,20-20
		S31.045,0,20,0z M27.121,35.753H12.878c-4.767,0-8.631-3.864-8.631-8.632V12.879c0-4.768,3.864-8.632,8.631-8.632h14.243
		c4.768,0,8.633,3.864,8.633,8.632v14.242C35.754,31.889,31.889,35.753,27.121,35.753z"/>
	<path fill-rule="evenodd" clip-rule="evenodd" fill="#FFFFFF" d="M25.82,7.125H14.179c-3.896,0-7.056,3.157-7.056,7.055V25.82
		c0,3.897,3.16,7.057,7.056,7.057H25.82c3.896,0,7.057-3.159,7.057-7.057V14.18C32.877,10.282,29.717,7.125,25.82,7.125z M20,28.12
		c-4.484,0-8.12-3.635-8.12-8.12c0-4.484,3.635-8.12,8.12-8.12c4.485,0,8.12,3.636,8.12,8.12C28.119,24.485,24.484,28.12,20,28.12z
		 M28.354,13.389c-0.992,0-1.799-0.806-1.799-1.8c0-0.992,0.807-1.798,1.799-1.798s1.799,0.806,1.799,1.798
		C30.152,12.583,29.346,13.389,28.354,13.389z"/>
	<circle fill-rule="evenodd" clip-rule="evenodd" fill="#FFFFFF" cx="20" cy="20" r="5.243"/>
</g>
</svg>
