<?xml version="1.0" encoding="utf-8"?>
<!-- Generator: Adobe Illustrator 16.0.0, SVG Export Plug-In . SVG Version: 6.00 Build 0)  -->
<!DOCTYPE svg PUBLIC "-//W3C//DTD SVG 1.1//EN" "http://www.w3.org/Graphics/SVG/1.1/DTD/svg11.dtd">
<svg version="1.1" id="Layer_1" xmlns="http://www.w3.org/2000/svg" xmlns:xlink="http://www.w3.org/1999/xlink" x="0px" y="0px"
	 width="40px" height="40px" viewBox="0 0 40 40" enable-background="new 0 0 40 40" xml:space="preserve">
<g>
	<path fill-rule="evenodd" clip-rule="evenodd" fill="#FFFFFF" d="M14.197,19.379c1.044-0.023,2.089-0.008,3.134-0.008
		c1.074,0,2.148-0.02,3.222,0.008c0.617,0.016,0.959-0.221,1.132-0.825c1.015-3.544,2.061-7.078,3.072-10.622
		c0.285-0.997-0.165-1.832-1.036-2.081c-0.819-0.234-1.597,0.22-1.946,1.174c-0.208,0.571-0.366,1.161-0.552,1.743
		c-0.826,2.599-1.651,5.199-2.481,7.798c-0.217,0.68-0.574,1.223-1.391,1.211c-0.806-0.012-1.167-0.544-1.383-1.228
		c-0.106-0.333-0.209-0.664-0.315-0.996c-0.896-2.822-1.779-5.647-2.697-8.461c-0.339-1.04-1.112-1.487-1.973-1.242
		C10.108,6.1,9.678,6.896,9.975,7.945c1.005,3.547,2.056,7.08,3.072,10.623C13.223,19.179,13.59,19.393,14.197,19.379z"/>
	<path fill-rule="evenodd" clip-rule="evenodd" fill="#FFFFFF" d="M23.627,17.612c-0.294,0.689-0.46,1.434-0.667,2.157
		c-0.08,0.276,0.078,0.497,0.219,0.724c1.133,1.853,0.914,3.228-0.781,4.644c-0.555,0.464-0.334,0.717,0.158,0.932
		c0.844,0.371,1.748-0.121,2.063-1.162c0.593-1.974,1.15-3.958,1.719-5.94c0.057-0.193,0.082-0.397,0.113-0.55
		c-0.008-0.847-0.385-1.387-1.16-1.577C24.554,16.659,23.925,16.915,23.627,17.612z"/>
	<path fill-rule="evenodd" clip-rule="evenodd" fill="#FFFFFF" d="M26.845,27.414c-0.326-0.064-0.646-0.264-0.922-0.467
		c-0.326-0.237-0.564-0.258-0.926-0.023c-1.748,1.14-3.203,0.877-4.461-0.759c-0.088-0.115-0.16-0.255-0.273-0.335
		c-0.417-0.289-0.924-0.314-1.322-0.093c-0.432,0.241-0.044,0.624,0.064,0.916c0.32,0.866,0.374,1.755,0.266,2.657
		c-0.05,0.416-0.276,0.718-0.733,0.711c-0.451-0.007-0.679-0.304-0.727-0.721c-0.043-0.374-0.026-0.753-0.053-1.131
		c-0.082-1.177-0.645-2.024-1.759-2.465c-0.47-0.185-1.008-0.344-0.881-0.987c0.124-0.626,0.692-0.618,1.189-0.622
		c1.421-0.013,2.842,0.004,4.263-0.021c0.962-0.018,1.559-0.486,1.727-1.279c0.168-0.79-0.201-1.398-1.104-1.82
		c-2.656-0.002-5.312-0.004-7.968-0.008c-0.716,0.186-1.005,0.696-1.057,1.388c0.002,1.558,0.004,3.117,0.006,4.676
		c0.125,3.501,2.525,6.3,6.022,7.024c4.217,0.875,8.273-1.47,9.293-5.354C27.659,28.051,27.661,27.574,26.845,27.414z"/>
	<path fill-rule="evenodd" clip-rule="evenodd" fill="#FFFFFF" d="M20,0C8.955,0,0,8.955,0,20s8.955,20,20,20
		c11.046,0,20-8.955,20-20S31.046,0,20,0z M31.54,21.419c-0.342,1.35-0.758,2.683-1.141,4.021c-0.023,0.085-0.036,0.186-0.09,0.245
		c-1.035,1.165-1.076,2.707-1.567,4.077c-1.501,4.193-5.741,6.604-10.308,5.896c-4.524-0.702-7.661-4.167-7.821-8.685
		c-0.052-1.479-0.015-2.961-0.013-4.441c0.001-0.78,0.189-1.524,0.718-2.099c0.449-0.486,0.409-0.958,0.242-1.521
		c-1.013-3.426-2.002-6.856-3.01-10.282c-0.235-0.8-0.334-1.593-0.037-2.394c0.453-1.214,1.605-2.008,2.893-2.003
		c1.327,0.007,2.449,0.753,2.906,2.097c0.767,2.254,1.445,4.537,2.188,6.801c0.24,0.731,0.379,1.511,0.947,2.415
		c0.442-1.383,0.812-2.538,1.18-3.692c0.564-1.771,1.11-3.547,1.697-5.312c0.593-1.778,2.24-2.687,3.88-2.182
		c1.666,0.513,2.537,2.152,2.039,3.954c-0.564,2.044-1.166,4.077-1.787,6.104c-0.197,0.646-0.062,0.917,0.639,0.929
		c1.195,0.022,2.033,0.649,2.522,1.705c0.22,0.474,0.501,0.605,1.006,0.604C30.865,17.651,32.093,19.232,31.54,21.419z"/>
	<path fill-rule="evenodd" clip-rule="evenodd" fill="#FFFFFF" d="M29.149,19.094c-0.703-0.154-1.318,0.089-1.545,0.791
		c-0.484,1.513-0.939,3.041-1.303,4.586c-0.205,0.882,0.508,1.645,1.465,1.639c0.418-0.036,0.885-0.259,1.077-0.744
		c0.618-1.562,1.097-3.172,1.386-4.824C30.36,19.795,29.898,19.26,29.149,19.094z"/>
</g>
</svg>
