<?xml version="1.0" encoding="utf-8"?>
<!-- Generator: Adobe Illustrator 16.0.0, SVG Export Plug-In . SVG Version: 6.00 Build 0)  -->
<!DOCTYPE svg PUBLIC "-//W3C//DTD SVG 1.1//EN" "http://www.w3.org/Graphics/SVG/1.1/DTD/svg11.dtd">
<svg version="1.1" id="Layer_1" xmlns="http://www.w3.org/2000/svg" xmlns:xlink="http://www.w3.org/1999/xlink" x="0px" y="0px"
	 width="30px" height="30px" viewBox="0 0 30 30" enable-background="new 0 0 30 30" xml:space="preserve">
<g>
	<linearGradient id="SVGID_1_" gradientUnits="userSpaceOnUse" x1="4.882813e-004" y1="15" x2="15" y2="15">
		<stop  offset="0" style="stop-color:#A8ADDF"/>
		<stop  offset="1" style="stop-color:#89AADB"/>
	</linearGradient>
	<path fill="url(#SVGID_1_)" d="M10.6,0C4.746,0,0,4.723,0,10.549v8.902C0,25.277,4.746,30,10.6,30H15V0H10.6z"/>
	<linearGradient id="SVGID_2_" gradientUnits="userSpaceOnUse" x1="15" y1="15" x2="30" y2="15">
		<stop  offset="0" style="stop-color:#8AABDB"/>
		<stop  offset="1" style="stop-color:#D58CA3"/>
	</linearGradient>
	<path fill="url(#SVGID_2_)" d="M19.399,0H15v30h4.399C25.254,30,30,25.277,30,19.451v-8.902C30,4.723,25.254,0,19.399,0z"/>
	<path fill-rule="evenodd" clip-rule="evenodd" fill="#FFFFFF" d="M21.483,17.723c-0.834,0-1.608,0.252-2.25,0.684l-6.757-2.455
		c0.042-0.231,0.067-0.469,0.067-0.711c0-0.007-0.001-0.014-0.001-0.021l6.88-3.511c0.604,0.359,1.307,0.569,2.062,0.569
		c2.223,0,4.026-1.794,4.026-4.007s-1.804-4.007-4.026-4.007c-2.224,0-4.027,1.794-4.027,4.007c0,0.276,0.027,0.546,0.082,0.807
		l-6.3,3.216c-0.717-0.656-1.67-1.06-2.721-1.06c-2.224,0-4.026,1.794-4.026,4.008s1.802,4.006,4.026,4.006
		c0.759,0,1.468-0.213,2.074-0.576l6.909,2.508c-0.025,0.181-0.043,0.363-0.043,0.552c0,2.212,1.804,4.006,4.027,4.006
		c2.223,0,4.026-1.794,4.026-4.006C25.51,19.517,23.706,17.723,21.483,17.723z"/>
</g>
</svg>
