<?xml version="1.0" encoding="utf-8"?>
<!-- Generator: Adobe Illustrator 16.0.0, SVG Export Plug-In . SVG Version: 6.00 Build 0)  -->
<!DOCTYPE svg PUBLIC "-//W3C//DTD SVG 1.1//EN" "http://www.w3.org/Graphics/SVG/1.1/DTD/svg11.dtd">
<svg version="1.1" id="Layer_1" xmlns="http://www.w3.org/2000/svg" xmlns:xlink="http://www.w3.org/1999/xlink" x="0px" y="0px"
	 width="36.191px" height="30.593px" viewBox="0 0 36.191 30.593" enable-background="new 0 0 36.191 30.593" xml:space="preserve">
<g>
	<g>
		<path fill="#FFFFFF" d="M32.34,30.593H3.853C1.729,30.593,0,29.112,0,27.294V3.298C0,1.479,1.729,0,3.853,0H32.34
			c2.123,0,3.851,1.479,3.851,3.298v23.996C36.191,29.112,34.463,30.593,32.34,30.593z M3.853,0.593c-1.797,0-3.26,1.213-3.26,2.705
			v23.996c0,1.492,1.463,2.705,3.26,2.705H32.34c1.796,0,3.257-1.213,3.257-2.705V3.298c0-1.492-1.461-2.705-3.257-2.705H3.853z"/>
	</g>
	<g>
		<polygon fill="#FFFFFF" points="8.888,25.897 20.945,11.087 33.001,25.897 		"/>
	</g>
	<g>
		<polygon fill="#FFFFFF" points="3.192,25.897 11.422,15.786 19.654,25.897 		"/>
	</g>
	<g>
		<path fill="#FFFFFF" d="M10.52,8.433c0,2.027-1.637,3.664-3.657,3.664c-2.032,0-3.671-1.637-3.671-3.664
			c0-2.021,1.639-3.664,3.671-3.664C8.883,4.769,10.52,6.412,10.52,8.433"/>
	</g>
</g>
</svg>
