<?xml version="1.0" encoding="utf-8"?>
<!-- Generator: Adobe Illustrator 16.0.0, SVG Export Plug-In . SVG Version: 6.00 Build 0)  -->
<!DOCTYPE svg PUBLIC "-//W3C//DTD SVG 1.1//EN" "http://www.w3.org/Graphics/SVG/1.1/DTD/svg11.dtd">
<svg version="1.1" id="Layer_1" xmlns="http://www.w3.org/2000/svg" xmlns:xlink="http://www.w3.org/1999/xlink" x="0px" y="0px"
	 width="40px" height="40px" viewBox="0 0 40 40" enable-background="new 0 0 40 40" xml:space="preserve">
<g>
	<path fill-rule="evenodd" clip-rule="evenodd" fill="#FFFFFF" d="M30.125,9.748C23.363,9.733,16.602,9.732,9.84,9.749
		c-2.936,0.005-4.625,1.684-4.633,4.605C5.195,18.072,5.2,21.787,5.205,25.504c0.005,3.096,1.641,4.739,4.73,4.752
		c1.346,0.004,2.692,0.006,4.04,0.006l5.924-0.003l6.209,0.004c1.332,0,2.662-0.002,3.992-0.007c3.02-0.013,4.686-1.671,4.693-4.669
		c0.01-3.716,0.008-7.433,0-11.148C34.787,11.418,33.129,9.752,30.125,9.748z M16.854,25.966c0-3.91,0-7.621,0-11.58
		c2.979,1.964,5.832,3.845,8.789,5.795C22.689,22.125,19.835,24.003,16.854,25.966z"/>
	<path fill-rule="evenodd" clip-rule="evenodd" fill="#FFFFFF" d="M20,0C8.955,0,0,8.955,0,20s8.955,20,20,20
		c11.045,0,20-8.955,20-20S31.045,0,20,0z M30.104,31.056c-1.332,0.005-2.664,0.007-3.996,0.007l-6.209-0.004l-5.924,0.003
		c-1.348,0-2.695-0.001-4.043-0.006c-3.506-0.015-5.521-2.037-5.526-5.55C4.4,21.787,4.396,18.07,4.407,14.352
		c0.011-3.377,2.042-5.396,5.432-5.402c6.762-0.018,13.524-0.016,20.286-0.002c3.418,0.005,5.461,2.058,5.469,5.489
		c0.008,3.718,0.008,7.435,0,11.151C35.584,29.049,33.584,31.041,30.104,31.056z"/>
</g>
</svg>
