<?xml version="1.0" encoding="utf-8"?>
<!-- Generator: Adobe Illustrator 16.0.0, SVG Export Plug-In . SVG Version: 6.00 Build 0)  -->
<!DOCTYPE svg PUBLIC "-//W3C//DTD SVG 1.1//EN" "http://www.w3.org/Graphics/SVG/1.1/DTD/svg11.dtd">
<svg version="1.1" id="Layer_1" xmlns="http://www.w3.org/2000/svg" xmlns:xlink="http://www.w3.org/1999/xlink" x="0px" y="0px"
	 width="50px" height="50px" viewBox="0 0 50 50" enable-background="new 0 0 50 50" xml:space="preserve">
<g>
	<g>
		
			<path fill="none" stroke="#D44272" stroke-width="3.5941" stroke-linecap="round" stroke-linejoin="round" stroke-miterlimit="10" d="
			M25,25"/>
	</g>
	<g>
		
			<path fill="none" stroke="#D44272" stroke-width="3.5941" stroke-linecap="round" stroke-linejoin="round" stroke-miterlimit="10" d="
			M25,25"/>
	</g>
	<g>
		<path fill="#D44272" d="M10.976,40.82c-0.46,0-0.92-0.176-1.271-0.526c-0.702-0.702-0.702-1.84,0-2.541l14.025-14.023
			c0.702-0.702,1.84-0.702,2.541,0c0.702,0.702,0.702,1.84,0,2.541L12.246,40.294C11.896,40.645,11.436,40.82,10.976,40.82z"/>
	</g>
	<g>
		<path fill="#D44272" d="M25,26.797c-0.46,0-0.919-0.176-1.271-0.526L9.705,12.248c-0.702-0.702-0.702-1.839,0-2.542
			c0.703-0.702,1.84-0.702,2.542,0l14.024,14.023c0.702,0.701,0.702,1.839,0,2.541C25.92,26.621,25.46,26.797,25,26.797z"/>
	</g>
	<g>
		<path fill="#D44272" d="M39.025,40.82c-0.461,0-0.92-0.175-1.271-0.526L23.729,26.271c-0.702-0.701-0.702-1.839,0-2.541
			c0.701-0.702,1.84-0.702,2.541,0l14.025,14.023c0.701,0.701,0.701,1.839,0,2.541C39.945,40.645,39.484,40.82,39.025,40.82z"/>
	</g>
	<g>
		<path fill="#D44272" d="M25,26.797c-0.46,0-0.919-0.176-1.271-0.526c-0.702-0.702-0.702-1.84,0-2.541L37.755,9.706
			c0.7-0.702,1.84-0.702,2.541,0c0.701,0.703,0.701,1.84,0,2.542L26.271,26.271C25.92,26.621,25.46,26.797,25,26.797z"/>
	</g>
</g>
<g>
	<path fill="#D44272" d="M25,50C11.215,50,0,38.785,0,25S11.215,0,25,0s25,11.215,25,25S38.785,50,25,50z M25,1.231
		C11.894,1.231,1.231,11.894,1.231,25c0,13.106,10.663,23.769,23.769,23.769c13.106,0,23.769-10.662,23.769-23.769
		C48.769,11.894,38.106,1.231,25,1.231z"/>
</g>
</svg>
