<?xml version="1.0" encoding="utf-8"?>
<!-- Generator: Adobe Illustrator 16.0.0, SVG Export Plug-In . SVG Version: 6.00 Build 0)  -->
<!DOCTYPE svg PUBLIC "-//W3C//DTD SVG 1.1//EN" "http://www.w3.org/Graphics/SVG/1.1/DTD/svg11.dtd">
<svg version="1.1" id="Layer_1" xmlns="http://www.w3.org/2000/svg" xmlns:xlink="http://www.w3.org/1999/xlink" x="0px" y="0px"
	 width="32px" height="32px" viewBox="0 0 32 32" enable-background="new 0 0 32 32" xml:space="preserve">
<g>
	<path fill-rule="evenodd" clip-rule="evenodd" fill="#FFFFFF" d="M10.459,8c0-1.1,0.748-1.5,1.663-0.89l11.673,7.788
		c0.916,0.61,0.915,1.609,0,2.219l-11.672,7.774C11.208,25.501,10.459,25.1,10.459,24V8z"/>
	<g>
		<path fill="#FFFFFF" d="M16,32C7.178,32,0,24.822,0,16S7.178,0,16,0s16,7.178,16,16S24.822,32,16,32z M16,2C8.28,2,2,8.28,2,16
			s6.28,14,14,14c7.721,0,14-6.28,14-14S23.721,2,16,2z"/>
	</g>
	<g>
		<path fill="#FFFFFF" d="M16,32C7.178,32,0,24.822,0,16S7.178,0,16,0s16,7.178,16,16S24.822,32,16,32z M16,2C8.28,2,2,8.28,2,16
			s6.28,14,14,14c7.721,0,14-6.28,14-14S23.721,2,16,2z"/>
	</g>
</g>
</svg>
