<?xml version="1.0" encoding="utf-8"?>
<!-- Generator: Adobe Illustrator 16.0.0, SVG Export Plug-In . SVG Version: 6.00 Build 0)  -->
<!DOCTYPE svg PUBLIC "-//W3C//DTD SVG 1.1//EN" "http://www.w3.org/Graphics/SVG/1.1/DTD/svg11.dtd">
<svg version="1.1" id="Layer_1" xmlns="http://www.w3.org/2000/svg" xmlns:xlink="http://www.w3.org/1999/xlink" x="0px" y="0px"
	 width="40px" height="40px" viewBox="0 0 40 40" enable-background="new 0 0 40 40" xml:space="preserve">
<g>
	<path fill="#FFFFFF" d="M20,0C8.955,0,0,8.955,0,20s8.955,20,20,20c0.168,0,0.334-0.009,0.501-0.013l0.017-15.565h-5.25v-6.025
		l5.232,0.016l0.1-5.909c0.578-5.102,4.671-6.323,6.503-6.489c1.833-0.164,5.928,0.117,5.928,0.117v5.513h-4.128
		c-1.14,0-2.063,1.073-2.063,2.031c0,1.205-0.049,4.737-0.049,4.737h6.025l-0.826,6.093l-5.184-0.083l0.016,14.383
		C34.508,36.016,40,28.649,40,20C40,8.955,31.045,0,20,0z"/>
</g>
</svg>
