<?xml version="1.0" encoding="utf-8"?>
<!-- Generator: Adobe Illustrator 16.0.0, SVG Export Plug-In . SVG Version: 6.00 Build 0)  -->
<!DOCTYPE svg PUBLIC "-//W3C//DTD SVG 1.1//EN" "http://www.w3.org/Graphics/SVG/1.1/DTD/svg11.dtd">
<svg version="1.1" id="Layer_1" xmlns="http://www.w3.org/2000/svg" xmlns:xlink="http://www.w3.org/1999/xlink" x="0px" y="0px"
	 width="40px" height="40px" viewBox="0 0 40 40" enable-background="new 0 0 40 40" xml:space="preserve">
<g>
	<path fill="#FFFFFF" d="M-41.75,0c-11.046,0-20,8.954-20,20s8.954,20,20,20s19.999-8.954,19.999-20S-30.705,0-41.75,0z
		 M-45.114,36.735c-6.416,0-11.617-5.199-11.617-11.615s5.201-11.617,11.617-11.617s11.617,5.201,11.617,11.617
		S-38.699,36.735-45.114,36.735z M-33.679,13.887c-2.397,0-4.341-1.944-4.341-4.342c0-2.397,1.943-4.34,4.341-4.34
		c2.398,0,4.342,1.943,4.342,4.34C-29.337,11.943-31.281,13.887-33.679,13.887z"/>
	<circle fill="#FFFFFF" cx="-45.114" cy="25.12" r="5.12"/>
</g>
<g>
	<path fill-rule="evenodd" clip-rule="evenodd" fill="#FFFFFF" d="M-41.703-48.128c-9.001-0.014-16.339,7.293-16.343,16.278
		c-0.006,8.977,7.303,16.305,16.268,16.313c8.999,0.008,16.313-7.295,16.325-16.299C-25.441-40.777-32.76-48.115-41.703-48.128z
		 M-31.34-40.154c-0.926,4.162-1.863,8.322-2.775,12.488c-0.42,1.917-1.172,3.66-2.539,5.093c-1.623,1.698-3.652,2.545-5.969,2.718
		c-1.924,0.143-3.783-0.108-5.455-1.168c-1.58-1.002-2.57-2.446-3.107-4.222c-0.082-0.272-0.07-0.408,0.285-0.4
		c1.246,0.027,2.492,0.026,3.739,0.03c0.238,0.001,0.436,0.026,0.549,0.285c1.112,2.543,4.718,2.66,6.443,0.777
		c1.135-1.24,1.523-2.777,1.746-4.393c-0.211-0.022-0.258,0.112-0.334,0.191c-3.256,3.383-8.818,2.344-10.545-2.03
		c-1.325-3.357-0.676-6.507,1.42-9.358c1.476-2.01,3.465-3.283,5.988-3.536c2.44-0.244,4.434,0.588,5.793,2.689
		c0.25,0.385,0.426,0.371,0.773,0.176c1.43-0.799,2.873-1.571,4.311-2.352c0.09-0.049,0.17-0.13,0.361-0.082
		C-30.889-42.201-31.111-41.177-31.34-40.154z"/>
	<path fill-rule="evenodd" clip-rule="evenodd" fill="#FFFFFF" d="M-41.75-51.833c-11.045,0-20,8.955-20,20c0,11.045,8.955,20,20,20
		c11.047,0,20-8.954,20-20C-21.75-42.879-30.703-51.833-41.75-51.833z M-41.749-13.919c-9.863,0.009-17.91-8.029-17.915-17.893
		c-0.005-9.895,8.024-17.935,17.913-17.935c9.87,0,17.917,8.037,17.915,17.893C-23.838-21.95-31.852-13.927-41.749-13.919z"/>
	<path fill-rule="evenodd" clip-rule="evenodd" fill="#FFFFFF" d="M-40.875-39.958c-1.043,0.15-1.916,0.629-2.594,1.412
		c-1.592,1.84-2.117,3.942-1.342,6.281c0.363,1.096,1.135,1.852,2.314,2.031c1.209,0.185,2.342-0.084,3.299-0.87
		c1.639-1.347,2.205-3.187,2.316-5.22c0-0.09,0.002-0.18,0-0.27C-36.936-38.852-38.637-40.281-40.875-39.958z"/>
</g>
<g>
	<path fill-rule="evenodd" clip-rule="evenodd" fill="#FFFFFF" d="M-92.375,9.748c-6.762-0.015-13.522-0.015-20.284,0.001
		c-2.936,0.005-4.625,1.684-4.635,4.606c-0.012,3.718-0.006,7.433-0.002,11.148c0.006,3.097,1.641,4.74,4.73,4.752
		c1.346,0.005,2.693,0.007,4.039,0.007l5.924-0.003l6.211,0.004c1.33,0,2.66-0.002,3.99-0.008c3.02-0.012,4.688-1.67,4.695-4.668
		c0.008-3.717,0.008-7.433,0-11.149C-87.713,11.418-89.371,9.752-92.375,9.748z M-105.647,25.966c0-3.91,0-7.622,0-11.581
		c2.98,1.964,5.834,3.845,8.79,5.795C-99.811,22.124-102.665,24.003-105.647,25.966z"/>
	<path fill-rule="evenodd" clip-rule="evenodd" fill="#FFFFFF" d="M-102.5,0c-11.045,0-20,8.955-20,20c0,11.045,8.955,20,20,20
		c11.045,0,20-8.955,20-20C-82.5,8.955-91.455,0-102.5,0z M-92.396,31.056c-1.332,0.005-2.664,0.007-3.994,0.007l-6.211-0.004
		l-5.924,0.003c-1.348,0-2.695-0.001-4.043-0.006c-3.506-0.015-5.52-2.037-5.525-5.551c-0.006-3.718-0.01-7.435,0.002-11.154
		c0.01-3.377,2.041-5.396,5.432-5.402c6.762-0.017,13.526-0.015,20.288-0.002c3.416,0.005,5.459,2.058,5.467,5.489
		c0.008,3.718,0.01,7.434,0,11.152C-86.914,29.049-88.916,31.041-92.396,31.056z"/>
</g>
<path fill-rule="evenodd" clip-rule="evenodd" fill="#FFFFFF" d="M-107.7,57.25c-11.045,0-20,8.954-20,20s8.955,20,20,20
	c11.047,0,20-8.954,20-20S-96.652,57.25-107.7,57.25z M-97.297,84.229c0,0.305-0.031,0.609-0.121,0.904
	c-0.002,0.015-0.006,0.029-0.012,0.045c-0.271,1.234-0.977,2.137-2.131,2.637c-0.986,0.428-2.041,0.586-3.115,0.485
	c-1.248-0.117-2.367-1.042-2.711-2.192c-0.197-0.445-0.215-0.913-0.17-1.389c0.018-0.127,0.016-0.258,0.082-0.373
	c0.182-0.896,0.674-1.576,1.449-2.053c0.74-0.455,1.572-0.663,2.412-0.845c0.523-0.113,1.047-0.221,1.572-0.323
	c0.492-0.096,0.863-0.337,1.047-0.823c0.018-0.091,0.035-0.182,0.053-0.272c0.004-1.73,0.01-3.46,0.01-5.19
	c0-1.492-0.004-2.984-0.006-4.477c0-0.069,0.002-0.139-0.002-0.207c-0.027-0.487-0.271-0.717-0.756-0.676
	c-0.543,0.045-1.07,0.192-1.602,0.299c-1.434,0.287-2.863,0.584-4.295,0.875c-0.141,0.027-0.287,0.036-0.43,0.055
	c-0.201,0.121-0.436,0.117-0.656,0.164c-0.825,0.176-1.651,0.336-2.477,0.51c-0.133,0.027-0.275-0.016-0.4,0.061
	c-0.455,0.1-0.91,0.195-1.365,0.299c-0.529,0.119-0.725,0.334-0.781,0.873c-0.018,0.167-0.016,0.336-0.016,0.504
	c0,1.424,0.002,2.847,0.002,4.27c0,0.115-0.008,0.229-0.01,0.344c0.002,1.864,0.008,3.728,0.008,5.592
	c0,1.046-0.006,2.093-0.008,3.139c0.014,0.89-0.076,1.76-0.494,2.563c-0.631,1.211-1.684,1.814-2.986,2.049
	c-0.619,0.111-1.238,0.207-1.871,0.129c-1.348-0.168-2.412-1.061-2.742-2.311c-0.016-0.059-0.021-0.119-0.033-0.18
	c-0.264-1.195,0.006-2.244,0.881-3.112c0.512-0.51,1.166-0.771,1.846-0.976c0.822-0.246,1.668-0.387,2.506-0.563
	c0.037-0.008,0.074-0.018,0.111-0.024c0.635-0.11,1.037-0.46,1.137-1.114c0-4.324,0-8.649-0.002-12.974
	c0-1.049,0.002-2.097,0.002-3.146c0.002-0.96,0.371-1.435,1.307-1.624c3.102-0.631,6.206-1.254,9.309-1.877
	c1.326-0.268,2.654-0.529,3.982-0.793c0.096-0.02,0.195-0.029,0.293-0.047c0.65-0.113,1.109,0.234,1.18,0.896
	c0.008,0.083,0.008,0.168,0.008,0.252c0,4.783,0.002,9.567,0.002,14.351c0,0.077-0.006,0.153-0.01,0.229
	C-97.299,80.205-97.293,82.218-97.297,84.229z"/>
<path fill="#FFFFFF" d="M-41.75,44.833c-11.045,0-20,8.954-20,20s8.955,20,20,20c11.045,0,20-8.954,20-20
	S-30.705,44.833-41.75,44.833z M-52.333,64.266c0,0.102-0.083,0.184-0.185,0.184h-2.699c-0.102,0-0.185-0.082-0.185-0.184v-6.871
	c0-0.102,0.083-0.184,0.185-0.184h2.699c0.102,0,0.185,0.082,0.185,0.184V64.266z M-48.192,68.254c0,0.102-0.082,0.184-0.184,0.184
	h-2.699c-0.103,0-0.185-0.082-0.185-0.184V54.879c0-0.102,0.082-0.184,0.185-0.184h2.699c0.102,0,0.184,0.082,0.184,0.184V68.254z
	 M-44.143,72.455c0,0.103-0.082,0.185-0.184,0.185h-2.699c-0.102,0-0.185-0.082-0.185-0.185V59.082c0-0.102,0.083-0.185,0.185-0.185
	h2.699c0.102,0,0.184,0.083,0.184,0.185V72.455z M-40.094,76.873c0,0.102-0.082,0.184-0.184,0.184h-2.7
	c-0.102,0-0.184-0.082-0.184-0.184V63.498c0-0.102,0.082-0.184,0.184-0.184h2.7c0.102,0,0.184,0.082,0.184,0.184V76.873z
	 M-36.014,72.455c0,0.103-0.082,0.185-0.184,0.185h-2.699c-0.102,0-0.186-0.082-0.186-0.185V59.082c0-0.102,0.084-0.185,0.186-0.185
	h2.699c0.102,0,0.184,0.083,0.184,0.185V72.455z M-31.996,68.254c0,0.102-0.082,0.184-0.184,0.184h-2.699
	c-0.102,0-0.184-0.082-0.184-0.184V54.879c0-0.102,0.082-0.184,0.184-0.184h2.699c0.102,0,0.184,0.082,0.184,0.184V68.254z
	 M-27.885,64.266c0,0.102-0.082,0.184-0.184,0.184h-2.699c-0.102,0-0.186-0.082-0.186-0.184v-6.871c0-0.102,0.084-0.184,0.186-0.184
	h2.699c0.102,0,0.184,0.082,0.184,0.184V64.266z"/>
<path fill-rule="evenodd" clip-rule="evenodd" fill="#FEFEFE" d="M20,51.166c-11.045,0-20,8.955-20,20c0,11.047,8.955,20,20,20
	c11.047,0,20-8.953,20-20C40,60.121,31.047,51.166,20,51.166z M34.984,77.736c-0.877,0.004-1.754,0.004-2.631,0
	c-0.963-0.002-1.049-0.086-1.051-1.082c-0.004-3.309,0-6.617-0.002-9.926c0-0.256,0.025-0.513-0.018-0.764
	c-0.055-0.325-0.053-0.712-0.5-0.781c-0.451-0.07-0.836,0.021-1.076,0.47c-0.375,0.704-0.59,1.472-0.826,2.222
	c-1.066,3.381-2.166,6.75-3.27,10.119c-0.205,0.623-0.545,1.176-0.92,1.709c-2.734,3.406-9.063,2.605-10.399-2.166
	c-1.033-3.697-2.334-7.322-3.543-10.973c-0.211-0.637-0.311-1.564-1.273-1.402c-0.895,0.15-0.625,1.019-0.629,1.621
	c-0.025,3.281-0.035,6.563-0.002,9.844c0.008,0.805-0.244,1.125-1.066,1.078c-0.959-0.055-1.922-0.031-2.885-0.006
	c-0.594,0.016-0.881-0.182-0.877-0.824c0.018-3.932-0.027-7.864,0.029-11.795c0.037-2.543,1.914-4.434,4.566-4.747
	c1.566-0.185,3.043,0.073,4.361,1.001c1.371,0.994,1.865,2.497,2.346,4.017c1.113,3.516,2.252,7.022,3.416,10.521
	c0.113,0.344,0.164,0.703,0.338,1.035c0.232,0.445,0.535,0.75,1.047,0.701c0.486-0.047,0.814-0.338,0.991-0.809
	c0.305-0.818,0.559-1.656,0.814-2.49c0.871-2.822,1.803-5.624,2.734-8.426c0.424-1.279,0.713-2.609,1.588-3.701
	c0.195-0.246,0.385-0.481,0.637-0.666c2.074-1.525,4.758-1.654,6.965-0.336c1.387,0.885,2.07,2.128,2.135,3.793
	c0.148,3.9,0.025,7.801,0.068,11.701C36.063,77.652,35.963,77.734,34.984,77.736z"/>
<g>
	<path fill-rule="evenodd" clip-rule="evenodd" fill="#FEFEFE" d="M24.008-44.176c2.059-1.294,4.109-2.599,6.156-3.911
		c0.779-0.499,0.787-1.421,0.014-1.917c-2.035-1.305-4.08-2.596-6.123-3.892c-0.211-0.134-0.434-0.236-0.66-0.229
		c-0.643-0.006-1.119,0.461-1.123,1.131c-0.01,2.627-0.016,5.254,0.002,7.88C22.279-44.144,23.186-43.659,24.008-44.176z"/>
	<path fill-rule="evenodd" clip-rule="evenodd" fill="#FEFEFE" d="M18.441-31.391c-0.111,0.104-0.489-0.197-0.428,0.236
		c0.082,0.589,0.211,1.172,0.32,1.756c0.015,0.076,0.029,0.146,0.117,0.184c0.312,0.133,0.994-0.109,1.131-0.406
		C19.951-30.418,19.345-31.384,18.441-31.391z"/>
	<path fill-rule="evenodd" clip-rule="evenodd" fill="#FEFEFE" d="M28.197-34.803c-0.313-0.018-0.48,0.186-0.545,0.459
		c-0.18,0.762-0.225,1.539-0.219,2.319c0,0.101,0.031,0.207,0.07,0.302c0.148,0.367,0.568,0.422,0.805,0.104
		c0.111-0.147,0.158-0.325,0.191-0.506c0.092-0.524,0.133-1.055,0.148-1.586c0-0.182,0.016-0.365-0.004-0.545
		C28.613-34.526,28.529-34.782,28.197-34.803z"/>
	<path fill-rule="evenodd" clip-rule="evenodd" fill="#FEFEFE" d="M25.377-64.667c-11.045,0-20,8.954-20,20s8.955,20,20,20
		c11.045,0,20-8.954,20-20S36.422-64.667,25.377-64.667z M25.375-59.978c6.039,0,10.936,4.896,10.936,10.935
		c0,6.04-4.896,10.935-10.936,10.935c-6.039,0-10.934-4.896-10.934-10.935C14.441-55.083,19.336-59.978,25.375-59.978z
		 M20.96-28.904c-0.213,0.524-0.641,0.793-1.17,0.859c-0.773,0.1-1.554,0.142-2.33,0.212c-0.188,0.018-0.248-0.087-0.285-0.245
		c-0.412-1.759-0.836-3.516-1.236-5.278c-0.118-0.52,0.117-0.854,0.603-0.964c0.478-0.106,0.802,0.113,0.938,0.639
		c0.042,0.164,0.076,0.33,0.116,0.494c0.144,0.602,0.148,0.604,0.783,0.545c0.42-0.039,0.636-0.275,0.662-0.724
		c0.053-0.875-0.512-1.47-1.384-1.46c-0.481,0.004-0.963,0.014-1.444,0.006c-0.57-0.009-1.25-0.635-1.328-1.197
		c-0.023-0.157,0.078-0.145,0.162-0.142c1.221,0.051,2.453-0.027,3.656,0.21c1.061,0.209,1.666,1.095,1.754,2.389
		c0.047,0.69-0.059,1.308-0.826,1.651C20.794-31.447,21.406-30.001,20.96-28.904z M25.24-27.795
		c-0.338,0.002-0.688,0.044-0.934-0.261c-0.117-0.145-0.176-0.081-0.264,0.024c-0.406,0.477-0.93,0.553-1.488,0.365
		c-0.551-0.186-0.738-0.629-0.785-1.184c-0.131-1.58-0.287-3.158-0.436-4.737c-0.059-0.614-0.063-0.614,0.525-0.614
		c0.965-0.002,0.975-0.002,1.043,0.948c0.08,1.128,0.139,2.258,0.211,3.386c0.02,0.312,0.037,0.625,0.086,0.932
		c0.043,0.27,0.195,0.453,0.502,0.438c0.285-0.015,0.418-0.19,0.443-0.452c0.02-0.18,0.021-0.363,0.016-0.544
		c-0.037-1.352-0.078-2.704-0.119-4.056c-0.012-0.33,0.049-0.628,0.375-0.794c0.516-0.263,1.021,0.064,1.033,0.688
		c0.016,0.937,0.004,1.873,0.004,2.76c0.031,0.959-0.033,1.87,0.055,2.778C25.527-27.908,25.473-27.797,25.24-27.795z
		 M29.521-29.936c-0.283,1.181-2.012,1.725-2.943,0.939c-0.305-0.256-0.412-0.594-0.348-0.982c0.047-0.275,0.213-0.451,0.502-0.453
		c0.27-0.004,0.477,0.106,0.537,0.405c0.063,0.317,0.094,0.708,0.553,0.652c0.418-0.052,0.48-0.427,0.525-0.769
		c0.037-0.277,0.1-0.558,0.051-0.898c-0.359,0.326-0.74,0.486-1.191,0.455c-0.549-0.038-0.943-0.299-1.033-0.838
		c-0.197-1.167-0.154-2.336,0.199-3.471c0.152-0.491,0.502-0.813,1.043-0.877c0.67-0.078,0.969,0.066,1.441,0.716
		c0.23-0.343,0.557-0.487,0.961-0.499c0.268-0.008,0.373,0.063,0.338,0.354c-0.16,1.33-0.297,2.662-0.451,3.993
		C29.656-30.781,29.621-30.35,29.521-29.936z M33.053-32.773c-0.35-0.076-0.373-0.336-0.355-0.635
		c0.014-0.236,0.166-0.548-0.217-0.646c-0.256-0.065-0.51,0.179-0.598,0.55c-0.074,0.318,0.006,0.596,0.25,0.814
		c0.193,0.173,0.398,0.332,0.598,0.499c0.484,0.403,0.654,0.909,0.541,1.531c-0.203,1.117-1.109,1.903-2.133,1.826
		c-0.766-0.058-1.094-0.435-1.043-1.2c0.039-0.625,0.039-0.625,0.65-0.624c0.09,0,0.182,0.004,0.273-0.001
		c0.217-0.011,0.307,0.063,0.254,0.301c-0.049,0.227-0.104,0.507,0.207,0.584c0.324,0.081,0.498-0.149,0.611-0.42
		c0.156-0.379,0.033-0.689-0.258-0.941c-0.176-0.153-0.375-0.279-0.559-0.424c-0.779-0.614-0.918-1.598-0.365-2.596
		c0.445-0.809,1.457-1.219,2.307-0.936c0.412,0.137,0.646,0.419,0.691,0.852c0.039,0.369-0.012,0.729-0.145,1.072
		C33.639-32.848,33.398-32.697,33.053-32.773z M34.498-29.51c-0.318,0.01-0.588-0.231-0.604-0.537
		c-0.016-0.316,0.262-0.603,0.586-0.605c0.309-0.002,0.576,0.26,0.58,0.565C35.064-29.775,34.814-29.518,34.498-29.51z
		 M36.84-35.116c-0.516,1.248-1.037,2.495-1.559,3.741c-0.084,0.197-0.205,0.363-0.451,0.38c-0.252,0.017-0.375-0.136-0.457-0.344
		c-0.188-0.153-0.039-0.346-0.004-0.475c0.289-1.056,0.518-2.127,0.771-3.191c0.074-0.317,0.207-0.454,0.547-0.415
		c0.359,0.042,0.727-0.023,1.088,0.032C36.977-35.34,36.879-35.211,36.84-35.116z"/>
</g>
<path fill-rule="evenodd" clip-rule="evenodd" fill="#FEFEFE" d="M20,0C8.955,0,0,8.955,0,20c0,11.046,8.955,20,20,20
	c11.047,0,20-8.954,20-20C40,8.955,31.047,0,20,0z M29.063,28.991c-0.404,0.481-1.051,0.591-1.625,0.252
	c-0.834-0.492-1.689-0.935-2.588-1.298c-2.117-0.858-4.323-1.298-6.6-1.423c-2.758-0.151-5.471,0.174-8.158,0.765
	c-0.229,0.051-0.457,0.103-0.695,0.056c-0.586-0.114-1.006-0.599-1.029-1.188c-0.021-0.576,0.371-1.099,0.957-1.242
	c0.785-0.192,1.582-0.342,2.379-0.473c1.617-0.266,3.242-0.43,4.881-0.443c4.299-0.046,8.36,0.844,12.077,3.08
	C29.398,27.521,29.578,28.378,29.063,28.991z M31.621,23.39c-0.443,0.742-1.385,0.974-2.166,0.506
	c-2.996-1.791-6.268-2.729-9.711-3.121c-3.016-0.343-6.008-0.216-8.971,0.478c-0.404,0.096-0.807,0.213-1.209,0.321
	c-0.881,0.236-1.723-0.212-1.965-1.048c-0.242-0.838,0.221-1.671,1.096-1.937c1.922-0.584,3.891-0.912,5.895-1.05
	c0.799-0.055,1.598-0.063,2.619-0.068c4.071,0.077,8.19,0.909,12.073,2.786c0.602,0.292,1.189,0.613,1.76,0.965
	C31.832,21.71,32.076,22.63,31.621,23.39z M33.244,17.928c-0.475,0.117-0.939,0.072-1.365-0.176c-2.99-1.742-6.26-2.614-9.658-3.084
	c-2.831-0.392-5.668-0.458-8.514-0.197c-1.736,0.159-3.447,0.458-5.125,0.943c-0.789,0.228-1.467,0.002-1.99-0.628
	c-0.477-0.577-0.535-1.398-0.17-2.06c0.262-0.477,0.67-0.763,1.186-0.916c1.514-0.448,3.059-0.742,4.625-0.936
	c1.607-0.199,3.221-0.298,4.842-0.286c3.985,0.01,7.897,0.512,11.7,1.732c1.73,0.554,3.393,1.261,4.955,2.192
	c0.686,0.409,1.016,1.127,0.896,1.91C34.518,17.149,33.973,17.749,33.244,17.928z"/>
</svg>
