<?xml version="1.0" encoding="utf-8"?>
<!-- Generator: Adobe Illustrator 16.0.0, SVG Export Plug-In . SVG Version: 6.00 Build 0)  -->
<!DOCTYPE svg PUBLIC "-//W3C//DTD SVG 1.1//EN" "http://www.w3.org/Graphics/SVG/1.1/DTD/svg11.dtd">
<svg version="1.1" id="Layer_1" xmlns="http://www.w3.org/2000/svg" xmlns:xlink="http://www.w3.org/1999/xlink" x="0px" y="0px"
	 width="20px" height="30px" viewBox="0 0 20 30" enable-background="new 0 0 20 30" xml:space="preserve">
<g>
	<path fill="#FFFFFF" d="M10.899,30H9.102C4.083,30,0,25.877,0,20.807V9.194C0,4.125,4.083,0,9.102,0h1.797
		C15.918,0,20,4.125,20,9.194v11.613C20,25.877,15.918,30,10.899,30z M9.102,0.969c-4.494,0-8.149,3.689-8.149,8.225v11.613
		c0,4.535,3.656,8.227,8.149,8.227h1.797c4.494,0,8.15-3.691,8.15-8.227V9.194c0-4.535-3.656-8.225-8.15-8.225H9.102z"/>
</g>
<g>
	<path fill="#FFFFFF" d="M10.13,10.1H9.871c-0.946,0-1.716-0.778-1.716-1.734v-1.67c0-0.957,0.77-1.736,1.716-1.736h0.259
		c0.946,0,1.716,0.779,1.716,1.736v1.67C11.846,9.322,11.076,10.1,10.13,10.1z M9.871,5.928c-0.421,0-0.764,0.344-0.764,0.768v1.67
		c0,0.423,0.343,0.768,0.764,0.768h0.259c0.421,0,0.764-0.345,0.764-0.768v-1.67c0-0.424-0.343-0.768-0.764-0.768H9.871z"/>
</g>
<g>
	<g>
		<rect x="9.496" y="12.218" fill="#FFFFFF" width="1.008" height="5.921"/>
	</g>
	<g>
		<rect x="9.496" y="21.903" fill="#FFFFFF" width="1.008" height="5.923"/>
	</g>
	<g>
		<g>
			<path fill="#FFFFFF" d="M7.579,15.722c0.117,0.075,0.273,0.04,0.349-0.08L10,12.334l2.073,3.307
				c0.074,0.12,0.232,0.155,0.35,0.08c0.117-0.078,0.15-0.235,0.077-0.355l-2.287-3.648c-0.046-0.073-0.127-0.118-0.213-0.118
				s-0.167,0.044-0.213,0.118l-2.286,3.648c-0.026,0.042-0.039,0.089-0.039,0.137C7.462,15.59,7.503,15.672,7.579,15.722z"/>
		</g>
	</g>
	<g>
		<g>
			<path fill="#FFFFFF" d="M7.579,24.321c0.117-0.075,0.273-0.042,0.349,0.078L10,27.707l2.073-3.308
				c0.074-0.12,0.232-0.153,0.35-0.078c0.117,0.074,0.15,0.235,0.077,0.353l-2.287,3.648c-0.046,0.074-0.127,0.119-0.213,0.119
				s-0.167-0.045-0.213-0.119l-2.286-3.648c-0.026-0.041-0.039-0.09-0.039-0.138C7.462,24.452,7.503,24.369,7.579,24.321z"/>
		</g>
	</g>
</g>
</svg>
