<?xml version="1.0" encoding="utf-8"?>
<!-- Generator: Adobe Illustrator 16.0.0, SVG Export Plug-In . SVG Version: 6.00 Build 0)  -->
<!DOCTYPE svg PUBLIC "-//W3C//DTD SVG 1.1//EN" "http://www.w3.org/Graphics/SVG/1.1/DTD/svg11.dtd">
<svg version="1.1" id="Layer_1" xmlns="http://www.w3.org/2000/svg" xmlns:xlink="http://www.w3.org/1999/xlink" x="0px" y="0px"
	 width="42.553px" height="31px" viewBox="0 0 42.553 31" enable-background="new 0 0 42.553 31" xml:space="preserve">
<g>
	<g>
		<path fill="#FFFFFF" d="M25.074,15.043h-7.596c-1.648,0-2.989-1.342-2.989-2.99V2.99c0-1.648,1.341-2.99,2.989-2.99h7.596
			c1.648,0,2.989,1.342,2.989,2.99v9.063C28.063,13.701,26.723,15.043,25.074,15.043z M17.479,1c-1.097,0-1.989,0.893-1.989,1.99
			v9.063c0,1.098,0.893,1.99,1.989,1.99h7.596c1.097,0,1.989-0.893,1.989-1.99V2.99c0-1.098-0.893-1.99-1.989-1.99H17.479z"/>
	</g>
	<g>
		<path fill="#FFFFFF" d="M25.074,31h-7.596c-1.648,0-2.989-1.341-2.989-2.988v-9.064c0-1.648,1.341-2.99,2.989-2.99h7.596
			c1.648,0,2.989,1.342,2.989,2.99v9.064C28.063,29.659,26.723,31,25.074,31z M17.479,16.957c-1.097,0-1.989,0.893-1.989,1.99v9.064
			c0,1.097,0.893,1.988,1.989,1.988h7.596c1.097,0,1.989-0.892,1.989-1.988v-9.064c0-1.098-0.893-1.99-1.989-1.99H17.479z"/>
	</g>
	<g>
		<path fill="#FFFFFF" d="M39.563,31h-7.596c-1.648,0-2.989-1.341-2.989-2.988v-9.064c0-1.648,1.341-2.99,2.989-2.99h7.596
			c1.648,0,2.989,1.342,2.989,2.99v9.064C42.553,29.659,41.212,31,39.563,31z M31.968,16.957c-1.097,0-1.989,0.893-1.989,1.99v9.064
			c0,1.097,0.893,1.988,1.989,1.988h7.596c1.097,0,1.989-0.892,1.989-1.988v-9.064c0-1.098-0.893-1.99-1.989-1.99H31.968z"/>
	</g>
	<g>
		<path fill="#FFFFFF" d="M10.585,31H2.989C1.341,31,0,29.659,0,28.012v-9.064c0-1.648,1.341-2.99,2.989-2.99h7.596
			c1.648,0,2.989,1.342,2.989,2.99v9.064C13.574,29.659,12.233,31,10.585,31z M2.989,16.957C1.893,16.957,1,17.85,1,18.947v9.064
			C1,29.108,1.893,30,2.989,30h7.596c1.097,0,1.989-0.892,1.989-1.988v-9.064c0-1.098-0.893-1.99-1.989-1.99H2.989z"/>
	</g>
	<g>
		<polygon fill="#FFFFFF" points="23.671,7.44 21.276,3.293 18.882,7.44 20.796,7.44 20.796,11.751 21.757,11.751 21.757,7.44 		"/>
	</g>
	<g>
		<polygon fill="#FFFFFF" points="23.671,23.561 21.276,27.709 18.882,23.561 20.796,23.561 20.796,19.25 21.757,19.25 
			21.757,23.561 		"/>
	</g>
	<g>
		<polygon fill="#FFFFFF" points="35.847,21.084 39.995,23.479 35.847,25.873 35.847,23.959 31.536,23.959 31.536,22.998 
			35.847,22.998 		"/>
	</g>
	<g>
		<polygon fill="#FFFFFF" points="6.705,25.873 2.559,23.479 6.705,21.084 6.705,22.998 11.017,22.998 11.017,23.959 6.705,23.959 
					"/>
	</g>
</g>
</svg>
