<?xml version="1.0" encoding="utf-8"?>
<!-- Generator: Adobe Illustrator 16.0.0, SVG Export Plug-In . SVG Version: 6.00 Build 0)  -->
<!DOCTYPE svg PUBLIC "-//W3C//DTD SVG 1.1//EN" "http://www.w3.org/Graphics/SVG/1.1/DTD/svg11.dtd">
<svg version="1.1" id="Layer_1" xmlns="http://www.w3.org/2000/svg" xmlns:xlink="http://www.w3.org/1999/xlink" x="0px" y="0px"
	 width="40px" height="40px" viewBox="0 0 40 40" enable-background="new 0 0 40 40" xml:space="preserve">
<g>
	<path fill="#FFFFFF" d="M20,0C8.954,0,0,8.954,0,20s8.954,20,20,20s19.999-8.954,19.999-20S31.046,0,20,0z M16.636,36.735
		c-6.416,0-11.617-5.199-11.617-11.615s5.201-11.617,11.617-11.617s11.617,5.201,11.617,11.617S23.052,36.735,16.636,36.735z
		 M28.071,13.887c-2.397,0-4.341-1.944-4.341-4.342c0-2.397,1.943-4.34,4.341-4.34c2.398,0,4.342,1.943,4.342,4.34
		C32.413,11.943,30.47,13.887,28.071,13.887z"/>
	<circle fill="#FFFFFF" cx="16.636" cy="25.12" r="5.12"/>
</g>
<g>
	<path fill-rule="evenodd" clip-rule="evenodd" fill="#FFFFFF" d="M122.634,3.705c-9.001-0.014-16.339,7.293-16.343,16.278
		c-0.006,8.977,7.303,16.305,16.268,16.313c8.998,0.008,16.313-7.295,16.324-16.299C138.895,11.057,131.576,3.719,122.634,3.705z
		 M132.996,11.679c-0.926,4.162-1.863,8.322-2.775,12.488c-0.42,1.917-1.172,3.66-2.539,5.093c-1.623,1.698-3.652,2.545-5.969,2.718
		c-1.924,0.143-3.783-0.108-5.455-1.168c-1.58-1.002-2.57-2.446-3.107-4.222c-0.082-0.272-0.07-0.408,0.285-0.4
		c1.246,0.027,2.492,0.026,3.739,0.03c0.238,0.001,0.436,0.026,0.549,0.285c1.112,2.543,4.718,2.66,6.442,0.777
		c1.135-1.24,1.523-2.777,1.746-4.393c-0.211-0.022-0.258,0.112-0.334,0.191c-3.256,3.383-8.817,2.344-10.545-2.03
		c-1.325-3.357-0.676-6.507,1.42-9.358c1.476-2.01,3.465-3.283,5.988-3.536c2.439-0.244,4.435,0.588,5.794,2.689
		c0.249,0.385,0.425,0.371,0.773,0.176c1.429-0.799,2.872-1.571,4.31-2.352c0.09-0.049,0.17-0.13,0.361-0.082
		C133.448,9.633,133.225,10.656,132.996,11.679z"/>
	<path fill-rule="evenodd" clip-rule="evenodd" fill="#FFFFFF" d="M122.586,0c-11.045,0-20,8.955-20,20c0,11.045,8.955,20,20,20
		c11.047,0,20-8.954,20-20C142.586,8.955,133.633,0,122.586,0z M122.588,37.914c-9.863,0.009-17.91-8.029-17.915-17.893
		c-0.005-9.895,8.024-17.935,17.913-17.935c9.87,0,17.917,8.037,17.914,17.893C140.498,29.884,132.484,37.906,122.588,37.914z"/>
	<path fill-rule="evenodd" clip-rule="evenodd" fill="#FFFFFF" d="M123.461,11.875c-1.043,0.15-1.916,0.629-2.594,1.412
		c-1.592,1.84-2.117,3.942-1.342,6.281c0.363,1.096,1.135,1.852,2.314,2.031c1.209,0.185,2.342-0.084,3.299-0.87
		c1.639-1.347,2.205-3.187,2.316-5.22c0-0.09,0.002-0.18,0-0.27C127.4,12.981,125.699,11.553,123.461,11.875z"/>
</g>
<g>
	<path fill-rule="evenodd" clip-rule="evenodd" fill="#FFFFFF" d="M282.711,9.748c-6.762-0.015-13.521-0.015-20.283,0.001
		c-2.936,0.005-4.625,1.684-4.635,4.606c-0.012,3.718-0.006,7.433-0.002,11.148c0.006,3.097,1.641,4.74,4.73,4.752
		c1.346,0.005,2.693,0.007,4.039,0.007l5.924-0.003l6.211,0.004c1.33,0,2.66-0.002,3.99-0.008c3.02-0.012,4.688-1.67,4.695-4.668
		c0.008-3.717,0.008-7.433,0-11.149C287.373,11.418,285.715,9.752,282.711,9.748z M269.439,25.966c0-3.91,0-7.622,0-11.581
		c2.98,1.964,5.834,3.845,8.789,5.795C275.275,22.124,272.422,24.003,269.439,25.966z"/>
	<path fill-rule="evenodd" clip-rule="evenodd" fill="#FFFFFF" d="M272.586,0c-11.045,0-20,8.955-20,20c0,11.045,8.955,20,20,20
		s20-8.955,20-20C292.586,8.955,283.631,0,272.586,0z M282.689,31.056c-1.332,0.005-2.664,0.007-3.994,0.007l-6.211-0.004
		l-5.924,0.003c-1.348,0-2.695-0.001-4.043-0.006c-3.506-0.015-5.52-2.037-5.525-5.551c-0.006-3.718-0.01-7.435,0.002-11.154
		c0.01-3.377,2.041-5.396,5.432-5.402c6.762-0.017,13.525-0.015,20.287-0.002c3.416,0.005,5.459,2.058,5.467,5.489
		c0.008,3.718,0.01,7.434,0,11.152C288.172,29.049,286.17,31.041,282.689,31.056z"/>
</g>
<path fill-rule="evenodd" clip-rule="evenodd" fill="#FFFFFF" d="M322.586,0c-11.045,0-20,8.954-20,20s8.955,20,20,20
	c11.047,0,20-8.954,20-20S333.633,0,322.586,0z M332.988,26.979c0,0.305-0.031,0.609-0.121,0.904
	c-0.002,0.015-0.006,0.029-0.012,0.045c-0.271,1.234-0.977,2.137-2.131,2.637c-0.986,0.428-2.041,0.586-3.115,0.485
	c-1.248-0.117-2.367-1.042-2.711-2.192c-0.197-0.445-0.215-0.913-0.17-1.389c0.018-0.127,0.016-0.258,0.082-0.373
	c0.182-0.896,0.674-1.576,1.449-2.053c0.74-0.455,1.572-0.663,2.412-0.845c0.523-0.113,1.047-0.221,1.572-0.323
	c0.492-0.096,0.863-0.337,1.047-0.823c0.018-0.091,0.035-0.182,0.053-0.272c0.004-1.73,0.01-3.46,0.01-5.19
	c0-1.493-0.004-2.985-0.006-4.478c0-0.069,0.002-0.138-0.002-0.207c-0.027-0.487-0.271-0.717-0.756-0.676
	c-0.543,0.045-1.07,0.193-1.602,0.299c-1.434,0.287-2.863,0.584-4.295,0.875c-0.141,0.028-0.287,0.037-0.43,0.055
	c-0.201,0.122-0.436,0.118-0.656,0.165c-0.824,0.176-1.65,0.335-2.477,0.509c-0.133,0.028-0.275-0.015-0.4,0.061
	c-0.455,0.1-0.91,0.196-1.365,0.298c-0.529,0.119-0.725,0.335-0.781,0.874c-0.018,0.167-0.016,0.336-0.016,0.504
	c0,1.423,0.002,2.846,0.002,4.27c0,0.115-0.008,0.229-0.01,0.344c0.002,1.864,0.008,3.727,0.008,5.591
	c0,1.046-0.006,2.093-0.008,3.139c0.014,0.89-0.076,1.76-0.494,2.563c-0.631,1.211-1.684,1.814-2.986,2.049
	c-0.619,0.111-1.238,0.207-1.871,0.129c-1.348-0.168-2.412-1.061-2.742-2.311c-0.016-0.059-0.021-0.119-0.033-0.18
	c-0.264-1.195,0.006-2.244,0.881-3.112c0.512-0.51,1.166-0.771,1.846-0.976c0.822-0.246,1.668-0.387,2.506-0.563
	c0.037-0.008,0.074-0.018,0.111-0.024c0.635-0.11,1.037-0.46,1.137-1.114c0-4.324,0-8.649-0.002-12.973
	c0-1.049,0.002-2.097,0.002-3.146c0.002-0.959,0.371-1.435,1.307-1.625c3.102-0.631,6.205-1.253,9.309-1.877
	c1.326-0.267,2.654-0.529,3.982-0.792c0.096-0.019,0.195-0.029,0.293-0.046c0.65-0.113,1.109,0.234,1.18,0.896
	c0.008,0.083,0.008,0.168,0.008,0.252c0,4.784,0.002,9.567,0.002,14.351c0,0.077-0.006,0.153-0.01,0.229
	C332.986,22.955,332.992,24.968,332.988,26.979z"/>
<path fill="#FFFFFF" d="M72.586,0c-11.045,0-20,8.954-20,20s8.955,20,20,20c11.046,0,20-8.954,20-20S83.632,0,72.586,0z
	 M62.004,19.433c0,0.102-0.083,0.184-0.185,0.184H59.12c-0.102,0-0.185-0.083-0.185-0.184v-6.871c0-0.102,0.083-0.184,0.185-0.184
	h2.699c0.102,0,0.185,0.083,0.185,0.184V19.433z M66.145,23.421c0,0.102-0.082,0.184-0.184,0.184h-2.699
	c-0.103,0-0.185-0.082-0.185-0.184V10.046c0-0.102,0.082-0.184,0.185-0.184h2.699c0.102,0,0.184,0.083,0.184,0.184V23.421z
	 M70.193,27.622c0,0.103-0.082,0.185-0.184,0.185h-2.699c-0.102,0-0.185-0.082-0.185-0.185V14.249c0-0.102,0.083-0.184,0.185-0.184
	h2.699c0.102,0,0.184,0.083,0.184,0.184V27.622z M74.242,32.04c0,0.102-0.082,0.184-0.184,0.184h-2.699
	c-0.102,0-0.184-0.082-0.184-0.184V18.666c0-0.102,0.082-0.184,0.184-0.184h2.699c0.102,0,0.184,0.083,0.184,0.184V32.04z
	 M78.322,27.622c0,0.103-0.082,0.185-0.184,0.185h-2.699c-0.102,0-0.185-0.082-0.185-0.185V14.249c0-0.102,0.083-0.184,0.185-0.184
	h2.699c0.102,0,0.184,0.083,0.184,0.184V27.622z M82.341,23.421c0,0.102-0.082,0.184-0.185,0.184h-2.699
	c-0.102,0-0.184-0.082-0.184-0.184V10.046c0-0.102,0.082-0.184,0.184-0.184h2.699c0.103,0,0.185,0.083,0.185,0.184V23.421z
	 M86.451,19.433c0,0.102-0.082,0.184-0.184,0.184h-2.699c-0.102,0-0.185-0.083-0.185-0.184v-6.871c0-0.102,0.083-0.184,0.185-0.184
	h2.699c0.102,0,0.184,0.083,0.184,0.184V19.433z"/>
<path fill-rule="evenodd" clip-rule="evenodd" fill="#FEFEFE" d="M222.586,0c-11.045,0-20,8.954-20,20s8.955,20,20,20
	c11.047,0,20-8.954,20-20S233.633,0,222.586,0z M237.57,26.57c-0.877,0.003-1.754,0.003-2.631,0
	c-0.963-0.003-1.049-0.087-1.051-1.082c-0.004-3.31,0-6.618-0.002-9.927c0-0.255,0.025-0.512-0.018-0.763
	c-0.055-0.326-0.053-0.712-0.5-0.782c-0.451-0.07-0.836,0.021-1.076,0.47c-0.375,0.704-0.59,1.472-0.826,2.221
	c-1.066,3.381-2.166,6.75-3.27,10.119c-0.205,0.623-0.545,1.176-0.92,1.709c-2.734,3.406-9.063,2.605-10.398-2.166
	c-1.033-3.697-2.334-7.322-3.543-10.972c-0.211-0.637-0.311-1.565-1.273-1.403c-0.895,0.151-0.625,1.019-0.629,1.621
	c-0.025,3.281-0.035,6.563-0.002,9.844c0.008,0.805-0.244,1.125-1.066,1.078c-0.959-0.054-1.922-0.03-2.885-0.006
	c-0.594,0.016-0.881-0.182-0.877-0.823c0.018-3.933-0.027-7.865,0.029-11.796c0.037-2.542,1.914-4.433,4.566-4.747
	c1.566-0.185,3.043,0.074,4.361,1c1.371,0.995,1.865,2.498,2.346,4.017c1.113,3.516,2.252,7.023,3.416,10.521
	c0.113,0.344,0.164,0.702,0.338,1.035c0.232,0.444,0.535,0.749,1.047,0.7c0.486-0.047,0.814-0.337,0.99-0.808
	c0.305-0.819,0.559-1.657,0.814-2.491c0.871-2.822,1.803-5.624,2.734-8.426c0.424-1.279,0.713-2.609,1.588-3.701
	c0.195-0.245,0.385-0.481,0.637-0.666c2.074-1.525,4.758-1.654,6.965-0.335c1.387,0.884,2.07,2.127,2.135,3.792
	c0.148,3.901,0.025,7.802,0.068,11.702C238.648,26.485,238.549,26.567,237.57,26.57z"/>
<g>
	<path fill-rule="evenodd" clip-rule="evenodd" fill="#FEFEFE" d="M171.217,20.491c2.059-1.294,4.109-2.599,6.157-3.911
		c0.778-0.499,0.786-1.421,0.013-1.917c-2.035-1.305-4.08-2.596-6.122-3.892c-0.212-0.134-0.435-0.236-0.661-0.229
		c-0.643-0.006-1.119,0.461-1.122,1.131c-0.011,2.627-0.016,5.254,0.001,7.88C169.488,20.523,170.395,21.008,171.217,20.491z"/>
	<path fill-rule="evenodd" clip-rule="evenodd" fill="#FEFEFE" d="M165.65,33.276c-0.111,0.104-0.489-0.197-0.428,0.236
		c0.082,0.589,0.211,1.172,0.32,1.756c0.015,0.076,0.029,0.146,0.117,0.184c0.312,0.133,0.994-0.109,1.131-0.406
		C167.16,34.249,166.555,33.283,165.65,33.276z"/>
	<path fill-rule="evenodd" clip-rule="evenodd" fill="#FEFEFE" d="M175.407,29.864c-0.313-0.018-0.48,0.186-0.545,0.459
		c-0.181,0.762-0.225,1.539-0.22,2.319c0.001,0.101,0.031,0.207,0.07,0.302c0.148,0.367,0.568,0.422,0.806,0.104
		c0.11-0.147,0.158-0.325,0.19-0.506c0.093-0.524,0.133-1.055,0.148-1.586c0-0.182,0.016-0.365-0.004-0.545
		C175.822,30.141,175.738,29.885,175.407,29.864z"/>
	<path fill-rule="evenodd" clip-rule="evenodd" fill="#FEFEFE" d="M172.586,0c-11.045,0-20,8.954-20,20s8.955,20,20,20
		c11.046,0,20-8.954,20-20S183.632,0,172.586,0z M172.585,4.689c6.039,0,10.935,4.896,10.935,10.935
		c0,6.04-4.896,10.935-10.935,10.935s-10.935-4.896-10.935-10.935C161.65,9.584,166.546,4.689,172.585,4.689z M168.17,35.763
		c-0.213,0.524-0.641,0.793-1.17,0.859c-0.773,0.1-1.554,0.142-2.33,0.212c-0.188,0.018-0.248-0.087-0.285-0.245
		c-0.412-1.759-0.836-3.516-1.236-5.278c-0.118-0.52,0.117-0.854,0.603-0.964c0.478-0.106,0.802,0.113,0.938,0.639
		c0.042,0.164,0.076,0.33,0.116,0.494c0.144,0.602,0.148,0.604,0.783,0.545c0.42-0.039,0.636-0.275,0.662-0.724
		c0.053-0.875-0.512-1.47-1.384-1.46c-0.481,0.004-0.963,0.014-1.444,0.006c-0.57-0.009-1.25-0.635-1.328-1.197
		c-0.023-0.157,0.078-0.145,0.162-0.142c1.221,0.051,2.453-0.027,3.656,0.21c1.061,0.209,1.666,1.095,1.754,2.389
		c0.047,0.69-0.059,1.308-0.826,1.651C168.004,33.22,168.615,34.666,168.17,35.763z M172.45,36.872
		c-0.339,0.002-0.688,0.044-0.935-0.261c-0.117-0.145-0.175-0.081-0.264,0.024c-0.406,0.477-0.93,0.553-1.488,0.365
		c-0.551-0.186-0.738-0.629-0.784-1.184c-0.131-1.58-0.287-3.158-0.437-4.737c-0.059-0.614-0.063-0.614,0.525-0.614
		c0.965-0.002,0.975-0.002,1.043,0.948c0.08,1.128,0.139,2.258,0.211,3.386c0.02,0.312,0.037,0.625,0.086,0.932
		c0.043,0.27,0.195,0.453,0.502,0.438c0.286-0.015,0.418-0.19,0.444-0.452c0.019-0.18,0.021-0.363,0.016-0.544
		c-0.038-1.352-0.079-2.704-0.12-4.056c-0.011-0.33,0.05-0.628,0.375-0.794c0.516-0.263,1.021,0.064,1.033,0.688
		c0.016,0.937,0.004,1.873,0.004,2.76c0.031,0.959-0.033,1.87,0.055,2.778C172.736,36.759,172.683,36.87,172.45,36.872z
		 M176.73,34.731c-0.282,1.181-2.011,1.725-2.943,0.939c-0.305-0.256-0.412-0.594-0.347-0.982c0.046-0.275,0.212-0.451,0.501-0.453
		c0.271-0.004,0.477,0.106,0.537,0.405c0.063,0.317,0.095,0.708,0.553,0.652c0.418-0.052,0.48-0.427,0.525-0.769
		c0.038-0.277,0.1-0.558,0.052-0.898c-0.36,0.326-0.74,0.486-1.192,0.455c-0.549-0.038-0.942-0.299-1.033-0.838
		c-0.196-1.167-0.154-2.336,0.199-3.471c0.152-0.491,0.502-0.813,1.043-0.877c0.67-0.078,0.969,0.066,1.442,0.716
		c0.229-0.343,0.556-0.487,0.96-0.499c0.269-0.008,0.373,0.063,0.338,0.354c-0.159,1.33-0.297,2.662-0.45,3.993
		C176.866,33.886,176.83,34.317,176.73,34.731z M180.262,31.894c-0.35-0.076-0.373-0.336-0.355-0.635
		c0.014-0.236,0.166-0.548-0.217-0.646c-0.256-0.065-0.51,0.179-0.598,0.55c-0.074,0.318,0.006,0.596,0.25,0.814
		c0.193,0.173,0.399,0.332,0.599,0.499c0.483,0.403,0.653,0.909,0.54,1.531c-0.203,1.117-1.108,1.903-2.133,1.826
		c-0.766-0.058-1.093-0.435-1.043-1.2c0.039-0.625,0.039-0.625,0.65-0.624c0.091,0,0.182,0.004,0.273-0.001
		c0.217-0.011,0.308,0.063,0.255,0.301c-0.05,0.227-0.104,0.507,0.206,0.584c0.324,0.081,0.498-0.149,0.611-0.42
		c0.157-0.379,0.033-0.689-0.258-0.941c-0.176-0.153-0.375-0.279-0.559-0.424c-0.779-0.614-0.917-1.598-0.365-2.596
		c0.446-0.809,1.457-1.219,2.307-0.936c0.412,0.137,0.646,0.419,0.692,0.852c0.039,0.369-0.012,0.729-0.146,1.072
		C180.849,31.819,180.607,31.97,180.262,31.894z M181.707,35.157c-0.317,0.01-0.588-0.231-0.604-0.537
		c-0.016-0.316,0.262-0.603,0.586-0.605c0.309-0.002,0.577,0.26,0.581,0.565C182.274,34.892,182.023,35.149,181.707,35.157z
		 M184.049,29.551c-0.516,1.248-1.036,2.495-1.559,3.741c-0.084,0.197-0.205,0.363-0.45,0.38c-0.253,0.017-0.376-0.136-0.458-0.344
		c-0.188-0.153-0.039-0.346-0.004-0.475c0.29-1.056,0.519-2.127,0.771-3.191c0.075-0.317,0.207-0.454,0.547-0.415
		c0.359,0.042,0.727-0.023,1.089,0.032C184.187,29.327,184.088,29.456,184.049,29.551z"/>
</g>
<path fill-rule="evenodd" clip-rule="evenodd" fill="#FEFEFE" d="M372.586,0c-11.045,0-20,8.955-20,20c0,11.046,8.955,20,20,20
	c11.047,0,20-8.954,20-20C392.586,8.955,383.633,0,372.586,0z M381.648,28.991c-0.404,0.481-1.051,0.591-1.625,0.252
	c-0.834-0.492-1.689-0.935-2.588-1.298c-2.117-0.858-4.322-1.298-6.6-1.423c-2.758-0.151-5.471,0.174-8.158,0.765
	c-0.229,0.051-0.457,0.103-0.695,0.056c-0.586-0.114-1.006-0.599-1.029-1.188c-0.021-0.576,0.371-1.099,0.957-1.242
	c0.785-0.192,1.582-0.342,2.379-0.473c1.617-0.266,3.242-0.43,4.881-0.443c4.299-0.046,8.359,0.844,12.076,3.08
	C381.984,27.521,382.164,28.378,381.648,28.991z M384.207,23.39c-0.443,0.742-1.385,0.974-2.166,0.506
	c-2.996-1.791-6.268-2.729-9.711-3.121c-3.016-0.343-6.008-0.216-8.971,0.478c-0.404,0.096-0.807,0.213-1.209,0.321
	c-0.881,0.236-1.723-0.212-1.965-1.048c-0.242-0.838,0.221-1.671,1.096-1.937c1.922-0.584,3.891-0.912,5.895-1.05
	c0.799-0.055,1.598-0.063,2.619-0.068c4.07,0.077,8.189,0.909,12.072,2.786c0.602,0.292,1.189,0.613,1.76,0.965
	C384.418,21.71,384.662,22.63,384.207,23.39z M385.83,17.928c-0.475,0.117-0.939,0.072-1.365-0.176
	c-2.99-1.742-6.26-2.614-9.658-3.084c-2.83-0.392-5.668-0.458-8.514-0.197c-1.736,0.159-3.447,0.458-5.125,0.943
	c-0.789,0.228-1.467,0.002-1.99-0.628c-0.477-0.577-0.535-1.398-0.17-2.06c0.262-0.477,0.67-0.763,1.186-0.916
	c1.514-0.448,3.059-0.742,4.625-0.936c1.607-0.199,3.221-0.298,4.842-0.286c3.984,0.01,7.896,0.512,11.699,1.732
	c1.73,0.554,3.393,1.261,4.955,2.192c0.686,0.409,1.016,1.127,0.896,1.91C387.104,17.149,386.559,17.749,385.83,17.928z"/>
</svg>
