<?xml version="1.0" encoding="utf-8"?>
<!-- Generator: Adobe Illustrator 16.0.0, SVG Export Plug-In . SVG Version: 6.00 Build 0)  -->
<!DOCTYPE svg PUBLIC "-//W3C//DTD SVG 1.1//EN" "http://www.w3.org/Graphics/SVG/1.1/DTD/svg11.dtd">
<svg version="1.1" id="Layer_1" xmlns="http://www.w3.org/2000/svg" xmlns:xlink="http://www.w3.org/1999/xlink" x="0px" y="0px"
	 width="23px" height="22px" viewBox="0 0 23 22" enable-background="new 0 0 23 22" xml:space="preserve">
<path fill="#FFFFFF" d="M22.887,19.474c-0.072-0.056-1.811-1.387-3.861-3.349c-1.583-1.514-2.762-2.835-3.259-3.41
	c2.224-3.242,1.766-7.56-1.109-10.309C13.035,0.854,10.879,0,8.584,0C6.291,0,4.134,0.854,2.512,2.406
	c-3.349,3.203-3.349,8.413,0,11.616c1.622,1.551,3.779,2.405,6.073,2.405c1.685,0,3.307-0.462,4.7-1.337
	c0.686,0.571,2.572,2.152,3.573,3.109c1.185,1.132,3.271,3.438,3.509,3.701c0.054,0.061,0.132,0.097,0.22,0.1h0.006
	c0.077,0,0.154-0.03,0.21-0.083l2.111-2.02c0.06-0.058,0.091-0.137,0.086-0.218C22.995,19.599,22.954,19.523,22.887,19.474z
	 M8.584,0.571c2.135,0,4.141,0.795,5.651,2.238c2.644,2.529,3.092,6.512,1.086,9.517c-0.001,0-0.001,0-0.002,0l-0.035-0.003
	c-0.074,0-0.146,0.029-0.203,0.084l-2.112,2.02c-0.058,0.057-0.089,0.134-0.086,0.211c0,0.007,0.001,0.013,0.002,0.02
	c-1.28,0.785-2.764,1.198-4.3,1.198c-2.134,0-4.141-0.795-5.65-2.238c-3.116-2.979-3.116-7.828,0-10.808
	C4.443,1.366,6.45,0.571,8.584,0.571z"/>
</svg>
