<?xml version="1.0" encoding="utf-8"?>
<!-- Generator: Adobe Illustrator 16.0.0, SVG Export Plug-In . SVG Version: 6.00 Build 0)  -->
<!DOCTYPE svg PUBLIC "-//W3C//DTD SVG 1.1//EN" "http://www.w3.org/Graphics/SVG/1.1/DTD/svg11.dtd">
<svg version="1.1" id="Layer_1" xmlns="http://www.w3.org/2000/svg" xmlns:xlink="http://www.w3.org/1999/xlink" x="0px" y="0px"
	 width="98px" height="98px" viewBox="0 0 98 98" enable-background="new 0 0 98 98" xml:space="preserve">
<g>
	<g>
		<path fill="#D44272" d="M70.764,68.817H26.137c-0.673,0-1.219-0.546-1.219-1.219s0.545-1.219,1.219-1.219h44.626
			c0.673,0,1.219,0.546,1.219,1.219S71.437,68.817,70.764,68.817z"/>
	</g>
	<g>
		<path fill="#D44272" d="M60.58,79c-0.313,0-0.624-0.118-0.861-0.356c-0.477-0.477-0.477-1.248,0-1.724l10.183-10.183
			c0.476-0.477,1.248-0.477,1.724,0c0.477,0.476,0.477,1.247,0,1.723L61.441,78.644C61.204,78.882,60.893,79,60.58,79z"/>
	</g>
	<g>
		<path fill="#D44272" d="M70.764,68.817c-0.313,0-0.625-0.119-0.862-0.357L59.719,58.277c-0.477-0.476-0.477-1.247,0-1.724
			c0.475-0.476,1.248-0.476,1.723,0l10.184,10.184c0.477,0.476,0.477,1.247,0,1.723C71.387,68.698,71.075,68.817,70.764,68.817z"/>
	</g>
	<path fill="#D44272" d="M49,98C21.981,98,0,76.019,0,49S21.981,0,49,0s49,21.981,49,49S76.019,98,49,98z M49,1.463
		C22.788,1.463,1.462,22.788,1.462,49S22.788,96.537,49,96.537c26.213,0,47.537-21.325,47.537-47.537S75.213,1.463,49,1.463z"/>
	<path fill="#D44272" d="M7.942,34.63V31.9H19.46v2.729h-4.209v11.607h-3.12V34.63H7.942z"/>
	<path fill="#D44272" d="M21.25,46.237V31.9h3.119v14.337H21.25z"/>
	<path fill="#D44272" d="M26.929,41.219v-4.3c0-0.526,0.057-1.029,0.17-1.51c0.113-0.479,0.312-0.953,0.595-1.419
		c0.284-0.467,0.639-0.868,1.066-1.205c0.427-0.337,0.98-0.608,1.661-0.815c0.681-0.206,1.448-0.31,2.302-0.31
		c0.841,0,1.595,0.09,2.261,0.27c0.666,0.181,1.209,0.415,1.63,0.706c0.42,0.289,0.771,0.636,1.053,1.039s0.479,0.812,0.591,1.225
		s0.169,0.847,0.169,1.3v0.6h-3.049v-0.428c0-0.558-0.207-1.026-0.619-1.408c-0.413-0.382-1.091-0.573-2.036-0.573
		c-0.505,0-0.939,0.072-1.302,0.215c-0.362,0.144-0.639,0.34-0.829,0.59c-0.189,0.249-0.327,0.516-0.414,0.799
		c-0.087,0.282-0.13,0.594-0.13,0.934v4.295c0,0.339,0.043,0.65,0.13,0.934c0.086,0.283,0.224,0.549,0.414,0.799
		c0.19,0.25,0.466,0.446,0.829,0.589c0.363,0.144,0.797,0.215,1.302,0.215c0.493,0,0.918-0.057,1.277-0.17s0.635-0.27,0.829-0.47
		c0.193-0.2,0.333-0.415,0.419-0.645c0.086-0.23,0.13-0.479,0.13-0.745v-0.57h3.049v0.74c0,0.453-0.056,0.889-0.169,1.305
		c-0.113,0.417-0.31,0.828-0.591,1.234c-0.282,0.407-0.633,0.759-1.053,1.056c-0.421,0.297-0.964,0.536-1.63,0.72
		c-0.666,0.183-1.419,0.274-2.261,0.274c-0.854,0-1.621-0.104-2.302-0.31c-0.68-0.207-1.234-0.48-1.661-0.82
		c-0.427-0.34-0.782-0.743-1.066-1.209c-0.283-0.467-0.482-0.94-0.595-1.42C26.985,42.248,26.929,41.745,26.929,41.219z"/>
	<path fill="#D44272" d="M40.716,46.237V31.9h3.12v6.349l5.239-6.349h3.688l-5.059,6.028l5.139,8.309h-3.689l-3.579-5.799
		l-1.74,2.03v3.769H40.716z"/>
	<path fill="#D44272" d="M54.395,46.237V31.9h9.708v2.619h-6.589v3.08h6.059v2.52h-6.059v3.499h6.839v2.619H54.395z"/>
	<path fill="#D44272" d="M65.582,34.63V31.9H77.1v2.729h-4.209v11.607h-3.119V34.63H65.582z"/>
	<path fill="#D44272" d="M78.029,42.309v-0.29h3.09v0.234c0,1.144,0.908,1.715,2.725,1.715c1.717,0,2.574-0.611,2.574-1.835
		c0-0.433-0.143-0.775-0.43-1.029c-0.286-0.253-0.752-0.447-1.398-0.582l-2.852-0.569c-2.318-0.459-3.479-1.774-3.479-3.945
		c0-0.574,0.107-1.115,0.32-1.622c0.213-0.508,0.533-0.969,0.961-1.383c0.427-0.414,1-0.741,1.721-0.981s1.545-0.36,2.473-0.36
		c0.791,0,1.506,0.08,2.145,0.24c0.638,0.16,1.166,0.375,1.585,0.645c0.419,0.271,0.77,0.587,1.052,0.95
		c0.283,0.363,0.486,0.74,0.609,1.129c0.122,0.391,0.184,0.796,0.184,1.216v0.319h-3.08v-0.26c0-0.5-0.197-0.911-0.594-1.235
		c-0.396-0.322-1.056-0.484-1.98-0.484c-0.818,0-1.414,0.147-1.786,0.442c-0.372,0.294-0.559,0.673-0.559,1.135
		c0,0.429,0.128,0.754,0.386,0.975s0.655,0.386,1.191,0.492l2.867,0.576c0.4,0.08,0.773,0.184,1.123,0.311s0.696,0.297,1.039,0.512
		c0.342,0.214,0.633,0.461,0.873,0.741s0.435,0.625,0.584,1.032c0.15,0.408,0.225,0.855,0.225,1.344c0,0.537-0.06,1.035-0.18,1.495
		c-0.119,0.46-0.32,0.895-0.604,1.301c-0.282,0.408-0.638,0.752-1.066,1.033c-0.429,0.282-0.969,0.506-1.621,0.671
		c-0.65,0.165-1.393,0.248-2.223,0.248c-0.898,0-1.697-0.082-2.396-0.245s-1.264-0.378-1.693-0.645
		c-0.431-0.267-0.782-0.585-1.055-0.955c-0.273-0.369-0.464-0.744-0.57-1.124C78.082,43.138,78.029,42.735,78.029,42.309z"/>
</g>
<g>
	<g>
		<g>
			<path fill="#888888" d="M160.361,256.416h-44.626c-0.674,0-1.219-0.546-1.219-1.219s0.545-1.219,1.219-1.219h44.626
				c0.673,0,1.219,0.546,1.219,1.219S161.034,256.416,160.361,256.416z"/>
		</g>
		<g>
			<path fill="#888888" d="M150.178,266.599c-0.312,0-0.623-0.118-0.861-0.356c-0.477-0.477-0.477-1.248,0-1.724l10.183-10.183
				c0.477-0.477,1.248-0.477,1.724,0c0.477,0.476,0.477,1.247,0,1.723l-10.183,10.184
				C150.802,266.48,150.49,266.599,150.178,266.599z"/>
		</g>
		<g>
			<path fill="#888888" d="M160.361,256.416c-0.313,0-0.624-0.119-0.862-0.357l-10.183-10.183c-0.477-0.476-0.477-1.247,0-1.724
				c0.476-0.476,1.247-0.476,1.724,0l10.183,10.184c0.477,0.476,0.477,1.247,0,1.723
				C160.984,256.297,160.673,256.416,160.361,256.416z"/>
		</g>
	</g>
	<g>
		<path fill="#888888" d="M138.598,285.599c-27.019,0-49-21.981-49-49s21.981-49,49-49s49,21.981,49,49
			S165.616,285.599,138.598,285.599z M138.598,189.062c-26.212,0-47.537,21.325-47.537,47.537s21.325,47.537,47.537,47.537
			s47.537-21.325,47.537-47.537S164.81,189.062,138.598,189.062z"/>
	</g>
	<g>
		<path fill="#888888" d="M97.54,222.229v-2.729h11.518v2.729h-4.209v11.607h-3.12v-11.607H97.54z"/>
		<path fill="#888888" d="M110.848,233.836v-14.337h3.119v14.337H110.848z"/>
		<path fill="#888888" d="M116.526,228.817v-4.3c0-0.526,0.057-1.029,0.17-1.51c0.113-0.479,0.313-0.953,0.596-1.419
			c0.283-0.467,0.639-0.868,1.065-1.205c0.428-0.337,0.98-0.608,1.661-0.815c0.681-0.206,1.448-0.31,2.302-0.31
			c0.842,0,1.595,0.09,2.261,0.27c0.666,0.181,1.209,0.415,1.63,0.706c0.42,0.289,0.771,0.636,1.054,1.039
			c0.281,0.403,0.479,0.812,0.591,1.225s0.169,0.847,0.169,1.3v0.6h-3.049v-0.428c0-0.558-0.207-1.026-0.619-1.408
			s-1.092-0.573-2.036-0.573c-0.506,0-0.939,0.072-1.303,0.215c-0.362,0.144-0.638,0.34-0.828,0.59
			c-0.189,0.249-0.327,0.516-0.414,0.799c-0.086,0.282-0.13,0.594-0.13,0.934v4.295c0,0.339,0.044,0.65,0.13,0.934
			c0.087,0.283,0.225,0.549,0.414,0.799c0.19,0.25,0.466,0.446,0.828,0.589c0.363,0.144,0.797,0.215,1.303,0.215
			c0.492,0,0.918-0.057,1.277-0.17s0.636-0.27,0.828-0.47c0.193-0.2,0.333-0.415,0.42-0.645c0.086-0.23,0.13-0.479,0.13-0.745v-0.57
			h3.049v0.74c0,0.453-0.057,0.889-0.169,1.305c-0.112,0.417-0.31,0.828-0.591,1.234c-0.282,0.407-0.634,0.759-1.054,1.056
			c-0.421,0.297-0.964,0.536-1.63,0.72c-0.666,0.183-1.419,0.274-2.261,0.274c-0.854,0-1.621-0.104-2.302-0.31
			c-0.681-0.207-1.233-0.48-1.661-0.82c-0.427-0.34-0.782-0.743-1.065-1.209c-0.283-0.467-0.482-0.94-0.596-1.42
			C116.583,229.847,116.526,229.344,116.526,228.817z"/>
		<path fill="#888888" d="M130.314,233.836v-14.337h3.119v6.349l5.239-6.349h3.688l-5.059,6.028l5.139,8.309h-3.688l-3.579-5.799
			l-1.74,2.03v3.769H130.314z"/>
		<path fill="#888888" d="M143.992,233.836v-14.337h9.708v2.619h-6.589v3.08h6.059v2.52h-6.059v3.499h6.839v2.619H143.992z"/>
		<path fill="#888888" d="M155.18,222.229v-2.729h11.518v2.729h-4.209v11.607h-3.119v-11.607H155.18z"/>
		<path fill="#888888" d="M167.627,229.907v-0.29h3.09v0.234c0,1.144,0.908,1.715,2.725,1.715c1.717,0,2.574-0.611,2.574-1.835
			c0-0.433-0.143-0.775-0.43-1.029c-0.286-0.253-0.752-0.447-1.397-0.582l-2.853-0.569c-2.318-0.459-3.479-1.774-3.479-3.945
			c0-0.574,0.106-1.115,0.32-1.622c0.214-0.508,0.533-0.969,0.961-1.383c0.427-0.414,1.001-0.741,1.721-0.981
			c0.721-0.24,1.545-0.36,2.473-0.36c0.791,0,1.506,0.08,2.144,0.24c0.639,0.16,1.167,0.375,1.586,0.645
			c0.419,0.271,0.77,0.587,1.052,0.95c0.283,0.363,0.486,0.74,0.608,1.129c0.123,0.391,0.186,0.796,0.186,1.216v0.319h-3.081v-0.26
			c0-0.5-0.198-0.911-0.594-1.235c-0.396-0.322-1.056-0.484-1.98-0.484c-0.818,0-1.413,0.147-1.786,0.442
			c-0.373,0.294-0.559,0.673-0.559,1.135c0,0.429,0.129,0.754,0.387,0.975s0.654,0.386,1.19,0.492l2.868,0.576
			c0.398,0.08,0.772,0.184,1.122,0.311s0.696,0.297,1.039,0.512c0.343,0.214,0.633,0.461,0.873,0.741
			c0.239,0.28,0.435,0.625,0.584,1.032c0.149,0.408,0.225,0.855,0.225,1.344c0,0.537-0.06,1.035-0.179,1.495
			c-0.12,0.46-0.321,0.895-0.604,1.301c-0.282,0.408-0.638,0.752-1.066,1.033c-0.429,0.282-0.969,0.506-1.62,0.671
			c-0.652,0.165-1.394,0.248-2.225,0.248c-0.897,0-1.696-0.082-2.396-0.245s-1.264-0.378-1.694-0.645
			c-0.43-0.267-0.781-0.585-1.055-0.955c-0.273-0.369-0.463-0.744-0.569-1.124C167.681,230.736,167.627,230.334,167.627,229.907z"/>
	</g>
</g>
</svg>
