<?xml version="1.0" encoding="utf-8"?>
<!-- Generator: Adobe Illustrator 16.0.0, SVG Export Plug-In . SVG Version: 6.00 Build 0)  -->
<!DOCTYPE svg PUBLIC "-//W3C//DTD SVG 1.1//EN" "http://www.w3.org/Graphics/SVG/1.1/DTD/svg11.dtd">
<svg version="1.1" id="Layer_1" xmlns="http://www.w3.org/2000/svg" xmlns:xlink="http://www.w3.org/1999/xlink" x="0px" y="0px"
	 width="98px" height="98px" viewBox="0 0 98 98" enable-background="new 0 0 98 98" xml:space="preserve">
<g>
	<g>
		<path fill="#D44272" d="M-40.36,247.247h-91.534c-1.381,0-2.5-1.119-2.5-2.5s1.119-2.5,2.5-2.5h91.534c1.381,0,2.5,1.119,2.5,2.5
			S-38.979,247.247-40.36,247.247z"/>
	</g>
	<g>
		<path fill="#D44272" d="M-61.248,268.134c-0.64,0-1.28-0.244-1.768-0.732c-0.977-0.977-0.977-2.559,0-3.535l20.887-20.887
			c0.976-0.977,2.56-0.977,3.535,0c0.977,0.977,0.977,2.559,0,3.535l-20.887,20.887C-59.968,267.89-60.608,268.134-61.248,268.134z"
			/>
	</g>
	<g>
		<path fill="#D44272" d="M-40.36,247.247c-0.64,0-1.28-0.244-1.768-0.732l-20.887-20.887c-0.977-0.977-0.977-2.559,0-3.535
			c0.976-0.977,2.56-0.977,3.535,0l20.887,20.887c0.977,0.977,0.977,2.559,0,3.535C-39.081,247.003-39.721,247.247-40.36,247.247z"
			/>
	</g>
</g>
<g>
	<path fill="#D44272" d="M-85,307.104c-55.419,0-100.506-45.087-100.506-100.506S-140.419,106.093-85,106.093
		S15.506,151.18,15.506,206.599S-29.581,307.104-85,307.104z M-85,109.093c-53.765,0-97.506,43.741-97.506,97.506
		s43.741,97.506,97.506,97.506s97.506-43.741,97.506-97.506S-31.235,109.093-85,109.093z"/>
</g>
<g>
	<path fill="#D44272" d="M-169.215,177.123v-5.599h23.625v5.599h-8.634v23.81h-6.398v-23.81H-169.215z"/>
	<path fill="#D44272" d="M-141.919,200.933v-29.408h6.398v29.408H-141.919z"/>
	<path fill="#D44272" d="M-130.271,190.638v-8.818c0-1.08,0.116-2.112,0.349-3.097c0.232-0.984,0.64-1.955,1.221-2.912
		s1.31-1.78,2.186-2.472c0.875-0.689,2.011-1.247,3.407-1.671c1.396-0.424,2.97-0.636,4.721-0.636c1.726,0,3.271,0.185,4.637,0.554
		s2.479,0.851,3.343,1.446c0.862,0.594,1.583,1.306,2.16,2.133s0.982,1.664,1.213,2.512s0.347,1.736,0.347,2.666v1.23h-6.255v-0.878
		c0-1.144-0.423-2.106-1.269-2.89c-0.846-0.783-2.238-1.175-4.176-1.175c-1.037,0-1.928,0.147-2.671,0.44
		c-0.744,0.294-1.31,0.697-1.699,1.209c-0.389,0.512-0.672,1.059-0.849,1.639c-0.178,0.58-0.266,1.219-0.266,1.915v8.81
		c0,0.696,0.088,1.335,0.266,1.915c0.177,0.581,0.46,1.127,0.849,1.639c0.389,0.513,0.956,0.916,1.699,1.209
		c0.744,0.294,1.634,0.44,2.671,0.44c1.01,0,1.883-0.116,2.62-0.349c0.737-0.232,1.303-0.554,1.699-0.964
		c0.396-0.41,0.682-0.852,0.86-1.322c0.177-0.473,0.266-0.981,0.266-1.528v-1.169h6.255v1.518c0,0.93-0.116,1.822-0.347,2.676
		c-0.231,0.855-0.635,1.699-1.213,2.533s-1.298,1.556-2.16,2.164c-0.863,0.608-1.977,1.101-3.343,1.477
		c-1.366,0.375-2.912,0.563-4.637,0.563c-1.751,0-3.325-0.212-4.721-0.636c-1.396-0.424-2.531-0.984-3.407-1.682
		c-0.876-0.697-1.604-1.524-2.186-2.481s-0.989-1.928-1.221-2.912C-130.155,192.75-130.271,191.718-130.271,190.638z"/>
	<path fill="#D44272" d="M-101.991,200.933v-29.408h6.398v13.022l10.746-13.022h7.567l-10.377,12.366l10.541,17.042h-7.567
		l-7.342-11.895l-3.568,4.163v7.731H-101.991z"/>
	<path fill="#D44272" d="M-73.936,200.933v-29.408h19.913v5.373h-13.515v6.316h12.428v5.168h-12.428v7.178h14.027v5.373H-73.936z"/>
	<path fill="#D44272" d="M-50.988,177.123v-5.599h23.625v5.599h-8.634v23.81h-6.398v-23.81H-50.988z"/>
	<path fill="#D44272" d="M-25.457,192.873v-0.595h6.337v0.481c0,2.345,1.863,3.518,5.59,3.518c3.521,0,5.281-1.255,5.281-3.764
		c0-0.888-0.294-1.592-0.881-2.111s-1.543-0.918-2.868-1.195l-5.85-1.166c-4.757-0.942-7.135-3.641-7.135-8.093
		c0-1.178,0.219-2.287,0.657-3.328s1.095-1.986,1.971-2.835c0.876-0.85,2.053-1.521,3.531-2.014c1.478-0.492,3.168-0.739,5.07-0.739
		c1.623,0,3.088,0.164,4.398,0.492c1.309,0.328,2.393,0.77,3.252,1.322c0.859,0.555,1.578,1.204,2.158,1.949
		s0.996,1.518,1.248,2.316c0.252,0.801,0.378,1.631,0.378,2.492v0.656h-6.318v-0.533c0-1.025-0.406-1.869-1.218-2.533
		c-0.812-0.662-2.166-0.994-4.063-0.994c-1.678,0-2.899,0.303-3.664,0.907c-0.764,0.604-1.146,1.38-1.146,2.328
		c0,0.879,0.264,1.546,0.793,1.999s1.343,0.79,2.441,1.01l5.883,1.181c0.819,0.164,1.587,0.377,2.304,0.638
		c0.716,0.26,1.427,0.609,2.13,1.049c0.703,0.438,1.3,0.945,1.792,1.521c0.491,0.575,0.891,1.281,1.198,2.117
		c0.307,0.837,0.461,1.755,0.461,2.756c0,1.101-0.123,2.122-0.368,3.066s-0.658,1.834-1.237,2.669
		c-0.58,0.836-1.31,1.542-2.189,2.119c-0.879,0.578-1.987,1.036-3.324,1.376c-1.336,0.339-2.857,0.509-4.562,0.509
		c-1.843,0-3.481-0.168-4.915-0.503c-1.434-0.334-2.592-0.775-3.474-1.322s-1.603-1.199-2.164-1.959
		c-0.561-0.758-0.95-1.527-1.169-2.307S-25.457,193.748-25.457,192.873z"/>
</g>
<g>
	<g>
		<g>
			<path fill="#888888" d="M70.764,68.817H26.138c-0.674,0-1.219-0.546-1.219-1.219s0.545-1.219,1.219-1.219h44.626
				c0.673,0,1.219,0.546,1.219,1.219S71.437,68.817,70.764,68.817z"/>
		</g>
		<g>
			<path fill="#888888" d="M60.58,79c-0.312,0-0.623-0.118-0.861-0.356c-0.477-0.477-0.477-1.248,0-1.724l10.183-10.183
				c0.477-0.477,1.248-0.477,1.724,0c0.477,0.476,0.477,1.247,0,1.723L61.442,78.644C61.204,78.882,60.893,79,60.58,79z"/>
		</g>
		<g>
			<path fill="#888888" d="M70.764,68.817c-0.313,0-0.624-0.119-0.862-0.357L59.719,58.277c-0.477-0.476-0.477-1.247,0-1.724
				c0.476-0.476,1.247-0.476,1.724,0l10.183,10.184c0.477,0.476,0.477,1.247,0,1.723C71.387,68.698,71.075,68.817,70.764,68.817z"/>
		</g>
	</g>
	<g>
		<path fill="#888888" d="M49,98C21.981,98,0,76.019,0,49S21.981,0,49,0s49,21.981,49,49S76.019,98,49,98z M49,1.463
			C22.788,1.463,1.463,22.788,1.463,49S22.788,96.537,49,96.537S96.537,75.212,96.537,49S75.212,1.463,49,1.463z"/>
	</g>
	<g>
		<path fill="#888888" d="M7.942,34.63V31.9H19.46v2.729h-4.209v11.607h-3.12V34.63H7.942z"/>
		<path fill="#888888" d="M21.25,46.237V31.9h3.119v14.337H21.25z"/>
		<path fill="#888888" d="M26.929,41.219v-4.3c0-0.526,0.057-1.029,0.17-1.51c0.113-0.479,0.313-0.953,0.596-1.419
			c0.283-0.467,0.639-0.868,1.065-1.205c0.428-0.337,0.98-0.608,1.661-0.815c0.681-0.206,1.448-0.31,2.302-0.31
			c0.842,0,1.595,0.09,2.261,0.27c0.666,0.181,1.209,0.415,1.63,0.706c0.42,0.289,0.771,0.636,1.054,1.039
			c0.281,0.403,0.479,0.812,0.591,1.225s0.169,0.847,0.169,1.3v0.6h-3.049v-0.428c0-0.558-0.207-1.026-0.619-1.408
			s-1.092-0.573-2.036-0.573c-0.506,0-0.939,0.072-1.303,0.215c-0.362,0.144-0.638,0.34-0.828,0.59
			c-0.189,0.249-0.327,0.516-0.414,0.799c-0.086,0.282-0.13,0.594-0.13,0.934v4.295c0,0.339,0.044,0.65,0.13,0.934
			c0.087,0.283,0.225,0.549,0.414,0.799c0.19,0.25,0.466,0.446,0.828,0.589c0.363,0.144,0.797,0.215,1.303,0.215
			c0.492,0,0.918-0.057,1.277-0.17s0.636-0.27,0.828-0.47c0.193-0.2,0.333-0.415,0.42-0.645c0.086-0.23,0.13-0.479,0.13-0.745v-0.57
			h3.049v0.74c0,0.453-0.057,0.889-0.169,1.305c-0.112,0.417-0.31,0.828-0.591,1.234c-0.282,0.407-0.634,0.759-1.054,1.056
			c-0.421,0.297-0.964,0.536-1.63,0.72c-0.666,0.183-1.419,0.274-2.261,0.274c-0.854,0-1.621-0.104-2.302-0.31
			c-0.681-0.207-1.233-0.48-1.661-0.82c-0.427-0.34-0.782-0.743-1.065-1.209c-0.283-0.467-0.482-0.94-0.596-1.42
			C26.985,42.248,26.929,41.745,26.929,41.219z"/>
		<path fill="#888888" d="M40.717,46.237V31.9h3.119v6.349l5.239-6.349h3.688l-5.059,6.028l5.139,8.309h-3.688l-3.579-5.799
			l-1.74,2.03v3.769H40.717z"/>
		<path fill="#888888" d="M54.395,46.237V31.9h9.708v2.619h-6.589v3.08h6.059v2.52h-6.059v3.499h6.839v2.619H54.395z"/>
		<path fill="#888888" d="M65.582,34.63V31.9H77.1v2.729h-4.209v11.607h-3.119V34.63H65.582z"/>
		<path fill="#888888" d="M78.029,42.309v-0.29h3.09v0.234c0,1.144,0.908,1.715,2.725,1.715c1.717,0,2.574-0.611,2.574-1.835
			c0-0.433-0.143-0.775-0.43-1.029c-0.286-0.253-0.752-0.447-1.397-0.582l-2.853-0.569c-2.318-0.459-3.479-1.774-3.479-3.945
			c0-0.574,0.106-1.115,0.32-1.622c0.214-0.508,0.533-0.969,0.961-1.383c0.427-0.414,1.001-0.741,1.721-0.981
			c0.721-0.24,1.545-0.36,2.473-0.36c0.791,0,1.506,0.08,2.144,0.24c0.639,0.16,1.167,0.375,1.586,0.645
			c0.419,0.271,0.77,0.587,1.052,0.95c0.283,0.363,0.486,0.74,0.608,1.129c0.123,0.391,0.186,0.796,0.186,1.216v0.319h-3.081v-0.26
			c0-0.5-0.198-0.911-0.594-1.235c-0.396-0.322-1.056-0.484-1.98-0.484c-0.818,0-1.413,0.147-1.786,0.442
			c-0.373,0.294-0.559,0.673-0.559,1.135c0,0.429,0.129,0.754,0.387,0.975s0.654,0.386,1.19,0.492l2.868,0.576
			c0.398,0.08,0.772,0.184,1.122,0.311s0.696,0.297,1.039,0.512c0.343,0.214,0.633,0.461,0.873,0.741
			c0.239,0.28,0.435,0.625,0.584,1.032c0.149,0.408,0.225,0.855,0.225,1.344c0,0.537-0.06,1.035-0.179,1.495
			c-0.12,0.46-0.321,0.895-0.604,1.301c-0.282,0.408-0.638,0.752-1.066,1.033c-0.429,0.282-0.969,0.506-1.62,0.671
			c-0.652,0.165-1.394,0.248-2.225,0.248c-0.897,0-1.696-0.082-2.396-0.245s-1.264-0.378-1.694-0.645
			c-0.43-0.267-0.781-0.585-1.055-0.955c-0.273-0.369-0.463-0.744-0.569-1.124C78.083,43.138,78.029,42.735,78.029,42.309z"/>
	</g>
</g>
</svg>
